M48
; DRILL file {KiCad 6.0.2-378541a8eb~116~ubuntu20.04.1} date Tue 08 Mar 2022 03:29:24 PM EST
; FORMAT={-:-/ absolute / metric / decimal}
; #@! TF.CreationDate,2022-03-08T15:29:24-05:00
; #@! TF.GenerationSoftware,Kicad,Pcbnew,6.0.2-378541a8eb~116~ubuntu20.04.1
; #@! TF.FileFunction,Plated,1,2,PTH
FMAT,2
METRIC
; #@! TA.AperFunction,Plated,PTH,ViaDrill
T1C0.500
; #@! TA.AperFunction,Plated,PTH,ComponentDrill
T2C0.800
; #@! TA.AperFunction,Plated,PTH,ComponentDrill
T3C0.900
; #@! TA.AperFunction,Plated,PTH,ComponentDrill
T4C1.000
; #@! TA.AperFunction,Plated,PTH,ComponentDrill
T5C1.100
; #@! TA.AperFunction,Plated,PTH,ViaDrill
T6C1.200
; #@! TA.AperFunction,Plated,PTH,ComponentDrill
T7C1.200
; #@! TA.AperFunction,Plated,PTH,ComponentDrill
T8C1.400
; #@! TA.AperFunction,Plated,PTH,ComponentDrill
T9C1.500
; #@! TA.AperFunction,Plated,PTH,ComponentDrill
T10C1.600
; #@! TA.AperFunction,Plated,PTH,ComponentDrill
T11C2.670
; #@! TA.AperFunction,Plated,PTH,ComponentDrill
T12C3.700
%
G90
G05
T1
X96.6Y-81.2
X96.6Y-88.1
X112.1Y-153.6
X136.1Y-83.6
X148.85Y-138.7
X161.1Y-148.7
X163.6Y-118.2
X164.0Y-114.3
X165.7Y-148.7
X170.0Y-102.8
X170.2Y-128.6
X183.1Y-124.7
X186.2Y-120.5
X187.5Y-96.1
X188.3Y-126.6
X188.6Y-82.4
X188.8Y-80.4
X188.8Y-84.3
X190.4Y-147.0
X192.8Y-82.3
X192.9Y-80.4
X199.3Y-87.9
X202.6Y-88.8
X203.2Y-105.0
X203.6Y-97.3
X205.2Y-85.8
X206.4Y-97.3
X207.2Y-103.7
X207.6Y-96.2
X208.0Y-150.4
X208.1Y-101.0
X209.7Y-134.4
X210.1Y-101.0
X210.2Y-98.8
X211.7Y-148.5
X212.0Y-115.0
X212.0Y-121.4
X213.3Y-91.2
X218.1Y-134.3
X221.1Y-90.6
X221.5Y-121.0
X222.5Y-84.7
X223.4Y-116.6
X224.9Y-113.4
X224.9Y-119.1
X225.9Y-95.0
X230.6Y-113.3
X232.0Y-125.8
X233.8Y-111.8
X234.7Y-53.1
X234.7Y-58.7
X234.7Y-65.7
X235.7Y-112.9
X235.7Y-119.9
X240.3Y-114.3
X249.7Y-122.0
T2
X73.1Y-68.1
X74.2Y-53.74
X74.2Y-63.9
X77.4Y-53.74
X77.4Y-63.9
X77.99Y-120.9
X80.6Y-53.72
X80.6Y-63.88
X80.6Y-68.1
X84.1Y-74.5
X85.61Y-120.9
X86.6Y-74.5
X86.64Y-51.547
X86.64Y-54.847
X92.2Y-62.02
X92.2Y-72.18
X95.4Y-62.02
X95.4Y-72.18
X96.8Y-51.547
X96.8Y-54.847
X97.39Y-120.8
X98.645Y-62.02
X98.645Y-72.18
X99.3Y-111.02
X99.3Y-113.56
X99.3Y-116.1
X100.3Y-51.547
X100.3Y-59.047
X103.4Y-113.6
X103.4Y-116.8
X103.645Y-84.18
X105.01Y-120.8
X106.145Y-84.18
X107.1Y-61.0
X107.5Y-47.6
X107.5Y-50.1
X109.6Y-61.0
X109.645Y-72.18
X109.645Y-79.68
X111.8Y-128.34
X111.8Y-138.5
X112.5Y-124.3
X113.56Y-113.6
X113.56Y-116.8
X114.66Y-69.06
X115.04Y-124.3
X115.1Y-128.34
X115.1Y-138.5
X117.2Y-62.2
X117.2Y-69.06
X117.2Y-75.66
X117.58Y-124.3
X119.7Y-80.3
X119.7Y-90.46
X119.74Y-69.06
X119.74Y-75.66
X122.22Y-132.4
X122.22Y-143.2
X122.28Y-75.66
X124.76Y-136.0
X124.76Y-146.7
X125.46Y-83.32
X125.46Y-85.86
X125.46Y-88.4
X127.36Y-62.2
X129.4Y-70.6
X129.4Y-73.14
X129.4Y-75.68
X129.4Y-78.22
X129.88Y-128.6
X129.88Y-139.7
X132.2Y-83.32
X132.2Y-85.86
X132.2Y-88.4
X132.38Y-128.6
X132.38Y-132.4
X132.38Y-136.0
X132.38Y-139.7
X132.38Y-143.2
X132.38Y-146.7
X134.5Y-66.9
X135.68Y-130.82
X135.68Y-133.36
X135.68Y-135.9
X135.68Y-138.44
X135.68Y-140.98
X135.68Y-143.52
X135.68Y-146.06
X137.0Y-66.9
X137.02Y-70.6
X137.02Y-73.14
X137.02Y-75.68
X137.02Y-78.22
X140.2Y-78.2
X140.2Y-88.36
X140.83Y-127.345
X141.8Y-70.56
X141.8Y-73.1
X141.8Y-75.64
X143.3Y-130.82
X143.3Y-133.36
X143.3Y-135.9
X143.3Y-138.44
X143.3Y-140.98
X143.3Y-143.52
X143.3Y-146.06
X143.33Y-127.345
X143.8Y-78.2
X143.8Y-88.36
X148.26Y-70.56
X148.26Y-73.1
X148.26Y-75.64
X150.84Y-101.5
X150.84Y-104.6
X152.34Y-138.1
X154.94Y-125.2
X161.0Y-101.5
X161.0Y-104.6
X161.64Y-117.1
X162.5Y-138.1
X164.18Y-96.385
X164.18Y-98.925
X164.18Y-101.465
X164.18Y-104.005
X164.18Y-106.545
X164.18Y-109.085
X164.18Y-111.625
X165.1Y-125.2
X171.8Y-96.385
X171.8Y-98.925
X171.8Y-101.465
X171.8Y-104.005
X171.8Y-106.545
X171.8Y-109.085
X171.8Y-111.625
X171.8Y-117.1
X175.36Y-97.8
X175.4Y-100.9
X175.4Y-107.1
X175.4Y-110.2
X175.4Y-113.3
X175.48Y-94.7
X175.74Y-116.4
X176.5Y-104.0
X176.82Y-151.4
X176.82Y-154.7
X176.9Y-138.3
X176.92Y-128.54
X176.92Y-131.74
X176.92Y-141.5
X176.92Y-144.8
X176.92Y-148.1
X178.1Y-87.6
X179.0Y-104.0
X180.4Y-110.2
X180.4Y-113.3
X180.6Y-87.6
X185.52Y-97.8
X185.56Y-100.9
X185.56Y-107.1
X185.64Y-92.1
X185.64Y-94.7
X185.78Y-135.04
X185.9Y-116.4
X186.98Y-151.4
X186.98Y-154.7
X187.06Y-138.3
X187.08Y-128.54
X187.08Y-131.74
X187.08Y-141.5
X187.08Y-144.8
X187.08Y-148.1
X188.28Y-135.04
X190.68Y-99.4
X190.7Y-87.55
X190.7Y-102.6
X190.72Y-82.3
X191.4Y-149.6
X191.4Y-152.9
X191.48Y-129.98
X191.48Y-132.52
X191.48Y-135.06
X191.48Y-137.6
X191.48Y-140.14
X191.48Y-142.68
X191.48Y-145.22
X193.24Y-87.55
X195.78Y-87.55
X195.8Y-92.1
X196.7Y-115.0
X196.7Y-125.16
X199.1Y-129.98
X199.1Y-132.52
X199.1Y-135.06
X199.1Y-137.6
X199.1Y-140.14
X199.1Y-142.68
X199.1Y-145.22
X200.1Y-115.02
X200.1Y-125.18
X200.84Y-99.4
X200.86Y-102.6
X200.88Y-82.3
X201.56Y-149.6
X201.56Y-152.9
X203.3Y-132.5
X203.3Y-135.7
X203.3Y-138.9
X203.3Y-145.3
X203.32Y-142.1
X204.0Y-154.4
X205.16Y-104.06
X205.16Y-106.6
X205.16Y-109.14
X205.2Y-111.82
X205.2Y-121.98
X207.92Y-148.5
X211.8Y-87.4
X211.8Y-97.56
X213.46Y-132.5
X213.46Y-135.7
X213.46Y-138.9
X213.46Y-145.3
X213.48Y-142.1
X214.16Y-154.4
X214.9Y-87.38
X214.9Y-97.54
X215.1Y-113.46
X215.1Y-123.62
X215.78Y-101.76
X215.78Y-109.38
X218.0Y-87.4
X218.0Y-97.56
X218.08Y-148.5
X218.3Y-113.46
X218.3Y-123.62
X218.32Y-101.76
X218.32Y-109.38
X219.74Y-136.9
X219.74Y-143.8
X220.86Y-101.76
X220.86Y-109.38
X221.1Y-87.4
X221.1Y-97.56
X221.1Y-152.7
X221.1Y-155.2
X221.5Y-113.46
X221.5Y-123.62
X223.4Y-101.76
X223.4Y-109.38
X224.2Y-87.4
X224.2Y-97.56
X226.36Y-121.02
X226.9Y-106.86
X226.9Y-109.36
X227.3Y-87.4
X227.3Y-97.56
X228.9Y-123.56
X229.9Y-136.9
X229.9Y-143.8
X231.44Y-121.02
X233.9Y-134.4
X233.9Y-136.94
X233.9Y-139.48
X236.48Y-83.0
X236.48Y-93.16
X238.0Y-102.1
X238.0Y-105.3
X238.0Y-108.5
X238.0Y-126.3
X238.02Y-111.8
X238.34Y-131.2
X238.34Y-134.4
X238.4Y-147.8
X238.42Y-139.3
X238.44Y-142.5
X239.4Y-83.0
X239.98Y-86.88
X239.98Y-89.42
X239.98Y-91.96
X239.98Y-94.5
X240.0Y-98.2
X240.94Y-147.8
X242.5Y-98.2
X243.48Y-147.8
X245.0Y-62.24
X245.0Y-72.4
X245.84Y-54.9
X247.6Y-86.88
X247.6Y-89.42
X247.6Y-91.96
X247.6Y-94.5
X248.16Y-102.1
X248.16Y-105.3
X248.16Y-108.5
X248.16Y-126.3
X248.18Y-111.8
X248.3Y-62.24
X248.3Y-72.4
X248.3Y-75.44
X248.3Y-77.94
X248.5Y-131.2
X248.5Y-134.4
X248.58Y-139.3
X248.6Y-142.5
X249.56Y-83.0
X256.0Y-54.9
T3
X162.535Y-144.1
X162.56Y-131.8
X165.075Y-144.1
X165.1Y-131.8
X232.635Y-147.8
X234.0Y-128.835
X234.0Y-131.375
X235.175Y-147.8
T4
X115.8Y-47.3
X118.34Y-47.3
X256.0Y-59.0
X256.0Y-61.54
X256.0Y-64.08
X256.0Y-66.62
X256.0Y-69.16
X256.0Y-71.7
X256.0Y-74.24
X256.0Y-76.78
X256.0Y-79.32
X256.0Y-81.86
X256.0Y-88.0
X256.0Y-90.54
X256.0Y-93.08
X256.0Y-99.0
X256.0Y-101.54
X256.0Y-104.08
X256.0Y-110.0
X256.0Y-112.54
X256.0Y-115.08
X256.0Y-121.0
X256.0Y-123.54
X256.0Y-126.08
X256.0Y-132.0
X256.0Y-134.54
X256.0Y-140.0
X256.0Y-142.54
T5
X84.1Y-61.36
X84.1Y-63.9
X84.1Y-66.44
X94.26Y-47.645
X96.8Y-47.645
X99.34Y-47.645
X103.6Y-69.64
X103.6Y-72.18
X103.6Y-74.72
X125.4Y-65.54
X125.4Y-75.7
X151.44Y-114.4
X161.6Y-114.4
X190.72Y-77.948
X200.88Y-77.948
T6
X186.1Y-72.9
T7
X67.8Y-79.5
X67.8Y-96.9
X75.3Y-79.5
X75.3Y-96.9
X84.1Y-88.8
X84.1Y-105.9
X91.6Y-88.8
X91.6Y-105.9
T8
X66.778Y-135.19
X66.778Y-142.81
T9
X78.0Y-126.0
X78.0Y-141.0
X78.0Y-146.0
X78.0Y-151.0
X85.5Y-126.0
X85.5Y-141.0
X85.5Y-146.0
X85.5Y-151.0
X97.312Y-125.962
X97.312Y-140.963
X97.312Y-145.963
X97.312Y-150.963
X104.812Y-125.962
X104.812Y-140.963
X104.812Y-145.963
X104.812Y-150.963
X190.02Y-66.8
X195.47Y-66.8
X200.92Y-66.8
X240.7Y-44.7
X240.7Y-60.0
T10
X67.8Y-109.66
X67.8Y-114.74
X67.8Y-119.82
X67.8Y-124.9
T11
X160.0Y-61.5
X230.94Y-61.5
T12
X65.0Y-45.0
X65.0Y-155.0
X150.0Y-45.0
X150.0Y-155.0
X255.0Y-45.0
X255.0Y-155.0
T0
M30
