%TF.GenerationSoftware,KiCad,Pcbnew,6.0.2-378541a8eb~116~ubuntu20.04.1*%
%TF.CreationDate,2022-03-08T15:28:56-05:00*%
%TF.ProjectId,Linear_Lab_Bench_PSU,4c696e65-6172-45f4-9c61-625f42656e63,rev?*%
%TF.SameCoordinates,Original*%
%TF.FileFunction,Soldermask,Bot*%
%TF.FilePolarity,Negative*%
%FSLAX46Y46*%
G04 Gerber Fmt 4.6, Leading zero omitted, Abs format (unit mm)*
G04 Created by KiCad (PCBNEW 6.0.2-378541a8eb~116~ubuntu20.04.1) date 2022-03-08 15:28:56*
%MOMM*%
%LPD*%
G01*
G04 APERTURE LIST*
G04 Aperture macros list*
%AMRoundRect*
0 Rectangle with rounded corners*
0 $1 Rounding radius*
0 $2 $3 $4 $5 $6 $7 $8 $9 X,Y pos of 4 corners*
0 Add a 4 corners polygon primitive as box body*
4,1,4,$2,$3,$4,$5,$6,$7,$8,$9,$2,$3,0*
0 Add four circle primitives for the rounded corners*
1,1,$1+$1,$2,$3*
1,1,$1+$1,$4,$5*
1,1,$1+$1,$6,$7*
1,1,$1+$1,$8,$9*
0 Add four rect primitives between the rounded corners*
20,1,$1+$1,$2,$3,$4,$5,0*
20,1,$1+$1,$4,$5,$6,$7,0*
20,1,$1+$1,$6,$7,$8,$9,0*
20,1,$1+$1,$8,$9,$2,$3,0*%
G04 Aperture macros list end*
%ADD10R,1.800000X1.800000*%
%ADD11C,1.800000*%
%ADD12C,1.600000*%
%ADD13O,1.600000X1.600000*%
%ADD14R,1.700000X1.700000*%
%ADD15O,1.700000X1.700000*%
%ADD16R,1.600000X1.600000*%
%ADD17R,1.500000X1.500000*%
%ADD18C,1.500000*%
%ADD19R,2.400000X2.400000*%
%ADD20C,2.400000*%
%ADD21C,7.400000*%
%ADD22R,2.500000X4.500000*%
%ADD23O,2.500000X4.500000*%
%ADD24R,3.200000X3.200000*%
%ADD25C,3.200000*%
%ADD26C,3.000000*%
%ADD27O,3.000000X3.000000*%
%ADD28R,2.000000X1.905000*%
%ADD29O,2.000000X1.905000*%
%ADD30R,2.200000X2.200000*%
%ADD31O,2.200000X2.200000*%
%ADD32RoundRect,0.250001X-1.549999X0.799999X-1.549999X-0.799999X1.549999X-0.799999X1.549999X0.799999X0*%
%ADD33O,3.600000X2.100000*%
%ADD34R,2.500000X2.500000*%
%ADD35O,2.500000X2.500000*%
%ADD36C,1.440000*%
%ADD37R,1.905000X2.000000*%
%ADD38O,1.905000X2.000000*%
%ADD39C,5.000000*%
G04 APERTURE END LIST*
D10*
%TO.C,D9*%
X162560000Y-131800000D03*
D11*
X165100000Y-131800000D03*
%TD*%
D12*
%TO.C,R63*%
X191400000Y-149600000D03*
D13*
X201560000Y-149600000D03*
%TD*%
D14*
%TO.C,J3*%
X256000000Y-88000000D03*
D15*
X256000000Y-90540000D03*
X256000000Y-93080000D03*
%TD*%
D16*
%TO.C,C25*%
X109600000Y-61000000D03*
D12*
X107100000Y-61000000D03*
%TD*%
%TO.C,R12*%
X77400000Y-53740000D03*
D13*
X77400000Y-63900000D03*
%TD*%
D17*
%TO.C,Q11*%
X195780000Y-87550000D03*
D18*
X193240000Y-87550000D03*
X190700000Y-87550000D03*
%TD*%
D14*
%TO.C,J2*%
X256000000Y-59000000D03*
D15*
X256000000Y-61540000D03*
X256000000Y-64080000D03*
X256000000Y-66620000D03*
X256000000Y-69160000D03*
X256000000Y-71700000D03*
X256000000Y-74240000D03*
X256000000Y-76780000D03*
X256000000Y-79320000D03*
X256000000Y-81860000D03*
%TD*%
D12*
%TO.C,R40*%
X200100000Y-125180000D03*
D13*
X200100000Y-115020000D03*
%TD*%
D12*
%TO.C,C24*%
X109645000Y-72180000D03*
D13*
X109645000Y-79680000D03*
%TD*%
D12*
%TO.C,R14*%
X96800000Y-51547349D03*
D13*
X86640000Y-51547349D03*
%TD*%
D19*
%TO.C,C5*%
X84100000Y-105900000D03*
D20*
X91600000Y-105900000D03*
%TD*%
D12*
%TO.C,C22*%
X188280000Y-135040000D03*
X185780000Y-135040000D03*
%TD*%
D17*
%TO.C,Q7*%
X117580000Y-124300000D03*
D18*
X115040000Y-124300000D03*
X112500000Y-124300000D03*
%TD*%
D12*
%TO.C,R6*%
X143800000Y-78200000D03*
D13*
X143800000Y-88360000D03*
%TD*%
D12*
%TO.C,R25*%
X175400000Y-100900000D03*
D13*
X185560000Y-100900000D03*
%TD*%
D17*
%TO.C,Q4*%
X99300000Y-111020000D03*
D18*
X99300000Y-113560000D03*
X99300000Y-116100000D03*
%TD*%
D12*
%TO.C,C13*%
X175400000Y-110200000D03*
X180400000Y-110200000D03*
%TD*%
%TO.C,R74*%
X229900000Y-143800000D03*
D13*
X219740000Y-143800000D03*
%TD*%
D12*
%TO.C,R52*%
X248160000Y-105300000D03*
D13*
X238000000Y-105300000D03*
%TD*%
D21*
%TO.C,H6*%
X65000000Y-155000000D03*
%TD*%
D12*
%TO.C,R7*%
X115100000Y-128340000D03*
D13*
X115100000Y-138500000D03*
%TD*%
D12*
%TO.C,R39*%
X196700000Y-115000000D03*
D13*
X196700000Y-125160000D03*
%TD*%
D12*
%TO.C,R2*%
X103400000Y-116800000D03*
D13*
X113560000Y-116800000D03*
%TD*%
D22*
%TO.C,Q12*%
X190020000Y-66800000D03*
D23*
X195470000Y-66800000D03*
X200920000Y-66800000D03*
%TD*%
D12*
%TO.C,R8*%
X111800000Y-138500000D03*
D13*
X111800000Y-128340000D03*
%TD*%
D14*
%TO.C,J8*%
X256000000Y-140000000D03*
D15*
X256000000Y-142540000D03*
%TD*%
D12*
%TO.C,R4*%
X127360000Y-62200000D03*
D13*
X117200000Y-62200000D03*
%TD*%
D24*
%TO.C,D3*%
X67800000Y-109660000D03*
D25*
X67800000Y-114740000D03*
X67800000Y-119820000D03*
X67800000Y-124900000D03*
%TD*%
D12*
%TO.C,R30*%
X190680000Y-99400000D03*
D13*
X200840000Y-99400000D03*
%TD*%
D26*
%TO.C,R38*%
X240700000Y-44700000D03*
D27*
X240700000Y-60000000D03*
%TD*%
D16*
%TO.C,D5*%
X124760000Y-136000000D03*
D13*
X132380000Y-136000000D03*
%TD*%
D12*
%TO.C,R56*%
X187080000Y-148100000D03*
D13*
X176920000Y-148100000D03*
%TD*%
D21*
%TO.C,H1*%
X65000000Y-45000000D03*
%TD*%
D12*
%TO.C,R18*%
X221100000Y-97560000D03*
D13*
X221100000Y-87400000D03*
%TD*%
D12*
%TO.C,R69*%
X92200000Y-62020000D03*
D13*
X92200000Y-72180000D03*
%TD*%
D12*
%TO.C,R26*%
X161640000Y-117100000D03*
D13*
X171800000Y-117100000D03*
%TD*%
D12*
%TO.C,C15*%
X226900000Y-109360000D03*
X226900000Y-106860000D03*
%TD*%
%TO.C,R48*%
X249560000Y-83000000D03*
D13*
X239400000Y-83000000D03*
%TD*%
D28*
%TO.C,U10*%
X103600000Y-69640000D03*
D29*
X103600000Y-72180000D03*
X103600000Y-74720000D03*
%TD*%
D12*
%TO.C,R55*%
X176900000Y-138300000D03*
D13*
X187060000Y-138300000D03*
%TD*%
D14*
%TO.C,J7*%
X256000000Y-132000000D03*
D15*
X256000000Y-134540000D03*
%TD*%
D14*
%TO.C,J9*%
X118340000Y-47300000D03*
D15*
X115800000Y-47300000D03*
%TD*%
D12*
%TO.C,R41*%
X256000000Y-54900000D03*
D13*
X245840000Y-54900000D03*
%TD*%
D12*
%TO.C,R62*%
X203300000Y-138900000D03*
D13*
X213460000Y-138900000D03*
%TD*%
D12*
%TO.C,R59*%
X213460000Y-145300000D03*
D13*
X203300000Y-145300000D03*
%TD*%
D16*
%TO.C,C23*%
X103645000Y-84180000D03*
D12*
X106145000Y-84180000D03*
%TD*%
%TO.C,R13*%
X74200000Y-63900000D03*
D13*
X74200000Y-53740000D03*
%TD*%
D12*
%TO.C,R42*%
X248500000Y-131200000D03*
D13*
X238340000Y-131200000D03*
%TD*%
D12*
%TO.C,R36*%
X175480000Y-94700000D03*
D13*
X185640000Y-94700000D03*
%TD*%
D12*
%TO.C,R32*%
X175360000Y-97800000D03*
D13*
X185520000Y-97800000D03*
%TD*%
D21*
%TO.C,H4*%
X255000000Y-155000000D03*
%TD*%
D12*
%TO.C,R20*%
X224200000Y-87400000D03*
D13*
X224200000Y-97560000D03*
%TD*%
D30*
%TO.C,D8*%
X200880000Y-77948334D03*
D31*
X190720000Y-77948334D03*
%TD*%
D16*
%TO.C,D6*%
X132380000Y-146700000D03*
D13*
X124760000Y-146700000D03*
%TD*%
D12*
%TO.C,R43*%
X248500000Y-134400000D03*
D13*
X238340000Y-134400000D03*
%TD*%
D16*
%TO.C,U2*%
X171800000Y-111625000D03*
D13*
X171800000Y-109085000D03*
X171800000Y-106545000D03*
X171800000Y-104005000D03*
X171800000Y-101465000D03*
X171800000Y-98925000D03*
X171800000Y-96385000D03*
X164180000Y-96385000D03*
X164180000Y-98925000D03*
X164180000Y-101465000D03*
X164180000Y-104005000D03*
X164180000Y-106545000D03*
X164180000Y-109085000D03*
X164180000Y-111625000D03*
%TD*%
D12*
%TO.C,R35*%
X161000000Y-104600000D03*
D13*
X150840000Y-104600000D03*
%TD*%
D12*
%TO.C,R29*%
X221500000Y-123620000D03*
D13*
X221500000Y-113460000D03*
%TD*%
D12*
%TO.C,R16*%
X218000000Y-97560000D03*
D13*
X218000000Y-87400000D03*
%TD*%
D17*
%TO.C,Q2*%
X114660000Y-69060000D03*
D18*
X117200000Y-69060000D03*
X119740000Y-69060000D03*
%TD*%
D12*
%TO.C,R28*%
X218300000Y-123620000D03*
D13*
X218300000Y-113460000D03*
%TD*%
D30*
%TO.C,D1*%
X125400000Y-75700000D03*
D31*
X125400000Y-65540000D03*
%TD*%
D12*
%TO.C,R33*%
X161000000Y-101500000D03*
D13*
X150840000Y-101500000D03*
%TD*%
D12*
%TO.C,R3*%
X113560000Y-113600000D03*
D13*
X103400000Y-113600000D03*
%TD*%
D12*
%TO.C,R78*%
X245000000Y-62240000D03*
D13*
X245000000Y-72400000D03*
%TD*%
D21*
%TO.C,H3*%
X255000000Y-45000000D03*
%TD*%
D12*
%TO.C,R58*%
X203320000Y-142100000D03*
D13*
X213480000Y-142100000D03*
%TD*%
D12*
%TO.C,R37*%
X205200000Y-111820000D03*
D13*
X205200000Y-121980000D03*
%TD*%
D16*
%TO.C,C6*%
X84100000Y-74500000D03*
D12*
X86600000Y-74500000D03*
%TD*%
%TO.C,R9*%
X122220000Y-132400000D03*
D13*
X132380000Y-132400000D03*
%TD*%
D30*
%TO.C,D7*%
X161600000Y-114400000D03*
D31*
X151440000Y-114400000D03*
%TD*%
D12*
%TO.C,R75*%
X162500000Y-138100000D03*
D13*
X152340000Y-138100000D03*
%TD*%
D17*
%TO.C,Q13*%
X205160000Y-109140000D03*
D18*
X205160000Y-106600000D03*
X205160000Y-104060000D03*
%TD*%
D12*
%TO.C,R1*%
X119700000Y-80300000D03*
D13*
X119700000Y-90460000D03*
%TD*%
D16*
%TO.C,U5*%
X247600000Y-94500000D03*
D13*
X247600000Y-91960000D03*
X247600000Y-89420000D03*
X247600000Y-86880000D03*
X239980000Y-86880000D03*
X239980000Y-89420000D03*
X239980000Y-91960000D03*
X239980000Y-94500000D03*
%TD*%
D32*
%TO.C,J1*%
X66777500Y-135190000D03*
D33*
X66777500Y-142810000D03*
%TD*%
D12*
%TO.C,R64*%
X186980000Y-151400000D03*
D13*
X176820000Y-151400000D03*
%TD*%
D12*
%TO.C,R21*%
X211800000Y-97560000D03*
D13*
X211800000Y-87400000D03*
%TD*%
D17*
%TO.C,Q5*%
X132200000Y-88400000D03*
D18*
X132200000Y-85860000D03*
X132200000Y-83320000D03*
%TD*%
D17*
%TO.C,Q15*%
X243480000Y-147800000D03*
D18*
X240940000Y-147800000D03*
X238400000Y-147800000D03*
%TD*%
D16*
%TO.C,D2*%
X77990000Y-120900000D03*
D13*
X85610000Y-120900000D03*
%TD*%
D17*
%TO.C,Q6*%
X125460000Y-88400000D03*
D18*
X125460000Y-85860000D03*
X125460000Y-83320000D03*
%TD*%
D34*
%TO.C,RL1*%
X78000000Y-126000000D03*
D35*
X78000000Y-141000000D03*
X78000000Y-146000000D03*
X78000000Y-151000000D03*
X85500000Y-151000000D03*
X85500000Y-146000000D03*
X85500000Y-141000000D03*
X85500000Y-126000000D03*
%TD*%
D17*
%TO.C,Q9*%
X148260000Y-75640000D03*
D18*
X148260000Y-73100000D03*
X148260000Y-70560000D03*
%TD*%
D21*
%TO.C,H5*%
X150000000Y-155000000D03*
%TD*%
D16*
%TO.C,C18*%
X248300000Y-75440000D03*
D12*
X248300000Y-77940000D03*
%TD*%
%TO.C,R67*%
X203300000Y-132500000D03*
D13*
X213460000Y-132500000D03*
%TD*%
D17*
%TO.C,Q14*%
X233900000Y-139480000D03*
D18*
X233900000Y-136940000D03*
X233900000Y-134400000D03*
%TD*%
D12*
%TO.C,R24*%
X215100000Y-113460000D03*
D13*
X215100000Y-123620000D03*
%TD*%
D12*
%TO.C,C7*%
X129880000Y-128600000D03*
X132380000Y-128600000D03*
%TD*%
%TO.C,C21*%
X240000000Y-98200000D03*
X242500000Y-98200000D03*
%TD*%
%TO.C,R27*%
X218080000Y-148500000D03*
D13*
X207920000Y-148500000D03*
%TD*%
D12*
%TO.C,R22*%
X227300000Y-87400000D03*
D13*
X227300000Y-97560000D03*
%TD*%
D16*
%TO.C,D4*%
X97390000Y-120800000D03*
D13*
X105010000Y-120800000D03*
%TD*%
D36*
%TO.C,RV1*%
X226360000Y-121020000D03*
X228900000Y-123560000D03*
X231440000Y-121020000D03*
%TD*%
D14*
%TO.C,J4*%
X256000000Y-99000000D03*
D15*
X256000000Y-101540000D03*
X256000000Y-104080000D03*
%TD*%
D12*
%TO.C,C8*%
X129880000Y-139700000D03*
X132380000Y-139700000D03*
%TD*%
D16*
%TO.C,U7*%
X135680000Y-130820000D03*
D13*
X135680000Y-133360000D03*
X135680000Y-135900000D03*
X135680000Y-138440000D03*
X135680000Y-140980000D03*
X135680000Y-143520000D03*
X135680000Y-146060000D03*
X143300000Y-146060000D03*
X143300000Y-143520000D03*
X143300000Y-140980000D03*
X143300000Y-138440000D03*
X143300000Y-135900000D03*
X143300000Y-133360000D03*
X143300000Y-130820000D03*
%TD*%
D12*
%TO.C,R19*%
X214900000Y-87380000D03*
D13*
X214900000Y-97540000D03*
%TD*%
D16*
%TO.C,C10*%
X107500000Y-47600000D03*
D12*
X107500000Y-50100000D03*
%TD*%
%TO.C,R17*%
X175400000Y-107100000D03*
D13*
X185560000Y-107100000D03*
%TD*%
D12*
%TO.C,R50*%
X219740000Y-136900000D03*
D13*
X229900000Y-136900000D03*
%TD*%
D12*
%TO.C,R46*%
X238020000Y-111800000D03*
D13*
X248180000Y-111800000D03*
%TD*%
D12*
%TO.C,R45*%
X248600000Y-142500000D03*
D13*
X238440000Y-142500000D03*
%TD*%
D12*
%TO.C,C9*%
X80600000Y-68100000D03*
D13*
X73100000Y-68100000D03*
%TD*%
D12*
%TO.C,R72*%
X165100000Y-125200000D03*
D13*
X154940000Y-125200000D03*
%TD*%
D12*
%TO.C,R68*%
X187080000Y-131740000D03*
D13*
X176920000Y-131740000D03*
%TD*%
D21*
%TO.C,H2*%
X150000000Y-45000000D03*
%TD*%
D10*
%TO.C,D11*%
X235175000Y-147800000D03*
D11*
X232635000Y-147800000D03*
%TD*%
D12*
%TO.C,R77*%
X248300000Y-62240000D03*
D13*
X248300000Y-72400000D03*
%TD*%
D12*
%TO.C,R34*%
X200880000Y-82300000D03*
D13*
X190720000Y-82300000D03*
%TD*%
D19*
%TO.C,C2*%
X67800000Y-96900000D03*
D20*
X75300000Y-96900000D03*
%TD*%
D12*
%TO.C,R65*%
X203300000Y-135700000D03*
D13*
X213460000Y-135700000D03*
%TD*%
D16*
%TO.C,C17*%
X221100000Y-152700000D03*
D12*
X221100000Y-155200000D03*
%TD*%
D19*
%TO.C,C3*%
X84100000Y-88800000D03*
D20*
X91600000Y-88800000D03*
%TD*%
D17*
%TO.C,Q3*%
X117200000Y-75660000D03*
D18*
X119740000Y-75660000D03*
X122280000Y-75660000D03*
%TD*%
D12*
%TO.C,R49*%
X248160000Y-102100000D03*
D13*
X238000000Y-102100000D03*
%TD*%
D12*
%TO.C,C11*%
X100300000Y-51547349D03*
D13*
X100300000Y-59047349D03*
%TD*%
D12*
%TO.C,R10*%
X122220000Y-143200000D03*
D13*
X132380000Y-143200000D03*
%TD*%
D12*
%TO.C,R15*%
X86640000Y-54847349D03*
D13*
X96800000Y-54847349D03*
%TD*%
D16*
%TO.C,U3*%
X223400000Y-101760000D03*
D13*
X220860000Y-101760000D03*
X218320000Y-101760000D03*
X215780000Y-101760000D03*
X215780000Y-109380000D03*
X218320000Y-109380000D03*
X220860000Y-109380000D03*
X223400000Y-109380000D03*
%TD*%
D12*
%TO.C,R61*%
X186980000Y-154700000D03*
D13*
X176820000Y-154700000D03*
%TD*%
D12*
%TO.C,C19*%
X176500000Y-104000000D03*
X179000000Y-104000000D03*
%TD*%
D16*
%TO.C,U1*%
X129400000Y-70600000D03*
D13*
X129400000Y-73140000D03*
X129400000Y-75680000D03*
X129400000Y-78220000D03*
X137020000Y-78220000D03*
X137020000Y-75680000D03*
X137020000Y-73140000D03*
X137020000Y-70600000D03*
%TD*%
D37*
%TO.C,U9*%
X94260000Y-47645000D03*
D38*
X96800000Y-47645000D03*
X99340000Y-47645000D03*
%TD*%
D12*
%TO.C,R31*%
X200860000Y-102600000D03*
D13*
X190700000Y-102600000D03*
%TD*%
D19*
%TO.C,C4*%
X67800000Y-79500000D03*
D20*
X75300000Y-79500000D03*
%TD*%
D12*
%TO.C,R76*%
X185640000Y-92100000D03*
D13*
X195800000Y-92100000D03*
%TD*%
D12*
%TO.C,R54*%
X187080000Y-141500000D03*
D13*
X176920000Y-141500000D03*
%TD*%
D12*
%TO.C,C16*%
X178100000Y-87600000D03*
X180600000Y-87600000D03*
%TD*%
%TO.C,R47*%
X238000000Y-108500000D03*
D13*
X248160000Y-108500000D03*
%TD*%
D10*
%TO.C,D12*%
X165075000Y-144100000D03*
D11*
X162535000Y-144100000D03*
%TD*%
D17*
%TO.C,Q8*%
X141800000Y-75640000D03*
D18*
X141800000Y-73100000D03*
X141800000Y-70560000D03*
%TD*%
D12*
%TO.C,R23*%
X175740000Y-116400000D03*
D13*
X185900000Y-116400000D03*
%TD*%
D39*
%TO.C,HS1*%
X160000000Y-61500000D03*
X230940000Y-61500000D03*
%TD*%
D12*
%TO.C,R51*%
X204000000Y-154400000D03*
D13*
X214160000Y-154400000D03*
%TD*%
D12*
%TO.C,R66*%
X187080000Y-128540000D03*
D13*
X176920000Y-128540000D03*
%TD*%
D12*
%TO.C,R70*%
X98645000Y-72180000D03*
D13*
X98645000Y-62020000D03*
%TD*%
D12*
%TO.C,R57*%
X176920000Y-144800000D03*
D13*
X187080000Y-144800000D03*
%TD*%
D28*
%TO.C,U8*%
X84100000Y-61360000D03*
D29*
X84100000Y-63900000D03*
X84100000Y-66440000D03*
%TD*%
D14*
%TO.C,J6*%
X256000000Y-121000000D03*
D15*
X256000000Y-123540000D03*
X256000000Y-126080000D03*
%TD*%
D12*
%TO.C,R5*%
X140200000Y-88360000D03*
D13*
X140200000Y-78200000D03*
%TD*%
D12*
%TO.C,R60*%
X191400000Y-152900000D03*
D13*
X201560000Y-152900000D03*
%TD*%
D12*
%TO.C,R73*%
X238000000Y-126300000D03*
D13*
X248160000Y-126300000D03*
%TD*%
D14*
%TO.C,J5*%
X256000000Y-110000000D03*
D15*
X256000000Y-112540000D03*
X256000000Y-115080000D03*
%TD*%
D12*
%TO.C,C1*%
X137000000Y-66900000D03*
X134500000Y-66900000D03*
%TD*%
%TO.C,C14*%
X175400000Y-113300000D03*
X180400000Y-113300000D03*
%TD*%
%TO.C,R71*%
X95400000Y-62020000D03*
D13*
X95400000Y-72180000D03*
%TD*%
D12*
%TO.C,C12*%
X143330000Y-127345000D03*
X140830000Y-127345000D03*
%TD*%
%TO.C,R53*%
X236480000Y-83000000D03*
D13*
X236480000Y-93160000D03*
%TD*%
D12*
%TO.C,R11*%
X80600000Y-63880000D03*
D13*
X80600000Y-53720000D03*
%TD*%
D34*
%TO.C,RL2*%
X97312500Y-125962500D03*
D35*
X97312500Y-140962500D03*
X97312500Y-145962500D03*
X97312500Y-150962500D03*
X104812500Y-150962500D03*
X104812500Y-145962500D03*
X104812500Y-140962500D03*
X104812500Y-125962500D03*
%TD*%
D10*
%TO.C,D10*%
X234000000Y-131375000D03*
D11*
X234000000Y-128835000D03*
%TD*%
D16*
%TO.C,U6*%
X191480000Y-129980000D03*
D13*
X191480000Y-132520000D03*
X191480000Y-135060000D03*
X191480000Y-137600000D03*
X191480000Y-140140000D03*
X191480000Y-142680000D03*
X191480000Y-145220000D03*
X199100000Y-145220000D03*
X199100000Y-142680000D03*
X199100000Y-140140000D03*
X199100000Y-137600000D03*
X199100000Y-135060000D03*
X199100000Y-132520000D03*
X199100000Y-129980000D03*
%TD*%
D12*
%TO.C,R44*%
X248580000Y-139300000D03*
D13*
X238420000Y-139300000D03*
%TD*%
M02*
