%TF.GenerationSoftware,KiCad,Pcbnew,6.0.2-378541a8eb~116~ubuntu20.04.1*%
%TF.CreationDate,2022-03-08T15:37:06-05:00*%
%TF.ProjectId,Linear_Lab_Bench_PSU_front_panel,4c696e65-6172-45f4-9c61-625f42656e63,rev?*%
%TF.SameCoordinates,Original*%
%TF.FileFunction,Legend,Bot*%
%TF.FilePolarity,Positive*%
%FSLAX46Y46*%
G04 Gerber Fmt 4.6, Leading zero omitted, Abs format (unit mm)*
G04 Created by KiCad (PCBNEW 6.0.2-378541a8eb~116~ubuntu20.04.1) date 2022-03-08 15:37:06*
%MOMM*%
%LPD*%
G01*
G04 APERTURE LIST*
%ADD10C,0.150000*%
%ADD11C,0.200000*%
%ADD12C,0.120000*%
G04 APERTURE END LIST*
D10*
X80000000Y-128270000D02*
X200000000Y-128270000D01*
D11*
X139940476Y-81107142D02*
X138988095Y-81107142D01*
X139464285Y-81678571D02*
X139464285Y-80535714D01*
X137142857Y-82178571D02*
X137142857Y-80035714D01*
X135357142Y-81607142D02*
X135178571Y-81678571D01*
X134880952Y-81678571D01*
X134761904Y-81607142D01*
X134702380Y-81535714D01*
X134642857Y-81392857D01*
X134642857Y-81250000D01*
X134702380Y-81107142D01*
X134761904Y-81035714D01*
X134880952Y-80964285D01*
X135119047Y-80892857D01*
X135238095Y-80821428D01*
X135297619Y-80750000D01*
X135357142Y-80607142D01*
X135357142Y-80464285D01*
X135297619Y-80321428D01*
X135238095Y-80250000D01*
X135119047Y-80178571D01*
X134821428Y-80178571D01*
X134642857Y-80250000D01*
X132857142Y-82178571D02*
X132857142Y-80035714D01*
X131011904Y-81107142D02*
X130059523Y-81107142D01*
X119940476Y-81107142D02*
X118988095Y-81107142D01*
X119464285Y-81678571D02*
X119464285Y-80535714D01*
X117142857Y-82178571D02*
X117142857Y-80035714D01*
X115357142Y-81607142D02*
X115178571Y-81678571D01*
X114880952Y-81678571D01*
X114761904Y-81607142D01*
X114702380Y-81535714D01*
X114642857Y-81392857D01*
X114642857Y-81250000D01*
X114702380Y-81107142D01*
X114761904Y-81035714D01*
X114880952Y-80964285D01*
X115119047Y-80892857D01*
X115238095Y-80821428D01*
X115297619Y-80750000D01*
X115357142Y-80607142D01*
X115357142Y-80464285D01*
X115297619Y-80321428D01*
X115238095Y-80250000D01*
X115119047Y-80178571D01*
X114821428Y-80178571D01*
X114642857Y-80250000D01*
X112857142Y-82178571D02*
X112857142Y-80035714D01*
X111011904Y-81107142D02*
X110059523Y-81107142D01*
X119107142Y-92178571D02*
X119107142Y-90678571D01*
X117250000Y-92178571D02*
X117250000Y-90678571D01*
X116750000Y-91750000D01*
X116250000Y-90678571D01*
X116250000Y-92178571D01*
X115535714Y-91392857D02*
X115035714Y-91392857D01*
X114821428Y-92178571D02*
X115535714Y-92178571D01*
X115535714Y-90678571D01*
X114821428Y-90678571D01*
X114392857Y-90678571D02*
X113535714Y-90678571D01*
X113964285Y-92178571D02*
X113964285Y-90678571D01*
X113035714Y-91392857D02*
X112535714Y-91392857D01*
X112321428Y-92178571D02*
X113035714Y-92178571D01*
X113035714Y-90678571D01*
X112321428Y-90678571D01*
X110821428Y-92178571D02*
X111321428Y-91464285D01*
X111678571Y-92178571D02*
X111678571Y-90678571D01*
X111107142Y-90678571D01*
X110964285Y-90750000D01*
X110892857Y-90821428D01*
X110821428Y-90964285D01*
X110821428Y-91178571D01*
X110892857Y-91321428D01*
X110964285Y-91392857D01*
X111107142Y-91464285D01*
X111678571Y-91464285D01*
X140107142Y-90678571D02*
X139607142Y-92178571D01*
X139107142Y-90678571D01*
X137464285Y-92178571D02*
X137464285Y-90678571D01*
X136964285Y-91750000D01*
X136464285Y-90678571D01*
X136464285Y-92178571D01*
X135750000Y-91392857D02*
X135250000Y-91392857D01*
X135035714Y-92178571D02*
X135750000Y-92178571D01*
X135750000Y-90678571D01*
X135035714Y-90678571D01*
X134607142Y-90678571D02*
X133750000Y-90678571D01*
X134178571Y-92178571D02*
X134178571Y-90678571D01*
X133250000Y-91392857D02*
X132750000Y-91392857D01*
X132535714Y-92178571D02*
X133250000Y-92178571D01*
X133250000Y-90678571D01*
X132535714Y-90678571D01*
X131035714Y-92178571D02*
X131535714Y-91464285D01*
X131892857Y-92178571D02*
X131892857Y-90678571D01*
X131321428Y-90678571D01*
X131178571Y-90750000D01*
X131107142Y-90821428D01*
X131035714Y-90964285D01*
X131035714Y-91178571D01*
X131107142Y-91321428D01*
X131178571Y-91392857D01*
X131321428Y-91464285D01*
X131892857Y-91464285D01*
D10*
%TO.C,H4*%
X210761904Y-130752380D02*
X210761904Y-129752380D01*
X210761904Y-130228571D02*
X210190476Y-130228571D01*
X210190476Y-130752380D02*
X210190476Y-129752380D01*
X209285714Y-130085714D02*
X209285714Y-130752380D01*
X209523809Y-129704761D02*
X209761904Y-130419047D01*
X209142857Y-130419047D01*
%TO.C,J6*%
X111866011Y-126452380D02*
X111866011Y-127166666D01*
X111913630Y-127309523D01*
X112008868Y-127404761D01*
X112151725Y-127452380D01*
X112246963Y-127452380D01*
X110961249Y-126452380D02*
X111151725Y-126452380D01*
X111246963Y-126500000D01*
X111294582Y-126547619D01*
X111389820Y-126690476D01*
X111437439Y-126880952D01*
X111437439Y-127261904D01*
X111389820Y-127357142D01*
X111342201Y-127404761D01*
X111246963Y-127452380D01*
X111056487Y-127452380D01*
X110961249Y-127404761D01*
X110913630Y-127357142D01*
X110866011Y-127261904D01*
X110866011Y-127023809D01*
X110913630Y-126928571D01*
X110961249Y-126880952D01*
X111056487Y-126833333D01*
X111246963Y-126833333D01*
X111342201Y-126880952D01*
X111389820Y-126928571D01*
X111437439Y-127023809D01*
%TO.C,J8*%
X122925833Y-83952380D02*
X122925833Y-84666666D01*
X122973452Y-84809523D01*
X123068690Y-84904761D01*
X123211547Y-84952380D01*
X123306785Y-84952380D01*
X122306785Y-84380952D02*
X122402023Y-84333333D01*
X122449642Y-84285714D01*
X122497261Y-84190476D01*
X122497261Y-84142857D01*
X122449642Y-84047619D01*
X122402023Y-84000000D01*
X122306785Y-83952380D01*
X122116309Y-83952380D01*
X122021071Y-84000000D01*
X121973452Y-84047619D01*
X121925833Y-84142857D01*
X121925833Y-84190476D01*
X121973452Y-84285714D01*
X122021071Y-84333333D01*
X122116309Y-84380952D01*
X122306785Y-84380952D01*
X122402023Y-84428571D01*
X122449642Y-84476190D01*
X122497261Y-84571428D01*
X122497261Y-84761904D01*
X122449642Y-84857142D01*
X122402023Y-84904761D01*
X122306785Y-84952380D01*
X122116309Y-84952380D01*
X122021071Y-84904761D01*
X121973452Y-84857142D01*
X121925833Y-84761904D01*
X121925833Y-84571428D01*
X121973452Y-84476190D01*
X122021071Y-84428571D01*
X122116309Y-84380952D01*
%TO.C,J7*%
X104096011Y-126452380D02*
X104096011Y-127166666D01*
X104143630Y-127309523D01*
X104238868Y-127404761D01*
X104381725Y-127452380D01*
X104476963Y-127452380D01*
X103715058Y-126452380D02*
X103048392Y-126452380D01*
X103476963Y-127452380D01*
%TO.C,J9*%
X142943333Y-83859880D02*
X142943333Y-84574166D01*
X142990952Y-84717023D01*
X143086190Y-84812261D01*
X143229047Y-84859880D01*
X143324285Y-84859880D01*
X142419523Y-84859880D02*
X142229047Y-84859880D01*
X142133809Y-84812261D01*
X142086190Y-84764642D01*
X141990952Y-84621785D01*
X141943333Y-84431309D01*
X141943333Y-84050357D01*
X141990952Y-83955119D01*
X142038571Y-83907500D01*
X142133809Y-83859880D01*
X142324285Y-83859880D01*
X142419523Y-83907500D01*
X142467142Y-83955119D01*
X142514761Y-84050357D01*
X142514761Y-84288452D01*
X142467142Y-84383690D01*
X142419523Y-84431309D01*
X142324285Y-84478928D01*
X142133809Y-84478928D01*
X142038571Y-84431309D01*
X141990952Y-84383690D01*
X141943333Y-84288452D01*
%TO.C,J12*%
X183309523Y-80652380D02*
X183309523Y-81366666D01*
X183357142Y-81509523D01*
X183452380Y-81604761D01*
X183595238Y-81652380D01*
X183690476Y-81652380D01*
X182309523Y-81652380D02*
X182880952Y-81652380D01*
X182595238Y-81652380D02*
X182595238Y-80652380D01*
X182690476Y-80795238D01*
X182785714Y-80890476D01*
X182880952Y-80938095D01*
X181928571Y-80747619D02*
X181880952Y-80700000D01*
X181785714Y-80652380D01*
X181547619Y-80652380D01*
X181452380Y-80700000D01*
X181404761Y-80747619D01*
X181357142Y-80842857D01*
X181357142Y-80938095D01*
X181404761Y-81080952D01*
X181976190Y-81652380D01*
X181357142Y-81652380D01*
%TO.C,J1*%
X184866011Y-126452380D02*
X184866011Y-127166666D01*
X184913630Y-127309523D01*
X185008868Y-127404761D01*
X185151725Y-127452380D01*
X185246963Y-127452380D01*
X183866011Y-127452380D02*
X184437439Y-127452380D01*
X184151725Y-127452380D02*
X184151725Y-126452380D01*
X184246963Y-126595238D01*
X184342201Y-126690476D01*
X184437439Y-126738095D01*
%TO.C,J2*%
X155866011Y-126452380D02*
X155866011Y-127166666D01*
X155913630Y-127309523D01*
X156008868Y-127404761D01*
X156151725Y-127452380D01*
X156246963Y-127452380D01*
X155437439Y-126547619D02*
X155389820Y-126500000D01*
X155294582Y-126452380D01*
X155056487Y-126452380D01*
X154961249Y-126500000D01*
X154913630Y-126547619D01*
X154866011Y-126642857D01*
X154866011Y-126738095D01*
X154913630Y-126880952D01*
X155485058Y-127452380D01*
X154866011Y-127452380D01*
%TO.C,J3*%
X144866011Y-126452380D02*
X144866011Y-127166666D01*
X144913630Y-127309523D01*
X145008868Y-127404761D01*
X145151725Y-127452380D01*
X145246963Y-127452380D01*
X144485058Y-126452380D02*
X143866011Y-126452380D01*
X144199344Y-126833333D01*
X144056487Y-126833333D01*
X143961249Y-126880952D01*
X143913630Y-126928571D01*
X143866011Y-127023809D01*
X143866011Y-127261904D01*
X143913630Y-127357142D01*
X143961249Y-127404761D01*
X144056487Y-127452380D01*
X144342201Y-127452380D01*
X144437439Y-127404761D01*
X144485058Y-127357142D01*
%TO.C,RV2*%
X99395238Y-70275295D02*
X99728571Y-69799105D01*
X99966666Y-70275295D02*
X99966666Y-69275295D01*
X99585714Y-69275295D01*
X99490476Y-69322915D01*
X99442857Y-69370534D01*
X99395238Y-69465772D01*
X99395238Y-69608629D01*
X99442857Y-69703867D01*
X99490476Y-69751486D01*
X99585714Y-69799105D01*
X99966666Y-69799105D01*
X99109523Y-69275295D02*
X98776190Y-70275295D01*
X98442857Y-69275295D01*
X98157142Y-69370534D02*
X98109523Y-69322915D01*
X98014285Y-69275295D01*
X97776190Y-69275295D01*
X97680952Y-69322915D01*
X97633333Y-69370534D01*
X97585714Y-69465772D01*
X97585714Y-69561010D01*
X97633333Y-69703867D01*
X98204761Y-70275295D01*
X97585714Y-70275295D01*
%TO.C,H2*%
X210761904Y-45752380D02*
X210761904Y-44752380D01*
X210761904Y-45228571D02*
X210190476Y-45228571D01*
X210190476Y-45752380D02*
X210190476Y-44752380D01*
X209761904Y-44847619D02*
X209714285Y-44800000D01*
X209619047Y-44752380D01*
X209380952Y-44752380D01*
X209285714Y-44800000D01*
X209238095Y-44847619D01*
X209190476Y-44942857D01*
X209190476Y-45038095D01*
X209238095Y-45180952D01*
X209809523Y-45752380D01*
X209190476Y-45752380D01*
%TO.C,J14*%
X164309523Y-80652380D02*
X164309523Y-81366666D01*
X164357142Y-81509523D01*
X164452380Y-81604761D01*
X164595238Y-81652380D01*
X164690476Y-81652380D01*
X163309523Y-81652380D02*
X163880952Y-81652380D01*
X163595238Y-81652380D02*
X163595238Y-80652380D01*
X163690476Y-80795238D01*
X163785714Y-80890476D01*
X163880952Y-80938095D01*
X162452380Y-80985714D02*
X162452380Y-81652380D01*
X162690476Y-80604761D02*
X162928571Y-81319047D01*
X162309523Y-81319047D01*
%TO.C,RV1*%
X99395238Y-110775295D02*
X99728571Y-110299105D01*
X99966666Y-110775295D02*
X99966666Y-109775295D01*
X99585714Y-109775295D01*
X99490476Y-109822915D01*
X99442857Y-109870534D01*
X99395238Y-109965772D01*
X99395238Y-110108629D01*
X99442857Y-110203867D01*
X99490476Y-110251486D01*
X99585714Y-110299105D01*
X99966666Y-110299105D01*
X99109523Y-109775295D02*
X98776190Y-110775295D01*
X98442857Y-109775295D01*
X97585714Y-110775295D02*
X98157142Y-110775295D01*
X97871428Y-110775295D02*
X97871428Y-109775295D01*
X97966666Y-109918153D01*
X98061904Y-110013391D01*
X98157142Y-110061010D01*
%TO.C,H1*%
X60761904Y-45752380D02*
X60761904Y-44752380D01*
X60761904Y-45228571D02*
X60190476Y-45228571D01*
X60190476Y-45752380D02*
X60190476Y-44752380D01*
X59190476Y-45752380D02*
X59761904Y-45752380D01*
X59476190Y-45752380D02*
X59476190Y-44752380D01*
X59571428Y-44895238D01*
X59666666Y-44990476D01*
X59761904Y-45038095D01*
%TO.C,H5*%
X60761904Y-130752380D02*
X60761904Y-129752380D01*
X60761904Y-130228571D02*
X60190476Y-130228571D01*
X60190476Y-130752380D02*
X60190476Y-129752380D01*
X59238095Y-129752380D02*
X59714285Y-129752380D01*
X59761904Y-130228571D01*
X59714285Y-130180952D01*
X59619047Y-130133333D01*
X59380952Y-130133333D01*
X59285714Y-130180952D01*
X59238095Y-130228571D01*
X59190476Y-130323809D01*
X59190476Y-130561904D01*
X59238095Y-130657142D01*
X59285714Y-130704761D01*
X59380952Y-130752380D01*
X59619047Y-130752380D01*
X59714285Y-130704761D01*
X59761904Y-130657142D01*
%TO.C,J13*%
X183309523Y-99652380D02*
X183309523Y-100366666D01*
X183357142Y-100509523D01*
X183452380Y-100604761D01*
X183595238Y-100652380D01*
X183690476Y-100652380D01*
X182309523Y-100652380D02*
X182880952Y-100652380D01*
X182595238Y-100652380D02*
X182595238Y-99652380D01*
X182690476Y-99795238D01*
X182785714Y-99890476D01*
X182880952Y-99938095D01*
X181976190Y-99652380D02*
X181357142Y-99652380D01*
X181690476Y-100033333D01*
X181547619Y-100033333D01*
X181452380Y-100080952D01*
X181404761Y-100128571D01*
X181357142Y-100223809D01*
X181357142Y-100461904D01*
X181404761Y-100557142D01*
X181452380Y-100604761D01*
X181547619Y-100652380D01*
X181833333Y-100652380D01*
X181928571Y-100604761D01*
X181976190Y-100557142D01*
%TO.C,J10*%
X202309523Y-99652380D02*
X202309523Y-100366666D01*
X202357142Y-100509523D01*
X202452380Y-100604761D01*
X202595238Y-100652380D01*
X202690476Y-100652380D01*
X201309523Y-100652380D02*
X201880952Y-100652380D01*
X201595238Y-100652380D02*
X201595238Y-99652380D01*
X201690476Y-99795238D01*
X201785714Y-99890476D01*
X201880952Y-99938095D01*
X200690476Y-99652380D02*
X200595238Y-99652380D01*
X200500000Y-99700000D01*
X200452380Y-99747619D01*
X200404761Y-99842857D01*
X200357142Y-100033333D01*
X200357142Y-100271428D01*
X200404761Y-100461904D01*
X200452380Y-100557142D01*
X200500000Y-100604761D01*
X200595238Y-100652380D01*
X200690476Y-100652380D01*
X200785714Y-100604761D01*
X200833333Y-100557142D01*
X200880952Y-100461904D01*
X200928571Y-100271428D01*
X200928571Y-100033333D01*
X200880952Y-99842857D01*
X200833333Y-99747619D01*
X200785714Y-99700000D01*
X200690476Y-99652380D01*
%TO.C,J11*%
X202309523Y-80652380D02*
X202309523Y-81366666D01*
X202357142Y-81509523D01*
X202452380Y-81604761D01*
X202595238Y-81652380D01*
X202690476Y-81652380D01*
X201309523Y-81652380D02*
X201880952Y-81652380D01*
X201595238Y-81652380D02*
X201595238Y-80652380D01*
X201690476Y-80795238D01*
X201785714Y-80890476D01*
X201880952Y-80938095D01*
X200357142Y-81652380D02*
X200928571Y-81652380D01*
X200642857Y-81652380D02*
X200642857Y-80652380D01*
X200738095Y-80795238D01*
X200833333Y-80890476D01*
X200928571Y-80938095D01*
%TO.C,NT1*%
X194542857Y-98152380D02*
X194542857Y-97152380D01*
X193971428Y-98152380D01*
X193971428Y-97152380D01*
X193638095Y-97152380D02*
X193066666Y-97152380D01*
X193352380Y-98152380D02*
X193352380Y-97152380D01*
X192209523Y-98152380D02*
X192780952Y-98152380D01*
X192495238Y-98152380D02*
X192495238Y-97152380D01*
X192590476Y-97295238D01*
X192685714Y-97390476D01*
X192780952Y-97438095D01*
%TO.C,J5*%
X122866011Y-126452380D02*
X122866011Y-127166666D01*
X122913630Y-127309523D01*
X123008868Y-127404761D01*
X123151725Y-127452380D01*
X123246963Y-127452380D01*
X121913630Y-126452380D02*
X122389820Y-126452380D01*
X122437439Y-126928571D01*
X122389820Y-126880952D01*
X122294582Y-126833333D01*
X122056487Y-126833333D01*
X121961249Y-126880952D01*
X121913630Y-126928571D01*
X121866011Y-127023809D01*
X121866011Y-127261904D01*
X121913630Y-127357142D01*
X121961249Y-127404761D01*
X122056487Y-127452380D01*
X122294582Y-127452380D01*
X122389820Y-127404761D01*
X122437439Y-127357142D01*
%TO.C,J4*%
X133333333Y-126452380D02*
X133333333Y-127166666D01*
X133380952Y-127309523D01*
X133476190Y-127404761D01*
X133619047Y-127452380D01*
X133714285Y-127452380D01*
X132428571Y-126785714D02*
X132428571Y-127452380D01*
X132666666Y-126404761D02*
X132904761Y-127119047D01*
X132285714Y-127119047D01*
%TO.C,C1*%
X198069317Y-77857142D02*
X198116936Y-77904761D01*
X198259793Y-77952380D01*
X198355031Y-77952380D01*
X198497889Y-77904761D01*
X198593127Y-77809523D01*
X198640746Y-77714285D01*
X198688365Y-77523809D01*
X198688365Y-77380952D01*
X198640746Y-77190476D01*
X198593127Y-77095238D01*
X198497889Y-77000000D01*
X198355031Y-76952380D01*
X198259793Y-76952380D01*
X198116936Y-77000000D01*
X198069317Y-77047619D01*
X197116936Y-77952380D02*
X197688365Y-77952380D01*
X197402651Y-77952380D02*
X197402651Y-76952380D01*
X197497889Y-77095238D01*
X197593127Y-77190476D01*
X197688365Y-77238095D01*
X199069317Y-80785714D02*
X199069317Y-81452380D01*
X199307412Y-80404761D02*
X199545508Y-81119047D01*
X198926460Y-81119047D01*
X198640746Y-80452380D02*
X197974079Y-80452380D01*
X198402651Y-81452380D01*
X197164555Y-80785714D02*
X197164555Y-81452380D01*
X197593127Y-80785714D02*
X197593127Y-81309523D01*
X197545508Y-81404761D01*
X197450270Y-81452380D01*
X197307412Y-81452380D01*
X197212174Y-81404761D01*
X197164555Y-81357142D01*
X196355031Y-80928571D02*
X196688365Y-80928571D01*
X196688365Y-81452380D02*
X196688365Y-80452380D01*
X196212174Y-80452380D01*
D12*
%TO.C,J6*%
X107492678Y-125670000D02*
X104892678Y-125670000D01*
X107492678Y-128330000D02*
X104892678Y-128330000D01*
X110092678Y-125670000D02*
X108762678Y-125670000D01*
X110092678Y-127000000D02*
X110092678Y-125670000D01*
X104892678Y-128330000D02*
X104892678Y-125670000D01*
X107492678Y-128330000D02*
X107492678Y-125670000D01*
%TO.C,J8*%
X118042500Y-84400000D02*
X118042500Y-84750000D01*
X110422500Y-84400000D02*
X110422500Y-84750000D01*
X113482500Y-89050000D02*
X114232500Y-89050000D01*
X111922500Y-89050000D02*
X112672500Y-89050000D01*
X111922500Y-84400000D02*
X112422500Y-84400000D01*
X112672500Y-84750000D02*
X111922500Y-84750000D01*
X117292500Y-89050000D02*
X118042500Y-89050000D01*
X116482500Y-89050000D02*
X116482500Y-84750000D01*
X110422500Y-84750000D02*
X109672500Y-84750000D01*
X112672500Y-83400000D02*
X109672500Y-83400000D01*
X114232500Y-84400000D02*
X114232500Y-84750000D01*
X109672500Y-89050000D02*
X110422500Y-89050000D01*
X119542500Y-84400000D02*
X120042500Y-84400000D01*
X120042500Y-84400000D02*
X120292500Y-83400000D01*
X116232500Y-84400000D02*
X116482500Y-83400000D01*
X108462500Y-82440000D02*
X121502500Y-82440000D01*
X120292500Y-83400000D02*
X117292500Y-83400000D01*
X113732500Y-84400000D02*
X114232500Y-84400000D01*
X120292500Y-84750000D02*
X119542500Y-84750000D01*
X109672500Y-84750000D02*
X109672500Y-89050000D01*
X115732500Y-89050000D02*
X116482500Y-89050000D01*
X117292500Y-83400000D02*
X117542500Y-84400000D01*
X113482500Y-83400000D02*
X113732500Y-84400000D01*
X111922500Y-84750000D02*
X111922500Y-84400000D01*
X118042500Y-84750000D02*
X117292500Y-84750000D01*
X115732500Y-84400000D02*
X116232500Y-84400000D01*
X109672500Y-83400000D02*
X109922500Y-84400000D01*
X113482500Y-84750000D02*
X113482500Y-89050000D01*
X119542500Y-84750000D02*
X119542500Y-84400000D01*
X109922500Y-84400000D02*
X110422500Y-84400000D01*
X117292500Y-84750000D02*
X117292500Y-89050000D01*
X120292500Y-89050000D02*
X120292500Y-84750000D01*
X115732500Y-84750000D02*
X115732500Y-84400000D01*
X112672500Y-89050000D02*
X112672500Y-84750000D01*
X121502500Y-89910000D02*
X108462500Y-89910000D01*
X108462500Y-89910000D02*
X108462500Y-82440000D01*
X121892500Y-82050000D02*
X119892500Y-82050000D01*
X116482500Y-84750000D02*
X115732500Y-84750000D01*
X112422500Y-84400000D02*
X112672500Y-83400000D01*
X114232500Y-84750000D02*
X113482500Y-84750000D01*
X121892500Y-83300000D02*
X121892500Y-82050000D01*
X119542500Y-89050000D02*
X120292500Y-89050000D01*
X121502500Y-82440000D02*
X121502500Y-89910000D01*
X116482500Y-83400000D02*
X113482500Y-83400000D01*
X117542500Y-84400000D02*
X118042500Y-84400000D01*
X111922500Y-89050000D02*
G75*
G03*
X110422853Y-89049844I-750000J-1700006D01*
G01*
X115732500Y-89050000D02*
G75*
G03*
X114232853Y-89049844I-750000J-1700006D01*
G01*
X119542500Y-89050000D02*
G75*
G03*
X118042853Y-89049844I-750000J-1700006D01*
G01*
%TO.C,J7*%
X96892678Y-128330000D02*
X96892678Y-125670000D01*
X99492678Y-128330000D02*
X99492678Y-125670000D01*
X102092678Y-127000000D02*
X102092678Y-125670000D01*
X99492678Y-125670000D02*
X96892678Y-125670000D01*
X99492678Y-128330000D02*
X96892678Y-128330000D01*
X102092678Y-125670000D02*
X100762678Y-125670000D01*
%TO.C,J9*%
X142010000Y-82057500D02*
X140010000Y-82057500D01*
X137410000Y-84757500D02*
X137410000Y-89057500D01*
X129790000Y-83407500D02*
X130040000Y-84407500D01*
X140410000Y-83407500D02*
X137410000Y-83407500D01*
X130540000Y-84757500D02*
X129790000Y-84757500D01*
X134350000Y-84757500D02*
X133600000Y-84757500D01*
X133600000Y-84757500D02*
X133600000Y-89057500D01*
X130540000Y-84407500D02*
X130540000Y-84757500D01*
X132040000Y-89057500D02*
X132790000Y-89057500D01*
X136600000Y-83407500D02*
X133600000Y-83407500D01*
X136600000Y-84757500D02*
X135850000Y-84757500D01*
X132790000Y-84757500D02*
X132040000Y-84757500D01*
X136350000Y-84407500D02*
X136600000Y-83407500D01*
X134350000Y-84407500D02*
X134350000Y-84757500D01*
X128580000Y-89917500D02*
X128580000Y-82447500D01*
X132790000Y-83407500D02*
X129790000Y-83407500D01*
X132540000Y-84407500D02*
X132790000Y-83407500D01*
X128580000Y-82447500D02*
X141620000Y-82447500D01*
X129790000Y-84757500D02*
X129790000Y-89057500D01*
X137660000Y-84407500D02*
X138160000Y-84407500D01*
X141620000Y-89917500D02*
X128580000Y-89917500D01*
X132040000Y-84407500D02*
X132540000Y-84407500D01*
X139660000Y-84757500D02*
X139660000Y-84407500D01*
X142010000Y-83307500D02*
X142010000Y-82057500D01*
X136600000Y-89057500D02*
X136600000Y-84757500D01*
X140410000Y-84757500D02*
X139660000Y-84757500D01*
X133600000Y-89057500D02*
X134350000Y-89057500D01*
X141620000Y-82447500D02*
X141620000Y-89917500D01*
X138160000Y-84407500D02*
X138160000Y-84757500D01*
X130040000Y-84407500D02*
X130540000Y-84407500D01*
X129790000Y-89057500D02*
X130540000Y-89057500D01*
X137410000Y-83407500D02*
X137660000Y-84407500D01*
X139660000Y-84407500D02*
X140160000Y-84407500D01*
X132790000Y-89057500D02*
X132790000Y-84757500D01*
X133600000Y-83407500D02*
X133850000Y-84407500D01*
X135850000Y-89057500D02*
X136600000Y-89057500D01*
X135850000Y-84407500D02*
X136350000Y-84407500D01*
X139660000Y-89057500D02*
X140410000Y-89057500D01*
X133850000Y-84407500D02*
X134350000Y-84407500D01*
X140160000Y-84407500D02*
X140410000Y-83407500D01*
X140410000Y-89057500D02*
X140410000Y-84757500D01*
X138160000Y-84757500D02*
X137410000Y-84757500D01*
X132040000Y-84757500D02*
X132040000Y-84407500D01*
X137410000Y-89057500D02*
X138160000Y-89057500D01*
X135850000Y-84757500D02*
X135850000Y-84407500D01*
X132040000Y-89057500D02*
G75*
G03*
X130540353Y-89057344I-750000J-1700006D01*
G01*
X139660000Y-89057500D02*
G75*
G03*
X138160353Y-89057344I-750000J-1700006D01*
G01*
X135850000Y-89057500D02*
G75*
G03*
X134350353Y-89057344I-750000J-1700006D01*
G01*
%TO.C,J1*%
X183092678Y-125670000D02*
X181762678Y-125670000D01*
X180492678Y-128330000D02*
X157572678Y-128330000D01*
X180492678Y-128330000D02*
X180492678Y-125670000D01*
X183092678Y-127000000D02*
X183092678Y-125670000D01*
X180492678Y-125670000D02*
X157572678Y-125670000D01*
X157572678Y-128330000D02*
X157572678Y-125670000D01*
%TO.C,J2*%
X154092678Y-125670000D02*
X152762678Y-125670000D01*
X151492678Y-125670000D02*
X146352678Y-125670000D01*
X151492678Y-128330000D02*
X151492678Y-125670000D01*
X146352678Y-128330000D02*
X146352678Y-125670000D01*
X154092678Y-127000000D02*
X154092678Y-125670000D01*
X151492678Y-128330000D02*
X146352678Y-128330000D01*
%TO.C,J3*%
X140492678Y-128330000D02*
X135352678Y-128330000D01*
X143092678Y-125670000D02*
X141762678Y-125670000D01*
X143092678Y-127000000D02*
X143092678Y-125670000D01*
X140492678Y-125670000D02*
X135352678Y-125670000D01*
X135352678Y-128330000D02*
X135352678Y-125670000D01*
X140492678Y-128330000D02*
X140492678Y-125670000D01*
%TO.C,RV2*%
X80200000Y-68022915D02*
X80200000Y-77622915D01*
X96200000Y-77622915D02*
X95000000Y-77622915D01*
X96200000Y-68022915D02*
X96200000Y-77622915D01*
X80200000Y-77622915D02*
X81400000Y-77622915D01*
D11*
X96500000Y-63622915D02*
G75*
G03*
X79900000Y-63622915I-8300000J-2255060D01*
G01*
D12*
%TO.C,RV1*%
X96200000Y-118122915D02*
X95000000Y-118122915D01*
X80200000Y-118122915D02*
X81400000Y-118122915D01*
X96200000Y-108522915D02*
X96200000Y-118122915D01*
X80200000Y-108522915D02*
X80200000Y-118122915D01*
D11*
X96500000Y-104122915D02*
G75*
G03*
X79900000Y-104122915I-8300000J-2255060D01*
G01*
D12*
%TO.C,J5*%
X118492678Y-128330000D02*
X113352678Y-128330000D01*
X113352678Y-128330000D02*
X113352678Y-125670000D01*
X121092678Y-125670000D02*
X119762678Y-125670000D01*
X118492678Y-128330000D02*
X118492678Y-125670000D01*
X118492678Y-125670000D02*
X113352678Y-125670000D01*
X121092678Y-127000000D02*
X121092678Y-125670000D01*
%TO.C,J4*%
X124352678Y-128330000D02*
X124352678Y-125670000D01*
X129492678Y-128330000D02*
X124352678Y-128330000D01*
X132092678Y-125670000D02*
X130762678Y-125670000D01*
X129492678Y-128330000D02*
X129492678Y-125670000D01*
X132092678Y-127000000D02*
X132092678Y-125670000D01*
X129492678Y-125670000D02*
X124352678Y-125670000D01*
%TO.C,C1*%
X191601651Y-73998000D02*
X191601651Y-76960000D01*
X190361651Y-74460000D02*
X190361651Y-76960000D01*
X189641651Y-79040000D02*
X189641651Y-81019000D01*
X190841651Y-74226000D02*
X190841651Y-76960000D01*
X189921651Y-79040000D02*
X189921651Y-81250000D01*
X191241651Y-74086000D02*
X191241651Y-76960000D01*
X191161651Y-74111000D02*
X191161651Y-76960000D01*
X190441651Y-74416000D02*
X190441651Y-76960000D01*
X189281651Y-75349000D02*
X189281651Y-80651000D01*
X189841651Y-79040000D02*
X189841651Y-81189000D01*
X188561651Y-76547000D02*
X188561651Y-79453000D01*
X192362651Y-73920000D02*
X192362651Y-82080000D01*
X189721651Y-74910000D02*
X189721651Y-76960000D01*
X191922651Y-73948000D02*
X191922651Y-82052000D01*
X190761651Y-79040000D02*
X190761651Y-81740000D01*
X190241651Y-79040000D02*
X190241651Y-81469000D01*
X191361651Y-79040000D02*
X191361651Y-81947000D01*
X189761651Y-79040000D02*
X189761651Y-81124000D01*
X191681651Y-73983000D02*
X191681651Y-76960000D01*
X190121651Y-79040000D02*
X190121651Y-81392000D01*
X190681651Y-79040000D02*
X190681651Y-81704000D01*
X192242651Y-73923000D02*
X192242651Y-82077000D01*
X188921651Y-75834000D02*
X188921651Y-80166000D01*
X190001651Y-74691000D02*
X190001651Y-76960000D01*
X191521651Y-74015000D02*
X191521651Y-76960000D01*
X191882651Y-73952000D02*
X191882651Y-82048000D01*
X188761651Y-76110000D02*
X188761651Y-79890000D01*
X190641651Y-74314000D02*
X190641651Y-76960000D01*
X191081651Y-79040000D02*
X191081651Y-81863000D01*
X189481651Y-75133000D02*
X189481651Y-80867000D01*
X196812349Y-75685000D02*
X196012349Y-75685000D01*
X189401651Y-75216000D02*
X189401651Y-80784000D01*
X189801651Y-79040000D02*
X189801651Y-81156000D01*
X190241651Y-74531000D02*
X190241651Y-76960000D01*
X192082651Y-73932000D02*
X192082651Y-82068000D01*
X191681651Y-79040000D02*
X191681651Y-82017000D01*
X189521651Y-75093000D02*
X189521651Y-80907000D01*
X189161651Y-75495000D02*
X189161651Y-80505000D01*
X190481651Y-74394000D02*
X190481651Y-76960000D01*
X190601651Y-79040000D02*
X190601651Y-81666000D01*
X189961651Y-74720000D02*
X189961651Y-76960000D01*
X190441651Y-79040000D02*
X190441651Y-81584000D01*
X189201651Y-75444000D02*
X189201651Y-80556000D01*
X189881651Y-79040000D02*
X189881651Y-81220000D01*
X190401651Y-74438000D02*
X190401651Y-76960000D01*
X190041651Y-74662000D02*
X190041651Y-76960000D01*
X191161651Y-79040000D02*
X191161651Y-81889000D01*
X191001651Y-74165000D02*
X191001651Y-76960000D01*
X188961651Y-75772000D02*
X188961651Y-80228000D01*
X190481651Y-79040000D02*
X190481651Y-81606000D01*
X190041651Y-79040000D02*
X190041651Y-81338000D01*
X190281651Y-79040000D02*
X190281651Y-81493000D01*
X190081651Y-74635000D02*
X190081651Y-76960000D01*
X191281651Y-74075000D02*
X191281651Y-76960000D01*
X196412349Y-75285000D02*
X196412349Y-76085000D01*
X191081651Y-74137000D02*
X191081651Y-76960000D01*
X191241651Y-79040000D02*
X191241651Y-81914000D01*
X189561651Y-75055000D02*
X189561651Y-80945000D01*
X188841651Y-75966000D02*
X188841651Y-80034000D01*
X190561651Y-74353000D02*
X190561651Y-76960000D01*
X191962651Y-73943000D02*
X191962651Y-82057000D01*
X192282651Y-73921000D02*
X192282651Y-82079000D01*
X191722651Y-73976000D02*
X191722651Y-82024000D01*
X191561651Y-74006000D02*
X191561651Y-76960000D01*
X191041651Y-79040000D02*
X191041651Y-81850000D01*
X190721651Y-79040000D02*
X190721651Y-81722000D01*
X190641651Y-79040000D02*
X190641651Y-81686000D01*
X190081651Y-79040000D02*
X190081651Y-81365000D01*
X188601651Y-76448000D02*
X188601651Y-79552000D01*
X190161651Y-79040000D02*
X190161651Y-81418000D01*
X188521651Y-76654000D02*
X188521651Y-79346000D01*
X189881651Y-74780000D02*
X189881651Y-76960000D01*
X188441651Y-76902000D02*
X188441651Y-79098000D01*
X191521651Y-79040000D02*
X191521651Y-81985000D01*
X191441651Y-79040000D02*
X191441651Y-81967000D01*
X190161651Y-74582000D02*
X190161651Y-76960000D01*
X190121651Y-74608000D02*
X190121651Y-76960000D01*
X189601651Y-75017000D02*
X189601651Y-80983000D01*
X191201651Y-74098000D02*
X191201651Y-76960000D01*
X190601651Y-74334000D02*
X190601651Y-76960000D01*
X189841651Y-74811000D02*
X189841651Y-76960000D01*
X190881651Y-79040000D02*
X190881651Y-81790000D01*
X192322651Y-73920000D02*
X192322651Y-82080000D01*
X190841651Y-79040000D02*
X190841651Y-81774000D01*
X191762651Y-73970000D02*
X191762651Y-82030000D01*
X189961651Y-79040000D02*
X189961651Y-81280000D01*
X190401651Y-79040000D02*
X190401651Y-81562000D01*
X188681651Y-76269000D02*
X188681651Y-79731000D01*
X191802651Y-73963000D02*
X191802651Y-82037000D01*
X190801651Y-74243000D02*
X190801651Y-76960000D01*
X189681651Y-79040000D02*
X189681651Y-81055000D01*
X188481651Y-76771000D02*
X188481651Y-79229000D01*
X188801651Y-76036000D02*
X188801651Y-79964000D01*
X192402651Y-73920000D02*
X192402651Y-82080000D01*
X188881651Y-75898000D02*
X188881651Y-80102000D01*
X191561651Y-79040000D02*
X191561651Y-81994000D01*
X190921651Y-79040000D02*
X190921651Y-81805000D01*
X189801651Y-74844000D02*
X189801651Y-76960000D01*
X192162651Y-73926000D02*
X192162651Y-82074000D01*
X190321651Y-79040000D02*
X190321651Y-81517000D01*
X191321651Y-79040000D02*
X191321651Y-81936000D01*
X189761651Y-74876000D02*
X189761651Y-76960000D01*
X192202651Y-73924000D02*
X192202651Y-82076000D01*
X190201651Y-79040000D02*
X190201651Y-81444000D01*
X189321651Y-75303000D02*
X189321651Y-80697000D01*
X190001651Y-79040000D02*
X190001651Y-81309000D01*
X190361651Y-79040000D02*
X190361651Y-81540000D01*
X191842651Y-73958000D02*
X191842651Y-82042000D01*
X190321651Y-74483000D02*
X190321651Y-76960000D01*
X189041651Y-75655000D02*
X189041651Y-80345000D01*
X192042651Y-73935000D02*
X192042651Y-82065000D01*
X190761651Y-74260000D02*
X190761651Y-76960000D01*
X191641651Y-79040000D02*
X191641651Y-82010000D01*
X189721651Y-79040000D02*
X189721651Y-81090000D01*
X189121651Y-75546000D02*
X189121651Y-80454000D01*
X189361651Y-75259000D02*
X189361651Y-80741000D01*
X191481651Y-79040000D02*
X191481651Y-81976000D01*
X190201651Y-74556000D02*
X190201651Y-76960000D01*
X191601651Y-79040000D02*
X191601651Y-82002000D01*
X188401651Y-77052000D02*
X188401651Y-78948000D01*
X190881651Y-74210000D02*
X190881651Y-76960000D01*
X192002651Y-73939000D02*
X192002651Y-82061000D01*
X191401651Y-74043000D02*
X191401651Y-76960000D01*
X190961651Y-79040000D02*
X190961651Y-81821000D01*
X191281651Y-79040000D02*
X191281651Y-81925000D01*
X191321651Y-74064000D02*
X191321651Y-76960000D01*
X191481651Y-74024000D02*
X191481651Y-76960000D01*
X190921651Y-74195000D02*
X190921651Y-76960000D01*
X191441651Y-74033000D02*
X191441651Y-76960000D01*
X188641651Y-76355000D02*
X188641651Y-79645000D01*
X189001651Y-75713000D02*
X189001651Y-80287000D01*
X190801651Y-79040000D02*
X190801651Y-81757000D01*
X188361651Y-77232000D02*
X188361651Y-78768000D01*
X188321651Y-77467000D02*
X188321651Y-78533000D01*
X190521651Y-79040000D02*
X190521651Y-81627000D01*
X189441651Y-75174000D02*
X189441651Y-80826000D01*
X190721651Y-74278000D02*
X190721651Y-76960000D01*
X190961651Y-74179000D02*
X190961651Y-76960000D01*
X191121651Y-79040000D02*
X191121651Y-81877000D01*
X192122651Y-73929000D02*
X192122651Y-82071000D01*
X191201651Y-79040000D02*
X191201651Y-81902000D01*
X190521651Y-74373000D02*
X190521651Y-76960000D01*
X191641651Y-73990000D02*
X191641651Y-76960000D01*
X191121651Y-74123000D02*
X191121651Y-76960000D01*
X188721651Y-76187000D02*
X188721651Y-79813000D01*
X189921651Y-74750000D02*
X189921651Y-76960000D01*
X190681651Y-74296000D02*
X190681651Y-76960000D01*
X190561651Y-79040000D02*
X190561651Y-81647000D01*
X189241651Y-75396000D02*
X189241651Y-80604000D01*
X191041651Y-74150000D02*
X191041651Y-76960000D01*
X189081651Y-75600000D02*
X189081651Y-80400000D01*
X189681651Y-74945000D02*
X189681651Y-76960000D01*
X189641651Y-74981000D02*
X189641651Y-76960000D01*
X191001651Y-79040000D02*
X191001651Y-81835000D01*
X191401651Y-79040000D02*
X191401651Y-81957000D01*
X191361651Y-74053000D02*
X191361651Y-76960000D01*
X190281651Y-74507000D02*
X190281651Y-76960000D01*
X196522651Y-78000000D02*
G75*
G03*
X196522651Y-78000000I-4120000J0D01*
G01*
%TD*%
M02*
