%TF.GenerationSoftware,KiCad,Pcbnew,6.0.2-378541a8eb~116~ubuntu20.04.1*%
%TF.CreationDate,2022-03-08T15:37:05-05:00*%
%TF.ProjectId,Linear_Lab_Bench_PSU_front_panel,4c696e65-6172-45f4-9c61-625f42656e63,rev?*%
%TF.SameCoordinates,Original*%
%TF.FileFunction,Copper,L1,Top*%
%TF.FilePolarity,Positive*%
%FSLAX46Y46*%
G04 Gerber Fmt 4.6, Leading zero omitted, Abs format (unit mm)*
G04 Created by KiCad (PCBNEW 6.0.2-378541a8eb~116~ubuntu20.04.1) date 2022-03-08 15:37:05*
%MOMM*%
%LPD*%
G01*
G04 APERTURE LIST*
G04 Aperture macros list*
%AMRoundRect*
0 Rectangle with rounded corners*
0 $1 Rounding radius*
0 $2 $3 $4 $5 $6 $7 $8 $9 X,Y pos of 4 corners*
0 Add a 4 corners polygon primitive as box body*
4,1,4,$2,$3,$4,$5,$6,$7,$8,$9,$2,$3,0*
0 Add four circle primitives for the rounded corners*
1,1,$1+$1,$2,$3*
1,1,$1+$1,$4,$5*
1,1,$1+$1,$6,$7*
1,1,$1+$1,$8,$9*
0 Add four rect primitives between the rounded corners*
20,1,$1+$1,$2,$3,$4,$5,0*
20,1,$1+$1,$4,$5,$6,$7,0*
20,1,$1+$1,$6,$7,$8,$9,0*
20,1,$1+$1,$8,$9,$2,$3,0*%
G04 Aperture macros list end*
%TA.AperFunction,ComponentPad*%
%ADD10R,1.800000X1.800000*%
%TD*%
%TA.AperFunction,ComponentPad*%
%ADD11C,1.800000*%
%TD*%
%TA.AperFunction,ComponentPad*%
%ADD12C,7.400000*%
%TD*%
%TA.AperFunction,ComponentPad*%
%ADD13R,1.700000X1.700000*%
%TD*%
%TA.AperFunction,ComponentPad*%
%ADD14O,1.700000X1.700000*%
%TD*%
%TA.AperFunction,ComponentPad*%
%ADD15RoundRect,0.250000X0.650000X1.550000X-0.650000X1.550000X-0.650000X-1.550000X0.650000X-1.550000X0*%
%TD*%
%TA.AperFunction,ComponentPad*%
%ADD16O,1.800000X3.600000*%
%TD*%
%TA.AperFunction,ComponentPad*%
%ADD17C,0.900000*%
%TD*%
%TA.AperFunction,ComponentPad*%
%ADD18C,10.600000*%
%TD*%
%TA.AperFunction,ComponentPad*%
%ADD19C,2.400000*%
%TD*%
%TA.AperFunction,ComponentPad*%
%ADD20R,1.600000X1.600000*%
%TD*%
%TA.AperFunction,ComponentPad*%
%ADD21C,1.600000*%
%TD*%
%TA.AperFunction,ViaPad*%
%ADD22C,0.900000*%
%TD*%
%TA.AperFunction,Conductor*%
%ADD23C,0.350000*%
%TD*%
%TA.AperFunction,Conductor*%
%ADD24C,1.000000*%
%TD*%
G04 APERTURE END LIST*
D10*
%TO.P,D1,1,K*%
%TO.N,Net-(D1-Pad1)*%
X172500000Y-52725000D03*
D11*
%TO.P,D1,2,A*%
%TO.N,Net-(D1-Pad2)*%
X172500000Y-55265000D03*
%TD*%
D10*
%TO.P,D2,1,K*%
%TO.N,Net-(D2-Pad1)*%
X172500000Y-65225000D03*
D11*
%TO.P,D2,2,A*%
%TO.N,Net-(D2-Pad2)*%
X172500000Y-67765000D03*
%TD*%
D12*
%TO.P,H4,1,1*%
%TO.N,Earth*%
X210000000Y-135000000D03*
%TD*%
D13*
%TO.P,J6,1,Pin_1*%
%TO.N,Net-(D1-Pad2)*%
X108762678Y-127000000D03*
D14*
%TO.P,J6,2,Pin_2*%
%TO.N,Net-(D1-Pad1)*%
X106222678Y-127000000D03*
%TD*%
D15*
%TO.P,J8,1,Pin_1*%
%TO.N,Net-(J5-Pad1)*%
X118792500Y-86800000D03*
D16*
%TO.P,J8,2,Pin_2*%
%TO.N,Net-(J5-Pad2)*%
X114982500Y-86800000D03*
%TO.P,J8,3,Pin_3*%
%TO.N,Net-(J5-Pad3)*%
X111172500Y-86800000D03*
%TD*%
D13*
%TO.P,J7,1,Pin_1*%
%TO.N,Net-(D2-Pad2)*%
X100762678Y-127000000D03*
D14*
%TO.P,J7,2,Pin_2*%
%TO.N,Net-(D2-Pad1)*%
X98222678Y-127000000D03*
%TD*%
D15*
%TO.P,J9,1,Pin_1*%
%TO.N,+15V*%
X138910000Y-86807500D03*
D16*
%TO.P,J9,2,Pin_2*%
%TO.N,/VOUT*%
X135100000Y-86807500D03*
%TO.P,J9,3,Pin_3*%
%TO.N,GND*%
X131290000Y-86807500D03*
%TD*%
D17*
%TO.P,J12,1,Pin_1*%
%TO.N,GND*%
X185310749Y-84689251D03*
X185310749Y-90310749D03*
X178525000Y-87500000D03*
X186475000Y-87500000D03*
X182500000Y-83525000D03*
X182500000Y-91475000D03*
X179689251Y-90310749D03*
D18*
X182500000Y-87500000D03*
D17*
X179689251Y-84689251D03*
%TD*%
D13*
%TO.P,J1,1,Pin_1*%
%TO.N,Net-(J1-Pad1)*%
X181762678Y-127000000D03*
D14*
%TO.P,J1,2,Pin_2*%
%TO.N,/VOUT*%
X179222678Y-127000000D03*
%TO.P,J1,3,Pin_3*%
X176682678Y-127000000D03*
%TO.P,J1,4,Pin_4*%
X174142678Y-127000000D03*
%TO.P,J1,5,Pin_5*%
X171602678Y-127000000D03*
%TO.P,J1,6,Pin_6*%
%TO.N,GND*%
X169062678Y-127000000D03*
%TO.P,J1,7,Pin_7*%
X166522678Y-127000000D03*
%TO.P,J1,8,Pin_8*%
X163982678Y-127000000D03*
%TO.P,J1,9,Pin_9*%
X161442678Y-127000000D03*
%TO.P,J1,10,Pin_10*%
X158902678Y-127000000D03*
%TD*%
D13*
%TO.P,J2,1,Pin_1*%
%TO.N,Net-(J2-Pad1)*%
X152762678Y-127000000D03*
D14*
%TO.P,J2,2,Pin_2*%
%TO.N,Net-(J2-Pad2)*%
X150222678Y-127000000D03*
%TO.P,J2,3,Pin_3*%
%TO.N,Net-(J2-Pad3)*%
X147682678Y-127000000D03*
%TD*%
D13*
%TO.P,J3,1,Pin_1*%
%TO.N,+15V*%
X141762678Y-127000000D03*
D14*
%TO.P,J3,2,Pin_2*%
%TO.N,unconnected-(J3-Pad2)*%
X139222678Y-127000000D03*
%TO.P,J3,3,Pin_3*%
%TO.N,GND*%
X136682678Y-127000000D03*
%TD*%
D19*
%TO.P,RV2,1,1*%
%TO.N,Net-(J4-Pad3)*%
X83200000Y-77622915D03*
%TO.P,RV2,2,2*%
%TO.N,Net-(J4-Pad2)*%
X88200000Y-77622915D03*
%TO.P,RV2,3,3*%
%TO.N,Net-(J4-Pad1)*%
X93200000Y-77622915D03*
%TD*%
D12*
%TO.P,H2,1,1*%
%TO.N,Earth*%
X210000000Y-50000000D03*
%TD*%
D17*
%TO.P,J14,1,Pin_1*%
%TO.N,Earth*%
X166310749Y-84689251D03*
X160689251Y-90310749D03*
X160689251Y-84689251D03*
D18*
X163500000Y-87500000D03*
D17*
X159525000Y-87500000D03*
X167475000Y-87500000D03*
X163500000Y-83525000D03*
X166310749Y-90310749D03*
X163500000Y-91475000D03*
%TD*%
D19*
%TO.P,RV1,1,1*%
%TO.N,Net-(J2-Pad3)*%
X83200000Y-118122915D03*
%TO.P,RV1,2,2*%
%TO.N,Net-(J2-Pad2)*%
X88200000Y-118122915D03*
%TO.P,RV1,3,3*%
%TO.N,Net-(J2-Pad1)*%
X93200000Y-118122915D03*
%TD*%
D12*
%TO.P,H1,1,1*%
%TO.N,Earth*%
X60000000Y-50000000D03*
%TD*%
%TO.P,H5,1,1*%
%TO.N,Earth*%
X60000000Y-135000000D03*
%TD*%
D17*
%TO.P,J13,1,Pin_1*%
%TO.N,GND*%
X182500000Y-102525000D03*
X178525000Y-106500000D03*
X185310749Y-103689251D03*
X185310749Y-109310749D03*
X182500000Y-110475000D03*
X186475000Y-106500000D03*
X179689251Y-109310749D03*
X179689251Y-103689251D03*
D18*
X182500000Y-106500000D03*
%TD*%
D17*
%TO.P,J10,1,Pin_1*%
%TO.N,/VOUT*%
X201500000Y-102525000D03*
X204310749Y-109310749D03*
D18*
X201500000Y-106500000D03*
D17*
X198689251Y-103689251D03*
X205475000Y-106500000D03*
X204310749Y-103689251D03*
X197525000Y-106500000D03*
X198689251Y-109310749D03*
X201500000Y-110475000D03*
%TD*%
%TO.P,J11,1,Pin_1*%
%TO.N,/VOUT*%
X198689251Y-90310749D03*
X197525000Y-87500000D03*
D18*
X201500000Y-87500000D03*
D17*
X198689251Y-84689251D03*
X201500000Y-91475000D03*
X204310749Y-84689251D03*
X205475000Y-87500000D03*
X201500000Y-83525000D03*
X204310749Y-90310749D03*
%TD*%
D13*
%TO.P,J5,1,Pin_1*%
%TO.N,Net-(J5-Pad1)*%
X119762678Y-127000000D03*
D14*
%TO.P,J5,2,Pin_2*%
%TO.N,Net-(J5-Pad2)*%
X117222678Y-127000000D03*
%TO.P,J5,3,Pin_3*%
%TO.N,Net-(J5-Pad3)*%
X114682678Y-127000000D03*
%TD*%
D13*
%TO.P,J4,1,Pin_1*%
%TO.N,Net-(J4-Pad1)*%
X130762678Y-127000000D03*
D14*
%TO.P,J4,2,Pin_2*%
%TO.N,Net-(J4-Pad2)*%
X128222678Y-127000000D03*
%TO.P,J4,3,Pin_3*%
%TO.N,Net-(J4-Pad3)*%
X125682678Y-127000000D03*
%TD*%
D20*
%TO.P,C1,1*%
%TO.N,/VOUT*%
X194152651Y-78000000D03*
D21*
%TO.P,C1,2*%
%TO.N,GND*%
X190652651Y-78000000D03*
%TD*%
D22*
%TO.N,/VOUT*%
X194100000Y-96500000D03*
%TO.N,Net-(D1-Pad1)*%
X106200000Y-135300000D03*
%TO.N,Net-(D1-Pad2)*%
X108800000Y-134300000D03*
%TO.N,Net-(D2-Pad1)*%
X98200000Y-137600000D03*
%TO.N,Net-(D2-Pad2)*%
X100800000Y-136400000D03*
%TD*%
D23*
%TO.N,Net-(D1-Pad1)*%
X106200000Y-135300000D02*
X106200000Y-127022678D01*
X106200000Y-127022678D02*
X106222678Y-127000000D01*
%TO.N,Net-(D1-Pad2)*%
X108800000Y-127037322D02*
X108762678Y-127000000D01*
X108800000Y-134300000D02*
X108800000Y-127037322D01*
%TO.N,Net-(D2-Pad1)*%
X98222678Y-137577322D02*
X98222678Y-127000000D01*
X98200000Y-137600000D02*
X98222678Y-137577322D01*
%TO.N,Net-(D2-Pad2)*%
X100762678Y-127000000D02*
X100762678Y-136362678D01*
X100762678Y-136362678D02*
X100800000Y-136400000D01*
D24*
%TO.N,Net-(J5-Pad1)*%
X119762678Y-124462678D02*
X117100000Y-121800000D01*
X100900000Y-91100000D02*
X117600000Y-91100000D01*
X117600000Y-91100000D02*
X118792500Y-89907500D01*
X118792500Y-89907500D02*
X118792500Y-86800000D01*
X100000000Y-92000000D02*
X100900000Y-91100000D01*
X100000000Y-120800000D02*
X100000000Y-92000000D01*
X101000000Y-121800000D02*
X100000000Y-120800000D01*
X119762678Y-127000000D02*
X119762678Y-124462678D01*
X117100000Y-121800000D02*
X101000000Y-121800000D01*
D23*
%TO.N,Net-(J5-Pad2)*%
X99900000Y-89700000D02*
X98500000Y-91100000D01*
X98500000Y-91100000D02*
X98500000Y-121700000D01*
X114982500Y-86800000D02*
X114982500Y-89017500D01*
X98500000Y-121700000D02*
X100000000Y-123200000D01*
X114300000Y-89700000D02*
X99900000Y-89700000D01*
X117222678Y-124822678D02*
X117222678Y-127000000D01*
X114982500Y-89017500D02*
X114300000Y-89700000D01*
X115600000Y-123200000D02*
X117222678Y-124822678D01*
X100000000Y-123200000D02*
X115600000Y-123200000D01*
D24*
%TO.N,Net-(J5-Pad3)*%
X96300000Y-90800000D02*
X96300000Y-122400000D01*
X113800000Y-124600000D02*
X114682678Y-125482678D01*
X98500000Y-124600000D02*
X113800000Y-124600000D01*
X111172500Y-86800000D02*
X100300000Y-86800000D01*
X100300000Y-86800000D02*
X96300000Y-90800000D01*
X114682678Y-125482678D02*
X114682678Y-127000000D01*
X96300000Y-122400000D02*
X98500000Y-124600000D01*
%TD*%
%TA.AperFunction,Conductor*%
%TO.N,/VOUT*%
G36*
X207515677Y-74519685D02*
G01*
X207536319Y-74536319D01*
X210963681Y-77963681D01*
X210997166Y-78025004D01*
X211000000Y-78051362D01*
X211000000Y-120948638D01*
X210980315Y-121015677D01*
X210963681Y-121036319D01*
X197036319Y-134963681D01*
X196974996Y-134997166D01*
X196948638Y-135000000D01*
X171751362Y-135000000D01*
X171684323Y-134980315D01*
X171663681Y-134963681D01*
X170736319Y-134036319D01*
X170702834Y-133974996D01*
X170700000Y-133948638D01*
X170700000Y-128012029D01*
X170719685Y-127944990D01*
X170772489Y-127899235D01*
X170841647Y-127889291D01*
X170892891Y-127908927D01*
X171046864Y-128011809D01*
X171056822Y-128017216D01*
X171240563Y-128096157D01*
X171251327Y-128099655D01*
X171441554Y-128142698D01*
X171450021Y-128140565D01*
X171450381Y-128140180D01*
X171452678Y-128130526D01*
X171452678Y-128122529D01*
X171752678Y-128122529D01*
X171756581Y-128135823D01*
X171770358Y-128137795D01*
X171866664Y-128123832D01*
X171877677Y-128121187D01*
X172067039Y-128056908D01*
X172077391Y-128052299D01*
X172251873Y-127954585D01*
X172261213Y-127948165D01*
X172414962Y-127820294D01*
X172422972Y-127812284D01*
X172550843Y-127658535D01*
X172557263Y-127649195D01*
X172654977Y-127474713D01*
X172659586Y-127464361D01*
X172723865Y-127274999D01*
X172726510Y-127263986D01*
X172740479Y-127167644D01*
X172740152Y-127165352D01*
X173000966Y-127165352D01*
X173001599Y-127175005D01*
X173003368Y-127186173D01*
X173052599Y-127380022D01*
X173056372Y-127390677D01*
X173140104Y-127572305D01*
X173145760Y-127582101D01*
X173261186Y-127745426D01*
X173268537Y-127754032D01*
X173411785Y-127893579D01*
X173420586Y-127900706D01*
X173586864Y-128011809D01*
X173596822Y-128017216D01*
X173780563Y-128096157D01*
X173791327Y-128099655D01*
X173981554Y-128142698D01*
X173990021Y-128140565D01*
X173990381Y-128140180D01*
X173992678Y-128130526D01*
X173992678Y-128122529D01*
X174292678Y-128122529D01*
X174296581Y-128135823D01*
X174310358Y-128137795D01*
X174406664Y-128123832D01*
X174417677Y-128121187D01*
X174607039Y-128056908D01*
X174617391Y-128052299D01*
X174791873Y-127954585D01*
X174801213Y-127948165D01*
X174954962Y-127820294D01*
X174962972Y-127812284D01*
X175090843Y-127658535D01*
X175097263Y-127649195D01*
X175194977Y-127474713D01*
X175199586Y-127464361D01*
X175263865Y-127274999D01*
X175266510Y-127263986D01*
X175280479Y-127167644D01*
X175280152Y-127165352D01*
X175540966Y-127165352D01*
X175541599Y-127175005D01*
X175543368Y-127186173D01*
X175592599Y-127380022D01*
X175596372Y-127390677D01*
X175680104Y-127572305D01*
X175685760Y-127582101D01*
X175801186Y-127745426D01*
X175808537Y-127754032D01*
X175951785Y-127893579D01*
X175960586Y-127900706D01*
X176126864Y-128011809D01*
X176136822Y-128017216D01*
X176320563Y-128096157D01*
X176331327Y-128099655D01*
X176521554Y-128142698D01*
X176530021Y-128140565D01*
X176530381Y-128140180D01*
X176532678Y-128130526D01*
X176532678Y-128122529D01*
X176832678Y-128122529D01*
X176836581Y-128135823D01*
X176850358Y-128137795D01*
X176946664Y-128123832D01*
X176957677Y-128121187D01*
X177147039Y-128056908D01*
X177157391Y-128052299D01*
X177331873Y-127954585D01*
X177341213Y-127948165D01*
X177494962Y-127820294D01*
X177502972Y-127812284D01*
X177630843Y-127658535D01*
X177637263Y-127649195D01*
X177734977Y-127474713D01*
X177739586Y-127464361D01*
X177803865Y-127274999D01*
X177806510Y-127263986D01*
X177820479Y-127167644D01*
X177820152Y-127165352D01*
X178080966Y-127165352D01*
X178081599Y-127175005D01*
X178083368Y-127186173D01*
X178132599Y-127380022D01*
X178136372Y-127390677D01*
X178220104Y-127572305D01*
X178225760Y-127582101D01*
X178341186Y-127745426D01*
X178348537Y-127754032D01*
X178491785Y-127893579D01*
X178500586Y-127900706D01*
X178666864Y-128011809D01*
X178676822Y-128017216D01*
X178860563Y-128096157D01*
X178871327Y-128099655D01*
X179061554Y-128142698D01*
X179070021Y-128140565D01*
X179070381Y-128140180D01*
X179072678Y-128130526D01*
X179072678Y-128122529D01*
X179372678Y-128122529D01*
X179376581Y-128135823D01*
X179390358Y-128137795D01*
X179486664Y-128123832D01*
X179497677Y-128121187D01*
X179687039Y-128056908D01*
X179697391Y-128052299D01*
X179871873Y-127954585D01*
X179881213Y-127948165D01*
X180034962Y-127820294D01*
X180042972Y-127812284D01*
X180170843Y-127658535D01*
X180177266Y-127649191D01*
X180179989Y-127644329D01*
X180229921Y-127595455D01*
X180298349Y-127581335D01*
X180363548Y-127606451D01*
X180404818Y-127662830D01*
X180412179Y-127704916D01*
X180412179Y-127897376D01*
X180418827Y-127958580D01*
X180469152Y-128092824D01*
X180474447Y-128099889D01*
X180474448Y-128099891D01*
X180530017Y-128174035D01*
X180555132Y-128207546D01*
X180562197Y-128212841D01*
X180662787Y-128288230D01*
X180662789Y-128288231D01*
X180669854Y-128293526D01*
X180804098Y-128343851D01*
X180865301Y-128350500D01*
X181762544Y-128350500D01*
X182660054Y-128350499D01*
X182721258Y-128343851D01*
X182855502Y-128293526D01*
X182862567Y-128288231D01*
X182862569Y-128288230D01*
X182963159Y-128212841D01*
X182970224Y-128207546D01*
X182995339Y-128174035D01*
X183050908Y-128099891D01*
X183050909Y-128099889D01*
X183056204Y-128092824D01*
X183106529Y-127958580D01*
X183113178Y-127897377D01*
X183113177Y-126102624D01*
X183106529Y-126041420D01*
X183056204Y-125907176D01*
X183022349Y-125862003D01*
X182975519Y-125799519D01*
X182970224Y-125792454D01*
X182881685Y-125726097D01*
X182862569Y-125711770D01*
X182862567Y-125711769D01*
X182855502Y-125706474D01*
X182721258Y-125656149D01*
X182660055Y-125649500D01*
X181762812Y-125649500D01*
X180865302Y-125649501D01*
X180804098Y-125656149D01*
X180669854Y-125706474D01*
X180662789Y-125711769D01*
X180662787Y-125711770D01*
X180643671Y-125726097D01*
X180555132Y-125792454D01*
X180549837Y-125799519D01*
X180503008Y-125862003D01*
X180469152Y-125907176D01*
X180418827Y-126041420D01*
X180412178Y-126102623D01*
X180412178Y-126297462D01*
X180392493Y-126364501D01*
X180339689Y-126410256D01*
X180270531Y-126420200D01*
X180206975Y-126391175D01*
X180188823Y-126371654D01*
X180084360Y-126231762D01*
X180076779Y-126223342D01*
X179929928Y-126087595D01*
X179920943Y-126080700D01*
X179751813Y-125973987D01*
X179741722Y-125968846D01*
X179555983Y-125894743D01*
X179545111Y-125891522D01*
X179390166Y-125860703D01*
X179377494Y-125861836D01*
X179372678Y-125876749D01*
X179372678Y-128122529D01*
X179072678Y-128122529D01*
X179072678Y-127167830D01*
X179068274Y-127152831D01*
X179066904Y-127151644D01*
X179059346Y-127150000D01*
X178097790Y-127150000D01*
X178082986Y-127154347D01*
X178080966Y-127165352D01*
X177820152Y-127165352D01*
X177818524Y-127153930D01*
X177805170Y-127150000D01*
X176850508Y-127150000D01*
X176835509Y-127154404D01*
X176834322Y-127155774D01*
X176832678Y-127163332D01*
X176832678Y-128122529D01*
X176532678Y-128122529D01*
X176532678Y-127167830D01*
X176528274Y-127152831D01*
X176526904Y-127151644D01*
X176519346Y-127150000D01*
X175557790Y-127150000D01*
X175542986Y-127154347D01*
X175540966Y-127165352D01*
X175280152Y-127165352D01*
X175278524Y-127153930D01*
X175265170Y-127150000D01*
X174310508Y-127150000D01*
X174295509Y-127154404D01*
X174294322Y-127155774D01*
X174292678Y-127163332D01*
X174292678Y-128122529D01*
X173992678Y-128122529D01*
X173992678Y-127167830D01*
X173988274Y-127152831D01*
X173986904Y-127151644D01*
X173979346Y-127150000D01*
X173017790Y-127150000D01*
X173002986Y-127154347D01*
X173000966Y-127165352D01*
X172740152Y-127165352D01*
X172738524Y-127153930D01*
X172725170Y-127150000D01*
X171770508Y-127150000D01*
X171755509Y-127154404D01*
X171754322Y-127155774D01*
X171752678Y-127163332D01*
X171752678Y-128122529D01*
X171452678Y-128122529D01*
X171452678Y-126832170D01*
X171752678Y-126832170D01*
X171757082Y-126847169D01*
X171758452Y-126848356D01*
X171766010Y-126850000D01*
X172725992Y-126850000D01*
X172740309Y-126845796D01*
X172742339Y-126833856D01*
X172742195Y-126832293D01*
X173004418Y-126832293D01*
X173006822Y-126846488D01*
X173019360Y-126850000D01*
X173974848Y-126850000D01*
X173989847Y-126845596D01*
X173991034Y-126844226D01*
X173992678Y-126836668D01*
X173992678Y-126832170D01*
X174292678Y-126832170D01*
X174297082Y-126847169D01*
X174298452Y-126848356D01*
X174306010Y-126850000D01*
X175265992Y-126850000D01*
X175280309Y-126845796D01*
X175282339Y-126833856D01*
X175282195Y-126832293D01*
X175544418Y-126832293D01*
X175546822Y-126846488D01*
X175559360Y-126850000D01*
X176514848Y-126850000D01*
X176529847Y-126845596D01*
X176531034Y-126844226D01*
X176532678Y-126836668D01*
X176532678Y-126832170D01*
X176832678Y-126832170D01*
X176837082Y-126847169D01*
X176838452Y-126848356D01*
X176846010Y-126850000D01*
X177805992Y-126850000D01*
X177820309Y-126845796D01*
X177822339Y-126833856D01*
X177822195Y-126832293D01*
X178084418Y-126832293D01*
X178086822Y-126846488D01*
X178099360Y-126850000D01*
X179054848Y-126850000D01*
X179069847Y-126845596D01*
X179071034Y-126844226D01*
X179072678Y-126836668D01*
X179072678Y-125876667D01*
X179068932Y-125863909D01*
X179054252Y-125862003D01*
X178929362Y-125883464D01*
X178918431Y-125886393D01*
X178730796Y-125955615D01*
X178720589Y-125960483D01*
X178548713Y-126062738D01*
X178539555Y-126069392D01*
X178389196Y-126201254D01*
X178381406Y-126209463D01*
X178257594Y-126366518D01*
X178251429Y-126376011D01*
X178158311Y-126553000D01*
X178153978Y-126563461D01*
X178094676Y-126754444D01*
X178092320Y-126765526D01*
X178084418Y-126832293D01*
X177822195Y-126832293D01*
X177818786Y-126795191D01*
X177816722Y-126784058D01*
X177762438Y-126591583D01*
X177758381Y-126581013D01*
X177669930Y-126401652D01*
X177664011Y-126391994D01*
X177544360Y-126231762D01*
X177536779Y-126223342D01*
X177389928Y-126087595D01*
X177380943Y-126080700D01*
X177211813Y-125973987D01*
X177201722Y-125968846D01*
X177015983Y-125894743D01*
X177005111Y-125891522D01*
X176850166Y-125860703D01*
X176837494Y-125861836D01*
X176832678Y-125876749D01*
X176832678Y-126832170D01*
X176532678Y-126832170D01*
X176532678Y-125876667D01*
X176528932Y-125863909D01*
X176514252Y-125862003D01*
X176389362Y-125883464D01*
X176378431Y-125886393D01*
X176190796Y-125955615D01*
X176180589Y-125960483D01*
X176008713Y-126062738D01*
X175999555Y-126069392D01*
X175849196Y-126201254D01*
X175841406Y-126209463D01*
X175717594Y-126366518D01*
X175711429Y-126376011D01*
X175618311Y-126553000D01*
X175613978Y-126563461D01*
X175554676Y-126754444D01*
X175552320Y-126765526D01*
X175544418Y-126832293D01*
X175282195Y-126832293D01*
X175278786Y-126795191D01*
X175276722Y-126784058D01*
X175222438Y-126591583D01*
X175218381Y-126581013D01*
X175129930Y-126401652D01*
X175124011Y-126391994D01*
X175004360Y-126231762D01*
X174996779Y-126223342D01*
X174849928Y-126087595D01*
X174840943Y-126080700D01*
X174671813Y-125973987D01*
X174661722Y-125968846D01*
X174475983Y-125894743D01*
X174465111Y-125891522D01*
X174310166Y-125860703D01*
X174297494Y-125861836D01*
X174292678Y-125876749D01*
X174292678Y-126832170D01*
X173992678Y-126832170D01*
X173992678Y-125876667D01*
X173988932Y-125863909D01*
X173974252Y-125862003D01*
X173849362Y-125883464D01*
X173838431Y-125886393D01*
X173650796Y-125955615D01*
X173640589Y-125960483D01*
X173468713Y-126062738D01*
X173459555Y-126069392D01*
X173309196Y-126201254D01*
X173301406Y-126209463D01*
X173177594Y-126366518D01*
X173171429Y-126376011D01*
X173078311Y-126553000D01*
X173073978Y-126563461D01*
X173014676Y-126754444D01*
X173012320Y-126765526D01*
X173004418Y-126832293D01*
X172742195Y-126832293D01*
X172738786Y-126795191D01*
X172736722Y-126784058D01*
X172682438Y-126591583D01*
X172678381Y-126581013D01*
X172589930Y-126401652D01*
X172584011Y-126391994D01*
X172464360Y-126231762D01*
X172456779Y-126223342D01*
X172309928Y-126087595D01*
X172300943Y-126080700D01*
X172131813Y-125973987D01*
X172121722Y-125968846D01*
X171935983Y-125894743D01*
X171925111Y-125891522D01*
X171770166Y-125860703D01*
X171757494Y-125861836D01*
X171752678Y-125876749D01*
X171752678Y-126832170D01*
X171452678Y-126832170D01*
X171452678Y-125876667D01*
X171448932Y-125863909D01*
X171434252Y-125862003D01*
X171309362Y-125883464D01*
X171298431Y-125886393D01*
X171110796Y-125955615D01*
X171100589Y-125960483D01*
X170928713Y-126062738D01*
X170919555Y-126069392D01*
X170905759Y-126081491D01*
X170842377Y-126110894D01*
X170773161Y-126101362D01*
X170720085Y-126055922D01*
X170700000Y-125988263D01*
X170700000Y-125851362D01*
X170719685Y-125784323D01*
X170736319Y-125763681D01*
X171463681Y-125036319D01*
X171525004Y-125002834D01*
X171551362Y-125000000D01*
X189000000Y-125000000D01*
X193500000Y-120500000D01*
X193500000Y-79224000D01*
X193519685Y-79156961D01*
X193572489Y-79111206D01*
X193624000Y-79100000D01*
X193984821Y-79100000D01*
X193999820Y-79095596D01*
X194001007Y-79094226D01*
X194002651Y-79086668D01*
X194002651Y-79082170D01*
X194302651Y-79082170D01*
X194307055Y-79097169D01*
X194308425Y-79098356D01*
X194315983Y-79100000D01*
X194993558Y-79100000D01*
X195000870Y-79099566D01*
X195014138Y-79097988D01*
X195031884Y-79093111D01*
X195115054Y-79056168D01*
X195133603Y-79043420D01*
X195196383Y-78980530D01*
X195209104Y-78961951D01*
X195245891Y-78878739D01*
X195250742Y-78860950D01*
X195252235Y-78848139D01*
X195252651Y-78840983D01*
X195252651Y-78167830D01*
X195248247Y-78152831D01*
X195246877Y-78151644D01*
X195239319Y-78150000D01*
X194320481Y-78150000D01*
X194305482Y-78154404D01*
X194304295Y-78155774D01*
X194302651Y-78163332D01*
X194302651Y-79082170D01*
X194002651Y-79082170D01*
X194002651Y-77832170D01*
X194302651Y-77832170D01*
X194307055Y-77847169D01*
X194308425Y-77848356D01*
X194315983Y-77850000D01*
X195234821Y-77850000D01*
X195249820Y-77845596D01*
X195251007Y-77844226D01*
X195252651Y-77836668D01*
X195252651Y-77159093D01*
X195252217Y-77151781D01*
X195250639Y-77138513D01*
X195245762Y-77120767D01*
X195208819Y-77037597D01*
X195196071Y-77019048D01*
X195133181Y-76956268D01*
X195114602Y-76943547D01*
X195031390Y-76906760D01*
X195013601Y-76901909D01*
X195000790Y-76900416D01*
X194993634Y-76900000D01*
X194320481Y-76900000D01*
X194305482Y-76904404D01*
X194304295Y-76905774D01*
X194302651Y-76913332D01*
X194302651Y-77832170D01*
X194002651Y-77832170D01*
X194002651Y-76917830D01*
X193998247Y-76902831D01*
X193996877Y-76901644D01*
X193989319Y-76900000D01*
X193624000Y-76900000D01*
X193556961Y-76880315D01*
X193511206Y-76827511D01*
X193500000Y-76776000D01*
X193500000Y-76051362D01*
X193519685Y-75984323D01*
X193536319Y-75963681D01*
X194963681Y-74536319D01*
X195025004Y-74502834D01*
X195051362Y-74500000D01*
X207448638Y-74500000D01*
X207515677Y-74519685D01*
G37*
%TD.AperFunction*%
%TD*%
%TA.AperFunction,Conductor*%
%TO.N,Earth*%
G36*
X211957538Y-46001552D02*
G01*
X211973862Y-46003383D01*
X211973863Y-46003383D01*
X211985970Y-46004741D01*
X211998107Y-46003722D01*
X211998112Y-46003722D01*
X212005279Y-46003120D01*
X212042399Y-46002779D01*
X212244773Y-46016043D01*
X212277058Y-46020294D01*
X212501630Y-46064965D01*
X212533090Y-46073394D01*
X212749918Y-46146997D01*
X212780010Y-46159462D01*
X212985357Y-46260728D01*
X213013564Y-46277013D01*
X213203957Y-46404230D01*
X213229797Y-46424058D01*
X213401947Y-46575030D01*
X213424974Y-46598057D01*
X213575942Y-46770203D01*
X213595770Y-46796043D01*
X213722987Y-46986436D01*
X213739272Y-47014643D01*
X213840538Y-47219990D01*
X213853003Y-47250082D01*
X213926606Y-47466910D01*
X213935035Y-47498370D01*
X213979706Y-47722943D01*
X213983957Y-47755231D01*
X213983958Y-47755235D01*
X213983958Y-47755237D01*
X213996263Y-47942988D01*
X213996772Y-47962750D01*
X213996617Y-47973866D01*
X213995259Y-47985970D01*
X213996278Y-47998105D01*
X213996278Y-47998106D01*
X213999127Y-48032034D01*
X214000000Y-48052869D01*
X214000000Y-136929783D01*
X213998448Y-136957538D01*
X213997278Y-136967966D01*
X213995259Y-136985970D01*
X213996278Y-136998107D01*
X213996278Y-136998112D01*
X213996880Y-137005279D01*
X213997221Y-137042399D01*
X213983957Y-137244773D01*
X213979706Y-137277058D01*
X213935035Y-137501630D01*
X213926606Y-137533090D01*
X213853003Y-137749918D01*
X213840539Y-137780009D01*
X213824497Y-137812537D01*
X213739272Y-137985357D01*
X213722987Y-138013564D01*
X213595770Y-138203957D01*
X213575942Y-138229797D01*
X213463577Y-138357925D01*
X213424974Y-138401943D01*
X213401947Y-138424970D01*
X213372382Y-138450898D01*
X213229797Y-138575942D01*
X213203957Y-138595770D01*
X213013564Y-138722987D01*
X212985357Y-138739272D01*
X212780010Y-138840538D01*
X212749918Y-138853003D01*
X212533090Y-138926606D01*
X212501630Y-138935035D01*
X212277057Y-138979706D01*
X212244769Y-138983957D01*
X212136675Y-138991042D01*
X212057012Y-138996263D01*
X212037250Y-138996772D01*
X212026134Y-138996617D01*
X212014030Y-138995259D01*
X212001895Y-138996278D01*
X212001894Y-138996278D01*
X211967966Y-138999127D01*
X211947131Y-139000000D01*
X99452746Y-139000000D01*
X99357458Y-138981046D01*
X99276676Y-138927070D01*
X99222700Y-138846288D01*
X99203746Y-138751000D01*
X99222700Y-138655712D01*
X99276985Y-138574622D01*
X99308397Y-138543320D01*
X99447582Y-138349623D01*
X99553263Y-138135795D01*
X99622600Y-137907577D01*
X99636702Y-137800462D01*
X99667932Y-137708463D01*
X99731990Y-137635418D01*
X99819126Y-137592447D01*
X99916073Y-137586093D01*
X100009199Y-137617977D01*
X100171112Y-137712591D01*
X100180655Y-137716235D01*
X100180661Y-137716238D01*
X100384388Y-137794034D01*
X100384393Y-137794035D01*
X100393937Y-137797680D01*
X100417933Y-137802562D01*
X100617653Y-137843196D01*
X100617655Y-137843196D01*
X100627666Y-137845233D01*
X100731566Y-137849043D01*
X100855813Y-137853599D01*
X100855818Y-137853599D01*
X100866025Y-137853973D01*
X100876156Y-137852675D01*
X100876160Y-137852675D01*
X101092479Y-137824963D01*
X101092482Y-137824962D01*
X101102609Y-137823665D01*
X101331068Y-137755125D01*
X101545264Y-137650191D01*
X101739445Y-137511683D01*
X101908397Y-137343320D01*
X102047582Y-137149623D01*
X102153263Y-136935795D01*
X102208618Y-136753599D01*
X102219629Y-136717357D01*
X102219630Y-136717353D01*
X102222600Y-136707577D01*
X102250948Y-136492252D01*
X102252869Y-136477663D01*
X102252869Y-136477660D01*
X102253733Y-136471099D01*
X102255471Y-136400000D01*
X102235927Y-136162284D01*
X102201891Y-136026781D01*
X102180312Y-135940867D01*
X102180310Y-135940861D01*
X102177821Y-135930952D01*
X102136446Y-135835795D01*
X102086790Y-135721594D01*
X102086788Y-135721591D01*
X102082712Y-135712216D01*
X101978111Y-135550527D01*
X101942269Y-135460229D01*
X101938178Y-135415280D01*
X101938178Y-128959618D01*
X101957132Y-128864330D01*
X102011108Y-128783548D01*
X102071812Y-128738957D01*
X102166274Y-128689573D01*
X102176045Y-128681604D01*
X102176048Y-128681602D01*
X102314005Y-128569087D01*
X102323787Y-128561109D01*
X102363599Y-128512295D01*
X102444280Y-128413370D01*
X102444282Y-128413367D01*
X102452251Y-128403596D01*
X102470027Y-128369595D01*
X102540573Y-128234652D01*
X102546419Y-128223470D01*
X102602444Y-128028087D01*
X102609914Y-127944387D01*
X102612686Y-127913332D01*
X102612686Y-127913325D01*
X102613178Y-127907816D01*
X102613178Y-126349500D01*
X102632132Y-126254212D01*
X102686108Y-126173430D01*
X102766890Y-126119454D01*
X102862178Y-126100500D01*
X104222177Y-126100500D01*
X104317465Y-126119454D01*
X104398247Y-126173430D01*
X104452223Y-126254212D01*
X104471177Y-126349500D01*
X104459396Y-126423879D01*
X104458252Y-126426703D01*
X104395077Y-126681032D01*
X104368366Y-126941726D01*
X104378655Y-127203582D01*
X104425736Y-127461376D01*
X104508672Y-127709965D01*
X104625806Y-127944387D01*
X104774802Y-128159967D01*
X104861942Y-128254234D01*
X104952688Y-128352402D01*
X104951721Y-128353296D01*
X105002437Y-128424265D01*
X105024500Y-128526737D01*
X105024500Y-134372270D01*
X105005546Y-134467558D01*
X104981198Y-134512588D01*
X104940233Y-134572640D01*
X104940229Y-134572647D01*
X104934475Y-134581082D01*
X104834051Y-134797428D01*
X104831324Y-134807263D01*
X104831322Y-134807267D01*
X104823411Y-134835795D01*
X104770309Y-135027272D01*
X104767033Y-135057925D01*
X104746450Y-135250529D01*
X104744963Y-135264440D01*
X104745552Y-135274647D01*
X104757131Y-135475448D01*
X104758694Y-135502562D01*
X104811131Y-135735245D01*
X104814974Y-135744709D01*
X104894917Y-135941585D01*
X104900867Y-135956239D01*
X104906204Y-135964949D01*
X104906207Y-135964954D01*
X104998550Y-136115643D01*
X105025493Y-136159609D01*
X105181660Y-136339894D01*
X105365176Y-136492252D01*
X105571112Y-136612591D01*
X105580655Y-136616235D01*
X105580661Y-136616238D01*
X105784388Y-136694034D01*
X105784393Y-136694035D01*
X105793937Y-136697680D01*
X105890652Y-136717357D01*
X106017653Y-136743196D01*
X106017655Y-136743196D01*
X106027666Y-136745233D01*
X106131566Y-136749043D01*
X106255813Y-136753599D01*
X106255818Y-136753599D01*
X106266025Y-136753973D01*
X106276156Y-136752675D01*
X106276160Y-136752675D01*
X106492479Y-136724963D01*
X106492482Y-136724962D01*
X106502609Y-136723665D01*
X106731068Y-136655125D01*
X106945264Y-136550191D01*
X107139445Y-136411683D01*
X107308397Y-136243320D01*
X107447582Y-136049623D01*
X107553263Y-135835795D01*
X107612351Y-135641311D01*
X107658187Y-135555648D01*
X107733315Y-135494046D01*
X107826299Y-135465883D01*
X107922982Y-135475448D01*
X107976225Y-135498709D01*
X108131718Y-135589571D01*
X108171112Y-135612591D01*
X108180655Y-135616235D01*
X108180661Y-135616238D01*
X108384388Y-135694034D01*
X108384393Y-135694035D01*
X108393937Y-135697680D01*
X108507226Y-135720729D01*
X108617653Y-135743196D01*
X108617655Y-135743196D01*
X108627666Y-135745233D01*
X108731566Y-135749043D01*
X108855813Y-135753599D01*
X108855818Y-135753599D01*
X108866025Y-135753973D01*
X108876156Y-135752675D01*
X108876160Y-135752675D01*
X109092479Y-135724963D01*
X109092482Y-135724962D01*
X109102609Y-135723665D01*
X109331068Y-135655125D01*
X109545264Y-135550191D01*
X109739445Y-135411683D01*
X109851519Y-135300000D01*
X109901163Y-135250529D01*
X109901164Y-135250528D01*
X109908397Y-135243320D01*
X110047582Y-135049623D01*
X110153263Y-134835795D01*
X110222600Y-134607577D01*
X110242058Y-134459781D01*
X110252869Y-134377663D01*
X110252869Y-134377660D01*
X110253733Y-134371099D01*
X110255471Y-134300000D01*
X110252821Y-134267761D01*
X110236764Y-134072466D01*
X110235927Y-134062284D01*
X110206542Y-133945295D01*
X110180312Y-133840867D01*
X110180310Y-133840861D01*
X110177821Y-133830952D01*
X110082712Y-133612216D01*
X110077166Y-133603643D01*
X110077160Y-133603632D01*
X110015435Y-133508220D01*
X109979591Y-133417919D01*
X109975500Y-133372970D01*
X109975500Y-128940107D01*
X109994454Y-128844819D01*
X110048430Y-128764037D01*
X110109138Y-128719443D01*
X110166274Y-128689573D01*
X110176045Y-128681604D01*
X110176048Y-128681602D01*
X110314005Y-128569087D01*
X110323787Y-128561109D01*
X110363599Y-128512295D01*
X110444280Y-128413370D01*
X110444282Y-128413367D01*
X110452251Y-128403596D01*
X110470027Y-128369595D01*
X110540573Y-128234652D01*
X110546419Y-128223470D01*
X110602444Y-128028087D01*
X110609914Y-127944387D01*
X110612686Y-127913332D01*
X110612686Y-127913325D01*
X110613178Y-127907816D01*
X110613178Y-126349500D01*
X110632132Y-126254212D01*
X110686108Y-126173430D01*
X110766890Y-126119454D01*
X110862178Y-126100500D01*
X112682177Y-126100500D01*
X112777465Y-126119454D01*
X112858247Y-126173430D01*
X112912223Y-126254212D01*
X112931177Y-126349500D01*
X112919396Y-126423879D01*
X112918252Y-126426703D01*
X112855077Y-126681032D01*
X112828366Y-126941726D01*
X112838655Y-127203582D01*
X112885736Y-127461376D01*
X112968672Y-127709965D01*
X113085806Y-127944387D01*
X113234802Y-128159967D01*
X113412688Y-128352402D01*
X113419508Y-128357954D01*
X113419514Y-128357960D01*
X113509185Y-128430963D01*
X113615913Y-128517853D01*
X113623452Y-128522392D01*
X113623455Y-128522394D01*
X113630669Y-128526737D01*
X113840423Y-128653019D01*
X113848535Y-128656454D01*
X113848539Y-128656456D01*
X113940549Y-128695417D01*
X114081738Y-128755203D01*
X114090249Y-128757460D01*
X114090253Y-128757461D01*
X114326530Y-128820109D01*
X114326533Y-128820109D01*
X114335043Y-128822366D01*
X114343786Y-128823401D01*
X114343787Y-128823401D01*
X114409703Y-128831202D01*
X114595285Y-128853167D01*
X114857270Y-128846993D01*
X115115772Y-128803967D01*
X115365633Y-128724946D01*
X115601866Y-128611509D01*
X115697369Y-128547696D01*
X115816429Y-128468143D01*
X115906189Y-128430963D01*
X116003344Y-128430964D01*
X116093103Y-128468143D01*
X116111973Y-128482081D01*
X116149078Y-128512289D01*
X116149083Y-128512293D01*
X116155913Y-128517853D01*
X116163452Y-128522392D01*
X116163455Y-128522394D01*
X116170669Y-128526737D01*
X116380423Y-128653019D01*
X116388535Y-128656454D01*
X116388539Y-128656456D01*
X116480549Y-128695417D01*
X116621738Y-128755203D01*
X116630249Y-128757460D01*
X116630253Y-128757461D01*
X116866530Y-128820109D01*
X116866533Y-128820109D01*
X116875043Y-128822366D01*
X116883786Y-128823401D01*
X116883787Y-128823401D01*
X116949703Y-128831202D01*
X117135285Y-128853167D01*
X117397270Y-128846993D01*
X117655772Y-128803967D01*
X117905633Y-128724946D01*
X118075756Y-128643255D01*
X118169856Y-128619093D01*
X118266042Y-128632782D01*
X118340919Y-128674759D01*
X118359082Y-128689573D01*
X118370260Y-128695417D01*
X118370265Y-128695420D01*
X118484620Y-128755203D01*
X118539208Y-128783741D01*
X118734591Y-128839766D01*
X118746397Y-128840820D01*
X118746399Y-128840820D01*
X118849346Y-128850008D01*
X118849353Y-128850008D01*
X118854862Y-128850500D01*
X120670494Y-128850500D01*
X120676003Y-128850008D01*
X120676010Y-128850008D01*
X120778957Y-128840820D01*
X120778959Y-128840820D01*
X120790765Y-128839766D01*
X120986148Y-128783741D01*
X121127178Y-128710012D01*
X121155096Y-128695417D01*
X121155101Y-128695414D01*
X121166274Y-128689573D01*
X121176045Y-128681604D01*
X121176048Y-128681602D01*
X121314005Y-128569087D01*
X121323787Y-128561109D01*
X121363599Y-128512295D01*
X121444280Y-128413370D01*
X121444282Y-128413367D01*
X121452251Y-128403596D01*
X121470027Y-128369595D01*
X121540573Y-128234652D01*
X121546419Y-128223470D01*
X121602444Y-128028087D01*
X121609914Y-127944387D01*
X121612686Y-127913332D01*
X121612686Y-127913325D01*
X121613178Y-127907816D01*
X121613178Y-126941726D01*
X123828366Y-126941726D01*
X123838655Y-127203582D01*
X123885736Y-127461376D01*
X123968672Y-127709965D01*
X124085806Y-127944387D01*
X124234802Y-128159967D01*
X124412688Y-128352402D01*
X124419508Y-128357954D01*
X124419514Y-128357960D01*
X124509185Y-128430963D01*
X124615913Y-128517853D01*
X124623452Y-128522392D01*
X124623455Y-128522394D01*
X124630669Y-128526737D01*
X124840423Y-128653019D01*
X124848535Y-128656454D01*
X124848539Y-128656456D01*
X124940549Y-128695417D01*
X125081738Y-128755203D01*
X125090249Y-128757460D01*
X125090253Y-128757461D01*
X125326530Y-128820109D01*
X125326533Y-128820109D01*
X125335043Y-128822366D01*
X125343786Y-128823401D01*
X125343787Y-128823401D01*
X125409703Y-128831202D01*
X125595285Y-128853167D01*
X125857270Y-128846993D01*
X126115772Y-128803967D01*
X126365633Y-128724946D01*
X126601866Y-128611509D01*
X126697369Y-128547696D01*
X126816429Y-128468143D01*
X126906189Y-128430963D01*
X127003344Y-128430964D01*
X127093103Y-128468143D01*
X127111973Y-128482081D01*
X127149078Y-128512289D01*
X127149083Y-128512293D01*
X127155913Y-128517853D01*
X127163452Y-128522392D01*
X127163455Y-128522394D01*
X127170669Y-128526737D01*
X127380423Y-128653019D01*
X127388535Y-128656454D01*
X127388539Y-128656456D01*
X127480549Y-128695417D01*
X127621738Y-128755203D01*
X127630249Y-128757460D01*
X127630253Y-128757461D01*
X127866530Y-128820109D01*
X127866533Y-128820109D01*
X127875043Y-128822366D01*
X127883786Y-128823401D01*
X127883787Y-128823401D01*
X127949703Y-128831202D01*
X128135285Y-128853167D01*
X128397270Y-128846993D01*
X128655772Y-128803967D01*
X128905633Y-128724946D01*
X129075756Y-128643255D01*
X129169856Y-128619093D01*
X129266042Y-128632782D01*
X129340919Y-128674759D01*
X129359082Y-128689573D01*
X129370260Y-128695417D01*
X129370265Y-128695420D01*
X129484620Y-128755203D01*
X129539208Y-128783741D01*
X129734591Y-128839766D01*
X129746397Y-128840820D01*
X129746399Y-128840820D01*
X129849346Y-128850008D01*
X129849353Y-128850008D01*
X129854862Y-128850500D01*
X131670494Y-128850500D01*
X131676003Y-128850008D01*
X131676010Y-128850008D01*
X131778957Y-128840820D01*
X131778959Y-128840820D01*
X131790765Y-128839766D01*
X131986148Y-128783741D01*
X132127178Y-128710012D01*
X132155096Y-128695417D01*
X132155101Y-128695414D01*
X132166274Y-128689573D01*
X132176045Y-128681604D01*
X132176048Y-128681602D01*
X132314005Y-128569087D01*
X132323787Y-128561109D01*
X132363599Y-128512295D01*
X132444280Y-128413370D01*
X132444282Y-128413367D01*
X132452251Y-128403596D01*
X132470027Y-128369595D01*
X132540573Y-128234652D01*
X132546419Y-128223470D01*
X132602444Y-128028087D01*
X132609914Y-127944387D01*
X132612686Y-127913332D01*
X132612686Y-127913325D01*
X132613178Y-127907816D01*
X132613178Y-126941726D01*
X134828366Y-126941726D01*
X134838655Y-127203582D01*
X134885736Y-127461376D01*
X134968672Y-127709965D01*
X135085806Y-127944387D01*
X135234802Y-128159967D01*
X135412688Y-128352402D01*
X135419508Y-128357954D01*
X135419514Y-128357960D01*
X135509185Y-128430963D01*
X135615913Y-128517853D01*
X135623452Y-128522392D01*
X135623455Y-128522394D01*
X135630669Y-128526737D01*
X135840423Y-128653019D01*
X135848535Y-128656454D01*
X135848539Y-128656456D01*
X135940549Y-128695417D01*
X136081738Y-128755203D01*
X136090249Y-128757460D01*
X136090253Y-128757461D01*
X136326530Y-128820109D01*
X136326533Y-128820109D01*
X136335043Y-128822366D01*
X136343786Y-128823401D01*
X136343787Y-128823401D01*
X136409703Y-128831202D01*
X136595285Y-128853167D01*
X136857270Y-128846993D01*
X137115772Y-128803967D01*
X137365633Y-128724946D01*
X137601866Y-128611509D01*
X137697369Y-128547696D01*
X137816429Y-128468143D01*
X137906189Y-128430963D01*
X138003344Y-128430964D01*
X138093103Y-128468143D01*
X138111973Y-128482081D01*
X138149078Y-128512289D01*
X138149083Y-128512293D01*
X138155913Y-128517853D01*
X138163452Y-128522392D01*
X138163455Y-128522394D01*
X138170669Y-128526737D01*
X138380423Y-128653019D01*
X138388535Y-128656454D01*
X138388539Y-128656456D01*
X138480549Y-128695417D01*
X138621738Y-128755203D01*
X138630249Y-128757460D01*
X138630253Y-128757461D01*
X138866530Y-128820109D01*
X138866533Y-128820109D01*
X138875043Y-128822366D01*
X138883786Y-128823401D01*
X138883787Y-128823401D01*
X138949703Y-128831202D01*
X139135285Y-128853167D01*
X139397270Y-128846993D01*
X139655772Y-128803967D01*
X139905633Y-128724946D01*
X140075756Y-128643255D01*
X140169856Y-128619093D01*
X140266042Y-128632782D01*
X140340919Y-128674759D01*
X140359082Y-128689573D01*
X140370260Y-128695417D01*
X140370265Y-128695420D01*
X140484620Y-128755203D01*
X140539208Y-128783741D01*
X140734591Y-128839766D01*
X140746397Y-128840820D01*
X140746399Y-128840820D01*
X140849346Y-128850008D01*
X140849353Y-128850008D01*
X140854862Y-128850500D01*
X142670494Y-128850500D01*
X142676003Y-128850008D01*
X142676010Y-128850008D01*
X142778957Y-128840820D01*
X142778959Y-128840820D01*
X142790765Y-128839766D01*
X142986148Y-128783741D01*
X143127178Y-128710012D01*
X143155096Y-128695417D01*
X143155101Y-128695414D01*
X143166274Y-128689573D01*
X143176045Y-128681604D01*
X143176048Y-128681602D01*
X143314005Y-128569087D01*
X143323787Y-128561109D01*
X143363599Y-128512295D01*
X143444280Y-128413370D01*
X143444282Y-128413367D01*
X143452251Y-128403596D01*
X143470027Y-128369595D01*
X143540573Y-128234652D01*
X143546419Y-128223470D01*
X143602444Y-128028087D01*
X143609914Y-127944387D01*
X143612686Y-127913332D01*
X143612686Y-127913325D01*
X143613178Y-127907816D01*
X143613178Y-126941726D01*
X145828366Y-126941726D01*
X145838655Y-127203582D01*
X145885736Y-127461376D01*
X145968672Y-127709965D01*
X146085806Y-127944387D01*
X146234802Y-128159967D01*
X146412688Y-128352402D01*
X146419508Y-128357954D01*
X146419514Y-128357960D01*
X146509185Y-128430963D01*
X146615913Y-128517853D01*
X146623452Y-128522392D01*
X146623455Y-128522394D01*
X146630669Y-128526737D01*
X146840423Y-128653019D01*
X146848535Y-128656454D01*
X146848539Y-128656456D01*
X146940549Y-128695417D01*
X147081738Y-128755203D01*
X147090249Y-128757460D01*
X147090253Y-128757461D01*
X147326530Y-128820109D01*
X147326533Y-128820109D01*
X147335043Y-128822366D01*
X147343786Y-128823401D01*
X147343787Y-128823401D01*
X147409703Y-128831202D01*
X147595285Y-128853167D01*
X147857270Y-128846993D01*
X148115772Y-128803967D01*
X148365633Y-128724946D01*
X148601866Y-128611509D01*
X148697369Y-128547696D01*
X148816429Y-128468143D01*
X148906189Y-128430963D01*
X149003344Y-128430964D01*
X149093103Y-128468143D01*
X149111973Y-128482081D01*
X149149078Y-128512289D01*
X149149083Y-128512293D01*
X149155913Y-128517853D01*
X149163452Y-128522392D01*
X149163455Y-128522394D01*
X149170669Y-128526737D01*
X149380423Y-128653019D01*
X149388535Y-128656454D01*
X149388539Y-128656456D01*
X149480549Y-128695417D01*
X149621738Y-128755203D01*
X149630249Y-128757460D01*
X149630253Y-128757461D01*
X149866530Y-128820109D01*
X149866533Y-128820109D01*
X149875043Y-128822366D01*
X149883786Y-128823401D01*
X149883787Y-128823401D01*
X149949703Y-128831202D01*
X150135285Y-128853167D01*
X150397270Y-128846993D01*
X150655772Y-128803967D01*
X150905633Y-128724946D01*
X151075756Y-128643255D01*
X151169856Y-128619093D01*
X151266042Y-128632782D01*
X151340919Y-128674759D01*
X151359082Y-128689573D01*
X151370260Y-128695417D01*
X151370265Y-128695420D01*
X151484620Y-128755203D01*
X151539208Y-128783741D01*
X151734591Y-128839766D01*
X151746397Y-128840820D01*
X151746399Y-128840820D01*
X151849346Y-128850008D01*
X151849353Y-128850008D01*
X151854862Y-128850500D01*
X153670494Y-128850500D01*
X153676003Y-128850008D01*
X153676010Y-128850008D01*
X153778957Y-128840820D01*
X153778959Y-128840820D01*
X153790765Y-128839766D01*
X153986148Y-128783741D01*
X154127178Y-128710012D01*
X154155096Y-128695417D01*
X154155101Y-128695414D01*
X154166274Y-128689573D01*
X154176045Y-128681604D01*
X154176048Y-128681602D01*
X154314005Y-128569087D01*
X154323787Y-128561109D01*
X154363599Y-128512295D01*
X154444280Y-128413370D01*
X154444282Y-128413367D01*
X154452251Y-128403596D01*
X154470027Y-128369595D01*
X154530336Y-128254234D01*
X154591279Y-128178571D01*
X154676539Y-128131989D01*
X154773135Y-128121581D01*
X154866361Y-128148931D01*
X154942024Y-128209874D01*
X154988606Y-128295134D01*
X155000000Y-128369595D01*
X155000000Y-128948638D01*
X155005731Y-129055541D01*
X155008565Y-129081899D01*
X155046649Y-129267761D01*
X155051396Y-129279037D01*
X155122710Y-129448437D01*
X155122714Y-129448445D01*
X155125156Y-129454246D01*
X155158641Y-129515569D01*
X155201347Y-129586612D01*
X155329212Y-129743426D01*
X156256574Y-130670788D01*
X156259041Y-130673003D01*
X156259040Y-130673003D01*
X156333769Y-130740127D01*
X156333778Y-130740135D01*
X156336221Y-130742329D01*
X156356863Y-130758963D01*
X156361801Y-130762221D01*
X156361803Y-130762223D01*
X156504996Y-130856714D01*
X156504999Y-130856716D01*
X156515206Y-130863451D01*
X156526531Y-130868066D01*
X156526535Y-130868068D01*
X156603595Y-130899469D01*
X156702583Y-130939806D01*
X156708638Y-130941584D01*
X156708641Y-130941585D01*
X156767128Y-130958759D01*
X156767143Y-130958763D01*
X156769622Y-130959491D01*
X156850063Y-130979530D01*
X157051362Y-131000000D01*
X168948638Y-131000000D01*
X168991945Y-130997678D01*
X169052205Y-130994448D01*
X169052211Y-130994448D01*
X169055541Y-130994269D01*
X169058850Y-130993913D01*
X169058865Y-130993912D01*
X169067906Y-130992939D01*
X169081899Y-130991435D01*
X169150492Y-130977380D01*
X169255776Y-130955807D01*
X169255778Y-130955806D01*
X169267761Y-130953351D01*
X169279035Y-130948605D01*
X169279041Y-130948603D01*
X169354388Y-130916883D01*
X169449565Y-130897380D01*
X169544961Y-130915785D01*
X169626052Y-130969295D01*
X169680493Y-131049764D01*
X169700000Y-131146376D01*
X169700000Y-133948638D01*
X169705731Y-134055541D01*
X169708565Y-134081899D01*
X169746649Y-134267761D01*
X169751396Y-134279037D01*
X169822710Y-134448437D01*
X169822714Y-134448445D01*
X169825156Y-134454246D01*
X169858641Y-134515569D01*
X169901347Y-134586612D01*
X169906966Y-134593503D01*
X169906968Y-134593506D01*
X169918442Y-134607577D01*
X170029212Y-134743426D01*
X170956574Y-135670788D01*
X170959041Y-135673003D01*
X170959040Y-135673003D01*
X171033769Y-135740127D01*
X171033778Y-135740135D01*
X171036221Y-135742329D01*
X171056863Y-135758963D01*
X171061801Y-135762221D01*
X171061803Y-135762223D01*
X171204996Y-135856714D01*
X171204999Y-135856716D01*
X171215206Y-135863451D01*
X171226531Y-135868066D01*
X171226535Y-135868068D01*
X171298586Y-135897428D01*
X171402583Y-135939806D01*
X171408638Y-135941584D01*
X171408641Y-135941585D01*
X171467128Y-135958759D01*
X171467143Y-135958763D01*
X171469622Y-135959491D01*
X171550063Y-135979530D01*
X171751362Y-136000000D01*
X196948638Y-136000000D01*
X196991945Y-135997678D01*
X197052205Y-135994448D01*
X197052211Y-135994448D01*
X197055541Y-135994269D01*
X197058850Y-135993913D01*
X197058865Y-135993912D01*
X197067906Y-135992939D01*
X197081899Y-135991435D01*
X197211135Y-135964954D01*
X197255776Y-135955807D01*
X197255778Y-135955806D01*
X197267761Y-135953351D01*
X197295710Y-135941585D01*
X197448437Y-135877290D01*
X197448445Y-135877286D01*
X197454246Y-135874844D01*
X197459776Y-135871825D01*
X197459781Y-135871822D01*
X197486862Y-135857034D01*
X197515569Y-135841359D01*
X197586612Y-135798653D01*
X197635288Y-135758963D01*
X197738543Y-135674770D01*
X197738548Y-135674766D01*
X197743426Y-135670788D01*
X211670788Y-121743426D01*
X211742329Y-121663779D01*
X211758963Y-121643137D01*
X211863451Y-121484794D01*
X211868066Y-121473469D01*
X211868068Y-121473465D01*
X211920706Y-121344288D01*
X211939806Y-121297417D01*
X211959491Y-121230378D01*
X211979530Y-121149937D01*
X212000000Y-120948638D01*
X212000000Y-78051362D01*
X211994269Y-77944459D01*
X211991435Y-77918101D01*
X211953351Y-77732239D01*
X211910751Y-77631047D01*
X211877290Y-77551563D01*
X211877286Y-77551555D01*
X211874844Y-77545754D01*
X211858164Y-77515206D01*
X211842602Y-77486708D01*
X211841359Y-77484431D01*
X211798653Y-77413388D01*
X211748817Y-77352269D01*
X211674770Y-77261457D01*
X211674766Y-77261452D01*
X211670788Y-77256574D01*
X208243426Y-73829212D01*
X208237008Y-73823447D01*
X208166231Y-73759873D01*
X208166222Y-73759865D01*
X208163779Y-73757671D01*
X208143137Y-73741037D01*
X208138197Y-73737777D01*
X207995004Y-73643286D01*
X207995001Y-73643284D01*
X207984794Y-73636549D01*
X207973469Y-73631934D01*
X207973465Y-73631932D01*
X207896405Y-73600531D01*
X207797417Y-73560194D01*
X207791362Y-73558416D01*
X207791359Y-73558415D01*
X207732872Y-73541241D01*
X207732857Y-73541237D01*
X207730378Y-73540509D01*
X207649937Y-73520470D01*
X207448638Y-73500000D01*
X195051362Y-73500000D01*
X195008055Y-73502322D01*
X194947795Y-73505552D01*
X194947789Y-73505552D01*
X194944459Y-73505731D01*
X194941150Y-73506087D01*
X194941135Y-73506088D01*
X194932094Y-73507061D01*
X194918101Y-73508565D01*
X194912317Y-73509750D01*
X194912318Y-73509750D01*
X194744224Y-73544193D01*
X194744222Y-73544194D01*
X194732239Y-73546649D01*
X194720963Y-73551396D01*
X194551563Y-73622710D01*
X194551555Y-73622714D01*
X194545754Y-73625156D01*
X194540224Y-73628175D01*
X194540219Y-73628178D01*
X194524889Y-73636549D01*
X194484431Y-73658641D01*
X194413388Y-73701347D01*
X194406497Y-73706966D01*
X194406494Y-73706968D01*
X194261457Y-73825230D01*
X194261452Y-73825234D01*
X194256574Y-73829212D01*
X192829212Y-75256574D01*
X192757671Y-75336221D01*
X192741037Y-75356863D01*
X192737779Y-75361801D01*
X192737777Y-75361803D01*
X192708545Y-75406102D01*
X192640243Y-75475195D01*
X192550699Y-75512891D01*
X192453545Y-75513450D01*
X192363573Y-75476788D01*
X192299167Y-75414244D01*
X192298653Y-75413388D01*
X192170788Y-75256574D01*
X190743426Y-73829212D01*
X190737008Y-73823447D01*
X190666231Y-73759873D01*
X190666222Y-73759865D01*
X190663779Y-73757671D01*
X190643137Y-73741037D01*
X190638197Y-73737777D01*
X190495004Y-73643286D01*
X190495001Y-73643284D01*
X190484794Y-73636549D01*
X190473469Y-73631934D01*
X190473465Y-73631932D01*
X190396405Y-73600531D01*
X190297417Y-73560194D01*
X190291362Y-73558416D01*
X190291359Y-73558415D01*
X190232872Y-73541241D01*
X190232857Y-73541237D01*
X190230378Y-73540509D01*
X190149937Y-73520470D01*
X189948638Y-73500000D01*
X178551362Y-73500000D01*
X178508055Y-73502322D01*
X178447795Y-73505552D01*
X178447789Y-73505552D01*
X178444459Y-73505731D01*
X178441150Y-73506087D01*
X178441135Y-73506088D01*
X178432094Y-73507061D01*
X178418101Y-73508565D01*
X178412317Y-73509750D01*
X178412318Y-73509750D01*
X178244224Y-73544193D01*
X178244222Y-73544194D01*
X178232239Y-73546649D01*
X178220963Y-73551396D01*
X178051563Y-73622710D01*
X178051555Y-73622714D01*
X178045754Y-73625156D01*
X178040224Y-73628175D01*
X178040219Y-73628178D01*
X178024889Y-73636549D01*
X177984431Y-73658641D01*
X177913388Y-73701347D01*
X177906497Y-73706966D01*
X177906494Y-73706968D01*
X177761457Y-73825230D01*
X177761452Y-73825234D01*
X177756574Y-73829212D01*
X174329212Y-77256574D01*
X174257676Y-77336214D01*
X174247146Y-77349281D01*
X174247004Y-77349166D01*
X174246990Y-77349185D01*
X174247131Y-77349299D01*
X174241027Y-77356874D01*
X174136549Y-77515206D01*
X174060194Y-77702583D01*
X174058416Y-77708638D01*
X174058415Y-77708641D01*
X174047967Y-77744224D01*
X174040509Y-77769622D01*
X174020470Y-77850063D01*
X174000000Y-78051362D01*
X174000000Y-110982646D01*
X173981046Y-111077934D01*
X173927070Y-111158716D01*
X171158716Y-113927070D01*
X171077934Y-113981046D01*
X170982646Y-114000000D01*
X161551362Y-114000000D01*
X161508055Y-114002322D01*
X161447795Y-114005552D01*
X161447789Y-114005552D01*
X161444459Y-114005731D01*
X161441150Y-114006087D01*
X161441135Y-114006088D01*
X161432094Y-114007061D01*
X161418101Y-114008565D01*
X161412317Y-114009750D01*
X161412318Y-114009750D01*
X161244224Y-114044193D01*
X161244222Y-114044194D01*
X161232239Y-114046649D01*
X161220963Y-114051396D01*
X161051563Y-114122710D01*
X161051555Y-114122714D01*
X161045754Y-114125156D01*
X161040224Y-114128175D01*
X161040219Y-114128178D01*
X161013138Y-114142966D01*
X160984431Y-114158641D01*
X160913388Y-114201347D01*
X160906497Y-114206966D01*
X160906494Y-114206968D01*
X160761457Y-114325230D01*
X160761452Y-114325234D01*
X160756574Y-114329212D01*
X155329212Y-119756574D01*
X155326997Y-119759040D01*
X155278299Y-119813256D01*
X155257671Y-119836221D01*
X155241037Y-119856863D01*
X155237779Y-119861801D01*
X155237777Y-119861803D01*
X155188556Y-119936394D01*
X155136549Y-120015206D01*
X155131934Y-120026531D01*
X155131932Y-120026535D01*
X155131267Y-120028168D01*
X155060194Y-120202583D01*
X155040509Y-120269622D01*
X155020470Y-120350063D01*
X155000000Y-120551362D01*
X155000000Y-125630405D01*
X154981046Y-125725693D01*
X154927070Y-125806475D01*
X154846288Y-125860451D01*
X154751000Y-125879405D01*
X154655712Y-125860451D01*
X154574930Y-125806475D01*
X154530336Y-125745766D01*
X154458095Y-125607582D01*
X154458094Y-125607580D01*
X154452251Y-125596404D01*
X154436101Y-125576601D01*
X154331765Y-125448673D01*
X154323787Y-125438891D01*
X154293394Y-125414103D01*
X154176048Y-125318398D01*
X154176045Y-125318396D01*
X154166274Y-125310427D01*
X153986148Y-125216259D01*
X153790765Y-125160234D01*
X153778959Y-125159180D01*
X153778957Y-125159180D01*
X153676010Y-125149992D01*
X153676003Y-125149992D01*
X153670494Y-125149500D01*
X151854862Y-125149500D01*
X151849353Y-125149992D01*
X151849346Y-125149992D01*
X151746399Y-125159180D01*
X151746397Y-125159180D01*
X151734591Y-125160234D01*
X151539208Y-125216259D01*
X151528026Y-125222105D01*
X151370265Y-125304580D01*
X151370260Y-125304583D01*
X151359082Y-125310427D01*
X151349304Y-125318402D01*
X151349302Y-125318403D01*
X151341345Y-125324892D01*
X151255522Y-125370427D01*
X151158806Y-125379653D01*
X151062308Y-125349180D01*
X151020282Y-125325645D01*
X151020283Y-125325645D01*
X151012595Y-125321340D01*
X150768190Y-125226787D01*
X150567439Y-125180256D01*
X150521485Y-125169604D01*
X150521483Y-125169604D01*
X150512899Y-125167614D01*
X150504123Y-125166854D01*
X150504117Y-125166853D01*
X150374613Y-125155637D01*
X150251819Y-125145002D01*
X150112611Y-125152663D01*
X149998944Y-125158918D01*
X149998939Y-125158919D01*
X149990156Y-125159402D01*
X149862496Y-125184795D01*
X149741769Y-125208809D01*
X149741764Y-125208810D01*
X149733134Y-125210527D01*
X149485879Y-125297357D01*
X149478072Y-125301412D01*
X149478066Y-125301415D01*
X149386115Y-125349180D01*
X149253325Y-125418159D01*
X149122285Y-125511801D01*
X149096712Y-125530076D01*
X149008164Y-125570056D01*
X148911057Y-125573108D01*
X148820174Y-125538766D01*
X148800876Y-125525428D01*
X148708245Y-125454734D01*
X148701240Y-125449388D01*
X148522307Y-125349180D01*
X148480279Y-125325643D01*
X148480276Y-125325642D01*
X148472595Y-125321340D01*
X148228190Y-125226787D01*
X148027439Y-125180256D01*
X147981485Y-125169604D01*
X147981483Y-125169604D01*
X147972899Y-125167614D01*
X147964123Y-125166854D01*
X147964117Y-125166853D01*
X147834613Y-125155637D01*
X147711819Y-125145002D01*
X147572611Y-125152663D01*
X147458944Y-125158918D01*
X147458939Y-125158919D01*
X147450156Y-125159402D01*
X147322496Y-125184795D01*
X147201769Y-125208809D01*
X147201764Y-125208810D01*
X147193134Y-125210527D01*
X146945879Y-125297357D01*
X146938072Y-125301412D01*
X146938066Y-125301415D01*
X146846115Y-125349180D01*
X146713325Y-125418159D01*
X146591474Y-125505235D01*
X146507272Y-125565406D01*
X146507268Y-125565409D01*
X146500112Y-125570523D01*
X146493744Y-125576597D01*
X146493740Y-125576601D01*
X146316872Y-125745324D01*
X146316867Y-125745329D01*
X146310494Y-125751409D01*
X146148256Y-125957208D01*
X146143834Y-125964821D01*
X146143832Y-125964824D01*
X146132856Y-125983721D01*
X146016633Y-126183813D01*
X145918252Y-126426703D01*
X145855077Y-126681032D01*
X145828366Y-126941726D01*
X143613178Y-126941726D01*
X143613178Y-126092184D01*
X143602444Y-125971913D01*
X143546419Y-125776530D01*
X143481880Y-125653079D01*
X143458095Y-125607582D01*
X143458094Y-125607580D01*
X143452251Y-125596404D01*
X143436101Y-125576601D01*
X143331765Y-125448673D01*
X143323787Y-125438891D01*
X143293394Y-125414103D01*
X143176048Y-125318398D01*
X143176045Y-125318396D01*
X143166274Y-125310427D01*
X142986148Y-125216259D01*
X142790765Y-125160234D01*
X142778959Y-125159180D01*
X142778957Y-125159180D01*
X142676010Y-125149992D01*
X142676003Y-125149992D01*
X142670494Y-125149500D01*
X140854862Y-125149500D01*
X140849353Y-125149992D01*
X140849346Y-125149992D01*
X140746399Y-125159180D01*
X140746397Y-125159180D01*
X140734591Y-125160234D01*
X140539208Y-125216259D01*
X140528026Y-125222105D01*
X140370265Y-125304580D01*
X140370260Y-125304583D01*
X140359082Y-125310427D01*
X140349304Y-125318402D01*
X140349302Y-125318403D01*
X140341345Y-125324892D01*
X140255522Y-125370427D01*
X140158806Y-125379653D01*
X140062308Y-125349180D01*
X140020282Y-125325645D01*
X140020283Y-125325645D01*
X140012595Y-125321340D01*
X139768190Y-125226787D01*
X139567439Y-125180256D01*
X139521485Y-125169604D01*
X139521483Y-125169604D01*
X139512899Y-125167614D01*
X139504123Y-125166854D01*
X139504117Y-125166853D01*
X139374613Y-125155637D01*
X139251819Y-125145002D01*
X139112611Y-125152663D01*
X138998944Y-125158918D01*
X138998939Y-125158919D01*
X138990156Y-125159402D01*
X138862496Y-125184795D01*
X138741769Y-125208809D01*
X138741764Y-125208810D01*
X138733134Y-125210527D01*
X138485879Y-125297357D01*
X138478072Y-125301412D01*
X138478066Y-125301415D01*
X138386115Y-125349180D01*
X138253325Y-125418159D01*
X138122285Y-125511801D01*
X138096712Y-125530076D01*
X138008164Y-125570056D01*
X137911057Y-125573108D01*
X137820174Y-125538766D01*
X137800876Y-125525428D01*
X137708245Y-125454734D01*
X137701240Y-125449388D01*
X137522307Y-125349180D01*
X137480279Y-125325643D01*
X137480276Y-125325642D01*
X137472595Y-125321340D01*
X137228190Y-125226787D01*
X137027439Y-125180256D01*
X136981485Y-125169604D01*
X136981483Y-125169604D01*
X136972899Y-125167614D01*
X136964123Y-125166854D01*
X136964117Y-125166853D01*
X136834613Y-125155637D01*
X136711819Y-125145002D01*
X136572611Y-125152663D01*
X136458944Y-125158918D01*
X136458939Y-125158919D01*
X136450156Y-125159402D01*
X136322496Y-125184795D01*
X136201769Y-125208809D01*
X136201764Y-125208810D01*
X136193134Y-125210527D01*
X135945879Y-125297357D01*
X135938072Y-125301412D01*
X135938066Y-125301415D01*
X135846115Y-125349180D01*
X135713325Y-125418159D01*
X135591474Y-125505235D01*
X135507272Y-125565406D01*
X135507268Y-125565409D01*
X135500112Y-125570523D01*
X135493744Y-125576597D01*
X135493740Y-125576601D01*
X135316872Y-125745324D01*
X135316867Y-125745329D01*
X135310494Y-125751409D01*
X135148256Y-125957208D01*
X135143834Y-125964821D01*
X135143832Y-125964824D01*
X135132856Y-125983721D01*
X135016633Y-126183813D01*
X134918252Y-126426703D01*
X134855077Y-126681032D01*
X134828366Y-126941726D01*
X132613178Y-126941726D01*
X132613178Y-126092184D01*
X132602444Y-125971913D01*
X132546419Y-125776530D01*
X132481880Y-125653079D01*
X132458095Y-125607582D01*
X132458094Y-125607580D01*
X132452251Y-125596404D01*
X132436101Y-125576601D01*
X132331765Y-125448673D01*
X132323787Y-125438891D01*
X132293394Y-125414103D01*
X132176048Y-125318398D01*
X132176045Y-125318396D01*
X132166274Y-125310427D01*
X131986148Y-125216259D01*
X131790765Y-125160234D01*
X131778959Y-125159180D01*
X131778957Y-125159180D01*
X131676010Y-125149992D01*
X131676003Y-125149992D01*
X131670494Y-125149500D01*
X129854862Y-125149500D01*
X129849353Y-125149992D01*
X129849346Y-125149992D01*
X129746399Y-125159180D01*
X129746397Y-125159180D01*
X129734591Y-125160234D01*
X129539208Y-125216259D01*
X129528026Y-125222105D01*
X129370265Y-125304580D01*
X129370260Y-125304583D01*
X129359082Y-125310427D01*
X129349304Y-125318402D01*
X129349302Y-125318403D01*
X129341345Y-125324892D01*
X129255522Y-125370427D01*
X129158806Y-125379653D01*
X129062308Y-125349180D01*
X129020282Y-125325645D01*
X129020283Y-125325645D01*
X129012595Y-125321340D01*
X128768190Y-125226787D01*
X128567439Y-125180256D01*
X128521485Y-125169604D01*
X128521483Y-125169604D01*
X128512899Y-125167614D01*
X128504123Y-125166854D01*
X128504117Y-125166853D01*
X128374613Y-125155637D01*
X128251819Y-125145002D01*
X128112611Y-125152663D01*
X127998944Y-125158918D01*
X127998939Y-125158919D01*
X127990156Y-125159402D01*
X127862496Y-125184795D01*
X127741769Y-125208809D01*
X127741764Y-125208810D01*
X127733134Y-125210527D01*
X127485879Y-125297357D01*
X127478072Y-125301412D01*
X127478066Y-125301415D01*
X127386115Y-125349180D01*
X127253325Y-125418159D01*
X127122285Y-125511801D01*
X127096712Y-125530076D01*
X127008164Y-125570056D01*
X126911057Y-125573108D01*
X126820174Y-125538766D01*
X126800876Y-125525428D01*
X126708245Y-125454734D01*
X126701240Y-125449388D01*
X126522307Y-125349180D01*
X126480279Y-125325643D01*
X126480276Y-125325642D01*
X126472595Y-125321340D01*
X126228190Y-125226787D01*
X126027439Y-125180256D01*
X125981485Y-125169604D01*
X125981483Y-125169604D01*
X125972899Y-125167614D01*
X125964123Y-125166854D01*
X125964117Y-125166853D01*
X125834613Y-125155637D01*
X125711819Y-125145002D01*
X125572611Y-125152663D01*
X125458944Y-125158918D01*
X125458939Y-125158919D01*
X125450156Y-125159402D01*
X125322496Y-125184795D01*
X125201769Y-125208809D01*
X125201764Y-125208810D01*
X125193134Y-125210527D01*
X124945879Y-125297357D01*
X124938072Y-125301412D01*
X124938066Y-125301415D01*
X124846115Y-125349180D01*
X124713325Y-125418159D01*
X124591474Y-125505235D01*
X124507272Y-125565406D01*
X124507268Y-125565409D01*
X124500112Y-125570523D01*
X124493744Y-125576597D01*
X124493740Y-125576601D01*
X124316872Y-125745324D01*
X124316867Y-125745329D01*
X124310494Y-125751409D01*
X124148256Y-125957208D01*
X124143834Y-125964821D01*
X124143832Y-125964824D01*
X124132856Y-125983721D01*
X124016633Y-126183813D01*
X123918252Y-126426703D01*
X123855077Y-126681032D01*
X123828366Y-126941726D01*
X121613178Y-126941726D01*
X121613178Y-126092184D01*
X121602444Y-125971913D01*
X121546419Y-125776530D01*
X121481880Y-125653079D01*
X121458095Y-125607582D01*
X121458094Y-125607580D01*
X121452251Y-125596404D01*
X121436101Y-125576601D01*
X121323787Y-125438891D01*
X121325653Y-125437369D01*
X121282132Y-125372234D01*
X121263178Y-125276946D01*
X121263178Y-124587121D01*
X121264230Y-124572327D01*
X121263625Y-124572291D01*
X121264231Y-124562090D01*
X121265671Y-124551972D01*
X121263242Y-124444938D01*
X121263178Y-124439289D01*
X121263178Y-124400124D01*
X121262467Y-124391475D01*
X121261694Y-124376731D01*
X121260305Y-124315508D01*
X121260305Y-124315505D01*
X121260073Y-124305296D01*
X121258176Y-124295255D01*
X121254191Y-124274163D01*
X121250700Y-124248340D01*
X121248942Y-124226963D01*
X121248941Y-124226955D01*
X121248103Y-124216767D01*
X121230697Y-124147468D01*
X121227526Y-124133047D01*
X121216159Y-124072890D01*
X121214261Y-124062845D01*
X121203377Y-124033104D01*
X121195714Y-124008195D01*
X121190484Y-123987375D01*
X121187994Y-123977461D01*
X121159506Y-123911944D01*
X121154018Y-123898225D01*
X121132977Y-123840726D01*
X121132975Y-123840721D01*
X121129466Y-123831133D01*
X121113869Y-123803566D01*
X121102242Y-123780245D01*
X121093684Y-123760562D01*
X121093680Y-123760555D01*
X121089606Y-123751185D01*
X121050799Y-123691198D01*
X121043147Y-123678563D01*
X121012998Y-123625275D01*
X121012998Y-123625274D01*
X121007966Y-123616381D01*
X121001552Y-123608432D01*
X121001548Y-123608426D01*
X120988067Y-123591718D01*
X120972789Y-123570613D01*
X120961132Y-123552595D01*
X120955583Y-123544017D01*
X120937010Y-123523605D01*
X120907511Y-123491187D01*
X120897906Y-123479981D01*
X120880761Y-123458733D01*
X120854033Y-123432005D01*
X120845935Y-123423515D01*
X120832389Y-123408628D01*
X120789524Y-123361520D01*
X120772543Y-123348109D01*
X120750798Y-123328770D01*
X118847097Y-121425069D01*
X118793121Y-121344288D01*
X118774167Y-121249000D01*
X118793121Y-121153712D01*
X118847097Y-121072930D01*
X118927879Y-121018954D01*
X119023167Y-121000000D01*
X147671076Y-121000000D01*
X147702285Y-121001964D01*
X147721939Y-121004447D01*
X147735436Y-121004636D01*
X147743039Y-121004742D01*
X147743043Y-121004742D01*
X147749996Y-121004839D01*
X147756918Y-121004160D01*
X147756927Y-121004160D01*
X147798758Y-121000059D01*
X147799550Y-121000000D01*
X147800770Y-121000000D01*
X147804117Y-120999660D01*
X147804397Y-120999639D01*
X147809298Y-120999198D01*
X147946145Y-120988428D01*
X147955667Y-120986142D01*
X148127950Y-120944781D01*
X148127952Y-120944780D01*
X148137463Y-120942497D01*
X148319242Y-120867203D01*
X148487003Y-120764399D01*
X148636617Y-120636617D01*
X148764399Y-120487003D01*
X148867203Y-120319242D01*
X148942497Y-120137463D01*
X148967650Y-120032693D01*
X148986145Y-119955656D01*
X148986146Y-119955651D01*
X148988428Y-119946145D01*
X148991899Y-119902045D01*
X148996392Y-119870670D01*
X148997694Y-119864435D01*
X148999651Y-119855068D01*
X149000000Y-119848408D01*
X149000000Y-119828924D01*
X149001963Y-119797718D01*
X149003577Y-119784942D01*
X149003577Y-119784938D01*
X149004447Y-119778053D01*
X149004839Y-119749996D01*
X149001189Y-119712772D01*
X149000000Y-119688473D01*
X149000000Y-93328924D01*
X149001964Y-93297715D01*
X149003574Y-93284968D01*
X149004447Y-93278061D01*
X149004839Y-93250004D01*
X149000059Y-93201242D01*
X149000000Y-93200450D01*
X149000000Y-93199230D01*
X148999660Y-93195883D01*
X148999639Y-93195603D01*
X148999196Y-93190680D01*
X148989196Y-93063618D01*
X148988428Y-93053855D01*
X148942497Y-92862537D01*
X148867203Y-92680758D01*
X148764399Y-92512997D01*
X148636617Y-92363383D01*
X148487003Y-92235601D01*
X148319242Y-92132797D01*
X148137463Y-92057503D01*
X148127952Y-92055220D01*
X148127950Y-92055219D01*
X147955656Y-92013855D01*
X147955651Y-92013854D01*
X147946145Y-92011572D01*
X147912371Y-92008914D01*
X147902045Y-92008101D01*
X147870670Y-92003608D01*
X147866355Y-92002707D01*
X147855068Y-92000349D01*
X147848408Y-92000000D01*
X147828924Y-92000000D01*
X147797718Y-91998037D01*
X147784942Y-91996423D01*
X147784938Y-91996423D01*
X147778053Y-91995553D01*
X147771112Y-91995456D01*
X147756944Y-91995258D01*
X147756943Y-91995258D01*
X147749996Y-91995161D01*
X147712773Y-91998811D01*
X147688473Y-92000000D01*
X119423167Y-92000000D01*
X119327879Y-91981046D01*
X119247097Y-91927070D01*
X119193121Y-91846288D01*
X119174167Y-91751000D01*
X119193121Y-91655712D01*
X119247097Y-91574931D01*
X119765518Y-91056509D01*
X119776723Y-91046791D01*
X119776321Y-91046339D01*
X119783967Y-91039550D01*
X119792136Y-91033417D01*
X119866076Y-90956043D01*
X119870025Y-90952002D01*
X119897746Y-90924281D01*
X119903349Y-90917675D01*
X119913231Y-90906698D01*
X119955551Y-90862413D01*
X119955553Y-90862410D01*
X119962604Y-90855032D01*
X119980456Y-90828863D01*
X119996246Y-90808135D01*
X120010130Y-90791763D01*
X120016740Y-90783969D01*
X120053436Y-90722655D01*
X120061388Y-90710221D01*
X120095895Y-90659635D01*
X120101649Y-90651200D01*
X120105948Y-90641938D01*
X120105951Y-90641933D01*
X120114985Y-90622470D01*
X120127184Y-90599430D01*
X120138203Y-90581019D01*
X120138204Y-90581017D01*
X120143451Y-90572250D01*
X120169635Y-90505777D01*
X120175452Y-90492205D01*
X120201232Y-90436665D01*
X120205535Y-90427396D01*
X120213999Y-90396877D01*
X120222267Y-90372165D01*
X120230138Y-90352184D01*
X120230139Y-90352179D01*
X120233882Y-90342678D01*
X120238057Y-90323207D01*
X120248862Y-90272804D01*
X120252386Y-90258458D01*
X120268744Y-90199473D01*
X120271474Y-90189629D01*
X120274841Y-90158125D01*
X120278962Y-90132397D01*
X120280231Y-90126478D01*
X120285603Y-90101420D01*
X120288968Y-90030059D01*
X120290102Y-90015325D01*
X120292296Y-89994795D01*
X120292296Y-89994794D01*
X120293000Y-89988208D01*
X120293000Y-89950442D01*
X120293276Y-89938713D01*
X120295131Y-89899379D01*
X120297226Y-89854953D01*
X120294700Y-89833448D01*
X120293000Y-89804400D01*
X120293000Y-89371232D01*
X120311954Y-89275944D01*
X120365930Y-89195162D01*
X120405717Y-89155375D01*
X120445466Y-89098184D01*
X120526785Y-88981182D01*
X120526787Y-88981178D01*
X120533114Y-88972075D01*
X120626037Y-88769113D01*
X120641476Y-88708985D01*
X120678916Y-88563165D01*
X120678916Y-88563164D01*
X120681551Y-88552902D01*
X120693000Y-88412138D01*
X120693000Y-87777570D01*
X129389500Y-87777570D01*
X129389827Y-87782073D01*
X129389827Y-87782081D01*
X129391826Y-87809624D01*
X129404375Y-87982583D01*
X129463836Y-88251903D01*
X129467032Y-88260339D01*
X129467033Y-88260342D01*
X129558357Y-88501389D01*
X129561551Y-88509819D01*
X129695475Y-88750928D01*
X129862802Y-88970178D01*
X129869250Y-88976481D01*
X130052250Y-89155375D01*
X130060026Y-89162977D01*
X130067315Y-89168283D01*
X130067318Y-89168285D01*
X130275723Y-89319979D01*
X130275727Y-89319982D01*
X130283016Y-89325287D01*
X130527101Y-89453706D01*
X130535604Y-89456709D01*
X130535607Y-89456710D01*
X130774402Y-89541037D01*
X130787168Y-89545545D01*
X130796012Y-89547288D01*
X130796015Y-89547289D01*
X131048918Y-89597136D01*
X131048922Y-89597137D01*
X131057768Y-89598880D01*
X131066772Y-89599328D01*
X131066778Y-89599329D01*
X131233373Y-89607622D01*
X131333233Y-89612594D01*
X131342214Y-89611737D01*
X131342220Y-89611737D01*
X131561351Y-89590829D01*
X131607792Y-89586398D01*
X131852290Y-89526570D01*
X131866929Y-89522988D01*
X131866932Y-89522987D01*
X131875694Y-89520843D01*
X132131326Y-89417301D01*
X132153039Y-89404588D01*
X132201240Y-89376365D01*
X132369335Y-89277942D01*
X132584732Y-89105684D01*
X132773008Y-88904136D01*
X132783356Y-88889220D01*
X132925076Y-88684931D01*
X132925079Y-88684926D01*
X132930216Y-88677521D01*
X132971946Y-88593641D01*
X133031359Y-88516769D01*
X133115667Y-88468486D01*
X133212034Y-88456142D01*
X133305790Y-88481615D01*
X133382662Y-88541028D01*
X133412556Y-88583642D01*
X133505475Y-88750928D01*
X133672802Y-88970178D01*
X133679250Y-88976481D01*
X133862250Y-89155375D01*
X133870026Y-89162977D01*
X133877315Y-89168283D01*
X133877318Y-89168285D01*
X134085723Y-89319979D01*
X134085727Y-89319982D01*
X134093016Y-89325287D01*
X134337101Y-89453706D01*
X134345604Y-89456709D01*
X134345607Y-89456710D01*
X134584402Y-89541037D01*
X134597168Y-89545545D01*
X134606012Y-89547288D01*
X134606015Y-89547289D01*
X134858918Y-89597136D01*
X134858922Y-89597137D01*
X134867768Y-89598880D01*
X134876772Y-89599328D01*
X134876778Y-89599329D01*
X135043373Y-89607622D01*
X135143233Y-89612594D01*
X135152214Y-89611737D01*
X135152220Y-89611737D01*
X135371351Y-89590829D01*
X135417792Y-89586398D01*
X135662290Y-89526570D01*
X135676929Y-89522988D01*
X135676932Y-89522987D01*
X135685694Y-89520843D01*
X135941326Y-89417301D01*
X135963039Y-89404588D01*
X136011240Y-89376365D01*
X136179335Y-89277942D01*
X136394732Y-89105684D01*
X136583008Y-88904136D01*
X136666367Y-88783974D01*
X136736254Y-88716485D01*
X136826649Y-88680877D01*
X136923789Y-88682572D01*
X137012886Y-88721313D01*
X137080375Y-88791200D01*
X137097357Y-88822250D01*
X137169386Y-88979575D01*
X137175713Y-88988678D01*
X137175715Y-88988682D01*
X137290454Y-89153769D01*
X137296783Y-89162875D01*
X137454625Y-89320717D01*
X137463730Y-89327045D01*
X137463731Y-89327046D01*
X137628818Y-89441785D01*
X137628822Y-89441787D01*
X137637925Y-89448114D01*
X137840887Y-89541037D01*
X137851622Y-89543793D01*
X137851624Y-89543794D01*
X138046835Y-89593916D01*
X138057098Y-89596551D01*
X138197862Y-89608000D01*
X139622138Y-89608000D01*
X139762902Y-89596551D01*
X139773165Y-89593916D01*
X139968376Y-89543794D01*
X139968378Y-89543793D01*
X139979113Y-89541037D01*
X140182075Y-89448114D01*
X140191178Y-89441787D01*
X140191182Y-89441785D01*
X140356269Y-89327046D01*
X140356270Y-89327045D01*
X140365375Y-89320717D01*
X140523217Y-89162875D01*
X140529546Y-89153769D01*
X140644285Y-88988682D01*
X140644287Y-88988678D01*
X140650614Y-88979575D01*
X140743537Y-88776613D01*
X140758976Y-88716485D01*
X140796416Y-88570665D01*
X140796416Y-88570664D01*
X140799051Y-88560402D01*
X140810500Y-88419638D01*
X140810500Y-85195362D01*
X140799051Y-85054598D01*
X140766484Y-84927759D01*
X140746294Y-84849124D01*
X140746293Y-84849122D01*
X140743537Y-84838387D01*
X140650614Y-84635425D01*
X140644287Y-84626322D01*
X140644285Y-84626318D01*
X140529546Y-84461231D01*
X140529545Y-84461230D01*
X140523217Y-84452125D01*
X140365375Y-84294283D01*
X140341966Y-84278013D01*
X140191182Y-84173215D01*
X140191178Y-84173213D01*
X140182075Y-84166886D01*
X139979113Y-84073963D01*
X139968378Y-84071207D01*
X139968376Y-84071206D01*
X139773165Y-84021084D01*
X139773164Y-84021084D01*
X139762902Y-84018449D01*
X139622138Y-84007000D01*
X138197862Y-84007000D01*
X138057098Y-84018449D01*
X138046836Y-84021084D01*
X138046835Y-84021084D01*
X137851624Y-84071206D01*
X137851622Y-84071207D01*
X137840887Y-84073963D01*
X137637925Y-84166886D01*
X137628822Y-84173213D01*
X137628818Y-84173215D01*
X137478034Y-84278013D01*
X137454625Y-84294283D01*
X137296783Y-84452125D01*
X137290455Y-84461230D01*
X137290454Y-84461231D01*
X137175715Y-84626318D01*
X137175713Y-84626322D01*
X137169386Y-84635425D01*
X137164770Y-84645508D01*
X137098579Y-84790080D01*
X137041678Y-84868830D01*
X136958973Y-84919809D01*
X136863054Y-84935259D01*
X136768525Y-84912826D01*
X136689775Y-84855925D01*
X136674238Y-84837490D01*
X136667231Y-84828309D01*
X136527198Y-84644822D01*
X136375152Y-84496187D01*
X136336422Y-84458326D01*
X136336420Y-84458324D01*
X136329974Y-84452023D01*
X136322682Y-84446715D01*
X136114277Y-84295021D01*
X136114273Y-84295018D01*
X136106984Y-84289713D01*
X135862899Y-84161294D01*
X135854396Y-84158291D01*
X135854393Y-84158290D01*
X135611336Y-84072458D01*
X135611335Y-84072458D01*
X135602832Y-84069455D01*
X135593988Y-84067712D01*
X135593985Y-84067711D01*
X135341082Y-84017864D01*
X135341078Y-84017863D01*
X135332232Y-84016120D01*
X135323228Y-84015672D01*
X135323222Y-84015671D01*
X135149044Y-84007000D01*
X135056767Y-84002406D01*
X135047786Y-84003263D01*
X135047780Y-84003263D01*
X134838333Y-84023247D01*
X134782208Y-84028602D01*
X134608099Y-84071206D01*
X134523071Y-84092012D01*
X134523068Y-84092013D01*
X134514306Y-84094157D01*
X134258674Y-84197699D01*
X134020665Y-84337058D01*
X133805268Y-84509316D01*
X133616992Y-84710864D01*
X133611850Y-84718277D01*
X133611847Y-84718280D01*
X133464987Y-84929979D01*
X133459784Y-84937479D01*
X133455767Y-84945554D01*
X133418054Y-85021359D01*
X133358641Y-85098231D01*
X133274333Y-85146514D01*
X133177966Y-85158858D01*
X133084210Y-85133385D01*
X133007338Y-85073972D01*
X132977444Y-85031358D01*
X132911318Y-84912309D01*
X132884525Y-84864072D01*
X132717198Y-84644822D01*
X132565152Y-84496187D01*
X132526422Y-84458326D01*
X132526420Y-84458324D01*
X132519974Y-84452023D01*
X132512682Y-84446715D01*
X132304277Y-84295021D01*
X132304273Y-84295018D01*
X132296984Y-84289713D01*
X132052899Y-84161294D01*
X132044396Y-84158291D01*
X132044393Y-84158290D01*
X131801336Y-84072458D01*
X131801335Y-84072458D01*
X131792832Y-84069455D01*
X131783988Y-84067712D01*
X131783985Y-84067711D01*
X131531082Y-84017864D01*
X131531078Y-84017863D01*
X131522232Y-84016120D01*
X131513228Y-84015672D01*
X131513222Y-84015671D01*
X131339044Y-84007000D01*
X131246767Y-84002406D01*
X131237786Y-84003263D01*
X131237780Y-84003263D01*
X131028333Y-84023247D01*
X130972208Y-84028602D01*
X130798099Y-84071206D01*
X130713071Y-84092012D01*
X130713068Y-84092013D01*
X130704306Y-84094157D01*
X130448674Y-84197699D01*
X130210665Y-84337058D01*
X129995268Y-84509316D01*
X129806992Y-84710864D01*
X129801850Y-84718277D01*
X129801847Y-84718280D01*
X129654987Y-84929979D01*
X129649784Y-84937479D01*
X129526935Y-85184414D01*
X129524126Y-85192984D01*
X129524124Y-85192988D01*
X129463226Y-85378760D01*
X129441020Y-85446498D01*
X129439476Y-85455392D01*
X129439475Y-85455395D01*
X129418776Y-85574611D01*
X129393838Y-85718238D01*
X129389500Y-85805376D01*
X129389500Y-87777570D01*
X120693000Y-87777570D01*
X120693000Y-85187862D01*
X120681551Y-85047098D01*
X120653553Y-84938054D01*
X120628794Y-84841624D01*
X120628793Y-84841622D01*
X120626037Y-84830887D01*
X120533114Y-84627925D01*
X120526787Y-84618822D01*
X120526785Y-84618818D01*
X120412046Y-84453731D01*
X120412045Y-84453730D01*
X120405717Y-84444625D01*
X120247875Y-84286783D01*
X120126263Y-84202260D01*
X120073682Y-84165715D01*
X120073678Y-84165713D01*
X120064575Y-84159386D01*
X119888072Y-84078577D01*
X119871691Y-84071077D01*
X119871690Y-84071077D01*
X119861613Y-84066463D01*
X119850878Y-84063707D01*
X119850876Y-84063706D01*
X119655665Y-84013584D01*
X119655664Y-84013584D01*
X119645402Y-84010949D01*
X119504638Y-83999500D01*
X118080362Y-83999500D01*
X117939598Y-84010949D01*
X117929336Y-84013584D01*
X117929335Y-84013584D01*
X117734124Y-84063706D01*
X117734122Y-84063707D01*
X117723387Y-84066463D01*
X117713310Y-84071077D01*
X117713309Y-84071077D01*
X117696928Y-84078577D01*
X117520425Y-84159386D01*
X117511322Y-84165713D01*
X117511318Y-84165715D01*
X117458737Y-84202260D01*
X117337125Y-84286783D01*
X117179283Y-84444625D01*
X117172955Y-84453730D01*
X117172954Y-84453731D01*
X117058215Y-84618818D01*
X117058213Y-84618822D01*
X117051886Y-84627925D01*
X117047270Y-84638008D01*
X116981079Y-84782580D01*
X116924178Y-84861330D01*
X116841473Y-84912309D01*
X116745554Y-84927759D01*
X116651025Y-84905326D01*
X116572275Y-84848425D01*
X116556738Y-84829990D01*
X116549731Y-84820809D01*
X116409698Y-84637322D01*
X116265324Y-84496187D01*
X116218922Y-84450826D01*
X116218920Y-84450824D01*
X116212474Y-84444523D01*
X116058574Y-84332502D01*
X115996777Y-84287521D01*
X115996773Y-84287518D01*
X115989484Y-84282213D01*
X115745399Y-84153794D01*
X115736896Y-84150791D01*
X115736893Y-84150790D01*
X115493836Y-84064958D01*
X115493835Y-84064958D01*
X115485332Y-84061955D01*
X115476488Y-84060212D01*
X115476485Y-84060211D01*
X115223582Y-84010364D01*
X115223578Y-84010363D01*
X115214732Y-84008620D01*
X115205728Y-84008172D01*
X115205722Y-84008171D01*
X115031544Y-83999500D01*
X114939267Y-83994906D01*
X114930286Y-83995763D01*
X114930280Y-83995763D01*
X114721630Y-84015671D01*
X114664708Y-84021102D01*
X114504882Y-84060211D01*
X114405571Y-84084512D01*
X114405568Y-84084513D01*
X114396806Y-84086657D01*
X114141174Y-84190199D01*
X113903165Y-84329558D01*
X113687768Y-84501816D01*
X113499492Y-84703364D01*
X113494350Y-84710777D01*
X113494347Y-84710780D01*
X113398860Y-84848425D01*
X113342284Y-84929979D01*
X113338267Y-84938054D01*
X113300554Y-85013859D01*
X113241141Y-85090731D01*
X113156833Y-85139014D01*
X113060466Y-85151358D01*
X112966710Y-85125885D01*
X112889838Y-85066472D01*
X112859944Y-85023858D01*
X112771403Y-84864454D01*
X112767025Y-84856572D01*
X112599698Y-84637322D01*
X112455324Y-84496187D01*
X112408922Y-84450826D01*
X112408920Y-84450824D01*
X112402474Y-84444523D01*
X112248574Y-84332502D01*
X112186777Y-84287521D01*
X112186773Y-84287518D01*
X112179484Y-84282213D01*
X111935399Y-84153794D01*
X111926896Y-84150791D01*
X111926893Y-84150790D01*
X111683836Y-84064958D01*
X111683835Y-84064958D01*
X111675332Y-84061955D01*
X111666488Y-84060212D01*
X111666485Y-84060211D01*
X111413582Y-84010364D01*
X111413578Y-84010363D01*
X111404732Y-84008620D01*
X111395728Y-84008172D01*
X111395722Y-84008171D01*
X111221544Y-83999500D01*
X111129267Y-83994906D01*
X111120286Y-83995763D01*
X111120280Y-83995763D01*
X110911630Y-84015671D01*
X110854708Y-84021102D01*
X110694882Y-84060211D01*
X110595571Y-84084512D01*
X110595568Y-84084513D01*
X110586806Y-84086657D01*
X110331174Y-84190199D01*
X110093165Y-84329558D01*
X109877768Y-84501816D01*
X109689492Y-84703364D01*
X109684350Y-84710777D01*
X109684347Y-84710780D01*
X109588860Y-84848425D01*
X109532284Y-84929979D01*
X109431091Y-85133385D01*
X109417149Y-85161409D01*
X109357736Y-85238280D01*
X109273429Y-85286564D01*
X109194214Y-85299500D01*
X100424443Y-85299500D01*
X100409649Y-85298448D01*
X100409613Y-85299053D01*
X100399412Y-85298447D01*
X100389294Y-85297007D01*
X100285198Y-85299369D01*
X100282260Y-85299436D01*
X100276611Y-85299500D01*
X100237446Y-85299500D01*
X100228797Y-85300211D01*
X100214068Y-85300983D01*
X100172317Y-85301931D01*
X100152830Y-85302373D01*
X100152827Y-85302373D01*
X100142618Y-85302605D01*
X100132580Y-85304502D01*
X100132577Y-85304502D01*
X100111485Y-85308487D01*
X100085662Y-85311978D01*
X100064285Y-85313736D01*
X100064277Y-85313737D01*
X100054089Y-85314575D01*
X99984790Y-85331981D01*
X99970375Y-85335151D01*
X99900167Y-85348417D01*
X99890571Y-85351929D01*
X99890570Y-85351929D01*
X99870426Y-85359301D01*
X99845517Y-85366964D01*
X99827825Y-85371408D01*
X99814783Y-85374684D01*
X99805409Y-85378760D01*
X99749266Y-85403172D01*
X99735547Y-85408660D01*
X99678048Y-85429701D01*
X99678043Y-85429703D01*
X99668455Y-85433212D01*
X99640888Y-85448809D01*
X99617567Y-85460436D01*
X99597884Y-85468994D01*
X99597877Y-85468998D01*
X99588507Y-85473072D01*
X99528524Y-85511877D01*
X99515885Y-85519531D01*
X99462597Y-85549680D01*
X99453703Y-85554712D01*
X99445754Y-85561126D01*
X99445748Y-85561130D01*
X99429040Y-85574611D01*
X99407936Y-85589888D01*
X99381339Y-85607095D01*
X99373783Y-85613971D01*
X99373781Y-85613972D01*
X99328509Y-85655167D01*
X99317303Y-85664772D01*
X99296055Y-85681917D01*
X99269326Y-85708646D01*
X99260836Y-85716744D01*
X99198842Y-85773154D01*
X99192506Y-85781177D01*
X99192504Y-85781179D01*
X99185431Y-85790135D01*
X99166092Y-85811880D01*
X95326978Y-89650995D01*
X95315778Y-89660709D01*
X95316179Y-89661161D01*
X95308533Y-89667950D01*
X95300364Y-89674083D01*
X95293305Y-89681470D01*
X95226424Y-89751457D01*
X95222475Y-89755498D01*
X95194754Y-89783219D01*
X95191459Y-89787104D01*
X95191450Y-89787114D01*
X95189140Y-89789838D01*
X95179274Y-89800797D01*
X95129896Y-89852468D01*
X95112037Y-89878648D01*
X95096252Y-89899369D01*
X95075761Y-89923531D01*
X95039062Y-89984849D01*
X95031126Y-89997258D01*
X94990851Y-90056300D01*
X94977513Y-90085035D01*
X94965317Y-90108067D01*
X94955097Y-90125145D01*
X94949049Y-90135250D01*
X94922859Y-90201738D01*
X94917046Y-90215299D01*
X94886965Y-90280104D01*
X94884235Y-90289948D01*
X94884232Y-90289956D01*
X94878498Y-90310633D01*
X94870233Y-90335337D01*
X94858619Y-90364822D01*
X94856478Y-90374811D01*
X94856475Y-90374819D01*
X94843639Y-90434690D01*
X94840116Y-90449033D01*
X94821026Y-90517871D01*
X94819941Y-90528026D01*
X94819940Y-90528030D01*
X94817660Y-90549367D01*
X94813538Y-90575103D01*
X94806897Y-90606080D01*
X94806416Y-90616284D01*
X94803532Y-90677441D01*
X94802398Y-90692175D01*
X94800204Y-90712705D01*
X94799500Y-90719292D01*
X94799500Y-90757058D01*
X94799224Y-90768786D01*
X94795274Y-90852547D01*
X94796466Y-90862692D01*
X94796466Y-90862698D01*
X94797799Y-90874042D01*
X94799500Y-90903093D01*
X94799500Y-116079301D01*
X94780546Y-116174589D01*
X94726570Y-116255371D01*
X94645788Y-116309347D01*
X94550500Y-116328301D01*
X94455212Y-116309347D01*
X94412163Y-116286337D01*
X94309384Y-116217662D01*
X94309378Y-116217658D01*
X94302611Y-116213137D01*
X94043902Y-116085556D01*
X93770753Y-115992834D01*
X93695816Y-115977928D01*
X93495829Y-115938148D01*
X93495824Y-115938147D01*
X93487839Y-115936559D01*
X93479709Y-115936026D01*
X93479708Y-115936026D01*
X93208132Y-115918226D01*
X93200000Y-115917693D01*
X93191868Y-115918226D01*
X92920292Y-115936026D01*
X92920291Y-115936026D01*
X92912161Y-115936559D01*
X92904176Y-115938147D01*
X92904171Y-115938148D01*
X92704184Y-115977928D01*
X92629247Y-115992834D01*
X92356098Y-116085556D01*
X92097389Y-116213137D01*
X91857546Y-116373395D01*
X91640673Y-116563588D01*
X91450480Y-116780461D01*
X91290222Y-117020304D01*
X91162641Y-117279013D01*
X91069919Y-117552162D01*
X91013644Y-117835076D01*
X90994778Y-118122915D01*
X91013644Y-118410754D01*
X91069919Y-118693668D01*
X91162641Y-118966817D01*
X91290222Y-119225526D01*
X91450480Y-119465369D01*
X91640673Y-119682242D01*
X91857546Y-119872435D01*
X92097389Y-120032693D01*
X92356098Y-120160274D01*
X92629247Y-120252996D01*
X92704184Y-120267902D01*
X92904171Y-120307682D01*
X92904176Y-120307683D01*
X92912161Y-120309271D01*
X92920291Y-120309804D01*
X92920292Y-120309804D01*
X93191868Y-120327604D01*
X93200000Y-120328137D01*
X93208132Y-120327604D01*
X93479708Y-120309804D01*
X93479709Y-120309804D01*
X93487839Y-120309271D01*
X93495824Y-120307683D01*
X93495829Y-120307682D01*
X93695816Y-120267902D01*
X93770753Y-120252996D01*
X94043902Y-120160274D01*
X94302611Y-120032693D01*
X94309378Y-120028172D01*
X94309384Y-120028168D01*
X94412163Y-119959493D01*
X94501923Y-119922313D01*
X94599078Y-119922314D01*
X94688837Y-119959493D01*
X94757536Y-120028192D01*
X94794716Y-120117952D01*
X94799500Y-120166529D01*
X94799500Y-122275559D01*
X94798448Y-122290353D01*
X94799053Y-122290389D01*
X94798447Y-122300587D01*
X94797007Y-122310706D01*
X94797239Y-122320924D01*
X94799436Y-122417740D01*
X94799500Y-122423389D01*
X94799500Y-122462554D01*
X94800211Y-122471203D01*
X94800983Y-122485932D01*
X94802605Y-122557382D01*
X94804502Y-122567420D01*
X94804502Y-122567423D01*
X94808487Y-122588515D01*
X94811978Y-122614338D01*
X94813736Y-122635715D01*
X94813737Y-122635723D01*
X94814575Y-122645911D01*
X94817066Y-122655827D01*
X94831980Y-122715204D01*
X94835151Y-122729625D01*
X94848417Y-122799833D01*
X94851932Y-122809438D01*
X94859304Y-122829585D01*
X94866965Y-122854489D01*
X94872192Y-122875297D01*
X94874684Y-122885217D01*
X94903173Y-122950737D01*
X94908658Y-122964450D01*
X94933211Y-123031545D01*
X94938239Y-123040433D01*
X94938241Y-123040436D01*
X94948816Y-123059127D01*
X94960440Y-123082441D01*
X94973072Y-123111493D01*
X94978623Y-123120073D01*
X95011881Y-123171483D01*
X95019533Y-123184119D01*
X95054712Y-123246297D01*
X95061126Y-123254246D01*
X95061132Y-123254255D01*
X95074611Y-123270960D01*
X95089888Y-123292064D01*
X95107095Y-123318661D01*
X95113971Y-123326217D01*
X95113972Y-123326219D01*
X95155167Y-123371491D01*
X95164772Y-123382697D01*
X95181917Y-123403945D01*
X95208645Y-123430673D01*
X95216743Y-123439163D01*
X95273154Y-123501158D01*
X95290142Y-123514574D01*
X95311880Y-123533907D01*
X97017670Y-125239697D01*
X97071646Y-125320479D01*
X97090600Y-125415767D01*
X97071646Y-125511055D01*
X97013472Y-125595936D01*
X96856872Y-125745324D01*
X96856867Y-125745329D01*
X96850494Y-125751409D01*
X96688256Y-125957208D01*
X96683834Y-125964821D01*
X96683832Y-125964824D01*
X96672856Y-125983721D01*
X96556633Y-126183813D01*
X96458252Y-126426703D01*
X96395077Y-126681032D01*
X96368366Y-126941726D01*
X96378655Y-127203582D01*
X96425736Y-127461376D01*
X96508672Y-127709965D01*
X96625806Y-127944387D01*
X96774802Y-128159967D01*
X96952688Y-128352402D01*
X96959515Y-128357960D01*
X96965931Y-128363985D01*
X96964455Y-128365557D01*
X97017322Y-128429471D01*
X97045883Y-128522333D01*
X97047178Y-128547696D01*
X97047178Y-136639026D01*
X97028224Y-136734314D01*
X97003876Y-136779344D01*
X96934475Y-136881082D01*
X96834051Y-137097428D01*
X96831324Y-137107263D01*
X96831322Y-137107267D01*
X96784235Y-137277058D01*
X96770309Y-137327272D01*
X96765800Y-137369468D01*
X96749965Y-137517638D01*
X96744963Y-137564440D01*
X96745552Y-137574647D01*
X96757394Y-137780010D01*
X96758694Y-137802562D01*
X96811131Y-138035245D01*
X96814974Y-138044709D01*
X96879638Y-138203957D01*
X96900867Y-138256239D01*
X96906204Y-138264949D01*
X96906207Y-138264954D01*
X96990155Y-138401943D01*
X97025493Y-138459609D01*
X97032183Y-138467332D01*
X97136682Y-138587970D01*
X97184744Y-138672404D01*
X97196837Y-138768804D01*
X97171118Y-138862493D01*
X97111504Y-138939208D01*
X97027070Y-138987270D01*
X96948474Y-139000000D01*
X58070217Y-139000000D01*
X58042462Y-138998448D01*
X58026138Y-138996617D01*
X58026137Y-138996617D01*
X58014030Y-138995259D01*
X58001893Y-138996278D01*
X58001888Y-138996278D01*
X57994721Y-138996880D01*
X57957601Y-138997221D01*
X57755227Y-138983957D01*
X57722942Y-138979706D01*
X57498370Y-138935035D01*
X57466910Y-138926606D01*
X57250082Y-138853003D01*
X57219990Y-138840538D01*
X57014643Y-138739272D01*
X56986436Y-138722987D01*
X56796043Y-138595770D01*
X56770203Y-138575942D01*
X56627618Y-138450898D01*
X56598053Y-138424970D01*
X56575026Y-138401943D01*
X56536424Y-138357925D01*
X56424058Y-138229797D01*
X56404230Y-138203957D01*
X56277013Y-138013564D01*
X56260728Y-137985357D01*
X56175503Y-137812537D01*
X56159461Y-137780009D01*
X56146997Y-137749918D01*
X56073394Y-137533090D01*
X56064965Y-137501630D01*
X56020294Y-137277057D01*
X56016043Y-137244769D01*
X56006981Y-137106515D01*
X56003737Y-137057012D01*
X56003228Y-137037250D01*
X56003383Y-137026134D01*
X56004741Y-137014030D01*
X56000873Y-136967966D01*
X56000000Y-136947131D01*
X56000000Y-118122915D01*
X80994778Y-118122915D01*
X81013644Y-118410754D01*
X81069919Y-118693668D01*
X81162641Y-118966817D01*
X81290222Y-119225526D01*
X81450480Y-119465369D01*
X81640673Y-119682242D01*
X81857546Y-119872435D01*
X82097389Y-120032693D01*
X82356098Y-120160274D01*
X82629247Y-120252996D01*
X82704184Y-120267902D01*
X82904171Y-120307682D01*
X82904176Y-120307683D01*
X82912161Y-120309271D01*
X82920291Y-120309804D01*
X82920292Y-120309804D01*
X83191868Y-120327604D01*
X83200000Y-120328137D01*
X83208132Y-120327604D01*
X83479708Y-120309804D01*
X83479709Y-120309804D01*
X83487839Y-120309271D01*
X83495824Y-120307683D01*
X83495829Y-120307682D01*
X83695816Y-120267902D01*
X83770753Y-120252996D01*
X84043902Y-120160274D01*
X84302611Y-120032693D01*
X84542454Y-119872435D01*
X84759327Y-119682242D01*
X84949520Y-119465369D01*
X85109778Y-119225526D01*
X85237359Y-118966817D01*
X85330081Y-118693668D01*
X85386356Y-118410754D01*
X85405222Y-118122915D01*
X85994778Y-118122915D01*
X86013644Y-118410754D01*
X86069919Y-118693668D01*
X86162641Y-118966817D01*
X86290222Y-119225526D01*
X86450480Y-119465369D01*
X86640673Y-119682242D01*
X86857546Y-119872435D01*
X87097389Y-120032693D01*
X87356098Y-120160274D01*
X87629247Y-120252996D01*
X87704184Y-120267902D01*
X87904171Y-120307682D01*
X87904176Y-120307683D01*
X87912161Y-120309271D01*
X87920291Y-120309804D01*
X87920292Y-120309804D01*
X88191868Y-120327604D01*
X88200000Y-120328137D01*
X88208132Y-120327604D01*
X88479708Y-120309804D01*
X88479709Y-120309804D01*
X88487839Y-120309271D01*
X88495824Y-120307683D01*
X88495829Y-120307682D01*
X88695816Y-120267902D01*
X88770753Y-120252996D01*
X89043902Y-120160274D01*
X89302611Y-120032693D01*
X89542454Y-119872435D01*
X89759327Y-119682242D01*
X89949520Y-119465369D01*
X90109778Y-119225526D01*
X90237359Y-118966817D01*
X90330081Y-118693668D01*
X90386356Y-118410754D01*
X90405222Y-118122915D01*
X90386356Y-117835076D01*
X90330081Y-117552162D01*
X90237359Y-117279013D01*
X90109778Y-117020304D01*
X89949520Y-116780461D01*
X89759327Y-116563588D01*
X89542454Y-116373395D01*
X89302611Y-116213137D01*
X89043902Y-116085556D01*
X88770753Y-115992834D01*
X88695816Y-115977928D01*
X88495829Y-115938148D01*
X88495824Y-115938147D01*
X88487839Y-115936559D01*
X88479709Y-115936026D01*
X88479708Y-115936026D01*
X88208132Y-115918226D01*
X88200000Y-115917693D01*
X88191868Y-115918226D01*
X87920292Y-115936026D01*
X87920291Y-115936026D01*
X87912161Y-115936559D01*
X87904176Y-115938147D01*
X87904171Y-115938148D01*
X87704184Y-115977928D01*
X87629247Y-115992834D01*
X87356098Y-116085556D01*
X87097389Y-116213137D01*
X86857546Y-116373395D01*
X86640673Y-116563588D01*
X86450480Y-116780461D01*
X86290222Y-117020304D01*
X86162641Y-117279013D01*
X86069919Y-117552162D01*
X86013644Y-117835076D01*
X85994778Y-118122915D01*
X85405222Y-118122915D01*
X85386356Y-117835076D01*
X85330081Y-117552162D01*
X85237359Y-117279013D01*
X85109778Y-117020304D01*
X84949520Y-116780461D01*
X84759327Y-116563588D01*
X84542454Y-116373395D01*
X84302611Y-116213137D01*
X84043902Y-116085556D01*
X83770753Y-115992834D01*
X83695816Y-115977928D01*
X83495829Y-115938148D01*
X83495824Y-115938147D01*
X83487839Y-115936559D01*
X83479709Y-115936026D01*
X83479708Y-115936026D01*
X83208132Y-115918226D01*
X83200000Y-115917693D01*
X83191868Y-115918226D01*
X82920292Y-115936026D01*
X82920291Y-115936026D01*
X82912161Y-115936559D01*
X82904176Y-115938147D01*
X82904171Y-115938148D01*
X82704184Y-115977928D01*
X82629247Y-115992834D01*
X82356098Y-116085556D01*
X82097389Y-116213137D01*
X81857546Y-116373395D01*
X81640673Y-116563588D01*
X81450480Y-116780461D01*
X81290222Y-117020304D01*
X81162641Y-117279013D01*
X81069919Y-117552162D01*
X81013644Y-117835076D01*
X80994778Y-118122915D01*
X56000000Y-118122915D01*
X56000000Y-106580233D01*
X77899500Y-106580233D01*
X77938934Y-106892388D01*
X77940882Y-106899974D01*
X78001141Y-107134667D01*
X78017181Y-107197140D01*
X78020065Y-107204425D01*
X78020066Y-107204427D01*
X78089206Y-107379055D01*
X78133006Y-107489681D01*
X78136771Y-107496529D01*
X78136774Y-107496536D01*
X78280814Y-107758542D01*
X78284584Y-107765399D01*
X78289184Y-107771730D01*
X78289185Y-107771732D01*
X78357670Y-107865993D01*
X78469522Y-108019945D01*
X78617523Y-108177550D01*
X78657220Y-108219822D01*
X78684906Y-108249305D01*
X78927337Y-108449862D01*
X79192993Y-108618452D01*
X79200075Y-108621784D01*
X79200074Y-108621784D01*
X79470601Y-108749085D01*
X79470607Y-108749088D01*
X79477685Y-108752418D01*
X79485128Y-108754836D01*
X79485132Y-108754838D01*
X79769481Y-108847229D01*
X79769487Y-108847231D01*
X79776921Y-108849646D01*
X80085985Y-108908603D01*
X80166583Y-108913674D01*
X80317531Y-108923171D01*
X80317546Y-108923171D01*
X80321417Y-108923415D01*
X80478583Y-108923415D01*
X80482454Y-108923171D01*
X80482469Y-108923171D01*
X80633417Y-108913674D01*
X80714015Y-108908603D01*
X81023079Y-108849646D01*
X81030513Y-108847231D01*
X81030519Y-108847229D01*
X81314868Y-108754838D01*
X81314872Y-108754836D01*
X81322315Y-108752418D01*
X81329393Y-108749088D01*
X81329399Y-108749085D01*
X81599926Y-108621784D01*
X81599925Y-108621784D01*
X81607007Y-108618452D01*
X81872663Y-108449862D01*
X82115094Y-108249305D01*
X82142781Y-108219822D01*
X82182477Y-108177550D01*
X82330478Y-108019945D01*
X82442331Y-107865993D01*
X82510815Y-107771732D01*
X82510816Y-107771730D01*
X82515416Y-107765399D01*
X82519186Y-107758542D01*
X82663226Y-107496536D01*
X82663229Y-107496529D01*
X82666994Y-107489681D01*
X82710794Y-107379055D01*
X82779934Y-107204427D01*
X82779935Y-107204425D01*
X82782819Y-107197140D01*
X82798860Y-107134667D01*
X82859118Y-106899974D01*
X82861066Y-106892388D01*
X82899410Y-106588865D01*
X83447823Y-106588865D01*
X83448275Y-106594478D01*
X83448275Y-106594489D01*
X83477566Y-106958540D01*
X83482421Y-107018884D01*
X83483381Y-107024441D01*
X83544634Y-107379055D01*
X83555851Y-107443997D01*
X83667508Y-107860706D01*
X83816472Y-108265580D01*
X83818900Y-108270694D01*
X83818902Y-108270698D01*
X83985611Y-108621784D01*
X84001519Y-108655287D01*
X84221124Y-109026619D01*
X84224421Y-109031190D01*
X84438856Y-109328511D01*
X84473480Y-109376519D01*
X84477179Y-109380775D01*
X84477186Y-109380783D01*
X84624894Y-109550701D01*
X84756509Y-109702107D01*
X85067883Y-110000704D01*
X85405038Y-110269851D01*
X85765198Y-110507333D01*
X85770175Y-110510002D01*
X85770179Y-110510004D01*
X86140425Y-110708528D01*
X86140435Y-110708533D01*
X86145400Y-110711195D01*
X86542514Y-110879760D01*
X86547886Y-110881485D01*
X86547892Y-110881487D01*
X86851594Y-110978995D01*
X86953271Y-111011640D01*
X87134253Y-111052094D01*
X87368772Y-111104516D01*
X87368781Y-111104518D01*
X87374290Y-111105749D01*
X87497652Y-111121771D01*
X87796499Y-111160584D01*
X87796504Y-111160584D01*
X87802106Y-111161312D01*
X88017651Y-111169593D01*
X88227543Y-111177656D01*
X88227547Y-111177656D01*
X88233196Y-111177873D01*
X88432642Y-111167421D01*
X88658373Y-111155591D01*
X88658381Y-111155590D01*
X88664014Y-111155295D01*
X89091012Y-111093764D01*
X89510676Y-110993785D01*
X89919552Y-110856184D01*
X89924709Y-110853910D01*
X89924718Y-110853906D01*
X90309099Y-110684373D01*
X90314273Y-110682091D01*
X90624727Y-110510004D01*
X90686642Y-110475684D01*
X90686645Y-110475682D01*
X90691592Y-110472940D01*
X91048402Y-110230452D01*
X91381766Y-109956624D01*
X91688940Y-109653709D01*
X91967396Y-109324200D01*
X92214842Y-108970811D01*
X92429241Y-108596449D01*
X92572143Y-108284324D01*
X92606473Y-108209341D01*
X92606474Y-108209339D01*
X92608828Y-108204197D01*
X92673714Y-108019945D01*
X92750249Y-107802610D01*
X92752125Y-107797283D01*
X92758591Y-107771732D01*
X92856565Y-107384541D01*
X92856566Y-107384537D01*
X92857953Y-107379055D01*
X92925440Y-106952958D01*
X92954031Y-106522498D01*
X92955074Y-106422915D01*
X92935504Y-105991950D01*
X92929190Y-105945856D01*
X92877724Y-105570146D01*
X92877724Y-105570144D01*
X92876955Y-105564533D01*
X92850711Y-105450859D01*
X92781180Y-105149685D01*
X92781178Y-105149679D01*
X92779909Y-105144181D01*
X92688217Y-104865298D01*
X92646931Y-104739725D01*
X92646928Y-104739717D01*
X92645165Y-104734355D01*
X92473832Y-104338428D01*
X92348287Y-104108162D01*
X92270025Y-103964618D01*
X92270018Y-103964606D01*
X92267320Y-103959658D01*
X92253286Y-103938693D01*
X92030478Y-103605867D01*
X92027330Y-103601164D01*
X91755835Y-103265897D01*
X91455072Y-102956615D01*
X91127516Y-102675866D01*
X91122917Y-102672597D01*
X91122911Y-102672593D01*
X90780470Y-102429233D01*
X90775863Y-102425959D01*
X90403007Y-102208951D01*
X90012018Y-102026630D01*
X90006709Y-102024719D01*
X90006705Y-102024717D01*
X89750103Y-101932335D01*
X89606114Y-101880496D01*
X89600649Y-101879072D01*
X89600641Y-101879070D01*
X89194107Y-101773176D01*
X89194100Y-101773174D01*
X89188635Y-101771751D01*
X88763020Y-101701291D01*
X88680359Y-101695221D01*
X88338413Y-101670109D01*
X88338403Y-101670109D01*
X88332769Y-101669695D01*
X88155187Y-101672795D01*
X87907075Y-101677125D01*
X87907066Y-101677126D01*
X87901426Y-101677224D01*
X87472541Y-101723816D01*
X87467020Y-101724929D01*
X87467015Y-101724930D01*
X87324740Y-101753618D01*
X87049643Y-101809087D01*
X87044229Y-101810701D01*
X87044225Y-101810702D01*
X86641641Y-101930717D01*
X86641632Y-101930720D01*
X86636215Y-101932335D01*
X86630969Y-101934433D01*
X86630964Y-101934435D01*
X86240905Y-102090448D01*
X86240899Y-102090451D01*
X86235658Y-102092547D01*
X86230629Y-102095109D01*
X86230621Y-102095113D01*
X85856298Y-102285840D01*
X85851270Y-102288402D01*
X85846497Y-102291408D01*
X85846493Y-102291410D01*
X85575608Y-102461996D01*
X85486215Y-102518290D01*
X85481716Y-102521730D01*
X85147998Y-102776875D01*
X85147988Y-102776883D01*
X85143497Y-102780317D01*
X84825939Y-103072327D01*
X84536153Y-103391917D01*
X84276524Y-103736455D01*
X84273545Y-103741259D01*
X84273542Y-103741264D01*
X84202670Y-103855569D01*
X84049191Y-104103106D01*
X84046660Y-104108159D01*
X84046659Y-104108162D01*
X83988629Y-104224046D01*
X83856024Y-104488852D01*
X83853963Y-104494111D01*
X83708497Y-104865298D01*
X83698613Y-104890518D01*
X83578254Y-105304797D01*
X83577177Y-105310339D01*
X83577176Y-105310342D01*
X83568272Y-105356149D01*
X83495937Y-105728279D01*
X83495366Y-105733902D01*
X83458937Y-106092539D01*
X83452340Y-106157480D01*
X83452281Y-106163143D01*
X83449862Y-106394118D01*
X83448958Y-106480507D01*
X83447823Y-106588865D01*
X82899410Y-106588865D01*
X82900500Y-106580233D01*
X82900500Y-106265597D01*
X82861066Y-105953442D01*
X82833756Y-105847077D01*
X82784768Y-105656279D01*
X82784766Y-105656272D01*
X82782819Y-105648690D01*
X82666994Y-105356149D01*
X82663229Y-105349301D01*
X82663226Y-105349294D01*
X82519186Y-105087288D01*
X82519184Y-105087284D01*
X82515416Y-105080431D01*
X82381384Y-104895951D01*
X82335081Y-104832220D01*
X82335078Y-104832216D01*
X82330478Y-104825885D01*
X82115094Y-104596525D01*
X81872663Y-104395968D01*
X81607007Y-104227378D01*
X81566152Y-104208153D01*
X81329399Y-104096745D01*
X81329393Y-104096742D01*
X81322315Y-104093412D01*
X81314872Y-104090994D01*
X81314868Y-104090992D01*
X81030519Y-103998601D01*
X81030513Y-103998599D01*
X81023079Y-103996184D01*
X80714015Y-103937227D01*
X80633417Y-103932156D01*
X80482469Y-103922659D01*
X80482454Y-103922659D01*
X80478583Y-103922415D01*
X80321417Y-103922415D01*
X80317546Y-103922659D01*
X80317531Y-103922659D01*
X80166583Y-103932156D01*
X80085985Y-103937227D01*
X79776921Y-103996184D01*
X79769487Y-103998599D01*
X79769481Y-103998601D01*
X79485132Y-104090992D01*
X79485128Y-104090994D01*
X79477685Y-104093412D01*
X79470607Y-104096742D01*
X79470601Y-104096745D01*
X79233848Y-104208153D01*
X79192993Y-104227378D01*
X78927337Y-104395968D01*
X78684906Y-104596525D01*
X78469522Y-104825885D01*
X78464922Y-104832216D01*
X78464919Y-104832220D01*
X78418616Y-104895951D01*
X78284584Y-105080431D01*
X78280816Y-105087284D01*
X78280814Y-105087288D01*
X78136774Y-105349294D01*
X78136771Y-105349301D01*
X78133006Y-105356149D01*
X78017181Y-105648690D01*
X78015234Y-105656272D01*
X78015232Y-105656279D01*
X77966244Y-105847077D01*
X77938934Y-105953442D01*
X77899500Y-106265597D01*
X77899500Y-106580233D01*
X56000000Y-106580233D01*
X56000000Y-102035970D01*
X58995259Y-102035970D01*
X58996278Y-102048109D01*
X58996252Y-102050000D01*
X58995980Y-102050000D01*
X59012035Y-102253994D01*
X59014317Y-102263501D01*
X59014318Y-102263505D01*
X59046436Y-102397287D01*
X59059803Y-102452964D01*
X59138110Y-102642013D01*
X59245026Y-102816484D01*
X59377919Y-102972081D01*
X59533516Y-103104974D01*
X59707987Y-103211890D01*
X59897036Y-103290197D01*
X60096006Y-103337965D01*
X60149157Y-103342148D01*
X60180521Y-103346640D01*
X60194932Y-103349651D01*
X60201592Y-103350000D01*
X60221079Y-103350000D01*
X60252274Y-103351962D01*
X60271943Y-103354447D01*
X60285971Y-103354643D01*
X60293045Y-103354742D01*
X60293048Y-103354742D01*
X60300000Y-103354839D01*
X60337236Y-103351188D01*
X60361534Y-103350000D01*
X72921072Y-103350000D01*
X72952280Y-103351963D01*
X72971943Y-103354447D01*
X72978881Y-103354544D01*
X72978882Y-103354544D01*
X72993052Y-103354742D01*
X72993053Y-103354742D01*
X73000000Y-103354839D01*
X73029329Y-103351963D01*
X73039956Y-103350921D01*
X73044720Y-103350500D01*
X73055507Y-103349651D01*
X73203994Y-103337965D01*
X73402964Y-103290197D01*
X73592013Y-103211890D01*
X73766484Y-103104974D01*
X73922081Y-102972081D01*
X74054974Y-102816484D01*
X74161890Y-102642013D01*
X74240197Y-102452964D01*
X74287965Y-102253994D01*
X74292148Y-102200843D01*
X74296640Y-102169479D01*
X74299651Y-102155068D01*
X74300000Y-102148408D01*
X74300000Y-102128921D01*
X74301962Y-102097726D01*
X74304447Y-102078057D01*
X74304839Y-102050000D01*
X74301188Y-102012764D01*
X74300000Y-101988466D01*
X74300000Y-83028928D01*
X74301963Y-82997720D01*
X74303577Y-82984941D01*
X74304447Y-82978057D01*
X74304839Y-82950000D01*
X74300921Y-82910044D01*
X74300500Y-82905280D01*
X74296275Y-82851592D01*
X74287965Y-82746006D01*
X74240197Y-82547036D01*
X74161890Y-82357987D01*
X74054974Y-82183516D01*
X73922081Y-82027919D01*
X73766484Y-81895026D01*
X73592013Y-81788110D01*
X73402964Y-81709803D01*
X73203994Y-81662035D01*
X73150843Y-81657852D01*
X73119479Y-81653360D01*
X73105068Y-81650349D01*
X73098408Y-81650000D01*
X73078921Y-81650000D01*
X73047726Y-81648038D01*
X73028057Y-81645553D01*
X73014028Y-81645357D01*
X73006955Y-81645258D01*
X73006952Y-81645258D01*
X73000000Y-81645161D01*
X72964452Y-81648647D01*
X72962764Y-81648812D01*
X72938466Y-81650000D01*
X60378928Y-81650000D01*
X60347720Y-81648037D01*
X60328057Y-81645553D01*
X60321119Y-81645456D01*
X60321118Y-81645456D01*
X60306948Y-81645258D01*
X60306947Y-81645258D01*
X60300000Y-81645161D01*
X60275092Y-81647604D01*
X60260044Y-81649079D01*
X60255278Y-81649500D01*
X60096006Y-81662035D01*
X59897036Y-81709803D01*
X59707987Y-81788110D01*
X59533516Y-81895026D01*
X59377919Y-82027919D01*
X59245026Y-82183516D01*
X59138110Y-82357987D01*
X59059803Y-82547036D01*
X59012035Y-82746006D01*
X59007852Y-82799157D01*
X59003360Y-82830521D01*
X59000349Y-82844932D01*
X59000000Y-82851592D01*
X59000000Y-82879783D01*
X58998448Y-82907538D01*
X58995259Y-82935970D01*
X58996201Y-82947190D01*
X58995980Y-82950000D01*
X58996437Y-82950000D01*
X58998793Y-82978057D01*
X58999127Y-82982036D01*
X59000000Y-83002871D01*
X59000000Y-101979783D01*
X58998448Y-102007538D01*
X58995259Y-102035970D01*
X56000000Y-102035970D01*
X56000000Y-77622915D01*
X80994778Y-77622915D01*
X81013644Y-77910754D01*
X81015232Y-77918739D01*
X81015233Y-77918744D01*
X81042867Y-78057670D01*
X81069919Y-78193668D01*
X81162641Y-78466817D01*
X81290222Y-78725526D01*
X81450480Y-78965369D01*
X81640673Y-79182242D01*
X81857546Y-79372435D01*
X82097389Y-79532693D01*
X82356098Y-79660274D01*
X82629247Y-79752996D01*
X82704184Y-79767902D01*
X82904171Y-79807682D01*
X82904176Y-79807683D01*
X82912161Y-79809271D01*
X82920291Y-79809804D01*
X82920292Y-79809804D01*
X83191868Y-79827604D01*
X83200000Y-79828137D01*
X83208132Y-79827604D01*
X83479708Y-79809804D01*
X83479709Y-79809804D01*
X83487839Y-79809271D01*
X83495824Y-79807683D01*
X83495829Y-79807682D01*
X83695816Y-79767902D01*
X83770753Y-79752996D01*
X84043902Y-79660274D01*
X84302611Y-79532693D01*
X84542454Y-79372435D01*
X84759327Y-79182242D01*
X84949520Y-78965369D01*
X85109778Y-78725526D01*
X85237359Y-78466817D01*
X85330081Y-78193668D01*
X85357133Y-78057670D01*
X85384767Y-77918744D01*
X85384768Y-77918739D01*
X85386356Y-77910754D01*
X85405222Y-77622915D01*
X85994778Y-77622915D01*
X86013644Y-77910754D01*
X86015232Y-77918739D01*
X86015233Y-77918744D01*
X86042867Y-78057670D01*
X86069919Y-78193668D01*
X86162641Y-78466817D01*
X86290222Y-78725526D01*
X86450480Y-78965369D01*
X86640673Y-79182242D01*
X86857546Y-79372435D01*
X87097389Y-79532693D01*
X87356098Y-79660274D01*
X87629247Y-79752996D01*
X87704184Y-79767902D01*
X87904171Y-79807682D01*
X87904176Y-79807683D01*
X87912161Y-79809271D01*
X87920291Y-79809804D01*
X87920292Y-79809804D01*
X88191868Y-79827604D01*
X88200000Y-79828137D01*
X88208132Y-79827604D01*
X88479708Y-79809804D01*
X88479709Y-79809804D01*
X88487839Y-79809271D01*
X88495824Y-79807683D01*
X88495829Y-79807682D01*
X88695816Y-79767902D01*
X88770753Y-79752996D01*
X89043902Y-79660274D01*
X89302611Y-79532693D01*
X89542454Y-79372435D01*
X89759327Y-79182242D01*
X89949520Y-78965369D01*
X90109778Y-78725526D01*
X90237359Y-78466817D01*
X90330081Y-78193668D01*
X90357133Y-78057670D01*
X90384767Y-77918744D01*
X90384768Y-77918739D01*
X90386356Y-77910754D01*
X90405222Y-77622915D01*
X90994778Y-77622915D01*
X91013644Y-77910754D01*
X91015232Y-77918739D01*
X91015233Y-77918744D01*
X91042867Y-78057670D01*
X91069919Y-78193668D01*
X91162641Y-78466817D01*
X91290222Y-78725526D01*
X91450480Y-78965369D01*
X91640673Y-79182242D01*
X91857546Y-79372435D01*
X92097389Y-79532693D01*
X92356098Y-79660274D01*
X92629247Y-79752996D01*
X92704184Y-79767902D01*
X92904171Y-79807682D01*
X92904176Y-79807683D01*
X92912161Y-79809271D01*
X92920291Y-79809804D01*
X92920292Y-79809804D01*
X93191868Y-79827604D01*
X93200000Y-79828137D01*
X93208132Y-79827604D01*
X93479708Y-79809804D01*
X93479709Y-79809804D01*
X93487839Y-79809271D01*
X93495824Y-79807683D01*
X93495829Y-79807682D01*
X93695816Y-79767902D01*
X93770753Y-79752996D01*
X94043902Y-79660274D01*
X94302611Y-79532693D01*
X94542454Y-79372435D01*
X94682069Y-79249996D01*
X100995161Y-79249996D01*
X100995840Y-79256918D01*
X100995840Y-79256927D01*
X100999941Y-79298758D01*
X101000000Y-79299550D01*
X101000000Y-79300770D01*
X101000340Y-79304117D01*
X101000361Y-79304397D01*
X101000802Y-79309298D01*
X101011572Y-79446145D01*
X101057503Y-79637463D01*
X101132797Y-79819242D01*
X101235601Y-79987003D01*
X101363383Y-80136617D01*
X101512997Y-80264399D01*
X101680758Y-80367203D01*
X101862537Y-80442497D01*
X101872048Y-80444780D01*
X101872050Y-80444781D01*
X102044344Y-80486145D01*
X102044349Y-80486146D01*
X102053855Y-80488428D01*
X102087629Y-80491086D01*
X102097955Y-80491899D01*
X102129330Y-80496392D01*
X102133645Y-80497293D01*
X102144932Y-80499651D01*
X102151592Y-80500000D01*
X102171076Y-80500000D01*
X102202282Y-80501963D01*
X102215058Y-80503577D01*
X102215062Y-80503577D01*
X102221947Y-80504447D01*
X102228888Y-80504544D01*
X102243056Y-80504742D01*
X102243057Y-80504742D01*
X102250004Y-80504839D01*
X102287228Y-80501189D01*
X102311527Y-80500000D01*
X147671076Y-80500000D01*
X147702285Y-80501964D01*
X147721939Y-80504447D01*
X147735436Y-80504636D01*
X147743039Y-80504742D01*
X147743043Y-80504742D01*
X147749996Y-80504839D01*
X147756918Y-80504160D01*
X147756927Y-80504160D01*
X147798758Y-80500059D01*
X147799550Y-80500000D01*
X147800770Y-80500000D01*
X147804117Y-80499660D01*
X147804397Y-80499639D01*
X147809298Y-80499198D01*
X147946145Y-80488428D01*
X147955667Y-80486142D01*
X148127950Y-80444781D01*
X148127952Y-80444780D01*
X148137463Y-80442497D01*
X148319242Y-80367203D01*
X148487003Y-80264399D01*
X148636617Y-80136617D01*
X148764399Y-79987003D01*
X148867203Y-79819242D01*
X148942497Y-79637463D01*
X148988428Y-79446145D01*
X148991899Y-79402045D01*
X148996392Y-79370670D01*
X148997694Y-79364435D01*
X148999651Y-79355068D01*
X149000000Y-79348408D01*
X149000000Y-79328924D01*
X149001963Y-79297718D01*
X149003577Y-79284942D01*
X149003577Y-79284938D01*
X149004447Y-79278053D01*
X149004839Y-79249996D01*
X149001189Y-79212772D01*
X149000000Y-79188473D01*
X149000000Y-67705151D01*
X170595585Y-67705151D01*
X170606152Y-67974083D01*
X170654505Y-68238843D01*
X170739682Y-68494148D01*
X170743613Y-68502015D01*
X170743615Y-68502020D01*
X170856049Y-68727037D01*
X170856053Y-68727044D01*
X170859981Y-68734905D01*
X171013003Y-68956309D01*
X171018976Y-68962771D01*
X171018978Y-68962773D01*
X171131245Y-69084222D01*
X171195695Y-69153944D01*
X171249625Y-69197850D01*
X171397582Y-69318307D01*
X171397588Y-69318311D01*
X171404411Y-69323866D01*
X171411948Y-69328404D01*
X171411950Y-69328405D01*
X171618329Y-69452655D01*
X171634987Y-69462684D01*
X171882822Y-69567628D01*
X171891329Y-69569884D01*
X171891333Y-69569885D01*
X172025036Y-69605336D01*
X172142972Y-69636606D01*
X172410245Y-69668240D01*
X172679310Y-69661899D01*
X172687990Y-69660454D01*
X172687993Y-69660454D01*
X172936108Y-69619156D01*
X172936107Y-69619156D01*
X172944796Y-69617710D01*
X172953192Y-69615055D01*
X172953195Y-69615054D01*
X173193019Y-69539207D01*
X173201408Y-69536554D01*
X173444025Y-69420051D01*
X173667806Y-69270526D01*
X173674361Y-69264655D01*
X173861731Y-69096833D01*
X173861737Y-69096827D01*
X173868286Y-69090961D01*
X173976040Y-68962773D01*
X174035797Y-68891683D01*
X174035798Y-68891682D01*
X174041465Y-68884940D01*
X174046120Y-68877476D01*
X174046125Y-68877469D01*
X174179235Y-68664032D01*
X174179237Y-68664027D01*
X174183887Y-68656572D01*
X174292712Y-68410416D01*
X174336590Y-68254838D01*
X174363376Y-68159860D01*
X174363376Y-68159859D01*
X174365767Y-68151382D01*
X174401595Y-67884638D01*
X174405355Y-67765000D01*
X174404597Y-67754286D01*
X174388409Y-67525652D01*
X174386347Y-67496533D01*
X174373619Y-67437414D01*
X174331553Y-67242028D01*
X174331552Y-67242023D01*
X174329700Y-67233423D01*
X174311748Y-67184760D01*
X174239591Y-66989170D01*
X174239591Y-66989169D01*
X174236547Y-66980919D01*
X174232372Y-66973182D01*
X174232366Y-66973168D01*
X174218204Y-66946921D01*
X174189637Y-66854061D01*
X174198780Y-66757337D01*
X174229461Y-66691616D01*
X174231600Y-66688371D01*
X174239573Y-66678596D01*
X174245421Y-66667411D01*
X174306342Y-66550880D01*
X174333741Y-66498470D01*
X174389766Y-66303087D01*
X174390820Y-66291279D01*
X174400008Y-66188332D01*
X174400008Y-66188325D01*
X174400500Y-66182816D01*
X174400500Y-64267184D01*
X174398050Y-64239725D01*
X174390820Y-64158721D01*
X174390820Y-64158719D01*
X174389766Y-64146913D01*
X174333741Y-63951530D01*
X174277318Y-63843603D01*
X174245417Y-63782582D01*
X174245416Y-63782580D01*
X174239573Y-63771404D01*
X174207086Y-63731570D01*
X174119087Y-63623673D01*
X174111109Y-63613891D01*
X174083032Y-63590992D01*
X173963370Y-63493398D01*
X173963367Y-63493396D01*
X173953596Y-63485427D01*
X173941720Y-63479218D01*
X173784652Y-63397105D01*
X173773470Y-63391259D01*
X173578087Y-63335234D01*
X173566281Y-63334180D01*
X173566279Y-63334180D01*
X173463332Y-63324992D01*
X173463325Y-63324992D01*
X173457816Y-63324500D01*
X171542184Y-63324500D01*
X171536675Y-63324992D01*
X171536668Y-63324992D01*
X171433721Y-63334180D01*
X171433719Y-63334180D01*
X171421913Y-63335234D01*
X171226530Y-63391259D01*
X171215348Y-63397105D01*
X171058281Y-63479218D01*
X171046404Y-63485427D01*
X171036633Y-63493396D01*
X171036630Y-63493398D01*
X170916968Y-63590992D01*
X170888891Y-63613891D01*
X170880913Y-63623673D01*
X170792915Y-63731570D01*
X170760427Y-63771404D01*
X170754584Y-63782580D01*
X170754583Y-63782582D01*
X170722682Y-63843603D01*
X170666259Y-63951530D01*
X170610234Y-64146913D01*
X170609180Y-64158719D01*
X170609180Y-64158721D01*
X170601951Y-64239725D01*
X170599500Y-64267184D01*
X170599500Y-66182816D01*
X170599992Y-66188325D01*
X170599992Y-66188332D01*
X170609180Y-66291279D01*
X170610234Y-66303087D01*
X170666259Y-66498470D01*
X170760427Y-66678596D01*
X170768403Y-66688376D01*
X170769244Y-66689651D01*
X170805874Y-66779636D01*
X170805280Y-66876790D01*
X170788308Y-66926504D01*
X170788939Y-66926760D01*
X170687900Y-67176213D01*
X170685777Y-67184760D01*
X170643423Y-67355267D01*
X170623017Y-67437414D01*
X170595585Y-67705151D01*
X149000000Y-67705151D01*
X149000000Y-55205151D01*
X170595585Y-55205151D01*
X170606152Y-55474083D01*
X170654505Y-55738843D01*
X170739682Y-55994148D01*
X170743613Y-56002015D01*
X170743615Y-56002020D01*
X170856049Y-56227037D01*
X170856053Y-56227044D01*
X170859981Y-56234905D01*
X171013003Y-56456309D01*
X171018976Y-56462771D01*
X171018978Y-56462773D01*
X171131245Y-56584222D01*
X171195695Y-56653944D01*
X171291244Y-56731733D01*
X171397582Y-56818307D01*
X171397588Y-56818311D01*
X171404411Y-56823866D01*
X171411948Y-56828404D01*
X171411950Y-56828405D01*
X171570506Y-56923863D01*
X171634987Y-56962684D01*
X171882822Y-57067628D01*
X171891329Y-57069884D01*
X171891333Y-57069885D01*
X172025036Y-57105336D01*
X172142972Y-57136606D01*
X172410245Y-57168240D01*
X172679310Y-57161899D01*
X172687990Y-57160454D01*
X172687993Y-57160454D01*
X172936108Y-57119156D01*
X172936107Y-57119156D01*
X172944796Y-57117710D01*
X172953192Y-57115055D01*
X172953195Y-57115054D01*
X173193019Y-57039207D01*
X173201408Y-57036554D01*
X173444025Y-56920051D01*
X173667806Y-56770526D01*
X173674361Y-56764655D01*
X173861731Y-56596833D01*
X173861737Y-56596827D01*
X173868286Y-56590961D01*
X173976040Y-56462773D01*
X174035797Y-56391683D01*
X174035798Y-56391682D01*
X174041465Y-56384940D01*
X174046120Y-56377476D01*
X174046125Y-56377469D01*
X174179235Y-56164032D01*
X174179237Y-56164027D01*
X174183887Y-56156572D01*
X174292712Y-55910416D01*
X174341101Y-55738843D01*
X174363376Y-55659860D01*
X174363376Y-55659859D01*
X174365767Y-55651382D01*
X174401595Y-55384638D01*
X174405355Y-55265000D01*
X174401741Y-55213948D01*
X174386969Y-55005321D01*
X174386347Y-54996533D01*
X174373619Y-54937414D01*
X174331553Y-54742028D01*
X174331552Y-54742023D01*
X174329700Y-54733423D01*
X174311748Y-54684760D01*
X174239591Y-54489170D01*
X174239591Y-54489169D01*
X174236547Y-54480919D01*
X174232372Y-54473182D01*
X174232366Y-54473168D01*
X174218204Y-54446921D01*
X174189637Y-54354061D01*
X174198780Y-54257337D01*
X174229461Y-54191616D01*
X174231600Y-54188371D01*
X174239573Y-54178596D01*
X174245421Y-54167411D01*
X174327895Y-54009652D01*
X174333741Y-53998470D01*
X174389766Y-53803087D01*
X174400500Y-53682816D01*
X174400500Y-51767184D01*
X174398249Y-51741954D01*
X174390820Y-51658721D01*
X174390820Y-51658719D01*
X174389766Y-51646913D01*
X174333741Y-51451530D01*
X174239573Y-51271404D01*
X174111109Y-51113891D01*
X174101327Y-51105913D01*
X173963370Y-50993398D01*
X173963367Y-50993396D01*
X173953596Y-50985427D01*
X173773470Y-50891259D01*
X173578087Y-50835234D01*
X173566281Y-50834180D01*
X173566279Y-50834180D01*
X173463332Y-50824992D01*
X173463325Y-50824992D01*
X173457816Y-50824500D01*
X171542184Y-50824500D01*
X171536675Y-50824992D01*
X171536668Y-50824992D01*
X171433721Y-50834180D01*
X171433719Y-50834180D01*
X171421913Y-50835234D01*
X171226530Y-50891259D01*
X171046404Y-50985427D01*
X171036633Y-50993396D01*
X171036630Y-50993398D01*
X170898673Y-51105913D01*
X170888891Y-51113891D01*
X170760427Y-51271404D01*
X170666259Y-51451530D01*
X170610234Y-51646913D01*
X170609180Y-51658719D01*
X170609180Y-51658721D01*
X170601752Y-51741954D01*
X170599500Y-51767184D01*
X170599500Y-53682816D01*
X170610234Y-53803087D01*
X170666259Y-53998470D01*
X170760427Y-54178596D01*
X170768403Y-54188376D01*
X170769244Y-54189651D01*
X170805874Y-54279636D01*
X170805280Y-54376790D01*
X170788308Y-54426504D01*
X170788939Y-54426760D01*
X170687900Y-54676213D01*
X170623017Y-54937414D01*
X170595585Y-55205151D01*
X149000000Y-55205151D01*
X149000000Y-52828924D01*
X149001964Y-52797715D01*
X149003574Y-52784968D01*
X149004447Y-52778061D01*
X149004839Y-52750004D01*
X149002089Y-52721947D01*
X149000059Y-52701242D01*
X149000000Y-52700450D01*
X149000000Y-52699230D01*
X148999660Y-52695883D01*
X148999639Y-52695603D01*
X148999196Y-52690680D01*
X148995596Y-52644932D01*
X148988428Y-52553855D01*
X148942497Y-52362537D01*
X148867203Y-52180758D01*
X148764399Y-52012997D01*
X148636617Y-51863383D01*
X148487003Y-51735601D01*
X148319242Y-51632797D01*
X148137463Y-51557503D01*
X148127952Y-51555220D01*
X148127950Y-51555219D01*
X147955656Y-51513855D01*
X147955651Y-51513854D01*
X147946145Y-51511572D01*
X147912371Y-51508914D01*
X147902045Y-51508101D01*
X147870670Y-51503608D01*
X147866355Y-51502707D01*
X147855068Y-51500349D01*
X147848408Y-51500000D01*
X147828924Y-51500000D01*
X147797718Y-51498037D01*
X147784942Y-51496423D01*
X147784938Y-51496423D01*
X147778053Y-51495553D01*
X147771112Y-51495456D01*
X147756944Y-51495258D01*
X147756943Y-51495258D01*
X147749996Y-51495161D01*
X147712773Y-51498811D01*
X147688473Y-51500000D01*
X102328924Y-51500000D01*
X102297715Y-51498036D01*
X102278061Y-51495553D01*
X102264564Y-51495364D01*
X102256961Y-51495258D01*
X102256957Y-51495258D01*
X102250004Y-51495161D01*
X102243082Y-51495840D01*
X102243073Y-51495840D01*
X102201242Y-51499941D01*
X102200450Y-51500000D01*
X102199230Y-51500000D01*
X102195883Y-51500340D01*
X102195603Y-51500361D01*
X102190702Y-51500802D01*
X102053855Y-51511572D01*
X102044333Y-51513858D01*
X101872050Y-51555219D01*
X101872048Y-51555220D01*
X101862537Y-51557503D01*
X101680758Y-51632797D01*
X101512997Y-51735601D01*
X101363383Y-51863383D01*
X101235601Y-52012997D01*
X101132797Y-52180758D01*
X101057503Y-52362537D01*
X101011572Y-52553855D01*
X101010805Y-52563606D01*
X101008101Y-52597955D01*
X101003608Y-52629330D01*
X101000349Y-52644932D01*
X101000000Y-52651592D01*
X101000000Y-52671076D01*
X100998037Y-52702282D01*
X100995553Y-52721947D01*
X100995161Y-52750004D01*
X100998811Y-52787227D01*
X101000000Y-52811527D01*
X101000000Y-79171076D01*
X100998036Y-79202285D01*
X100995553Y-79221939D01*
X100995161Y-79249996D01*
X94682069Y-79249996D01*
X94759327Y-79182242D01*
X94949520Y-78965369D01*
X95109778Y-78725526D01*
X95237359Y-78466817D01*
X95330081Y-78193668D01*
X95357133Y-78057670D01*
X95384767Y-77918744D01*
X95384768Y-77918739D01*
X95386356Y-77910754D01*
X95405222Y-77622915D01*
X95396145Y-77484431D01*
X95386889Y-77343207D01*
X95386889Y-77343206D01*
X95386356Y-77335076D01*
X95371713Y-77261457D01*
X95331671Y-77060156D01*
X95330081Y-77052162D01*
X95237359Y-76779013D01*
X95109778Y-76520304D01*
X94949520Y-76280461D01*
X94759327Y-76063588D01*
X94542454Y-75873395D01*
X94302611Y-75713137D01*
X94043902Y-75585556D01*
X93770753Y-75492834D01*
X93682076Y-75475195D01*
X93495829Y-75438148D01*
X93495824Y-75438147D01*
X93487839Y-75436559D01*
X93479709Y-75436026D01*
X93479708Y-75436026D01*
X93208132Y-75418226D01*
X93200000Y-75417693D01*
X93191868Y-75418226D01*
X92920292Y-75436026D01*
X92920291Y-75436026D01*
X92912161Y-75436559D01*
X92904176Y-75438147D01*
X92904171Y-75438148D01*
X92717924Y-75475195D01*
X92629247Y-75492834D01*
X92356098Y-75585556D01*
X92097389Y-75713137D01*
X91857546Y-75873395D01*
X91640673Y-76063588D01*
X91450480Y-76280461D01*
X91290222Y-76520304D01*
X91162641Y-76779013D01*
X91069919Y-77052162D01*
X91068329Y-77060156D01*
X91028288Y-77261457D01*
X91013644Y-77335076D01*
X91013111Y-77343206D01*
X91013111Y-77343207D01*
X91003855Y-77484431D01*
X90994778Y-77622915D01*
X90405222Y-77622915D01*
X90396145Y-77484431D01*
X90386889Y-77343207D01*
X90386889Y-77343206D01*
X90386356Y-77335076D01*
X90371713Y-77261457D01*
X90331671Y-77060156D01*
X90330081Y-77052162D01*
X90237359Y-76779013D01*
X90109778Y-76520304D01*
X89949520Y-76280461D01*
X89759327Y-76063588D01*
X89542454Y-75873395D01*
X89302611Y-75713137D01*
X89043902Y-75585556D01*
X88770753Y-75492834D01*
X88682076Y-75475195D01*
X88495829Y-75438148D01*
X88495824Y-75438147D01*
X88487839Y-75436559D01*
X88479709Y-75436026D01*
X88479708Y-75436026D01*
X88208132Y-75418226D01*
X88200000Y-75417693D01*
X88191868Y-75418226D01*
X87920292Y-75436026D01*
X87920291Y-75436026D01*
X87912161Y-75436559D01*
X87904176Y-75438147D01*
X87904171Y-75438148D01*
X87717924Y-75475195D01*
X87629247Y-75492834D01*
X87356098Y-75585556D01*
X87097389Y-75713137D01*
X86857546Y-75873395D01*
X86640673Y-76063588D01*
X86450480Y-76280461D01*
X86290222Y-76520304D01*
X86162641Y-76779013D01*
X86069919Y-77052162D01*
X86068329Y-77060156D01*
X86028288Y-77261457D01*
X86013644Y-77335076D01*
X86013111Y-77343206D01*
X86013111Y-77343207D01*
X86003855Y-77484431D01*
X85994778Y-77622915D01*
X85405222Y-77622915D01*
X85396145Y-77484431D01*
X85386889Y-77343207D01*
X85386889Y-77343206D01*
X85386356Y-77335076D01*
X85371713Y-77261457D01*
X85331671Y-77060156D01*
X85330081Y-77052162D01*
X85237359Y-76779013D01*
X85109778Y-76520304D01*
X84949520Y-76280461D01*
X84759327Y-76063588D01*
X84542454Y-75873395D01*
X84302611Y-75713137D01*
X84043902Y-75585556D01*
X83770753Y-75492834D01*
X83682076Y-75475195D01*
X83495829Y-75438148D01*
X83495824Y-75438147D01*
X83487839Y-75436559D01*
X83479709Y-75436026D01*
X83479708Y-75436026D01*
X83208132Y-75418226D01*
X83200000Y-75417693D01*
X83191868Y-75418226D01*
X82920292Y-75436026D01*
X82920291Y-75436026D01*
X82912161Y-75436559D01*
X82904176Y-75438147D01*
X82904171Y-75438148D01*
X82717924Y-75475195D01*
X82629247Y-75492834D01*
X82356098Y-75585556D01*
X82097389Y-75713137D01*
X81857546Y-75873395D01*
X81640673Y-76063588D01*
X81450480Y-76280461D01*
X81290222Y-76520304D01*
X81162641Y-76779013D01*
X81069919Y-77052162D01*
X81068329Y-77060156D01*
X81028288Y-77261457D01*
X81013644Y-77335076D01*
X81013111Y-77343206D01*
X81013111Y-77343207D01*
X81003855Y-77484431D01*
X80994778Y-77622915D01*
X56000000Y-77622915D01*
X56000000Y-66080233D01*
X77899500Y-66080233D01*
X77938934Y-66392388D01*
X77940882Y-66399974D01*
X78012420Y-66678596D01*
X78017181Y-66697140D01*
X78020065Y-66704425D01*
X78020066Y-66704427D01*
X78088309Y-66876790D01*
X78133006Y-66989681D01*
X78136771Y-66996529D01*
X78136774Y-66996536D01*
X78280814Y-67258542D01*
X78284584Y-67265399D01*
X78289184Y-67271730D01*
X78289185Y-67271732D01*
X78446255Y-67487920D01*
X78469522Y-67519945D01*
X78617523Y-67677550D01*
X78657220Y-67719822D01*
X78684906Y-67749305D01*
X78927337Y-67949862D01*
X79192993Y-68118452D01*
X79200075Y-68121784D01*
X79200074Y-68121784D01*
X79470601Y-68249085D01*
X79470607Y-68249088D01*
X79477685Y-68252418D01*
X79485128Y-68254836D01*
X79485132Y-68254838D01*
X79769481Y-68347229D01*
X79769487Y-68347231D01*
X79776921Y-68349646D01*
X80085985Y-68408603D01*
X80166583Y-68413674D01*
X80317531Y-68423171D01*
X80317546Y-68423171D01*
X80321417Y-68423415D01*
X80478583Y-68423415D01*
X80482454Y-68423171D01*
X80482469Y-68423171D01*
X80633417Y-68413674D01*
X80714015Y-68408603D01*
X81023079Y-68349646D01*
X81030513Y-68347231D01*
X81030519Y-68347229D01*
X81314868Y-68254838D01*
X81314872Y-68254836D01*
X81322315Y-68252418D01*
X81329393Y-68249088D01*
X81329399Y-68249085D01*
X81599926Y-68121784D01*
X81599925Y-68121784D01*
X81607007Y-68118452D01*
X81872663Y-67949862D01*
X82115094Y-67749305D01*
X82142781Y-67719822D01*
X82182477Y-67677550D01*
X82330478Y-67519945D01*
X82353746Y-67487920D01*
X82510815Y-67271732D01*
X82510816Y-67271730D01*
X82515416Y-67265399D01*
X82519186Y-67258542D01*
X82663226Y-66996536D01*
X82663229Y-66996529D01*
X82666994Y-66989681D01*
X82711691Y-66876790D01*
X82779934Y-66704427D01*
X82779935Y-66704425D01*
X82782819Y-66697140D01*
X82787581Y-66678596D01*
X82859118Y-66399974D01*
X82861066Y-66392388D01*
X82899410Y-66088865D01*
X83447823Y-66088865D01*
X83448275Y-66094478D01*
X83448275Y-66094489D01*
X83481678Y-66509652D01*
X83482421Y-66518884D01*
X83483381Y-66524441D01*
X83552874Y-66926760D01*
X83555851Y-66943997D01*
X83667508Y-67360706D01*
X83816472Y-67765580D01*
X83818900Y-67770694D01*
X83818902Y-67770698D01*
X83995521Y-68142655D01*
X84001519Y-68155287D01*
X84221124Y-68526619D01*
X84224421Y-68531190D01*
X84438856Y-68828511D01*
X84473480Y-68876519D01*
X84477179Y-68880775D01*
X84477186Y-68880783D01*
X84542840Y-68956309D01*
X84756509Y-69202107D01*
X85067883Y-69500704D01*
X85405038Y-69769851D01*
X85765198Y-70007333D01*
X85770175Y-70010002D01*
X85770179Y-70010004D01*
X86140425Y-70208528D01*
X86140435Y-70208533D01*
X86145400Y-70211195D01*
X86542514Y-70379760D01*
X86547886Y-70381485D01*
X86547892Y-70381487D01*
X86851594Y-70478995D01*
X86953271Y-70511640D01*
X87134253Y-70552094D01*
X87368772Y-70604516D01*
X87368781Y-70604518D01*
X87374290Y-70605749D01*
X87497652Y-70621771D01*
X87796499Y-70660584D01*
X87796504Y-70660584D01*
X87802106Y-70661312D01*
X88017651Y-70669593D01*
X88227543Y-70677656D01*
X88227547Y-70677656D01*
X88233196Y-70677873D01*
X88432642Y-70667421D01*
X88658373Y-70655591D01*
X88658381Y-70655590D01*
X88664014Y-70655295D01*
X89091012Y-70593764D01*
X89510676Y-70493785D01*
X89919552Y-70356184D01*
X89924709Y-70353910D01*
X89924718Y-70353906D01*
X90309099Y-70184373D01*
X90314273Y-70182091D01*
X90624727Y-70010004D01*
X90686642Y-69975684D01*
X90686645Y-69975682D01*
X90691592Y-69972940D01*
X91048402Y-69730452D01*
X91381766Y-69456624D01*
X91688940Y-69153709D01*
X91967396Y-68824200D01*
X92214842Y-68470811D01*
X92429241Y-68096449D01*
X92578080Y-67771357D01*
X92606473Y-67709341D01*
X92606474Y-67709339D01*
X92608828Y-67704197D01*
X92673714Y-67519945D01*
X92750249Y-67302610D01*
X92752125Y-67297283D01*
X92758591Y-67271732D01*
X92856565Y-66884541D01*
X92856566Y-66884537D01*
X92857953Y-66879055D01*
X92925440Y-66452958D01*
X92954031Y-66022498D01*
X92955074Y-65922915D01*
X92935504Y-65491950D01*
X92929190Y-65445856D01*
X92877724Y-65070146D01*
X92877724Y-65070144D01*
X92876955Y-65064533D01*
X92850711Y-64950859D01*
X92781180Y-64649685D01*
X92781178Y-64649679D01*
X92779909Y-64644181D01*
X92688217Y-64365298D01*
X92646931Y-64239725D01*
X92646928Y-64239717D01*
X92645165Y-64234355D01*
X92473832Y-63838428D01*
X92347061Y-63605913D01*
X92270025Y-63464618D01*
X92270018Y-63464606D01*
X92267320Y-63459658D01*
X92253286Y-63438693D01*
X92030478Y-63105867D01*
X92027330Y-63101164D01*
X91755835Y-62765897D01*
X91455072Y-62456615D01*
X91127516Y-62175866D01*
X91122917Y-62172597D01*
X91122911Y-62172593D01*
X90780470Y-61929233D01*
X90775863Y-61925959D01*
X90403007Y-61708951D01*
X90012018Y-61526630D01*
X90006709Y-61524719D01*
X90006705Y-61524717D01*
X89750103Y-61432335D01*
X89606114Y-61380496D01*
X89600649Y-61379072D01*
X89600641Y-61379070D01*
X89194107Y-61273176D01*
X89194100Y-61273174D01*
X89188635Y-61271751D01*
X88763020Y-61201291D01*
X88680359Y-61195221D01*
X88338413Y-61170109D01*
X88338403Y-61170109D01*
X88332769Y-61169695D01*
X88155187Y-61172795D01*
X87907075Y-61177125D01*
X87907066Y-61177126D01*
X87901426Y-61177224D01*
X87472541Y-61223816D01*
X87467020Y-61224929D01*
X87467015Y-61224930D01*
X87324740Y-61253618D01*
X87049643Y-61309087D01*
X87044229Y-61310701D01*
X87044225Y-61310702D01*
X86641641Y-61430717D01*
X86641632Y-61430720D01*
X86636215Y-61432335D01*
X86630969Y-61434433D01*
X86630964Y-61434435D01*
X86240905Y-61590448D01*
X86240899Y-61590451D01*
X86235658Y-61592547D01*
X86230629Y-61595109D01*
X86230621Y-61595113D01*
X86001616Y-61711797D01*
X85851270Y-61788402D01*
X85846497Y-61791408D01*
X85846493Y-61791410D01*
X85491004Y-62015274D01*
X85486215Y-62018290D01*
X85481716Y-62021730D01*
X85147998Y-62276875D01*
X85147988Y-62276883D01*
X85143497Y-62280317D01*
X84825939Y-62572327D01*
X84536153Y-62891917D01*
X84276524Y-63236455D01*
X84273545Y-63241259D01*
X84273542Y-63241264D01*
X84202670Y-63355569D01*
X84049191Y-63603106D01*
X84046660Y-63608159D01*
X84046659Y-63608162D01*
X83988629Y-63724046D01*
X83856024Y-63988852D01*
X83853963Y-63994111D01*
X83708497Y-64365298D01*
X83698613Y-64390518D01*
X83578254Y-64804797D01*
X83577177Y-64810339D01*
X83577176Y-64810342D01*
X83568272Y-64856149D01*
X83495937Y-65228279D01*
X83495366Y-65233902D01*
X83458937Y-65592539D01*
X83452340Y-65657480D01*
X83452281Y-65663143D01*
X83449862Y-65894118D01*
X83448958Y-65980507D01*
X83447823Y-66088865D01*
X82899410Y-66088865D01*
X82900500Y-66080233D01*
X82900500Y-65765597D01*
X82861066Y-65453442D01*
X82833756Y-65347077D01*
X82784768Y-65156279D01*
X82784766Y-65156272D01*
X82782819Y-65148690D01*
X82666994Y-64856149D01*
X82663229Y-64849301D01*
X82663226Y-64849294D01*
X82519186Y-64587288D01*
X82519184Y-64587284D01*
X82515416Y-64580431D01*
X82381384Y-64395951D01*
X82335081Y-64332220D01*
X82335078Y-64332216D01*
X82330478Y-64325885D01*
X82115094Y-64096525D01*
X81872663Y-63895968D01*
X81607007Y-63727378D01*
X81566152Y-63708153D01*
X81329399Y-63596745D01*
X81329393Y-63596742D01*
X81322315Y-63593412D01*
X81314872Y-63590994D01*
X81314868Y-63590992D01*
X81030519Y-63498601D01*
X81030513Y-63498599D01*
X81023079Y-63496184D01*
X80714015Y-63437227D01*
X80633417Y-63432156D01*
X80482469Y-63422659D01*
X80482454Y-63422659D01*
X80478583Y-63422415D01*
X80321417Y-63422415D01*
X80317546Y-63422659D01*
X80317531Y-63422659D01*
X80166583Y-63432156D01*
X80085985Y-63437227D01*
X79776921Y-63496184D01*
X79769487Y-63498599D01*
X79769481Y-63498601D01*
X79485132Y-63590992D01*
X79485128Y-63590994D01*
X79477685Y-63593412D01*
X79470607Y-63596742D01*
X79470601Y-63596745D01*
X79233848Y-63708153D01*
X79192993Y-63727378D01*
X78927337Y-63895968D01*
X78684906Y-64096525D01*
X78469522Y-64325885D01*
X78464922Y-64332216D01*
X78464919Y-64332220D01*
X78418616Y-64395951D01*
X78284584Y-64580431D01*
X78280816Y-64587284D01*
X78280814Y-64587288D01*
X78136774Y-64849294D01*
X78136771Y-64849301D01*
X78133006Y-64856149D01*
X78017181Y-65148690D01*
X78015234Y-65156272D01*
X78015232Y-65156279D01*
X77966244Y-65347077D01*
X77938934Y-65453442D01*
X77899500Y-65765597D01*
X77899500Y-66080233D01*
X56000000Y-66080233D01*
X56000000Y-48070217D01*
X56001552Y-48042462D01*
X56003383Y-48026138D01*
X56003383Y-48026137D01*
X56004741Y-48014030D01*
X56003722Y-48001893D01*
X56003722Y-48001888D01*
X56003120Y-47994721D01*
X56002779Y-47957597D01*
X56003043Y-47953575D01*
X56016043Y-47755227D01*
X56020294Y-47722942D01*
X56064965Y-47498370D01*
X56073394Y-47466910D01*
X56146997Y-47250082D01*
X56159462Y-47219990D01*
X56260728Y-47014643D01*
X56277013Y-46986436D01*
X56404230Y-46796043D01*
X56424058Y-46770203D01*
X56575026Y-46598057D01*
X56598053Y-46575030D01*
X56770203Y-46424058D01*
X56796043Y-46404230D01*
X56986436Y-46277013D01*
X57014643Y-46260728D01*
X57219990Y-46159462D01*
X57250082Y-46146997D01*
X57466910Y-46073394D01*
X57498370Y-46064965D01*
X57722943Y-46020294D01*
X57755231Y-46016043D01*
X57863325Y-46008958D01*
X57942988Y-46003737D01*
X57962750Y-46003228D01*
X57973866Y-46003383D01*
X57985970Y-46004741D01*
X57998105Y-46003722D01*
X57998106Y-46003722D01*
X58032034Y-46000873D01*
X58052869Y-46000000D01*
X211929783Y-46000000D01*
X211957538Y-46001552D01*
G37*
%TD.AperFunction*%
%TD*%
%TA.AperFunction,Conductor*%
%TO.N,GND*%
G36*
X190015677Y-74519685D02*
G01*
X190036319Y-74536319D01*
X191463681Y-75963681D01*
X191497166Y-76025004D01*
X191500000Y-76051362D01*
X191500000Y-77009031D01*
X191480315Y-77076070D01*
X191427511Y-77121825D01*
X191358353Y-77131769D01*
X191309832Y-77113902D01*
X191158982Y-77018724D01*
X191148904Y-77013589D01*
X190971686Y-76942886D01*
X190960829Y-76939670D01*
X190773708Y-76902450D01*
X190762433Y-76901264D01*
X190571664Y-76898766D01*
X190560373Y-76899655D01*
X190372331Y-76931967D01*
X190361399Y-76934896D01*
X190182388Y-77000936D01*
X190172175Y-77005808D01*
X190008205Y-77103360D01*
X189999445Y-77109725D01*
X189991268Y-77122616D01*
X189997008Y-77132225D01*
X190777102Y-77912319D01*
X190810587Y-77973642D01*
X190805603Y-78043334D01*
X190777102Y-78087681D01*
X189999310Y-78865473D01*
X189993214Y-78876638D01*
X190002939Y-78888929D01*
X190120798Y-78967680D01*
X190130756Y-78973087D01*
X190306051Y-79048399D01*
X190316823Y-79051899D01*
X190502910Y-79094007D01*
X190514140Y-79095485D01*
X190704787Y-79102976D01*
X190716090Y-79102384D01*
X190904915Y-79075006D01*
X190915928Y-79072361D01*
X191096588Y-79011036D01*
X191106944Y-79006425D01*
X191273404Y-78913202D01*
X191282735Y-78906790D01*
X191296709Y-78895167D01*
X191360838Y-78867433D01*
X191429782Y-78878773D01*
X191481650Y-78925586D01*
X191500000Y-78990503D01*
X191500000Y-120448638D01*
X191480315Y-120515677D01*
X191463681Y-120536319D01*
X188036319Y-123963681D01*
X187974996Y-123997166D01*
X187948638Y-124000000D01*
X171000000Y-124000000D01*
X170000000Y-125000000D01*
X170000000Y-126016783D01*
X169980315Y-126083822D01*
X169927511Y-126129577D01*
X169858353Y-126139521D01*
X169791829Y-126107840D01*
X169769923Y-126087590D01*
X169760943Y-126080700D01*
X169591813Y-125973987D01*
X169581722Y-125968846D01*
X169395983Y-125894743D01*
X169385111Y-125891522D01*
X169230166Y-125860703D01*
X169217494Y-125861836D01*
X169212678Y-125876749D01*
X169212678Y-128122529D01*
X169216581Y-128135823D01*
X169230358Y-128137795D01*
X169326664Y-128123832D01*
X169337677Y-128121187D01*
X169527039Y-128056908D01*
X169537391Y-128052299D01*
X169711873Y-127954585D01*
X169721207Y-127948170D01*
X169796709Y-127885375D01*
X169860839Y-127857641D01*
X169929782Y-127868982D01*
X169981650Y-127915795D01*
X170000000Y-127980711D01*
X170000000Y-128948638D01*
X169980315Y-129015677D01*
X169963681Y-129036319D01*
X169036319Y-129963681D01*
X168974996Y-129997166D01*
X168948638Y-130000000D01*
X157051362Y-130000000D01*
X156984323Y-129980315D01*
X156963681Y-129963681D01*
X156036319Y-129036319D01*
X156002834Y-128974996D01*
X156000000Y-128948638D01*
X156000000Y-127165352D01*
X157760966Y-127165352D01*
X157761599Y-127175005D01*
X157763368Y-127186173D01*
X157812599Y-127380022D01*
X157816372Y-127390677D01*
X157900104Y-127572305D01*
X157905760Y-127582101D01*
X158021186Y-127745426D01*
X158028537Y-127754032D01*
X158171785Y-127893579D01*
X158180586Y-127900706D01*
X158346864Y-128011809D01*
X158356822Y-128017216D01*
X158540563Y-128096157D01*
X158551327Y-128099655D01*
X158741554Y-128142698D01*
X158750021Y-128140565D01*
X158750381Y-128140180D01*
X158752678Y-128130526D01*
X158752678Y-128122529D01*
X159052678Y-128122529D01*
X159056581Y-128135823D01*
X159070358Y-128137795D01*
X159166664Y-128123832D01*
X159177677Y-128121187D01*
X159367039Y-128056908D01*
X159377391Y-128052299D01*
X159551873Y-127954585D01*
X159561213Y-127948165D01*
X159714962Y-127820294D01*
X159722972Y-127812284D01*
X159850843Y-127658535D01*
X159857263Y-127649195D01*
X159954977Y-127474713D01*
X159959586Y-127464361D01*
X160023865Y-127274999D01*
X160026510Y-127263986D01*
X160040479Y-127167644D01*
X160040152Y-127165352D01*
X160300966Y-127165352D01*
X160301599Y-127175005D01*
X160303368Y-127186173D01*
X160352599Y-127380022D01*
X160356372Y-127390677D01*
X160440104Y-127572305D01*
X160445760Y-127582101D01*
X160561186Y-127745426D01*
X160568537Y-127754032D01*
X160711785Y-127893579D01*
X160720586Y-127900706D01*
X160886864Y-128011809D01*
X160896822Y-128017216D01*
X161080563Y-128096157D01*
X161091327Y-128099655D01*
X161281554Y-128142698D01*
X161290021Y-128140565D01*
X161290381Y-128140180D01*
X161292678Y-128130526D01*
X161292678Y-128122529D01*
X161592678Y-128122529D01*
X161596581Y-128135823D01*
X161610358Y-128137795D01*
X161706664Y-128123832D01*
X161717677Y-128121187D01*
X161907039Y-128056908D01*
X161917391Y-128052299D01*
X162091873Y-127954585D01*
X162101213Y-127948165D01*
X162254962Y-127820294D01*
X162262972Y-127812284D01*
X162390843Y-127658535D01*
X162397263Y-127649195D01*
X162494977Y-127474713D01*
X162499586Y-127464361D01*
X162563865Y-127274999D01*
X162566510Y-127263986D01*
X162580479Y-127167644D01*
X162580152Y-127165352D01*
X162840966Y-127165352D01*
X162841599Y-127175005D01*
X162843368Y-127186173D01*
X162892599Y-127380022D01*
X162896372Y-127390677D01*
X162980104Y-127572305D01*
X162985760Y-127582101D01*
X163101186Y-127745426D01*
X163108537Y-127754032D01*
X163251785Y-127893579D01*
X163260586Y-127900706D01*
X163426864Y-128011809D01*
X163436822Y-128017216D01*
X163620563Y-128096157D01*
X163631327Y-128099655D01*
X163821554Y-128142698D01*
X163830021Y-128140565D01*
X163830381Y-128140180D01*
X163832678Y-128130526D01*
X163832678Y-128122529D01*
X164132678Y-128122529D01*
X164136581Y-128135823D01*
X164150358Y-128137795D01*
X164246664Y-128123832D01*
X164257677Y-128121187D01*
X164447039Y-128056908D01*
X164457391Y-128052299D01*
X164631873Y-127954585D01*
X164641213Y-127948165D01*
X164794962Y-127820294D01*
X164802972Y-127812284D01*
X164930843Y-127658535D01*
X164937263Y-127649195D01*
X165034977Y-127474713D01*
X165039586Y-127464361D01*
X165103865Y-127274999D01*
X165106510Y-127263986D01*
X165120479Y-127167644D01*
X165120152Y-127165352D01*
X165380966Y-127165352D01*
X165381599Y-127175005D01*
X165383368Y-127186173D01*
X165432599Y-127380022D01*
X165436372Y-127390677D01*
X165520104Y-127572305D01*
X165525760Y-127582101D01*
X165641186Y-127745426D01*
X165648537Y-127754032D01*
X165791785Y-127893579D01*
X165800586Y-127900706D01*
X165966864Y-128011809D01*
X165976822Y-128017216D01*
X166160563Y-128096157D01*
X166171327Y-128099655D01*
X166361554Y-128142698D01*
X166370021Y-128140565D01*
X166370381Y-128140180D01*
X166372678Y-128130526D01*
X166372678Y-128122529D01*
X166672678Y-128122529D01*
X166676581Y-128135823D01*
X166690358Y-128137795D01*
X166786664Y-128123832D01*
X166797677Y-128121187D01*
X166987039Y-128056908D01*
X166997391Y-128052299D01*
X167171873Y-127954585D01*
X167181213Y-127948165D01*
X167334962Y-127820294D01*
X167342972Y-127812284D01*
X167470843Y-127658535D01*
X167477263Y-127649195D01*
X167574977Y-127474713D01*
X167579586Y-127464361D01*
X167643865Y-127274999D01*
X167646510Y-127263986D01*
X167660479Y-127167644D01*
X167660152Y-127165352D01*
X167920966Y-127165352D01*
X167921599Y-127175005D01*
X167923368Y-127186173D01*
X167972599Y-127380022D01*
X167976372Y-127390677D01*
X168060104Y-127572305D01*
X168065760Y-127582101D01*
X168181186Y-127745426D01*
X168188537Y-127754032D01*
X168331785Y-127893579D01*
X168340586Y-127900706D01*
X168506864Y-128011809D01*
X168516822Y-128017216D01*
X168700563Y-128096157D01*
X168711327Y-128099655D01*
X168901554Y-128142698D01*
X168910021Y-128140565D01*
X168910381Y-128140180D01*
X168912678Y-128130526D01*
X168912678Y-127167830D01*
X168908274Y-127152831D01*
X168906904Y-127151644D01*
X168899346Y-127150000D01*
X167937790Y-127150000D01*
X167922986Y-127154347D01*
X167920966Y-127165352D01*
X167660152Y-127165352D01*
X167658524Y-127153930D01*
X167645170Y-127150000D01*
X166690508Y-127150000D01*
X166675509Y-127154404D01*
X166674322Y-127155774D01*
X166672678Y-127163332D01*
X166672678Y-128122529D01*
X166372678Y-128122529D01*
X166372678Y-127167830D01*
X166368274Y-127152831D01*
X166366904Y-127151644D01*
X166359346Y-127150000D01*
X165397790Y-127150000D01*
X165382986Y-127154347D01*
X165380966Y-127165352D01*
X165120152Y-127165352D01*
X165118524Y-127153930D01*
X165105170Y-127150000D01*
X164150508Y-127150000D01*
X164135509Y-127154404D01*
X164134322Y-127155774D01*
X164132678Y-127163332D01*
X164132678Y-128122529D01*
X163832678Y-128122529D01*
X163832678Y-127167830D01*
X163828274Y-127152831D01*
X163826904Y-127151644D01*
X163819346Y-127150000D01*
X162857790Y-127150000D01*
X162842986Y-127154347D01*
X162840966Y-127165352D01*
X162580152Y-127165352D01*
X162578524Y-127153930D01*
X162565170Y-127150000D01*
X161610508Y-127150000D01*
X161595509Y-127154404D01*
X161594322Y-127155774D01*
X161592678Y-127163332D01*
X161592678Y-128122529D01*
X161292678Y-128122529D01*
X161292678Y-127167830D01*
X161288274Y-127152831D01*
X161286904Y-127151644D01*
X161279346Y-127150000D01*
X160317790Y-127150000D01*
X160302986Y-127154347D01*
X160300966Y-127165352D01*
X160040152Y-127165352D01*
X160038524Y-127153930D01*
X160025170Y-127150000D01*
X159070508Y-127150000D01*
X159055509Y-127154404D01*
X159054322Y-127155774D01*
X159052678Y-127163332D01*
X159052678Y-128122529D01*
X158752678Y-128122529D01*
X158752678Y-127167830D01*
X158748274Y-127152831D01*
X158746904Y-127151644D01*
X158739346Y-127150000D01*
X157777790Y-127150000D01*
X157762986Y-127154347D01*
X157760966Y-127165352D01*
X156000000Y-127165352D01*
X156000000Y-126832293D01*
X157764418Y-126832293D01*
X157766822Y-126846488D01*
X157779360Y-126850000D01*
X158734848Y-126850000D01*
X158749847Y-126845596D01*
X158751034Y-126844226D01*
X158752678Y-126836668D01*
X158752678Y-126832170D01*
X159052678Y-126832170D01*
X159057082Y-126847169D01*
X159058452Y-126848356D01*
X159066010Y-126850000D01*
X160025992Y-126850000D01*
X160040309Y-126845796D01*
X160042339Y-126833856D01*
X160042195Y-126832293D01*
X160304418Y-126832293D01*
X160306822Y-126846488D01*
X160319360Y-126850000D01*
X161274848Y-126850000D01*
X161289847Y-126845596D01*
X161291034Y-126844226D01*
X161292678Y-126836668D01*
X161292678Y-126832170D01*
X161592678Y-126832170D01*
X161597082Y-126847169D01*
X161598452Y-126848356D01*
X161606010Y-126850000D01*
X162565992Y-126850000D01*
X162580309Y-126845796D01*
X162582339Y-126833856D01*
X162582195Y-126832293D01*
X162844418Y-126832293D01*
X162846822Y-126846488D01*
X162859360Y-126850000D01*
X163814848Y-126850000D01*
X163829847Y-126845596D01*
X163831034Y-126844226D01*
X163832678Y-126836668D01*
X163832678Y-126832170D01*
X164132678Y-126832170D01*
X164137082Y-126847169D01*
X164138452Y-126848356D01*
X164146010Y-126850000D01*
X165105992Y-126850000D01*
X165120309Y-126845796D01*
X165122339Y-126833856D01*
X165122195Y-126832293D01*
X165384418Y-126832293D01*
X165386822Y-126846488D01*
X165399360Y-126850000D01*
X166354848Y-126850000D01*
X166369847Y-126845596D01*
X166371034Y-126844226D01*
X166372678Y-126836668D01*
X166372678Y-126832170D01*
X166672678Y-126832170D01*
X166677082Y-126847169D01*
X166678452Y-126848356D01*
X166686010Y-126850000D01*
X167645992Y-126850000D01*
X167660309Y-126845796D01*
X167662339Y-126833856D01*
X167662195Y-126832293D01*
X167924418Y-126832293D01*
X167926822Y-126846488D01*
X167939360Y-126850000D01*
X168894848Y-126850000D01*
X168909847Y-126845596D01*
X168911034Y-126844226D01*
X168912678Y-126836668D01*
X168912678Y-125876667D01*
X168908932Y-125863909D01*
X168894252Y-125862003D01*
X168769362Y-125883464D01*
X168758431Y-125886393D01*
X168570796Y-125955615D01*
X168560589Y-125960483D01*
X168388713Y-126062738D01*
X168379555Y-126069392D01*
X168229196Y-126201254D01*
X168221406Y-126209463D01*
X168097594Y-126366518D01*
X168091429Y-126376011D01*
X167998311Y-126553000D01*
X167993978Y-126563461D01*
X167934676Y-126754444D01*
X167932320Y-126765526D01*
X167924418Y-126832293D01*
X167662195Y-126832293D01*
X167658786Y-126795191D01*
X167656722Y-126784058D01*
X167602438Y-126591583D01*
X167598381Y-126581013D01*
X167509930Y-126401652D01*
X167504011Y-126391994D01*
X167384360Y-126231762D01*
X167376779Y-126223342D01*
X167229928Y-126087595D01*
X167220943Y-126080700D01*
X167051813Y-125973987D01*
X167041722Y-125968846D01*
X166855983Y-125894743D01*
X166845111Y-125891522D01*
X166690166Y-125860703D01*
X166677494Y-125861836D01*
X166672678Y-125876749D01*
X166672678Y-126832170D01*
X166372678Y-126832170D01*
X166372678Y-125876667D01*
X166368932Y-125863909D01*
X166354252Y-125862003D01*
X166229362Y-125883464D01*
X166218431Y-125886393D01*
X166030796Y-125955615D01*
X166020589Y-125960483D01*
X165848713Y-126062738D01*
X165839555Y-126069392D01*
X165689196Y-126201254D01*
X165681406Y-126209463D01*
X165557594Y-126366518D01*
X165551429Y-126376011D01*
X165458311Y-126553000D01*
X165453978Y-126563461D01*
X165394676Y-126754444D01*
X165392320Y-126765526D01*
X165384418Y-126832293D01*
X165122195Y-126832293D01*
X165118786Y-126795191D01*
X165116722Y-126784058D01*
X165062438Y-126591583D01*
X165058381Y-126581013D01*
X164969930Y-126401652D01*
X164964011Y-126391994D01*
X164844360Y-126231762D01*
X164836779Y-126223342D01*
X164689928Y-126087595D01*
X164680943Y-126080700D01*
X164511813Y-125973987D01*
X164501722Y-125968846D01*
X164315983Y-125894743D01*
X164305111Y-125891522D01*
X164150166Y-125860703D01*
X164137494Y-125861836D01*
X164132678Y-125876749D01*
X164132678Y-126832170D01*
X163832678Y-126832170D01*
X163832678Y-125876667D01*
X163828932Y-125863909D01*
X163814252Y-125862003D01*
X163689362Y-125883464D01*
X163678431Y-125886393D01*
X163490796Y-125955615D01*
X163480589Y-125960483D01*
X163308713Y-126062738D01*
X163299555Y-126069392D01*
X163149196Y-126201254D01*
X163141406Y-126209463D01*
X163017594Y-126366518D01*
X163011429Y-126376011D01*
X162918311Y-126553000D01*
X162913978Y-126563461D01*
X162854676Y-126754444D01*
X162852320Y-126765526D01*
X162844418Y-126832293D01*
X162582195Y-126832293D01*
X162578786Y-126795191D01*
X162576722Y-126784058D01*
X162522438Y-126591583D01*
X162518381Y-126581013D01*
X162429930Y-126401652D01*
X162424011Y-126391994D01*
X162304360Y-126231762D01*
X162296779Y-126223342D01*
X162149928Y-126087595D01*
X162140943Y-126080700D01*
X161971813Y-125973987D01*
X161961722Y-125968846D01*
X161775983Y-125894743D01*
X161765111Y-125891522D01*
X161610166Y-125860703D01*
X161597494Y-125861836D01*
X161592678Y-125876749D01*
X161592678Y-126832170D01*
X161292678Y-126832170D01*
X161292678Y-125876667D01*
X161288932Y-125863909D01*
X161274252Y-125862003D01*
X161149362Y-125883464D01*
X161138431Y-125886393D01*
X160950796Y-125955615D01*
X160940589Y-125960483D01*
X160768713Y-126062738D01*
X160759555Y-126069392D01*
X160609196Y-126201254D01*
X160601406Y-126209463D01*
X160477594Y-126366518D01*
X160471429Y-126376011D01*
X160378311Y-126553000D01*
X160373978Y-126563461D01*
X160314676Y-126754444D01*
X160312320Y-126765526D01*
X160304418Y-126832293D01*
X160042195Y-126832293D01*
X160038786Y-126795191D01*
X160036722Y-126784058D01*
X159982438Y-126591583D01*
X159978381Y-126581013D01*
X159889930Y-126401652D01*
X159884011Y-126391994D01*
X159764360Y-126231762D01*
X159756779Y-126223342D01*
X159609928Y-126087595D01*
X159600943Y-126080700D01*
X159431813Y-125973987D01*
X159421722Y-125968846D01*
X159235983Y-125894743D01*
X159225111Y-125891522D01*
X159070166Y-125860703D01*
X159057494Y-125861836D01*
X159052678Y-125876749D01*
X159052678Y-126832170D01*
X158752678Y-126832170D01*
X158752678Y-125876667D01*
X158748932Y-125863909D01*
X158734252Y-125862003D01*
X158609362Y-125883464D01*
X158598431Y-125886393D01*
X158410796Y-125955615D01*
X158400589Y-125960483D01*
X158228713Y-126062738D01*
X158219555Y-126069392D01*
X158069196Y-126201254D01*
X158061406Y-126209463D01*
X157937594Y-126366518D01*
X157931429Y-126376011D01*
X157838311Y-126553000D01*
X157833978Y-126563461D01*
X157774676Y-126754444D01*
X157772320Y-126765526D01*
X157764418Y-126832293D01*
X156000000Y-126832293D01*
X156000000Y-120551362D01*
X156019685Y-120484323D01*
X156036319Y-120463681D01*
X161463681Y-115036319D01*
X161525004Y-115002834D01*
X161551362Y-115000000D01*
X171500000Y-115000000D01*
X175000000Y-111500000D01*
X175000000Y-78051362D01*
X175019685Y-77984323D01*
X175025789Y-77976748D01*
X189548688Y-77976748D01*
X189561168Y-78167149D01*
X189562937Y-78178319D01*
X189609906Y-78363260D01*
X189613679Y-78373916D01*
X189693563Y-78547198D01*
X189699219Y-78556994D01*
X189765247Y-78650422D01*
X189775669Y-78658678D01*
X189788757Y-78651762D01*
X190427912Y-78012607D01*
X190435404Y-77998887D01*
X190435275Y-77997081D01*
X190431093Y-77990574D01*
X189788443Y-77347924D01*
X189775808Y-77341025D01*
X189765289Y-77348697D01*
X189729679Y-77393867D01*
X189723513Y-77403362D01*
X189634676Y-77572214D01*
X189630345Y-77582669D01*
X189573763Y-77764894D01*
X189571411Y-77775961D01*
X189548985Y-77965438D01*
X189548688Y-77976748D01*
X175025789Y-77976748D01*
X175036319Y-77963681D01*
X178463681Y-74536319D01*
X178525004Y-74502834D01*
X178551362Y-74500000D01*
X189948638Y-74500000D01*
X190015677Y-74519685D01*
G37*
%TD.AperFunction*%
%TD*%
M02*
