%TF.GenerationSoftware,KiCad,Pcbnew,6.0.2-378541a8eb~116~ubuntu20.04.1*%
%TF.CreationDate,2022-03-08T15:37:06-05:00*%
%TF.ProjectId,Linear_Lab_Bench_PSU_front_panel,4c696e65-6172-45f4-9c61-625f42656e63,rev?*%
%TF.SameCoordinates,Original*%
%TF.FileFunction,Profile,NP*%
%FSLAX46Y46*%
G04 Gerber Fmt 4.6, Leading zero omitted, Abs format (unit mm)*
G04 Created by KiCad (PCBNEW 6.0.2-378541a8eb~116~ubuntu20.04.1) date 2022-03-08 15:37:06*
%MOMM*%
%LPD*%
G01*
G04 APERTURE LIST*
%TA.AperFunction,Profile*%
%ADD10C,0.100000*%
%TD*%
G04 APERTURE END LIST*
D10*
X212000000Y-45000000D02*
X58000000Y-45000000D01*
X212000000Y-140000000D02*
X58000000Y-140000000D01*
X55000000Y-137000000D02*
G75*
G03*
X58000000Y-140000000I3000001J1D01*
G01*
X102250000Y-52500000D02*
G75*
G03*
X102000000Y-52750000I-1J-249999D01*
G01*
X148000000Y-119750000D02*
X148000000Y-93250000D01*
X102250000Y-79500000D02*
X147750000Y-79500000D01*
X148000000Y-93250000D02*
G75*
G03*
X147750000Y-93000000I-249999J1D01*
G01*
X58000000Y-45000000D02*
G75*
G03*
X55000000Y-48000000I1J-3000001D01*
G01*
X147750000Y-93000000D02*
X102250000Y-93000000D01*
X102250000Y-120000000D02*
X147750000Y-120000000D01*
X148000000Y-52750000D02*
G75*
G03*
X147750000Y-52500000I-249999J1D01*
G01*
X102000000Y-79250000D02*
G75*
G03*
X102250000Y-79500000I249999J-1D01*
G01*
X147750000Y-52500000D02*
X102250000Y-52500000D01*
X148000000Y-79250000D02*
X148000000Y-52750000D01*
X215000000Y-48000000D02*
G75*
G03*
X212000000Y-45000000I-3000001J-1D01*
G01*
X102250000Y-93000000D02*
G75*
G03*
X102000000Y-93250000I-1J-249999D01*
G01*
X102000000Y-93250000D02*
X102000000Y-119750000D01*
X215000000Y-137000000D02*
X215000000Y-48000000D01*
X147750000Y-79500000D02*
G75*
G03*
X148000000Y-79250000I1J249999D01*
G01*
X55000000Y-48000000D02*
X55000000Y-137000000D01*
X102000000Y-52750000D02*
X102000000Y-79250000D01*
X212000000Y-140000000D02*
G75*
G03*
X215000000Y-137000000I-1J3000001D01*
G01*
X102000000Y-119750000D02*
G75*
G03*
X102250000Y-120000000I249999J-1D01*
G01*
X147750000Y-120000000D02*
G75*
G03*
X148000000Y-119750000I1J249999D01*
G01*
%TO.C,REF\u002A\u002A*%
X60300000Y-82650000D02*
X73000000Y-82650000D01*
X60000000Y-102050000D02*
X60000000Y-82950000D01*
X73300000Y-82950000D02*
X73300000Y-102050000D01*
X60300000Y-102350000D02*
X73000000Y-102350000D01*
X73000000Y-102350000D02*
G75*
G03*
X73300000Y-102050000I0J300000D01*
G01*
X73300000Y-82950000D02*
G75*
G03*
X73000000Y-82650000I-300000J0D01*
G01*
X60300000Y-82650000D02*
G75*
G03*
X60000000Y-82950000I0J-300000D01*
G01*
X60000000Y-102050000D02*
G75*
G03*
X60300000Y-102350000I300000J0D01*
G01*
%TO.C,RV2*%
X91950000Y-65922915D02*
G75*
G03*
X91950000Y-65922915I-3750000J0D01*
G01*
%TO.C,RV1*%
X91950000Y-106422915D02*
G75*
G03*
X91950000Y-106422915I-3750000J0D01*
G01*
%TD*%
M02*
