%TF.GenerationSoftware,KiCad,Pcbnew,6.0.2-378541a8eb~116~ubuntu20.04.1*%
%TF.CreationDate,2022-03-08T15:37:06-05:00*%
%TF.ProjectId,Linear_Lab_Bench_PSU_front_panel,4c696e65-6172-45f4-9c61-625f42656e63,rev?*%
%TF.SameCoordinates,Original*%
%TF.FileFunction,Legend,Top*%
%TF.FilePolarity,Positive*%
%FSLAX46Y46*%
G04 Gerber Fmt 4.6, Leading zero omitted, Abs format (unit mm)*
G04 Created by KiCad (PCBNEW 6.0.2-378541a8eb~116~ubuntu20.04.1) date 2022-03-08 15:37:06*
%MOMM*%
%LPD*%
G01*
G04 APERTURE LIST*
%ADD10C,0.150000*%
%ADD11C,0.120000*%
%ADD12C,0.200000*%
G04 APERTURE END LIST*
D10*
X101000000Y-80500000D02*
X149000000Y-80500000D01*
X101000000Y-121000000D02*
X149000000Y-121000000D01*
X149000000Y-121000000D02*
X149000000Y-92000000D01*
X149000000Y-51500000D02*
X101000000Y-51500000D01*
X149000000Y-92000000D02*
X101000000Y-92000000D01*
X101000000Y-51500000D02*
X101000000Y-80500000D01*
X149000000Y-80500000D02*
X149000000Y-51500000D01*
X101000000Y-92000000D02*
X101000000Y-121000000D01*
D11*
%TO.C,D1*%
X174045000Y-51435000D02*
X170955000Y-51435000D01*
X172499538Y-56985000D02*
G75*
G03*
X174044830Y-51435000I462J2990000D01*
G01*
X170955170Y-51435000D02*
G75*
G03*
X172500462Y-56985000I1544830J-2560000D01*
G01*
X175000000Y-53995000D02*
G75*
G03*
X175000000Y-53995000I-2500000J0D01*
G01*
%TO.C,kibuzzard-62263B3C*%
G36*
X191065450Y-63620055D02*
G01*
X191346368Y-63661725D01*
X191621849Y-63730729D01*
X191889240Y-63826403D01*
X192145966Y-63947826D01*
X192389554Y-64093827D01*
X192617658Y-64263000D01*
X192828082Y-64453718D01*
X193018800Y-64664142D01*
X193187973Y-64892246D01*
X193333974Y-65135834D01*
X193455397Y-65392560D01*
X193551071Y-65659951D01*
X193620075Y-65935432D01*
X193661745Y-66216350D01*
X193675680Y-66500000D01*
X193661745Y-66783650D01*
X193620075Y-67064568D01*
X193551071Y-67340049D01*
X193455397Y-67607440D01*
X193333974Y-67864166D01*
X193187973Y-68107754D01*
X193018800Y-68335858D01*
X192828082Y-68546282D01*
X192617658Y-68737000D01*
X192389554Y-68906173D01*
X192145966Y-69052174D01*
X191889240Y-69173597D01*
X191621849Y-69269271D01*
X191346368Y-69338275D01*
X191065450Y-69379945D01*
X190781800Y-69393880D01*
X174984720Y-69393880D01*
X174984720Y-66468250D01*
X178953470Y-66468250D01*
X178995539Y-66945294D01*
X179121745Y-67385825D01*
X179313039Y-67770000D01*
X179550370Y-68077975D01*
X179827389Y-68327213D01*
X180137745Y-68535175D01*
X180460007Y-68695513D01*
X180772745Y-68801875D01*
X181079132Y-68861406D01*
X181382345Y-68881250D01*
X181689526Y-68855850D01*
X182007820Y-68779650D01*
X182436445Y-68614550D01*
X182655520Y-68481200D01*
X182855545Y-68322450D01*
X182884936Y-68246250D01*
X183265120Y-68246250D01*
X183388945Y-68703450D01*
X183577857Y-68793938D01*
X183896945Y-68824100D01*
X184208889Y-68778063D01*
X184376370Y-68639950D01*
X184443045Y-68465325D01*
X184452570Y-68239900D01*
X184452570Y-68214500D01*
X184344620Y-67770000D01*
X184139039Y-67669988D01*
X183814395Y-67636650D01*
X183502451Y-67684275D01*
X183334970Y-67827150D01*
X183274645Y-67998600D01*
X183265120Y-68220850D01*
X183265120Y-68246250D01*
X182884936Y-68246250D01*
X182941270Y-68100200D01*
X182801570Y-67744600D01*
X182580907Y-67477900D01*
X182376120Y-67389000D01*
X182071320Y-67516000D01*
X181957020Y-67598550D01*
X181706195Y-67700150D01*
X181334720Y-67750950D01*
X180923557Y-67681100D01*
X180528270Y-67471550D01*
X180204420Y-67071500D01*
X180109170Y-66800831D01*
X180077420Y-66496825D01*
X180080404Y-66468250D01*
X184770070Y-66468250D01*
X184812139Y-66945294D01*
X184938345Y-67385825D01*
X185129639Y-67770000D01*
X185366970Y-68077975D01*
X185643989Y-68327213D01*
X185954345Y-68535175D01*
X186276607Y-68695513D01*
X186589345Y-68801875D01*
X186895732Y-68861406D01*
X187198945Y-68881250D01*
X187506126Y-68855850D01*
X187824420Y-68779650D01*
X188253045Y-68614550D01*
X188472120Y-68481200D01*
X188672145Y-68322450D01*
X188701536Y-68246250D01*
X189081720Y-68246250D01*
X189205545Y-68703450D01*
X189394457Y-68793938D01*
X189713545Y-68824100D01*
X190025489Y-68778063D01*
X190192970Y-68639950D01*
X190259645Y-68465325D01*
X190269170Y-68239900D01*
X190269170Y-68214500D01*
X190161220Y-67770000D01*
X189955639Y-67669988D01*
X189630995Y-67636650D01*
X189319051Y-67684275D01*
X189151570Y-67827150D01*
X189091245Y-67998600D01*
X189081720Y-68220850D01*
X189081720Y-68246250D01*
X188701536Y-68246250D01*
X188757870Y-68100200D01*
X188618170Y-67744600D01*
X188397507Y-67477900D01*
X188192720Y-67389000D01*
X187887920Y-67516000D01*
X187773620Y-67598550D01*
X187522795Y-67700150D01*
X187151320Y-67750950D01*
X186740157Y-67681100D01*
X186344870Y-67471550D01*
X186021020Y-67071500D01*
X185925770Y-66800831D01*
X185894020Y-66496825D01*
X185925770Y-66192819D01*
X186021020Y-65922150D01*
X186338520Y-65528450D01*
X186741745Y-65314137D01*
X187151320Y-65242700D01*
X187551370Y-65296675D01*
X187862520Y-65458600D01*
X188186370Y-65598300D01*
X188395920Y-65512575D01*
X188630870Y-65255400D01*
X188764220Y-64902975D01*
X188599120Y-64601350D01*
X188421320Y-64487050D01*
X188268920Y-64398150D01*
X187802195Y-64210825D01*
X187496601Y-64141769D01*
X187195770Y-64118750D01*
X186777375Y-64156850D01*
X186360392Y-64271150D01*
X185944820Y-64461650D01*
X185632876Y-64660881D01*
X185357445Y-64902975D01*
X185123289Y-65201425D01*
X184935170Y-65569725D01*
X184811345Y-65995969D01*
X184770070Y-66468250D01*
X180080404Y-66468250D01*
X180109170Y-66192819D01*
X180204420Y-65922150D01*
X180521920Y-65528450D01*
X180925145Y-65314137D01*
X181334720Y-65242700D01*
X181734770Y-65296675D01*
X182045920Y-65458600D01*
X182369770Y-65598300D01*
X182579320Y-65512575D01*
X182814270Y-65255400D01*
X182947620Y-64902975D01*
X182782520Y-64601350D01*
X182604720Y-64487050D01*
X182452320Y-64398150D01*
X181985595Y-64210825D01*
X181680001Y-64141769D01*
X181379170Y-64118750D01*
X180960775Y-64156850D01*
X180543792Y-64271150D01*
X180128220Y-64461650D01*
X179816276Y-64660881D01*
X179540845Y-64902975D01*
X179306689Y-65201425D01*
X179118570Y-65569725D01*
X178994745Y-65995969D01*
X178953470Y-66468250D01*
X174984720Y-66468250D01*
X174984720Y-63606120D01*
X190781800Y-63606120D01*
X191065450Y-63620055D01*
G37*
%TO.C,kibuzzard-62263B33*%
G36*
X191065450Y-51120055D02*
G01*
X191346368Y-51161725D01*
X191621849Y-51230729D01*
X191889240Y-51326403D01*
X192145966Y-51447826D01*
X192389554Y-51593827D01*
X192617658Y-51763000D01*
X192828082Y-51953718D01*
X193018800Y-52164142D01*
X193187973Y-52392246D01*
X193333974Y-52635834D01*
X193455397Y-52892560D01*
X193551071Y-53159951D01*
X193620075Y-53435432D01*
X193661745Y-53716350D01*
X193675680Y-54000000D01*
X193661745Y-54283650D01*
X193620075Y-54564568D01*
X193551071Y-54840049D01*
X193455397Y-55107440D01*
X193333974Y-55364166D01*
X193187973Y-55607754D01*
X193018800Y-55835858D01*
X192828082Y-56046282D01*
X192617658Y-56237000D01*
X192389554Y-56406173D01*
X192145966Y-56552174D01*
X191889240Y-56673597D01*
X191621849Y-56769271D01*
X191346368Y-56838275D01*
X191065450Y-56879945D01*
X190781800Y-56893880D01*
X174324320Y-56893880D01*
X174324320Y-53968250D01*
X178293070Y-53968250D01*
X178335139Y-54445294D01*
X178461345Y-54885825D01*
X178652639Y-55270000D01*
X178889970Y-55577975D01*
X179166989Y-55827213D01*
X179477345Y-56035175D01*
X179799607Y-56195513D01*
X180112345Y-56301875D01*
X180418732Y-56361406D01*
X180721945Y-56381250D01*
X181029126Y-56355850D01*
X181347420Y-56279650D01*
X181776045Y-56114550D01*
X181995120Y-55981200D01*
X182195145Y-55822450D01*
X182224536Y-55746250D01*
X182604720Y-55746250D01*
X182728545Y-56203450D01*
X182917457Y-56293938D01*
X183236545Y-56324100D01*
X183548489Y-56278063D01*
X183715970Y-56139950D01*
X183782645Y-55965325D01*
X183792170Y-55739900D01*
X183792170Y-55714500D01*
X183684220Y-55270000D01*
X183478639Y-55169988D01*
X183153995Y-55136650D01*
X182842051Y-55184275D01*
X182674570Y-55327150D01*
X182614245Y-55498600D01*
X182604720Y-55720850D01*
X182604720Y-55746250D01*
X182224536Y-55746250D01*
X182280870Y-55600200D01*
X182141170Y-55244600D01*
X181920507Y-54977900D01*
X181715720Y-54889000D01*
X181410920Y-55016000D01*
X181296620Y-55098550D01*
X181045795Y-55200150D01*
X180674320Y-55250950D01*
X180263157Y-55181100D01*
X179867870Y-54971550D01*
X179544020Y-54571500D01*
X179448770Y-54300831D01*
X179417020Y-53996825D01*
X179448770Y-53692819D01*
X179544020Y-53422150D01*
X179861520Y-53028450D01*
X180264745Y-52814137D01*
X180674320Y-52742700D01*
X181074370Y-52796675D01*
X181385520Y-52958600D01*
X181709370Y-53098300D01*
X181918920Y-53012575D01*
X182153870Y-52755400D01*
X182287220Y-52402975D01*
X182142975Y-52139450D01*
X184046170Y-52139450D01*
X184141420Y-52444250D01*
X185894020Y-56000250D01*
X186106745Y-56225675D01*
X186408370Y-56311400D01*
X186471870Y-56311400D01*
X186767145Y-56225675D01*
X186979870Y-56000250D01*
X187105056Y-55746250D01*
X189081720Y-55746250D01*
X189205545Y-56203450D01*
X189394457Y-56293938D01*
X189713545Y-56324100D01*
X190025489Y-56278063D01*
X190192970Y-56139950D01*
X190259645Y-55965325D01*
X190269170Y-55739900D01*
X190269170Y-55714500D01*
X190161220Y-55270000D01*
X189955639Y-55169988D01*
X189630995Y-55136650D01*
X189319051Y-55184275D01*
X189151570Y-55327150D01*
X189091245Y-55498600D01*
X189081720Y-55720850D01*
X189081720Y-55746250D01*
X187105056Y-55746250D01*
X188732470Y-52444250D01*
X188827720Y-52139450D01*
X188734057Y-51926725D01*
X188453070Y-51733050D01*
X188078420Y-51625100D01*
X187799020Y-51796550D01*
X187710120Y-51987050D01*
X186440120Y-54768350D01*
X186371064Y-54621506D01*
X186214695Y-54282575D01*
X186008320Y-53834106D01*
X185789245Y-53358650D01*
X185570964Y-52883194D01*
X185366970Y-52434725D01*
X185207426Y-52085475D01*
X185122495Y-51907675D01*
X185017720Y-51739400D01*
X184909770Y-51650500D01*
X184741495Y-51625100D01*
X184420820Y-51733050D01*
X184139832Y-51926725D01*
X184046170Y-52139450D01*
X182142975Y-52139450D01*
X182122120Y-52101350D01*
X181944320Y-51987050D01*
X181791920Y-51898150D01*
X181325195Y-51710825D01*
X181019601Y-51641769D01*
X180718770Y-51618750D01*
X180300375Y-51656850D01*
X179883392Y-51771150D01*
X179467820Y-51961650D01*
X179155876Y-52160881D01*
X178880445Y-52402975D01*
X178646289Y-52701425D01*
X178458170Y-53069725D01*
X178334345Y-53495969D01*
X178293070Y-53968250D01*
X174324320Y-53968250D01*
X174324320Y-51106120D01*
X190781800Y-51106120D01*
X191065450Y-51120055D01*
G37*
%TO.C,kibuzzard-62263C4A*%
G36*
X72148982Y-103703021D02*
G01*
X72373036Y-103736257D01*
X72592753Y-103791293D01*
X72806018Y-103867601D01*
X73010776Y-103964444D01*
X73205057Y-104080891D01*
X73386987Y-104215820D01*
X73554817Y-104367932D01*
X73706929Y-104535762D01*
X73841858Y-104717693D01*
X73958305Y-104911973D01*
X74055148Y-105116731D01*
X74131456Y-105329996D01*
X74186492Y-105549714D01*
X74219727Y-105773767D01*
X74230841Y-106000000D01*
X74219727Y-106226233D01*
X74186492Y-106450286D01*
X74131456Y-106670004D01*
X74055148Y-106883269D01*
X73958305Y-107088027D01*
X73841858Y-107282307D01*
X73706929Y-107464238D01*
X73554817Y-107632068D01*
X73386987Y-107784180D01*
X73205057Y-107919109D01*
X73010776Y-108035556D01*
X72806018Y-108132399D01*
X72592753Y-108208707D01*
X72373036Y-108263743D01*
X72148982Y-108296979D01*
X71922749Y-108308093D01*
X61377251Y-108308093D01*
X61151019Y-108296979D01*
X60926965Y-108263743D01*
X60707247Y-108208707D01*
X60493982Y-108132400D01*
X60289224Y-108035556D01*
X60094944Y-107919109D01*
X59913013Y-107784180D01*
X59745183Y-107632068D01*
X59593072Y-107464239D01*
X59458142Y-107282308D01*
X59341695Y-107088027D01*
X59244852Y-106883269D01*
X59168544Y-106670004D01*
X59113508Y-106450287D01*
X59080273Y-106226233D01*
X59070329Y-106023813D01*
X61889882Y-106023813D01*
X61921582Y-106373261D01*
X62016683Y-106697706D01*
X62175185Y-106997148D01*
X62397088Y-107271588D01*
X62664234Y-107500783D01*
X62958467Y-107664494D01*
X63279787Y-107762720D01*
X63628194Y-107795463D01*
X63975857Y-107762274D01*
X64294944Y-107662708D01*
X64585457Y-107496764D01*
X64791013Y-107314450D01*
X65652257Y-107314450D01*
X65680832Y-107557338D01*
X65807038Y-107693069D01*
X66071357Y-107738313D01*
X66316625Y-107706166D01*
X66442832Y-107609725D01*
X66488075Y-107485900D01*
X66495219Y-107319213D01*
X66495219Y-107314450D01*
X68685969Y-107314450D01*
X68714544Y-107557338D01*
X68840750Y-107693069D01*
X69105069Y-107738313D01*
X69350338Y-107706166D01*
X69476544Y-107609725D01*
X69521788Y-107485900D01*
X69528932Y-107319213D01*
X69528932Y-106419100D01*
X70462382Y-106419100D01*
X70705269Y-106395288D01*
X70841000Y-106265509D01*
X70886244Y-106000000D01*
X70855288Y-105753541D01*
X70762419Y-105623762D01*
X70636213Y-105578519D01*
X70467144Y-105571375D01*
X69528932Y-105571375D01*
X69528932Y-105090362D01*
X70986257Y-105090362D01*
X71155325Y-105083219D01*
X71281532Y-105040356D01*
X71381544Y-104914150D01*
X71410119Y-104671262D01*
X71381544Y-104428375D01*
X71283913Y-104299787D01*
X71160088Y-104254544D01*
X70995782Y-104247400D01*
X69119357Y-104247400D01*
X68776457Y-104335506D01*
X68685969Y-104666500D01*
X68685969Y-107314450D01*
X66495219Y-107314450D01*
X66495219Y-106419100D01*
X67428669Y-106419100D01*
X67671557Y-106395288D01*
X67807288Y-106265509D01*
X67852532Y-106000000D01*
X67821575Y-105753541D01*
X67728707Y-105623762D01*
X67602500Y-105578519D01*
X67433432Y-105571375D01*
X66495219Y-105571375D01*
X66495219Y-105090362D01*
X67952544Y-105090362D01*
X68121613Y-105083219D01*
X68247819Y-105040356D01*
X68347832Y-104914150D01*
X68376407Y-104671262D01*
X68347832Y-104428375D01*
X68250200Y-104299787D01*
X68126375Y-104254544D01*
X67962069Y-104247400D01*
X66085644Y-104247400D01*
X65742744Y-104335506D01*
X65652257Y-104666500D01*
X65652257Y-107314450D01*
X64791013Y-107314450D01*
X64847394Y-107264444D01*
X65064088Y-106984945D01*
X65218869Y-106677466D01*
X65311738Y-106342007D01*
X65342694Y-105978569D01*
X65310250Y-105616470D01*
X65212916Y-105285030D01*
X65050693Y-104984248D01*
X64823582Y-104714125D01*
X64552417Y-104491180D01*
X64258035Y-104331934D01*
X63940435Y-104236387D01*
X63599619Y-104204537D01*
X63275769Y-104237875D01*
X62961444Y-104337887D01*
X62669741Y-104496241D01*
X62413757Y-104704600D01*
X62199444Y-104965942D01*
X62032757Y-105283244D01*
X61925600Y-105641027D01*
X61889882Y-106023813D01*
X59070329Y-106023813D01*
X59069159Y-106000000D01*
X59080273Y-105773767D01*
X59113508Y-105549713D01*
X59168544Y-105329996D01*
X59244852Y-105116731D01*
X59341695Y-104911973D01*
X59458142Y-104717692D01*
X59593072Y-104535761D01*
X59745183Y-104367932D01*
X59913013Y-104215820D01*
X60094944Y-104080891D01*
X60289224Y-103964444D01*
X60493982Y-103867600D01*
X60707247Y-103791293D01*
X60926965Y-103736257D01*
X61151019Y-103703021D01*
X61377251Y-103691907D01*
X71922749Y-103691907D01*
X72148982Y-103703021D01*
G37*
G36*
X63935971Y-105112984D02*
G01*
X64225888Y-105309437D01*
X64378023Y-105503112D01*
X64469304Y-105734887D01*
X64499732Y-106004763D01*
X64469569Y-106274108D01*
X64379082Y-106504296D01*
X64228269Y-106695325D01*
X63940138Y-106888206D01*
X63618669Y-106952500D01*
X63296605Y-106886420D01*
X63006688Y-106688181D01*
X62854552Y-106494242D01*
X62763271Y-106264848D01*
X62732844Y-106000000D01*
X62763007Y-105735152D01*
X62853494Y-105505758D01*
X63004307Y-105311819D01*
X63292438Y-105113580D01*
X63613907Y-105047500D01*
X63935971Y-105112984D01*
G37*
%TO.C,kibuzzard-6225A7C7*%
G36*
X184131156Y-117820328D02*
G01*
X180868844Y-117820328D01*
X180868844Y-116379672D01*
X184131156Y-116379672D01*
X184131156Y-117820328D01*
G37*
%TO.C,kibuzzard-6225A7BC*%
G36*
X202131031Y-116498734D02*
G01*
X204000313Y-116498734D01*
X204000313Y-117701266D01*
X202131031Y-117701266D01*
X202131031Y-119772953D01*
X200868969Y-119772953D01*
X200868969Y-117701266D01*
X198999687Y-117701266D01*
X198999687Y-116498734D01*
X200868969Y-116498734D01*
X200868969Y-114427047D01*
X202131031Y-114427047D01*
X202131031Y-116498734D01*
G37*
%TO.C,kibuzzard-6225A77E*%
G36*
X166394744Y-94866525D02*
G01*
X164994569Y-94866525D01*
X164994569Y-95638844D01*
X166211388Y-95638844D01*
X166211388Y-96205581D01*
X164994569Y-96205581D01*
X164994569Y-97172369D01*
X166516981Y-97172369D01*
X166516981Y-97739106D01*
X164311150Y-97739106D01*
X164311150Y-94299787D01*
X166394744Y-94299787D01*
X166394744Y-94866525D01*
G37*
G36*
X163170884Y-94380662D02*
G01*
X163444375Y-94530372D01*
X163645017Y-94747992D01*
X163765403Y-95041547D01*
X163805531Y-95411037D01*
X163765094Y-95784232D01*
X163643783Y-96081492D01*
X163441597Y-96302816D01*
X163165328Y-96455613D01*
X162821766Y-96547291D01*
X162410912Y-96577850D01*
X162166437Y-96577850D01*
X162166437Y-97739106D01*
X161483019Y-97739106D01*
X161483019Y-95983331D01*
X162166437Y-95983331D01*
X162444250Y-95983331D01*
X162731786Y-95950688D01*
X162938756Y-95852759D01*
X163063772Y-95675654D01*
X163105444Y-95405481D01*
X163064466Y-95149199D01*
X162941534Y-94980428D01*
X162750538Y-94886666D01*
X162505369Y-94855412D01*
X162335903Y-94858191D01*
X162166437Y-94872081D01*
X162166437Y-95983331D01*
X161483019Y-95983331D01*
X161483019Y-94344237D01*
X161708047Y-94305344D01*
X161960856Y-94280341D01*
X162210887Y-94266450D01*
X162427581Y-94260894D01*
X162831953Y-94290836D01*
X163170884Y-94380662D01*
G37*
%TO.C,D2*%
X174045000Y-63935000D02*
X170955000Y-63935000D01*
X170955170Y-63935000D02*
G75*
G03*
X172500462Y-69485000I1544830J-2560000D01*
G01*
X172499538Y-69485000D02*
G75*
G03*
X174044830Y-63935000I462J2990000D01*
G01*
X175000000Y-66495000D02*
G75*
G03*
X175000000Y-66495000I-2500000J0D01*
G01*
%TO.C,kibuzzard-62263C42*%
G36*
X70794051Y-76703021D02*
G01*
X71018104Y-76736257D01*
X71237822Y-76791293D01*
X71451087Y-76867601D01*
X71655845Y-76964444D01*
X71850125Y-77080891D01*
X72032056Y-77215820D01*
X72199886Y-77367932D01*
X72351997Y-77535762D01*
X72486926Y-77717693D01*
X72603374Y-77911973D01*
X72700217Y-78116731D01*
X72776524Y-78329996D01*
X72831561Y-78549714D01*
X72864796Y-78773767D01*
X72875910Y-79000000D01*
X72864796Y-79226233D01*
X72831561Y-79450286D01*
X72776524Y-79670004D01*
X72700217Y-79883269D01*
X72603374Y-80088027D01*
X72486926Y-80282307D01*
X72351997Y-80464238D01*
X72199886Y-80632068D01*
X72032056Y-80784180D01*
X71850125Y-80919109D01*
X71655845Y-81035556D01*
X71451087Y-81132399D01*
X71237822Y-81208707D01*
X71018104Y-81263743D01*
X70794051Y-81296979D01*
X70567818Y-81308093D01*
X62732183Y-81308093D01*
X62505950Y-81296979D01*
X62281896Y-81263743D01*
X62062179Y-81208707D01*
X61848914Y-81132400D01*
X61644155Y-81035556D01*
X61449875Y-80919109D01*
X61267944Y-80784180D01*
X61100115Y-80632068D01*
X60948003Y-80464239D01*
X60813074Y-80282308D01*
X60696627Y-80088027D01*
X60599783Y-79883269D01*
X60523476Y-79670004D01*
X60468439Y-79450287D01*
X60435204Y-79226233D01*
X60425260Y-79023813D01*
X63244813Y-79023813D01*
X63276513Y-79373261D01*
X63371614Y-79697706D01*
X63530116Y-79997148D01*
X63752019Y-80271588D01*
X64019166Y-80500783D01*
X64313399Y-80664494D01*
X64634719Y-80762720D01*
X64983125Y-80795463D01*
X65330788Y-80762274D01*
X65649875Y-80662708D01*
X65940388Y-80496764D01*
X66145944Y-80314450D01*
X67007188Y-80314450D01*
X67014332Y-80481138D01*
X67059575Y-80609725D01*
X67183400Y-80706166D01*
X67421525Y-80738313D01*
X67666794Y-80706166D01*
X67793000Y-80609725D01*
X67838244Y-80485900D01*
X67845388Y-80319213D01*
X67845388Y-78752350D01*
X67978473Y-78925917D01*
X68152304Y-79154517D01*
X68366882Y-79438150D01*
X68622204Y-79776817D01*
X68918273Y-80170517D01*
X69255088Y-80619250D01*
X69374150Y-80709738D01*
X69631325Y-80738313D01*
X69876594Y-80706166D01*
X70002800Y-80609725D01*
X70048044Y-80485900D01*
X70055188Y-80319213D01*
X70055188Y-77676025D01*
X70026613Y-77433137D01*
X69967082Y-77333125D01*
X69843257Y-77275975D01*
X69624182Y-77252162D01*
X69397963Y-77280737D01*
X69262232Y-77392656D01*
X69216988Y-77656975D01*
X69216988Y-79266700D01*
X69085754Y-79094853D01*
X68917479Y-78871412D01*
X68712163Y-78596378D01*
X68469804Y-78269750D01*
X68190404Y-77891528D01*
X67873963Y-77461712D01*
X67764425Y-77337887D01*
X67647744Y-77278356D01*
X67421525Y-77252162D01*
X67188163Y-77280737D01*
X67052432Y-77392656D01*
X67007188Y-77656975D01*
X67007188Y-80314450D01*
X66145944Y-80314450D01*
X66202325Y-80264444D01*
X66419019Y-79984945D01*
X66573800Y-79677466D01*
X66666669Y-79342007D01*
X66697625Y-78978569D01*
X66665181Y-78616470D01*
X66567847Y-78285030D01*
X66405624Y-77984248D01*
X66178513Y-77714125D01*
X65907348Y-77491180D01*
X65612966Y-77331934D01*
X65295367Y-77236387D01*
X64954550Y-77204537D01*
X64630700Y-77237875D01*
X64316375Y-77337887D01*
X64024672Y-77496241D01*
X63768688Y-77704600D01*
X63554375Y-77965942D01*
X63387688Y-78283244D01*
X63280532Y-78641027D01*
X63244813Y-79023813D01*
X60425260Y-79023813D01*
X60424090Y-79000000D01*
X60435204Y-78773767D01*
X60468439Y-78549713D01*
X60523476Y-78329996D01*
X60599783Y-78116731D01*
X60696627Y-77911973D01*
X60813074Y-77717692D01*
X60948003Y-77535761D01*
X61100115Y-77367932D01*
X61267944Y-77215820D01*
X61449875Y-77080891D01*
X61644155Y-76964444D01*
X61848914Y-76867600D01*
X62062179Y-76791293D01*
X62281896Y-76736257D01*
X62505950Y-76703021D01*
X62732183Y-76691907D01*
X70567818Y-76691907D01*
X70794051Y-76703021D01*
G37*
G36*
X65290902Y-78112984D02*
G01*
X65580819Y-78309437D01*
X65732954Y-78503112D01*
X65824236Y-78734887D01*
X65854663Y-79004763D01*
X65824500Y-79274108D01*
X65734013Y-79504296D01*
X65583200Y-79695325D01*
X65295069Y-79888206D01*
X64973600Y-79952500D01*
X64651536Y-79886420D01*
X64361619Y-79688181D01*
X64209484Y-79494242D01*
X64118202Y-79264848D01*
X64087775Y-79000000D01*
X64117938Y-78735152D01*
X64208425Y-78505758D01*
X64359238Y-78311819D01*
X64647369Y-78113580D01*
X64968838Y-78047500D01*
X65290902Y-78112984D01*
G37*
%TO.C,kibuzzard-6225A745*%
G36*
X153412500Y-64410203D02*
G01*
X153579187Y-65356750D01*
X153779609Y-66380687D01*
X153999875Y-67436375D01*
X154238000Y-68500000D01*
X154492000Y-69547750D01*
X154751953Y-70533984D01*
X155007938Y-71413063D01*
X155261938Y-70545891D01*
X155515938Y-69563625D01*
X155762000Y-68515875D01*
X155992188Y-67452250D01*
X156206500Y-66394578D01*
X156404938Y-65364687D01*
X156579563Y-64412187D01*
X156722438Y-63586687D01*
X158770313Y-63586687D01*
X158557984Y-64594750D01*
X158302000Y-65713937D01*
X158004344Y-66918453D01*
X157667000Y-68182500D01*
X157420938Y-69050333D01*
X157159000Y-69928750D01*
X156881188Y-70817750D01*
X156591910Y-71702340D01*
X156295576Y-72567528D01*
X155992188Y-73413313D01*
X153976062Y-73413313D01*
X153583156Y-72246500D01*
X153166437Y-70936813D01*
X152885979Y-70016944D01*
X152616104Y-69098840D01*
X152356812Y-68182500D01*
X152111632Y-67283799D01*
X151884090Y-66418611D01*
X151674187Y-65586937D01*
X151412250Y-64475688D01*
X151229687Y-63586687D01*
X153293437Y-63586687D01*
X153412500Y-64410203D01*
G37*
D12*
%TO.C,REF\u002A\u002A*%
X59250000Y-102900000D02*
X74050000Y-102900000D01*
X59250000Y-82100000D02*
X74050000Y-82100000D01*
X74050000Y-82100000D02*
X74050000Y-102900000D01*
X59250000Y-82100000D02*
X59250000Y-102900000D01*
%TO.C,kibuzzard-6225A755*%
G36*
X153650625Y-111643188D02*
G01*
X153206125Y-113913313D01*
X151174125Y-113913313D01*
X151454160Y-112771900D01*
X151735465Y-111671763D01*
X152018040Y-110612900D01*
X152182325Y-110023938D01*
X154015750Y-110023938D01*
X155936625Y-110023938D01*
X155746125Y-109007938D01*
X155531813Y-108031625D01*
X155277813Y-107047375D01*
X154984125Y-105991687D01*
X154690437Y-107047375D01*
X154436437Y-108031625D01*
X154214187Y-109007938D01*
X154015750Y-110023938D01*
X152182325Y-110023938D01*
X152301885Y-109595313D01*
X152587000Y-108619000D01*
X152941211Y-107439785D01*
X153289469Y-106291328D01*
X153631773Y-105173629D01*
X153968125Y-104086687D01*
X156095375Y-104086687D01*
X156444129Y-105182559D01*
X156791891Y-106311172D01*
X157138660Y-107472527D01*
X157484438Y-108666625D01*
X157759075Y-109651193D01*
X158030538Y-110668145D01*
X158298825Y-111717483D01*
X158563938Y-112799205D01*
X158825875Y-113913313D01*
X156730375Y-113913313D01*
X156270000Y-111643188D01*
X153650625Y-111643188D01*
G37*
%TD*%
M02*
