%TF.GenerationSoftware,KiCad,Pcbnew,6.0.2-378541a8eb~116~ubuntu20.04.1*%
%TF.CreationDate,2022-03-08T15:37:06-05:00*%
%TF.ProjectId,Linear_Lab_Bench_PSU_front_panel,4c696e65-6172-45f4-9c61-625f42656e63,rev?*%
%TF.SameCoordinates,Original*%
%TF.FileFunction,Copper,L2,Bot*%
%TF.FilePolarity,Positive*%
%FSLAX46Y46*%
G04 Gerber Fmt 4.6, Leading zero omitted, Abs format (unit mm)*
G04 Created by KiCad (PCBNEW 6.0.2-378541a8eb~116~ubuntu20.04.1) date 2022-03-08 15:37:06*
%MOMM*%
%LPD*%
G01*
G04 APERTURE LIST*
G04 Aperture macros list*
%AMRoundRect*
0 Rectangle with rounded corners*
0 $1 Rounding radius*
0 $2 $3 $4 $5 $6 $7 $8 $9 X,Y pos of 4 corners*
0 Add a 4 corners polygon primitive as box body*
4,1,4,$2,$3,$4,$5,$6,$7,$8,$9,$2,$3,0*
0 Add four circle primitives for the rounded corners*
1,1,$1+$1,$2,$3*
1,1,$1+$1,$4,$5*
1,1,$1+$1,$6,$7*
1,1,$1+$1,$8,$9*
0 Add four rect primitives between the rounded corners*
20,1,$1+$1,$2,$3,$4,$5,0*
20,1,$1+$1,$4,$5,$6,$7,0*
20,1,$1+$1,$6,$7,$8,$9,0*
20,1,$1+$1,$8,$9,$2,$3,0*%
G04 Aperture macros list end*
%TA.AperFunction,ComponentPad*%
%ADD10R,1.800000X1.800000*%
%TD*%
%TA.AperFunction,ComponentPad*%
%ADD11C,1.800000*%
%TD*%
%TA.AperFunction,ComponentPad*%
%ADD12C,7.400000*%
%TD*%
%TA.AperFunction,ComponentPad*%
%ADD13R,1.700000X1.700000*%
%TD*%
%TA.AperFunction,ComponentPad*%
%ADD14O,1.700000X1.700000*%
%TD*%
%TA.AperFunction,ComponentPad*%
%ADD15RoundRect,0.250000X0.650000X1.550000X-0.650000X1.550000X-0.650000X-1.550000X0.650000X-1.550000X0*%
%TD*%
%TA.AperFunction,ComponentPad*%
%ADD16O,1.800000X3.600000*%
%TD*%
%TA.AperFunction,ComponentPad*%
%ADD17C,0.900000*%
%TD*%
%TA.AperFunction,ComponentPad*%
%ADD18C,10.600000*%
%TD*%
%TA.AperFunction,ComponentPad*%
%ADD19C,2.400000*%
%TD*%
%TA.AperFunction,SMDPad,CuDef*%
%ADD20C,0.500000*%
%TD*%
%TA.AperFunction,ComponentPad*%
%ADD21R,1.600000X1.600000*%
%TD*%
%TA.AperFunction,ComponentPad*%
%ADD22C,1.600000*%
%TD*%
%TA.AperFunction,ViaPad*%
%ADD23C,0.900000*%
%TD*%
%TA.AperFunction,Conductor*%
%ADD24C,0.350000*%
%TD*%
%TA.AperFunction,Conductor*%
%ADD25C,1.000000*%
%TD*%
G04 APERTURE END LIST*
%TO.C,NT1*%
G36*
X193900000Y-96750000D02*
G01*
X192900000Y-96750000D01*
X192900000Y-96250000D01*
X193900000Y-96250000D01*
X193900000Y-96750000D01*
G37*
%TD*%
D10*
%TO.P,D1,1,K*%
%TO.N,Net-(D1-Pad1)*%
X172500000Y-52725000D03*
D11*
%TO.P,D1,2,A*%
%TO.N,Net-(D1-Pad2)*%
X172500000Y-55265000D03*
%TD*%
D10*
%TO.P,D2,1,K*%
%TO.N,Net-(D2-Pad1)*%
X172500000Y-65225000D03*
D11*
%TO.P,D2,2,A*%
%TO.N,Net-(D2-Pad2)*%
X172500000Y-67765000D03*
%TD*%
D12*
%TO.P,H4,1,1*%
%TO.N,Earth*%
X210000000Y-135000000D03*
%TD*%
D13*
%TO.P,J6,1,Pin_1*%
%TO.N,Net-(D1-Pad2)*%
X108762678Y-127000000D03*
D14*
%TO.P,J6,2,Pin_2*%
%TO.N,Net-(D1-Pad1)*%
X106222678Y-127000000D03*
%TD*%
D15*
%TO.P,J8,1,Pin_1*%
%TO.N,Net-(J5-Pad1)*%
X118792500Y-86800000D03*
D16*
%TO.P,J8,2,Pin_2*%
%TO.N,Net-(J5-Pad2)*%
X114982500Y-86800000D03*
%TO.P,J8,3,Pin_3*%
%TO.N,Net-(J5-Pad3)*%
X111172500Y-86800000D03*
%TD*%
D13*
%TO.P,J7,1,Pin_1*%
%TO.N,Net-(D2-Pad2)*%
X100762678Y-127000000D03*
D14*
%TO.P,J7,2,Pin_2*%
%TO.N,Net-(D2-Pad1)*%
X98222678Y-127000000D03*
%TD*%
D15*
%TO.P,J9,1,Pin_1*%
%TO.N,+15V*%
X138910000Y-86807500D03*
D16*
%TO.P,J9,2,Pin_2*%
%TO.N,/VOUT*%
X135100000Y-86807500D03*
%TO.P,J9,3,Pin_3*%
%TO.N,GND*%
X131290000Y-86807500D03*
%TD*%
D17*
%TO.P,J12,1,Pin_1*%
%TO.N,GND*%
X185310749Y-84689251D03*
X185310749Y-90310749D03*
X178525000Y-87500000D03*
X186475000Y-87500000D03*
X182500000Y-83525000D03*
X182500000Y-91475000D03*
X179689251Y-90310749D03*
D18*
X182500000Y-87500000D03*
D17*
X179689251Y-84689251D03*
%TD*%
D13*
%TO.P,J1,1,Pin_1*%
%TO.N,Net-(J1-Pad1)*%
X181762678Y-127000000D03*
D14*
%TO.P,J1,2,Pin_2*%
%TO.N,/VOUT*%
X179222678Y-127000000D03*
%TO.P,J1,3,Pin_3*%
X176682678Y-127000000D03*
%TO.P,J1,4,Pin_4*%
X174142678Y-127000000D03*
%TO.P,J1,5,Pin_5*%
X171602678Y-127000000D03*
%TO.P,J1,6,Pin_6*%
%TO.N,GND*%
X169062678Y-127000000D03*
%TO.P,J1,7,Pin_7*%
X166522678Y-127000000D03*
%TO.P,J1,8,Pin_8*%
X163982678Y-127000000D03*
%TO.P,J1,9,Pin_9*%
X161442678Y-127000000D03*
%TO.P,J1,10,Pin_10*%
X158902678Y-127000000D03*
%TD*%
D13*
%TO.P,J2,1,Pin_1*%
%TO.N,Net-(J2-Pad1)*%
X152762678Y-127000000D03*
D14*
%TO.P,J2,2,Pin_2*%
%TO.N,Net-(J2-Pad2)*%
X150222678Y-127000000D03*
%TO.P,J2,3,Pin_3*%
%TO.N,Net-(J2-Pad3)*%
X147682678Y-127000000D03*
%TD*%
D13*
%TO.P,J3,1,Pin_1*%
%TO.N,+15V*%
X141762678Y-127000000D03*
D14*
%TO.P,J3,2,Pin_2*%
%TO.N,unconnected-(J3-Pad2)*%
X139222678Y-127000000D03*
%TO.P,J3,3,Pin_3*%
%TO.N,GND*%
X136682678Y-127000000D03*
%TD*%
D19*
%TO.P,RV2,1,1*%
%TO.N,Net-(J4-Pad3)*%
X83200000Y-77622915D03*
%TO.P,RV2,2,2*%
%TO.N,Net-(J4-Pad2)*%
X88200000Y-77622915D03*
%TO.P,RV2,3,3*%
%TO.N,Net-(J4-Pad1)*%
X93200000Y-77622915D03*
%TD*%
D12*
%TO.P,H2,1,1*%
%TO.N,Earth*%
X210000000Y-50000000D03*
%TD*%
D17*
%TO.P,J14,1,Pin_1*%
%TO.N,Earth*%
X166310749Y-84689251D03*
X160689251Y-90310749D03*
X160689251Y-84689251D03*
D18*
X163500000Y-87500000D03*
D17*
X159525000Y-87500000D03*
X167475000Y-87500000D03*
X163500000Y-83525000D03*
X166310749Y-90310749D03*
X163500000Y-91475000D03*
%TD*%
D19*
%TO.P,RV1,1,1*%
%TO.N,Net-(J2-Pad3)*%
X83200000Y-118122915D03*
%TO.P,RV1,2,2*%
%TO.N,Net-(J2-Pad2)*%
X88200000Y-118122915D03*
%TO.P,RV1,3,3*%
%TO.N,Net-(J2-Pad1)*%
X93200000Y-118122915D03*
%TD*%
D12*
%TO.P,H1,1,1*%
%TO.N,Earth*%
X60000000Y-50000000D03*
%TD*%
%TO.P,H5,1,1*%
%TO.N,Earth*%
X60000000Y-135000000D03*
%TD*%
D17*
%TO.P,J13,1,Pin_1*%
%TO.N,GND*%
X182500000Y-102525000D03*
X178525000Y-106500000D03*
X185310749Y-103689251D03*
X185310749Y-109310749D03*
X182500000Y-110475000D03*
X186475000Y-106500000D03*
X179689251Y-109310749D03*
X179689251Y-103689251D03*
D18*
X182500000Y-106500000D03*
%TD*%
D17*
%TO.P,J10,1,Pin_1*%
%TO.N,/VOUT*%
X201500000Y-102525000D03*
X204310749Y-109310749D03*
D18*
X201500000Y-106500000D03*
D17*
X198689251Y-103689251D03*
X205475000Y-106500000D03*
X204310749Y-103689251D03*
X197525000Y-106500000D03*
X198689251Y-109310749D03*
X201500000Y-110475000D03*
%TD*%
%TO.P,J11,1,Pin_1*%
%TO.N,/VOUT*%
X198689251Y-90310749D03*
X197525000Y-87500000D03*
D18*
X201500000Y-87500000D03*
D17*
X198689251Y-84689251D03*
X201500000Y-91475000D03*
X204310749Y-84689251D03*
X205475000Y-87500000D03*
X201500000Y-83525000D03*
X204310749Y-90310749D03*
%TD*%
D20*
%TO.P,NT1,1,1*%
%TO.N,Net-(J1-Pad1)*%
X192900000Y-96500000D03*
%TO.P,NT1,2,2*%
%TO.N,/VOUT*%
X193900000Y-96500000D03*
%TD*%
D13*
%TO.P,J5,1,Pin_1*%
%TO.N,Net-(J5-Pad1)*%
X119762678Y-127000000D03*
D14*
%TO.P,J5,2,Pin_2*%
%TO.N,Net-(J5-Pad2)*%
X117222678Y-127000000D03*
%TO.P,J5,3,Pin_3*%
%TO.N,Net-(J5-Pad3)*%
X114682678Y-127000000D03*
%TD*%
D13*
%TO.P,J4,1,Pin_1*%
%TO.N,Net-(J4-Pad1)*%
X130762678Y-127000000D03*
D14*
%TO.P,J4,2,Pin_2*%
%TO.N,Net-(J4-Pad2)*%
X128222678Y-127000000D03*
%TO.P,J4,3,Pin_3*%
%TO.N,Net-(J4-Pad3)*%
X125682678Y-127000000D03*
%TD*%
D21*
%TO.P,C1,1*%
%TO.N,/VOUT*%
X194152651Y-78000000D03*
D22*
%TO.P,C1,2*%
%TO.N,GND*%
X190652651Y-78000000D03*
%TD*%
D23*
%TO.N,/VOUT*%
X194100000Y-96500000D03*
%TO.N,Net-(D1-Pad1)*%
X106200000Y-135300000D03*
%TO.N,Net-(D1-Pad2)*%
X108800000Y-134300000D03*
%TO.N,Net-(D2-Pad1)*%
X98200000Y-137600000D03*
%TO.N,Net-(D2-Pad2)*%
X100800000Y-136400000D03*
%TD*%
D24*
%TO.N,/VOUT*%
X192600000Y-94900000D02*
X193100000Y-95400000D01*
X136000000Y-83400000D02*
X141600000Y-83400000D01*
X192300000Y-75200000D02*
X192600000Y-75500000D01*
X135800000Y-83600000D02*
X136000000Y-83400000D01*
X135100000Y-84300000D02*
X135800000Y-83600000D01*
X149900000Y-83400000D02*
X156600000Y-76700000D01*
X188900000Y-71800000D02*
X192300000Y-75200000D01*
X193100000Y-95400000D02*
X193800000Y-95400000D01*
X161500000Y-71800000D02*
X187800000Y-71800000D01*
X135100000Y-86807500D02*
X135100000Y-84300000D01*
X192600000Y-75500000D02*
X192600000Y-79300000D01*
X187800000Y-71800000D02*
X188900000Y-71800000D01*
X192600000Y-79300000D02*
X192600000Y-94900000D01*
X156600000Y-76700000D02*
X161500000Y-71800000D01*
X141600000Y-83400000D02*
X149900000Y-83400000D01*
D25*
%TO.N,GND*%
X131290000Y-89690000D02*
X131290000Y-86807500D01*
X174300000Y-96100000D02*
X175800000Y-96100000D01*
X150100000Y-124800000D02*
X161400000Y-113500000D01*
X137300000Y-129000000D02*
X143700000Y-129000000D01*
X144500000Y-128200000D02*
X144500000Y-126400000D01*
X136682678Y-128382678D02*
X137300000Y-129000000D01*
X146100000Y-124800000D02*
X150100000Y-124800000D01*
X136682678Y-127000000D02*
X136682678Y-125317322D01*
X133300000Y-91700000D02*
X131290000Y-89690000D01*
X170800000Y-113500000D02*
X173600000Y-110700000D01*
X143700000Y-129000000D02*
X144500000Y-128200000D01*
X173600000Y-96800000D02*
X174300000Y-96100000D01*
X140400000Y-121600000D02*
X148600000Y-121600000D01*
X136682678Y-125317322D02*
X140400000Y-121600000D01*
X173600000Y-110700000D02*
X173600000Y-96800000D01*
X148700000Y-91700000D02*
X133300000Y-91700000D01*
X161400000Y-113500000D02*
X170800000Y-113500000D01*
X148600000Y-121600000D02*
X149900000Y-120300000D01*
X149900000Y-120300000D02*
X149900000Y-92900000D01*
X149900000Y-92900000D02*
X148700000Y-91700000D01*
X144500000Y-126400000D02*
X146100000Y-124800000D01*
X136682678Y-127000000D02*
X136682678Y-128382678D01*
D24*
%TO.N,Net-(D1-Pad1)*%
X106200000Y-135300000D02*
X88300000Y-135300000D01*
X90400000Y-47400000D02*
X161000000Y-47400000D01*
X161000000Y-47400000D02*
X166325000Y-52725000D01*
X166325000Y-52725000D02*
X172500000Y-52725000D01*
X76400000Y-61400000D02*
X90400000Y-47400000D01*
X88300000Y-135300000D02*
X76400000Y-123400000D01*
X76400000Y-123400000D02*
X76400000Y-61400000D01*
%TO.N,Net-(D1-Pad2)*%
X166665000Y-55265000D02*
X172500000Y-55265000D01*
X90700000Y-48900000D02*
X160300000Y-48900000D01*
X88900000Y-134300000D02*
X77500000Y-122900000D01*
X77500000Y-122900000D02*
X77500000Y-62100000D01*
X160300000Y-48900000D02*
X166665000Y-55265000D01*
X108800000Y-134300000D02*
X88900000Y-134300000D01*
X77500000Y-62100000D02*
X90700000Y-48900000D01*
%TO.N,Net-(D2-Pad1)*%
X98200000Y-137600000D02*
X197300000Y-137600000D01*
X213000000Y-75100000D02*
X203125000Y-65225000D01*
X203125000Y-65225000D02*
X172500000Y-65225000D01*
X213000000Y-121900000D02*
X213000000Y-75100000D01*
X197300000Y-137600000D02*
X213000000Y-121900000D01*
%TO.N,Net-(D2-Pad2)*%
X100800000Y-136400000D02*
X197100000Y-136400000D01*
X211900000Y-121600000D02*
X211900000Y-75600000D01*
X211900000Y-75600000D02*
X204065000Y-67765000D01*
X204065000Y-67765000D02*
X172500000Y-67765000D01*
X197100000Y-136400000D02*
X211900000Y-121600000D01*
%TO.N,Net-(J1-Pad1)*%
X181762678Y-124937322D02*
X182200000Y-124500000D01*
X182200000Y-124500000D02*
X188600000Y-124500000D01*
X192500000Y-120600000D02*
X192500000Y-96900000D01*
X192500000Y-96900000D02*
X192900000Y-96500000D01*
X188600000Y-124500000D02*
X192500000Y-120600000D01*
X181762678Y-127000000D02*
X181762678Y-124937322D01*
%TO.N,Net-(J2-Pad1)*%
X152762678Y-130837322D02*
X152762678Y-127000000D01*
X150300000Y-133300000D02*
X152762678Y-130837322D01*
X97100000Y-133300000D02*
X150300000Y-133300000D01*
X93200000Y-118122915D02*
X93200000Y-129400000D01*
X93200000Y-129400000D02*
X97100000Y-133300000D01*
%TO.N,Net-(J2-Pad2)*%
X94400000Y-120400000D02*
X94400000Y-128700000D01*
X148100000Y-132300000D02*
X150222678Y-130177322D01*
X88200000Y-118122915D02*
X90422915Y-115900000D01*
X150222678Y-130177322D02*
X150222678Y-127000000D01*
X98000000Y-132300000D02*
X148100000Y-132300000D01*
X95400000Y-116800000D02*
X95400000Y-119400000D01*
X90422915Y-115900000D02*
X94500000Y-115900000D01*
X94400000Y-128700000D02*
X98000000Y-132300000D01*
X94500000Y-115900000D02*
X95400000Y-116800000D01*
X95400000Y-119400000D02*
X94400000Y-120400000D01*
%TO.N,Net-(J2-Pad3)*%
X147682678Y-129417322D02*
X145800000Y-131300000D01*
X145800000Y-131300000D02*
X98700000Y-131300000D01*
X95000000Y-114500000D02*
X86822915Y-114500000D01*
X86822915Y-114500000D02*
X83200000Y-118122915D01*
X98700000Y-131300000D02*
X96300000Y-128900000D01*
X147682678Y-127000000D02*
X147682678Y-129417322D01*
X96300000Y-128900000D02*
X96300000Y-115800000D01*
X96300000Y-115800000D02*
X95000000Y-114500000D01*
D25*
%TO.N,+15V*%
X151700000Y-120800000D02*
X149300000Y-123200000D01*
X143700000Y-123200000D02*
X141762678Y-125137322D01*
X138910000Y-86807500D02*
X138910000Y-89210000D01*
X149300000Y-123200000D02*
X143700000Y-123200000D01*
X151700000Y-92200000D02*
X151700000Y-120800000D01*
X141762678Y-125137322D02*
X141762678Y-127000000D01*
X139800000Y-90100000D02*
X149600000Y-90100000D01*
X149600000Y-90100000D02*
X151700000Y-92200000D01*
X138910000Y-89210000D02*
X139800000Y-90100000D01*
D24*
%TO.N,Net-(J4-Pad1)*%
X93222915Y-77622915D02*
X99800000Y-84200000D01*
X128200000Y-122000000D02*
X130762678Y-124562678D01*
X130762678Y-124562678D02*
X130762678Y-127000000D01*
X99800000Y-120700000D02*
X101100000Y-122000000D01*
X101100000Y-122000000D02*
X128200000Y-122000000D01*
X93200000Y-77622915D02*
X93222915Y-77622915D01*
X99800000Y-84200000D02*
X99800000Y-120700000D01*
%TO.N,Net-(J4-Pad2)*%
X126400000Y-123200000D02*
X128222678Y-125022678D01*
X98600000Y-88000000D02*
X98600000Y-121100000D01*
X98600000Y-121100000D02*
X100700000Y-123200000D01*
X128222678Y-125022678D02*
X128222678Y-127000000D01*
X88200000Y-77622915D02*
X88222915Y-77622915D01*
X100700000Y-123200000D02*
X126400000Y-123200000D01*
X88222915Y-77622915D02*
X98600000Y-88000000D01*
%TO.N,Net-(J4-Pad3)*%
X97400000Y-91800000D02*
X97400000Y-121800000D01*
X83200000Y-77622915D02*
X83222915Y-77622915D01*
X83222915Y-77622915D02*
X97400000Y-91800000D01*
X123082678Y-124400000D02*
X125682678Y-127000000D01*
X100000000Y-124400000D02*
X123082678Y-124400000D01*
X97400000Y-121800000D02*
X100000000Y-124400000D01*
%TD*%
%TA.AperFunction,Conductor*%
%TO.N,/VOUT*%
G36*
X207515677Y-74519685D02*
G01*
X207536319Y-74536319D01*
X210963681Y-77963681D01*
X210997166Y-78025004D01*
X211000000Y-78051362D01*
X211000000Y-120948638D01*
X210980315Y-121015677D01*
X210963681Y-121036319D01*
X197036319Y-134963681D01*
X196974996Y-134997166D01*
X196948638Y-135000000D01*
X171751362Y-135000000D01*
X171684323Y-134980315D01*
X171663681Y-134963681D01*
X170736319Y-134036319D01*
X170702834Y-133974996D01*
X170700000Y-133948638D01*
X170700000Y-128012029D01*
X170719685Y-127944990D01*
X170772489Y-127899235D01*
X170841647Y-127889291D01*
X170892891Y-127908927D01*
X171046864Y-128011809D01*
X171056822Y-128017216D01*
X171240563Y-128096157D01*
X171251327Y-128099655D01*
X171441554Y-128142698D01*
X171450021Y-128140565D01*
X171450381Y-128140180D01*
X171452678Y-128130526D01*
X171452678Y-128122529D01*
X171752678Y-128122529D01*
X171756581Y-128135823D01*
X171770358Y-128137795D01*
X171866664Y-128123832D01*
X171877677Y-128121187D01*
X172067039Y-128056908D01*
X172077391Y-128052299D01*
X172251873Y-127954585D01*
X172261213Y-127948165D01*
X172414962Y-127820294D01*
X172422972Y-127812284D01*
X172550843Y-127658535D01*
X172557263Y-127649195D01*
X172654977Y-127474713D01*
X172659586Y-127464361D01*
X172723865Y-127274999D01*
X172726510Y-127263986D01*
X172740479Y-127167644D01*
X172740152Y-127165352D01*
X173000966Y-127165352D01*
X173001599Y-127175005D01*
X173003368Y-127186173D01*
X173052599Y-127380022D01*
X173056372Y-127390677D01*
X173140104Y-127572305D01*
X173145760Y-127582101D01*
X173261186Y-127745426D01*
X173268537Y-127754032D01*
X173411785Y-127893579D01*
X173420586Y-127900706D01*
X173586864Y-128011809D01*
X173596822Y-128017216D01*
X173780563Y-128096157D01*
X173791327Y-128099655D01*
X173981554Y-128142698D01*
X173990021Y-128140565D01*
X173990381Y-128140180D01*
X173992678Y-128130526D01*
X173992678Y-128122529D01*
X174292678Y-128122529D01*
X174296581Y-128135823D01*
X174310358Y-128137795D01*
X174406664Y-128123832D01*
X174417677Y-128121187D01*
X174607039Y-128056908D01*
X174617391Y-128052299D01*
X174791873Y-127954585D01*
X174801213Y-127948165D01*
X174954962Y-127820294D01*
X174962972Y-127812284D01*
X175090843Y-127658535D01*
X175097263Y-127649195D01*
X175194977Y-127474713D01*
X175199586Y-127464361D01*
X175263865Y-127274999D01*
X175266510Y-127263986D01*
X175280479Y-127167644D01*
X175280152Y-127165352D01*
X175540966Y-127165352D01*
X175541599Y-127175005D01*
X175543368Y-127186173D01*
X175592599Y-127380022D01*
X175596372Y-127390677D01*
X175680104Y-127572305D01*
X175685760Y-127582101D01*
X175801186Y-127745426D01*
X175808537Y-127754032D01*
X175951785Y-127893579D01*
X175960586Y-127900706D01*
X176126864Y-128011809D01*
X176136822Y-128017216D01*
X176320563Y-128096157D01*
X176331327Y-128099655D01*
X176521554Y-128142698D01*
X176530021Y-128140565D01*
X176530381Y-128140180D01*
X176532678Y-128130526D01*
X176532678Y-128122529D01*
X176832678Y-128122529D01*
X176836581Y-128135823D01*
X176850358Y-128137795D01*
X176946664Y-128123832D01*
X176957677Y-128121187D01*
X177147039Y-128056908D01*
X177157391Y-128052299D01*
X177331873Y-127954585D01*
X177341213Y-127948165D01*
X177494962Y-127820294D01*
X177502972Y-127812284D01*
X177630843Y-127658535D01*
X177637263Y-127649195D01*
X177734977Y-127474713D01*
X177739586Y-127464361D01*
X177803865Y-127274999D01*
X177806510Y-127263986D01*
X177820479Y-127167644D01*
X177820152Y-127165352D01*
X178080966Y-127165352D01*
X178081599Y-127175005D01*
X178083368Y-127186173D01*
X178132599Y-127380022D01*
X178136372Y-127390677D01*
X178220104Y-127572305D01*
X178225760Y-127582101D01*
X178341186Y-127745426D01*
X178348537Y-127754032D01*
X178491785Y-127893579D01*
X178500586Y-127900706D01*
X178666864Y-128011809D01*
X178676822Y-128017216D01*
X178860563Y-128096157D01*
X178871327Y-128099655D01*
X179061554Y-128142698D01*
X179070021Y-128140565D01*
X179070381Y-128140180D01*
X179072678Y-128130526D01*
X179072678Y-127167830D01*
X179068274Y-127152831D01*
X179066904Y-127151644D01*
X179059346Y-127150000D01*
X178097790Y-127150000D01*
X178082986Y-127154347D01*
X178080966Y-127165352D01*
X177820152Y-127165352D01*
X177818524Y-127153930D01*
X177805170Y-127150000D01*
X176850508Y-127150000D01*
X176835509Y-127154404D01*
X176834322Y-127155774D01*
X176832678Y-127163332D01*
X176832678Y-128122529D01*
X176532678Y-128122529D01*
X176532678Y-127167830D01*
X176528274Y-127152831D01*
X176526904Y-127151644D01*
X176519346Y-127150000D01*
X175557790Y-127150000D01*
X175542986Y-127154347D01*
X175540966Y-127165352D01*
X175280152Y-127165352D01*
X175278524Y-127153930D01*
X175265170Y-127150000D01*
X174310508Y-127150000D01*
X174295509Y-127154404D01*
X174294322Y-127155774D01*
X174292678Y-127163332D01*
X174292678Y-128122529D01*
X173992678Y-128122529D01*
X173992678Y-127167830D01*
X173988274Y-127152831D01*
X173986904Y-127151644D01*
X173979346Y-127150000D01*
X173017790Y-127150000D01*
X173002986Y-127154347D01*
X173000966Y-127165352D01*
X172740152Y-127165352D01*
X172738524Y-127153930D01*
X172725170Y-127150000D01*
X171770508Y-127150000D01*
X171755509Y-127154404D01*
X171754322Y-127155774D01*
X171752678Y-127163332D01*
X171752678Y-128122529D01*
X171452678Y-128122529D01*
X171452678Y-126832170D01*
X171752678Y-126832170D01*
X171757082Y-126847169D01*
X171758452Y-126848356D01*
X171766010Y-126850000D01*
X172725992Y-126850000D01*
X172740309Y-126845796D01*
X172742339Y-126833856D01*
X172742195Y-126832293D01*
X173004418Y-126832293D01*
X173006822Y-126846488D01*
X173019360Y-126850000D01*
X173974848Y-126850000D01*
X173989847Y-126845596D01*
X173991034Y-126844226D01*
X173992678Y-126836668D01*
X173992678Y-126832170D01*
X174292678Y-126832170D01*
X174297082Y-126847169D01*
X174298452Y-126848356D01*
X174306010Y-126850000D01*
X175265992Y-126850000D01*
X175280309Y-126845796D01*
X175282339Y-126833856D01*
X175282195Y-126832293D01*
X175544418Y-126832293D01*
X175546822Y-126846488D01*
X175559360Y-126850000D01*
X176514848Y-126850000D01*
X176529847Y-126845596D01*
X176531034Y-126844226D01*
X176532678Y-126836668D01*
X176532678Y-126832170D01*
X176832678Y-126832170D01*
X176837082Y-126847169D01*
X176838452Y-126848356D01*
X176846010Y-126850000D01*
X177805992Y-126850000D01*
X177820309Y-126845796D01*
X177822339Y-126833856D01*
X177822195Y-126832293D01*
X178084418Y-126832293D01*
X178086822Y-126846488D01*
X178099360Y-126850000D01*
X179054848Y-126850000D01*
X179069847Y-126845596D01*
X179071034Y-126844226D01*
X179072678Y-126836668D01*
X179072678Y-125876667D01*
X179068932Y-125863909D01*
X179054252Y-125862003D01*
X178929362Y-125883464D01*
X178918431Y-125886393D01*
X178730796Y-125955615D01*
X178720589Y-125960483D01*
X178548713Y-126062738D01*
X178539555Y-126069392D01*
X178389196Y-126201254D01*
X178381406Y-126209463D01*
X178257594Y-126366518D01*
X178251429Y-126376011D01*
X178158311Y-126553000D01*
X178153978Y-126563461D01*
X178094676Y-126754444D01*
X178092320Y-126765526D01*
X178084418Y-126832293D01*
X177822195Y-126832293D01*
X177818786Y-126795191D01*
X177816722Y-126784058D01*
X177762438Y-126591583D01*
X177758381Y-126581013D01*
X177669930Y-126401652D01*
X177664011Y-126391994D01*
X177544360Y-126231762D01*
X177536779Y-126223342D01*
X177389928Y-126087595D01*
X177380943Y-126080700D01*
X177211813Y-125973987D01*
X177201722Y-125968846D01*
X177015983Y-125894743D01*
X177005111Y-125891522D01*
X176850166Y-125860703D01*
X176837494Y-125861836D01*
X176832678Y-125876749D01*
X176832678Y-126832170D01*
X176532678Y-126832170D01*
X176532678Y-125876667D01*
X176528932Y-125863909D01*
X176514252Y-125862003D01*
X176389362Y-125883464D01*
X176378431Y-125886393D01*
X176190796Y-125955615D01*
X176180589Y-125960483D01*
X176008713Y-126062738D01*
X175999555Y-126069392D01*
X175849196Y-126201254D01*
X175841406Y-126209463D01*
X175717594Y-126366518D01*
X175711429Y-126376011D01*
X175618311Y-126553000D01*
X175613978Y-126563461D01*
X175554676Y-126754444D01*
X175552320Y-126765526D01*
X175544418Y-126832293D01*
X175282195Y-126832293D01*
X175278786Y-126795191D01*
X175276722Y-126784058D01*
X175222438Y-126591583D01*
X175218381Y-126581013D01*
X175129930Y-126401652D01*
X175124011Y-126391994D01*
X175004360Y-126231762D01*
X174996779Y-126223342D01*
X174849928Y-126087595D01*
X174840943Y-126080700D01*
X174671813Y-125973987D01*
X174661722Y-125968846D01*
X174475983Y-125894743D01*
X174465111Y-125891522D01*
X174310166Y-125860703D01*
X174297494Y-125861836D01*
X174292678Y-125876749D01*
X174292678Y-126832170D01*
X173992678Y-126832170D01*
X173992678Y-125876667D01*
X173988932Y-125863909D01*
X173974252Y-125862003D01*
X173849362Y-125883464D01*
X173838431Y-125886393D01*
X173650796Y-125955615D01*
X173640589Y-125960483D01*
X173468713Y-126062738D01*
X173459555Y-126069392D01*
X173309196Y-126201254D01*
X173301406Y-126209463D01*
X173177594Y-126366518D01*
X173171429Y-126376011D01*
X173078311Y-126553000D01*
X173073978Y-126563461D01*
X173014676Y-126754444D01*
X173012320Y-126765526D01*
X173004418Y-126832293D01*
X172742195Y-126832293D01*
X172738786Y-126795191D01*
X172736722Y-126784058D01*
X172682438Y-126591583D01*
X172678381Y-126581013D01*
X172589930Y-126401652D01*
X172584011Y-126391994D01*
X172464360Y-126231762D01*
X172456779Y-126223342D01*
X172309928Y-126087595D01*
X172300943Y-126080700D01*
X172131813Y-125973987D01*
X172121722Y-125968846D01*
X171935983Y-125894743D01*
X171925111Y-125891522D01*
X171770166Y-125860703D01*
X171757494Y-125861836D01*
X171752678Y-125876749D01*
X171752678Y-126832170D01*
X171452678Y-126832170D01*
X171452678Y-125876667D01*
X171448932Y-125863909D01*
X171434252Y-125862003D01*
X171309362Y-125883464D01*
X171298431Y-125886393D01*
X171110796Y-125955615D01*
X171100589Y-125960483D01*
X170928713Y-126062738D01*
X170919555Y-126069392D01*
X170905759Y-126081491D01*
X170842377Y-126110894D01*
X170773161Y-126101362D01*
X170720085Y-126055922D01*
X170700000Y-125988263D01*
X170700000Y-125851362D01*
X170719685Y-125784323D01*
X170736319Y-125763681D01*
X171463681Y-125036319D01*
X171525004Y-125002834D01*
X171551362Y-125000000D01*
X180963178Y-125000000D01*
X181030217Y-125019685D01*
X181075972Y-125072489D01*
X181087178Y-125124000D01*
X181087178Y-125525501D01*
X181067493Y-125592540D01*
X181014689Y-125638295D01*
X180963178Y-125649501D01*
X180865302Y-125649501D01*
X180804098Y-125656149D01*
X180669854Y-125706474D01*
X180662789Y-125711769D01*
X180662787Y-125711770D01*
X180643671Y-125726097D01*
X180555132Y-125792454D01*
X180549837Y-125799519D01*
X180503008Y-125862003D01*
X180469152Y-125907176D01*
X180418827Y-126041420D01*
X180412178Y-126102623D01*
X180412178Y-126297462D01*
X180392493Y-126364501D01*
X180339689Y-126410256D01*
X180270531Y-126420200D01*
X180206975Y-126391175D01*
X180188823Y-126371654D01*
X180084360Y-126231762D01*
X180076779Y-126223342D01*
X179929928Y-126087595D01*
X179920943Y-126080700D01*
X179751813Y-125973987D01*
X179741722Y-125968846D01*
X179555983Y-125894743D01*
X179545111Y-125891522D01*
X179390166Y-125860703D01*
X179377494Y-125861836D01*
X179372678Y-125876749D01*
X179372678Y-128122529D01*
X179376581Y-128135823D01*
X179390358Y-128137795D01*
X179486664Y-128123832D01*
X179497677Y-128121187D01*
X179687039Y-128056908D01*
X179697391Y-128052299D01*
X179871873Y-127954585D01*
X179881213Y-127948165D01*
X180034962Y-127820294D01*
X180042972Y-127812284D01*
X180170843Y-127658535D01*
X180177266Y-127649191D01*
X180179989Y-127644329D01*
X180229921Y-127595455D01*
X180298349Y-127581335D01*
X180363548Y-127606451D01*
X180404818Y-127662830D01*
X180412179Y-127704916D01*
X180412179Y-127897376D01*
X180418827Y-127958580D01*
X180469152Y-128092824D01*
X180474447Y-128099889D01*
X180474448Y-128099891D01*
X180530017Y-128174035D01*
X180555132Y-128207546D01*
X180562197Y-128212841D01*
X180662787Y-128288230D01*
X180662789Y-128288231D01*
X180669854Y-128293526D01*
X180804098Y-128343851D01*
X180865301Y-128350500D01*
X181762544Y-128350500D01*
X182660054Y-128350499D01*
X182721258Y-128343851D01*
X182855502Y-128293526D01*
X182862567Y-128288231D01*
X182862569Y-128288230D01*
X182963159Y-128212841D01*
X182970224Y-128207546D01*
X182995339Y-128174035D01*
X183050908Y-128099891D01*
X183050909Y-128099889D01*
X183056204Y-128092824D01*
X183106529Y-127958580D01*
X183113178Y-127897377D01*
X183113177Y-126102624D01*
X183106529Y-126041420D01*
X183056204Y-125907176D01*
X183022349Y-125862003D01*
X182975519Y-125799519D01*
X182970224Y-125792454D01*
X182881685Y-125726097D01*
X182862569Y-125711770D01*
X182862567Y-125711769D01*
X182855502Y-125706474D01*
X182721258Y-125656149D01*
X182660055Y-125649500D01*
X182562178Y-125649500D01*
X182495139Y-125629815D01*
X182449384Y-125577011D01*
X182438178Y-125525500D01*
X182438178Y-125299500D01*
X182457863Y-125232461D01*
X182510667Y-125186706D01*
X182562178Y-125175500D01*
X188572303Y-125175500D01*
X188580737Y-125175787D01*
X188628158Y-125179020D01*
X188628160Y-125179020D01*
X188635613Y-125179528D01*
X188695532Y-125169071D01*
X188701941Y-125168125D01*
X188762313Y-125160819D01*
X188769311Y-125158175D01*
X188773881Y-125157052D01*
X188784817Y-125154060D01*
X188789306Y-125152705D01*
X188796675Y-125151419D01*
X188803520Y-125148414D01*
X188803524Y-125148413D01*
X188852354Y-125126978D01*
X188858363Y-125124525D01*
X188908263Y-125105669D01*
X188908262Y-125105669D01*
X188915255Y-125103027D01*
X188921419Y-125098790D01*
X188925595Y-125096607D01*
X188935489Y-125091101D01*
X188939542Y-125088704D01*
X188946383Y-125085701D01*
X188994626Y-125048683D01*
X188999877Y-125044868D01*
X189043837Y-125014655D01*
X189043839Y-125014653D01*
X189049997Y-125010421D01*
X189089441Y-124966150D01*
X189094343Y-124960958D01*
X192958055Y-121097246D01*
X192964221Y-121091485D01*
X193000049Y-121060230D01*
X193005681Y-121055317D01*
X193040655Y-121005555D01*
X193044518Y-121000354D01*
X193077428Y-120958381D01*
X193082042Y-120952497D01*
X193085120Y-120945680D01*
X193087552Y-120941664D01*
X193093174Y-120931809D01*
X193095395Y-120927668D01*
X193099693Y-120921552D01*
X193103820Y-120910967D01*
X193131668Y-120868332D01*
X193500000Y-120500000D01*
X193500000Y-96990624D01*
X193520718Y-96922003D01*
X193567894Y-96850998D01*
X193571731Y-96845223D01*
X193574191Y-96838747D01*
X193574193Y-96838743D01*
X193615205Y-96730776D01*
X193631521Y-96687823D01*
X193654955Y-96521088D01*
X193655249Y-96500000D01*
X193644677Y-96405748D01*
X193637254Y-96339564D01*
X193637253Y-96339560D01*
X193636481Y-96332676D01*
X193581108Y-96173668D01*
X193518842Y-96074021D01*
X193500000Y-96008311D01*
X193500000Y-79224000D01*
X193519685Y-79156961D01*
X193572489Y-79111206D01*
X193624000Y-79100000D01*
X193984821Y-79100000D01*
X193999820Y-79095596D01*
X194001007Y-79094226D01*
X194002651Y-79086668D01*
X194002651Y-79082170D01*
X194302651Y-79082170D01*
X194307055Y-79097169D01*
X194308425Y-79098356D01*
X194315983Y-79100000D01*
X194993558Y-79100000D01*
X195000870Y-79099566D01*
X195014138Y-79097988D01*
X195031884Y-79093111D01*
X195115054Y-79056168D01*
X195133603Y-79043420D01*
X195196383Y-78980530D01*
X195209104Y-78961951D01*
X195245891Y-78878739D01*
X195250742Y-78860950D01*
X195252235Y-78848139D01*
X195252651Y-78840983D01*
X195252651Y-78167830D01*
X195248247Y-78152831D01*
X195246877Y-78151644D01*
X195239319Y-78150000D01*
X194320481Y-78150000D01*
X194305482Y-78154404D01*
X194304295Y-78155774D01*
X194302651Y-78163332D01*
X194302651Y-79082170D01*
X194002651Y-79082170D01*
X194002651Y-77832170D01*
X194302651Y-77832170D01*
X194307055Y-77847169D01*
X194308425Y-77848356D01*
X194315983Y-77850000D01*
X195234821Y-77850000D01*
X195249820Y-77845596D01*
X195251007Y-77844226D01*
X195252651Y-77836668D01*
X195252651Y-77159093D01*
X195252217Y-77151781D01*
X195250639Y-77138513D01*
X195245762Y-77120767D01*
X195208819Y-77037597D01*
X195196071Y-77019048D01*
X195133181Y-76956268D01*
X195114602Y-76943547D01*
X195031390Y-76906760D01*
X195013601Y-76901909D01*
X195000790Y-76900416D01*
X194993634Y-76900000D01*
X194320481Y-76900000D01*
X194305482Y-76904404D01*
X194304295Y-76905774D01*
X194302651Y-76913332D01*
X194302651Y-77832170D01*
X194002651Y-77832170D01*
X194002651Y-76917830D01*
X193998247Y-76902831D01*
X193996877Y-76901644D01*
X193989319Y-76900000D01*
X193624000Y-76900000D01*
X193556961Y-76880315D01*
X193511206Y-76827511D01*
X193500000Y-76776000D01*
X193500000Y-76051362D01*
X193519685Y-75984323D01*
X193536319Y-75963681D01*
X194963681Y-74536319D01*
X195025004Y-74502834D01*
X195051362Y-74500000D01*
X207448638Y-74500000D01*
X207515677Y-74519685D01*
G37*
%TD.AperFunction*%
%TD*%
%TA.AperFunction,Conductor*%
%TO.N,Earth*%
G36*
X213846288Y-122933502D02*
G01*
X213927070Y-122987478D01*
X213981046Y-123068260D01*
X214000000Y-123163548D01*
X214000000Y-136929783D01*
X213998448Y-136957538D01*
X213997278Y-136967966D01*
X213995259Y-136985970D01*
X213996278Y-136998107D01*
X213996278Y-136998112D01*
X213996880Y-137005279D01*
X213997221Y-137042399D01*
X213983957Y-137244773D01*
X213979706Y-137277058D01*
X213935035Y-137501630D01*
X213926606Y-137533090D01*
X213853003Y-137749918D01*
X213840539Y-137780009D01*
X213824497Y-137812537D01*
X213739272Y-137985357D01*
X213722987Y-138013564D01*
X213595770Y-138203957D01*
X213575942Y-138229797D01*
X213424974Y-138401943D01*
X213401947Y-138424970D01*
X213230951Y-138574930D01*
X213229797Y-138575942D01*
X213203957Y-138595770D01*
X213013564Y-138722987D01*
X212985357Y-138739272D01*
X212780010Y-138840538D01*
X212749918Y-138853003D01*
X212533090Y-138926606D01*
X212501630Y-138935035D01*
X212277057Y-138979706D01*
X212244769Y-138983957D01*
X212136675Y-138991042D01*
X212057012Y-138996263D01*
X212037250Y-138996772D01*
X212026134Y-138996617D01*
X212014030Y-138995259D01*
X212001895Y-138996278D01*
X212001894Y-138996278D01*
X211967966Y-138999127D01*
X211947131Y-139000000D01*
X198141041Y-139000000D01*
X198045753Y-138981046D01*
X197964971Y-138927070D01*
X197910995Y-138846288D01*
X197892041Y-138751000D01*
X197910995Y-138655712D01*
X197964971Y-138574930D01*
X197986884Y-138555458D01*
X197987754Y-138554772D01*
X198013167Y-138534738D01*
X198018286Y-138530810D01*
X198089933Y-138477309D01*
X198145696Y-138416985D01*
X198152471Y-138409937D01*
X213574930Y-122987478D01*
X213655712Y-122933502D01*
X213751000Y-122914548D01*
X213846288Y-122933502D01*
G37*
%TD.AperFunction*%
%TA.AperFunction,Conductor*%
G36*
X89654247Y-46018954D02*
G01*
X89735029Y-46072930D01*
X89789005Y-46153712D01*
X89807959Y-46249000D01*
X89789005Y-46344288D01*
X89735029Y-46425070D01*
X89713116Y-46444542D01*
X89686833Y-46465262D01*
X89681714Y-46469190D01*
X89610067Y-46522691D01*
X89602319Y-46531073D01*
X89554305Y-46583014D01*
X89547529Y-46590063D01*
X75602668Y-60534924D01*
X75590775Y-60546062D01*
X75543669Y-60587373D01*
X75493426Y-60651106D01*
X75488343Y-60657554D01*
X75484240Y-60662621D01*
X75427089Y-60731337D01*
X75421505Y-60741309D01*
X75420601Y-60742624D01*
X75419623Y-60743951D01*
X75418708Y-60745321D01*
X75417865Y-60746716D01*
X75416985Y-60748072D01*
X75409919Y-60757034D01*
X75404604Y-60767135D01*
X75404604Y-60767136D01*
X75368302Y-60836135D01*
X75365196Y-60841855D01*
X75321527Y-60919833D01*
X75317858Y-60930642D01*
X75317206Y-60932107D01*
X75316496Y-60933570D01*
X75315828Y-60935127D01*
X75315259Y-60936638D01*
X75314644Y-60938123D01*
X75309327Y-60948228D01*
X75305942Y-60959131D01*
X75305940Y-60959135D01*
X75282815Y-61033610D01*
X75280800Y-61039811D01*
X75255754Y-61113592D01*
X75255752Y-61113601D01*
X75252083Y-61124409D01*
X75250445Y-61135708D01*
X75250067Y-61137282D01*
X75249633Y-61138859D01*
X75249270Y-61140465D01*
X75248982Y-61142077D01*
X75248648Y-61143650D01*
X75245262Y-61154553D01*
X75243921Y-61165886D01*
X75243920Y-61165889D01*
X75239779Y-61200877D01*
X75237137Y-61223207D01*
X75234759Y-61243296D01*
X75233910Y-61249747D01*
X75221082Y-61338216D01*
X75221530Y-61349623D01*
X75221530Y-61349627D01*
X75224308Y-61420320D01*
X75224500Y-61430096D01*
X75224500Y-123352079D01*
X75223967Y-123368365D01*
X75219868Y-123430903D01*
X75221210Y-123442240D01*
X75221210Y-123442244D01*
X75230373Y-123519659D01*
X75231054Y-123526143D01*
X75238185Y-123603753D01*
X75238187Y-123603765D01*
X75239232Y-123615136D01*
X75242334Y-123626134D01*
X75242624Y-123627700D01*
X75242873Y-123629342D01*
X75243189Y-123630930D01*
X75243581Y-123632517D01*
X75243919Y-123634105D01*
X75245261Y-123645447D01*
X75248648Y-123656354D01*
X75271761Y-123730792D01*
X75273612Y-123737039D01*
X75283683Y-123772745D01*
X75297875Y-123823066D01*
X75302921Y-123833298D01*
X75303505Y-123834820D01*
X75304040Y-123836363D01*
X75304649Y-123837889D01*
X75305321Y-123839372D01*
X75305943Y-123840875D01*
X75309327Y-123851771D01*
X75314639Y-123861867D01*
X75314640Y-123861870D01*
X75350953Y-123930890D01*
X75353912Y-123936698D01*
X75388377Y-124006586D01*
X75393428Y-124016828D01*
X75400259Y-124025977D01*
X75401109Y-124027363D01*
X75401912Y-124028775D01*
X75402790Y-124030167D01*
X75403724Y-124031507D01*
X75404604Y-124032862D01*
X75409920Y-124042966D01*
X75465279Y-124113189D01*
X75469190Y-124118286D01*
X75522691Y-124189933D01*
X75583014Y-124245695D01*
X75590063Y-124252471D01*
X87434924Y-136097332D01*
X87446062Y-136109225D01*
X87487373Y-136156331D01*
X87551106Y-136206574D01*
X87557554Y-136211657D01*
X87562621Y-136215760D01*
X87622552Y-136265605D01*
X87622555Y-136265607D01*
X87631337Y-136272911D01*
X87641309Y-136278495D01*
X87642624Y-136279399D01*
X87643951Y-136280377D01*
X87645321Y-136281292D01*
X87646716Y-136282135D01*
X87648072Y-136283016D01*
X87657034Y-136290081D01*
X87667132Y-136295394D01*
X87667140Y-136295399D01*
X87736139Y-136331701D01*
X87741866Y-136334810D01*
X87819832Y-136378473D01*
X87830654Y-136382147D01*
X87832113Y-136382796D01*
X87833595Y-136383515D01*
X87835113Y-136384167D01*
X87836630Y-136384738D01*
X87838123Y-136385357D01*
X87848228Y-136390673D01*
X87859126Y-136394057D01*
X87859131Y-136394059D01*
X87933570Y-136417172D01*
X87939762Y-136419183D01*
X88024409Y-136447917D01*
X88035703Y-136449554D01*
X88037284Y-136449934D01*
X88038858Y-136450367D01*
X88040461Y-136450730D01*
X88042077Y-136451018D01*
X88043650Y-136451352D01*
X88054553Y-136454738D01*
X88065886Y-136456079D01*
X88065889Y-136456080D01*
X88116386Y-136462056D01*
X88143309Y-136465243D01*
X88149747Y-136466090D01*
X88238216Y-136478918D01*
X88249623Y-136478470D01*
X88249627Y-136478470D01*
X88320320Y-136475692D01*
X88330096Y-136475500D01*
X96739872Y-136475500D01*
X96835160Y-136494454D01*
X96915942Y-136548430D01*
X96969918Y-136629212D01*
X96988872Y-136724500D01*
X96969918Y-136819788D01*
X96945572Y-136864814D01*
X96934475Y-136881082D01*
X96834051Y-137097428D01*
X96831324Y-137107263D01*
X96831322Y-137107267D01*
X96784235Y-137277058D01*
X96770309Y-137327272D01*
X96769223Y-137337437D01*
X96749965Y-137517638D01*
X96744963Y-137564440D01*
X96745552Y-137574647D01*
X96757394Y-137780010D01*
X96758694Y-137802562D01*
X96811131Y-138035245D01*
X96814974Y-138044709D01*
X96879638Y-138203957D01*
X96900867Y-138256239D01*
X96906204Y-138264949D01*
X96906207Y-138264954D01*
X96990155Y-138401943D01*
X97025493Y-138459609D01*
X97040825Y-138477309D01*
X97136682Y-138587970D01*
X97184744Y-138672404D01*
X97196837Y-138768804D01*
X97171118Y-138862493D01*
X97111504Y-138939208D01*
X97027070Y-138987270D01*
X96948474Y-139000000D01*
X58070217Y-139000000D01*
X58042462Y-138998448D01*
X58026138Y-138996617D01*
X58026137Y-138996617D01*
X58014030Y-138995259D01*
X58001893Y-138996278D01*
X58001888Y-138996278D01*
X57994721Y-138996880D01*
X57957601Y-138997221D01*
X57755227Y-138983957D01*
X57722942Y-138979706D01*
X57498370Y-138935035D01*
X57466910Y-138926606D01*
X57250082Y-138853003D01*
X57219990Y-138840538D01*
X57014643Y-138739272D01*
X56986436Y-138722987D01*
X56796043Y-138595770D01*
X56770203Y-138575942D01*
X56769049Y-138574930D01*
X56598053Y-138424970D01*
X56575026Y-138401943D01*
X56424058Y-138229797D01*
X56404230Y-138203957D01*
X56277013Y-138013564D01*
X56260728Y-137985357D01*
X56175503Y-137812537D01*
X56159461Y-137780009D01*
X56146997Y-137749918D01*
X56073394Y-137533090D01*
X56064965Y-137501630D01*
X56020294Y-137277057D01*
X56016043Y-137244769D01*
X56006981Y-137106515D01*
X56003737Y-137057012D01*
X56003228Y-137037250D01*
X56003383Y-137026134D01*
X56004741Y-137014030D01*
X56000873Y-136967966D01*
X56000000Y-136947131D01*
X56000000Y-102035970D01*
X58995259Y-102035970D01*
X58996278Y-102048109D01*
X58996252Y-102050000D01*
X58995980Y-102050000D01*
X59012035Y-102253994D01*
X59014317Y-102263501D01*
X59014318Y-102263505D01*
X59046436Y-102397287D01*
X59059803Y-102452964D01*
X59138110Y-102642013D01*
X59245026Y-102816484D01*
X59377919Y-102972081D01*
X59533516Y-103104974D01*
X59707987Y-103211890D01*
X59897036Y-103290197D01*
X60096006Y-103337965D01*
X60149157Y-103342148D01*
X60180521Y-103346640D01*
X60194932Y-103349651D01*
X60201592Y-103350000D01*
X60221079Y-103350000D01*
X60252274Y-103351962D01*
X60271943Y-103354447D01*
X60285971Y-103354643D01*
X60293045Y-103354742D01*
X60293048Y-103354742D01*
X60300000Y-103354839D01*
X60337236Y-103351188D01*
X60361534Y-103350000D01*
X72921072Y-103350000D01*
X72952280Y-103351963D01*
X72971943Y-103354447D01*
X72978881Y-103354544D01*
X72978882Y-103354544D01*
X72993052Y-103354742D01*
X72993053Y-103354742D01*
X73000000Y-103354839D01*
X73029329Y-103351963D01*
X73039956Y-103350921D01*
X73044720Y-103350500D01*
X73055507Y-103349651D01*
X73203994Y-103337965D01*
X73402964Y-103290197D01*
X73592013Y-103211890D01*
X73766484Y-103104974D01*
X73922081Y-102972081D01*
X74054974Y-102816484D01*
X74161890Y-102642013D01*
X74240197Y-102452964D01*
X74287965Y-102253994D01*
X74292148Y-102200843D01*
X74296640Y-102169479D01*
X74299651Y-102155068D01*
X74300000Y-102148408D01*
X74300000Y-102128921D01*
X74301962Y-102097726D01*
X74304447Y-102078057D01*
X74304839Y-102050000D01*
X74301188Y-102012764D01*
X74300000Y-101988466D01*
X74300000Y-83028928D01*
X74301963Y-82997720D01*
X74303577Y-82984941D01*
X74304447Y-82978057D01*
X74304839Y-82950000D01*
X74300921Y-82910044D01*
X74300500Y-82905280D01*
X74296275Y-82851592D01*
X74287965Y-82746006D01*
X74240197Y-82547036D01*
X74161890Y-82357987D01*
X74054974Y-82183516D01*
X73922081Y-82027919D01*
X73766484Y-81895026D01*
X73592013Y-81788110D01*
X73402964Y-81709803D01*
X73203994Y-81662035D01*
X73150843Y-81657852D01*
X73119479Y-81653360D01*
X73105068Y-81650349D01*
X73098408Y-81650000D01*
X73078921Y-81650000D01*
X73047726Y-81648038D01*
X73028057Y-81645553D01*
X73014028Y-81645357D01*
X73006955Y-81645258D01*
X73006952Y-81645258D01*
X73000000Y-81645161D01*
X72964452Y-81648647D01*
X72962764Y-81648812D01*
X72938466Y-81650000D01*
X60378928Y-81650000D01*
X60347720Y-81648037D01*
X60328057Y-81645553D01*
X60321119Y-81645456D01*
X60321118Y-81645456D01*
X60306948Y-81645258D01*
X60306947Y-81645258D01*
X60300000Y-81645161D01*
X60275092Y-81647604D01*
X60260044Y-81649079D01*
X60255278Y-81649500D01*
X60096006Y-81662035D01*
X59897036Y-81709803D01*
X59707987Y-81788110D01*
X59533516Y-81895026D01*
X59377919Y-82027919D01*
X59245026Y-82183516D01*
X59138110Y-82357987D01*
X59059803Y-82547036D01*
X59012035Y-82746006D01*
X59007852Y-82799157D01*
X59003360Y-82830521D01*
X59000349Y-82844932D01*
X59000000Y-82851592D01*
X59000000Y-82879783D01*
X58998448Y-82907538D01*
X58995259Y-82935970D01*
X58996201Y-82947190D01*
X58995980Y-82950000D01*
X58996437Y-82950000D01*
X58998793Y-82978057D01*
X58999127Y-82982036D01*
X59000000Y-83002871D01*
X59000000Y-101979783D01*
X58998448Y-102007538D01*
X58995259Y-102035970D01*
X56000000Y-102035970D01*
X56000000Y-48070217D01*
X56001552Y-48042462D01*
X56003383Y-48026138D01*
X56003383Y-48026137D01*
X56004741Y-48014030D01*
X56003722Y-48001893D01*
X56003722Y-48001888D01*
X56003120Y-47994721D01*
X56002779Y-47957597D01*
X56003043Y-47953575D01*
X56016043Y-47755227D01*
X56020294Y-47722942D01*
X56064965Y-47498370D01*
X56073394Y-47466910D01*
X56146997Y-47250082D01*
X56159462Y-47219990D01*
X56260728Y-47014643D01*
X56277013Y-46986436D01*
X56404230Y-46796043D01*
X56424058Y-46770203D01*
X56575030Y-46598053D01*
X56598053Y-46575030D01*
X56770203Y-46424058D01*
X56796043Y-46404230D01*
X56986436Y-46277013D01*
X57014643Y-46260728D01*
X57219990Y-46159462D01*
X57250082Y-46146997D01*
X57466910Y-46073394D01*
X57498370Y-46064965D01*
X57722943Y-46020294D01*
X57755231Y-46016043D01*
X57863325Y-46008958D01*
X57942988Y-46003737D01*
X57962750Y-46003228D01*
X57973866Y-46003383D01*
X57985970Y-46004741D01*
X57998105Y-46003722D01*
X57998106Y-46003722D01*
X58032034Y-46000873D01*
X58052869Y-46000000D01*
X89558959Y-46000000D01*
X89654247Y-46018954D01*
G37*
%TD.AperFunction*%
%TA.AperFunction,Conductor*%
G36*
X211957538Y-46001552D02*
G01*
X211973862Y-46003383D01*
X211973863Y-46003383D01*
X211985970Y-46004741D01*
X211998107Y-46003722D01*
X211998112Y-46003722D01*
X212005279Y-46003120D01*
X212042399Y-46002779D01*
X212244773Y-46016043D01*
X212277058Y-46020294D01*
X212501630Y-46064965D01*
X212533090Y-46073394D01*
X212749918Y-46146997D01*
X212780010Y-46159462D01*
X212985357Y-46260728D01*
X213013564Y-46277013D01*
X213203957Y-46404230D01*
X213229797Y-46424058D01*
X213401947Y-46575030D01*
X213424970Y-46598053D01*
X213575942Y-46770203D01*
X213595770Y-46796043D01*
X213722987Y-46986436D01*
X213739272Y-47014643D01*
X213840538Y-47219990D01*
X213853003Y-47250082D01*
X213926606Y-47466910D01*
X213935035Y-47498370D01*
X213979706Y-47722943D01*
X213983957Y-47755231D01*
X213983958Y-47755235D01*
X213983958Y-47755237D01*
X213996263Y-47942988D01*
X213996772Y-47962750D01*
X213996617Y-47973866D01*
X213995259Y-47985970D01*
X213996278Y-47998105D01*
X213996278Y-47998106D01*
X213999127Y-48032034D01*
X214000000Y-48052869D01*
X214000000Y-73836452D01*
X213981046Y-73931740D01*
X213927070Y-74012522D01*
X213846288Y-74066498D01*
X213751000Y-74085452D01*
X213655712Y-74066498D01*
X213574930Y-74012522D01*
X203990076Y-64427668D01*
X203978938Y-64415775D01*
X203945153Y-64377251D01*
X203937627Y-64368669D01*
X203867446Y-64313343D01*
X203862379Y-64309240D01*
X203802448Y-64259395D01*
X203802445Y-64259393D01*
X203793663Y-64252089D01*
X203783691Y-64246505D01*
X203782376Y-64245601D01*
X203781049Y-64244623D01*
X203779679Y-64243708D01*
X203778284Y-64242865D01*
X203776928Y-64241985D01*
X203767966Y-64234919D01*
X203688858Y-64193298D01*
X203683137Y-64190192D01*
X203615128Y-64152105D01*
X203615125Y-64152104D01*
X203605167Y-64146527D01*
X203594358Y-64142858D01*
X203592893Y-64142206D01*
X203591430Y-64141496D01*
X203589873Y-64140828D01*
X203588362Y-64140259D01*
X203586877Y-64139644D01*
X203576772Y-64134327D01*
X203565869Y-64130942D01*
X203565865Y-64130940D01*
X203491390Y-64107815D01*
X203485189Y-64105800D01*
X203411408Y-64080754D01*
X203411399Y-64080752D01*
X203400591Y-64077083D01*
X203389292Y-64075445D01*
X203387718Y-64075067D01*
X203386141Y-64074633D01*
X203384535Y-64074270D01*
X203382923Y-64073982D01*
X203381350Y-64073648D01*
X203370447Y-64070262D01*
X203359114Y-64068921D01*
X203359111Y-64068920D01*
X203308614Y-64062944D01*
X203281691Y-64059757D01*
X203275253Y-64058910D01*
X203186784Y-64046082D01*
X203175377Y-64046530D01*
X203175373Y-64046530D01*
X203104680Y-64049308D01*
X203094904Y-64049500D01*
X174535758Y-64049500D01*
X174440470Y-64030546D01*
X174359688Y-63976570D01*
X174315094Y-63915862D01*
X174280984Y-63850616D01*
X174239573Y-63771404D01*
X174207086Y-63731570D01*
X174119087Y-63623673D01*
X174111109Y-63613891D01*
X174083032Y-63590992D01*
X173963370Y-63493398D01*
X173963367Y-63493396D01*
X173953596Y-63485427D01*
X173941720Y-63479218D01*
X173784652Y-63397105D01*
X173773470Y-63391259D01*
X173578087Y-63335234D01*
X173566281Y-63334180D01*
X173566279Y-63334180D01*
X173463332Y-63324992D01*
X173463325Y-63324992D01*
X173457816Y-63324500D01*
X171542184Y-63324500D01*
X171536675Y-63324992D01*
X171536668Y-63324992D01*
X171433721Y-63334180D01*
X171433719Y-63334180D01*
X171421913Y-63335234D01*
X171226530Y-63391259D01*
X171215348Y-63397105D01*
X171058281Y-63479218D01*
X171046404Y-63485427D01*
X171036633Y-63493396D01*
X171036630Y-63493398D01*
X170916968Y-63590992D01*
X170888891Y-63613891D01*
X170880913Y-63623673D01*
X170792915Y-63731570D01*
X170760427Y-63771404D01*
X170754584Y-63782580D01*
X170754583Y-63782582D01*
X170722682Y-63843603D01*
X170666259Y-63951530D01*
X170610234Y-64146913D01*
X170609180Y-64158719D01*
X170609180Y-64158721D01*
X170601514Y-64244623D01*
X170599500Y-64267184D01*
X170599500Y-66182816D01*
X170599992Y-66188325D01*
X170599992Y-66188332D01*
X170609180Y-66291279D01*
X170610234Y-66303087D01*
X170666259Y-66498470D01*
X170760427Y-66678596D01*
X170768403Y-66688376D01*
X170769244Y-66689651D01*
X170805874Y-66779636D01*
X170805280Y-66876790D01*
X170788308Y-66926504D01*
X170788939Y-66926760D01*
X170687900Y-67176213D01*
X170685777Y-67184760D01*
X170643423Y-67355267D01*
X170623017Y-67437414D01*
X170595585Y-67705151D01*
X170606152Y-67974083D01*
X170654505Y-68238843D01*
X170739682Y-68494148D01*
X170743613Y-68502015D01*
X170743615Y-68502020D01*
X170856049Y-68727037D01*
X170856053Y-68727044D01*
X170859981Y-68734905D01*
X171013003Y-68956309D01*
X171018976Y-68962771D01*
X171018978Y-68962773D01*
X171131246Y-69084223D01*
X171195695Y-69153944D01*
X171249625Y-69197850D01*
X171397582Y-69318307D01*
X171397588Y-69318311D01*
X171404411Y-69323866D01*
X171411948Y-69328404D01*
X171411950Y-69328405D01*
X171618329Y-69452655D01*
X171634987Y-69462684D01*
X171882822Y-69567628D01*
X171891329Y-69569884D01*
X171891333Y-69569885D01*
X172025036Y-69605336D01*
X172142972Y-69636606D01*
X172410245Y-69668240D01*
X172679310Y-69661899D01*
X172687990Y-69660454D01*
X172687993Y-69660454D01*
X172936108Y-69619156D01*
X172936107Y-69619156D01*
X172944796Y-69617710D01*
X172953192Y-69615055D01*
X172953195Y-69615054D01*
X173193019Y-69539207D01*
X173201408Y-69536554D01*
X173444025Y-69420051D01*
X173667806Y-69270526D01*
X173674361Y-69264655D01*
X173861731Y-69096833D01*
X173861737Y-69096827D01*
X173868286Y-69090961D01*
X173920135Y-69029279D01*
X173995957Y-68968534D01*
X174089254Y-68941429D01*
X174110740Y-68940500D01*
X203474952Y-68940500D01*
X203570240Y-68959454D01*
X203651022Y-69013430D01*
X207721034Y-73083442D01*
X207775010Y-73164224D01*
X207793964Y-73259512D01*
X207775010Y-73354800D01*
X207721034Y-73435582D01*
X207640252Y-73489558D01*
X207544964Y-73508512D01*
X207519780Y-73507234D01*
X207448638Y-73500000D01*
X195051362Y-73500000D01*
X195008055Y-73502322D01*
X194947795Y-73505552D01*
X194947789Y-73505552D01*
X194944459Y-73505731D01*
X194941150Y-73506087D01*
X194941135Y-73506088D01*
X194932094Y-73507061D01*
X194918101Y-73508565D01*
X194912317Y-73509750D01*
X194912318Y-73509750D01*
X194744224Y-73544193D01*
X194744222Y-73544194D01*
X194732239Y-73546649D01*
X194720963Y-73551396D01*
X194551563Y-73622710D01*
X194551555Y-73622714D01*
X194545754Y-73625156D01*
X194540224Y-73628175D01*
X194540219Y-73628178D01*
X194524889Y-73636549D01*
X194484431Y-73658641D01*
X194413388Y-73701347D01*
X194406497Y-73706966D01*
X194406494Y-73706968D01*
X194261457Y-73825230D01*
X194261452Y-73825234D01*
X194256574Y-73829212D01*
X193600167Y-74485619D01*
X193519385Y-74539595D01*
X193424097Y-74558549D01*
X193328809Y-74539595D01*
X193248027Y-74485619D01*
X189765076Y-71002668D01*
X189753938Y-70990775D01*
X189720153Y-70952251D01*
X189712627Y-70943669D01*
X189642446Y-70888343D01*
X189637379Y-70884240D01*
X189577448Y-70834395D01*
X189577445Y-70834393D01*
X189568663Y-70827089D01*
X189558691Y-70821505D01*
X189557376Y-70820601D01*
X189556049Y-70819623D01*
X189554679Y-70818708D01*
X189553284Y-70817865D01*
X189551928Y-70816985D01*
X189542966Y-70809919D01*
X189463858Y-70768298D01*
X189458137Y-70765192D01*
X189390128Y-70727105D01*
X189390125Y-70727104D01*
X189380167Y-70721527D01*
X189369358Y-70717858D01*
X189367893Y-70717206D01*
X189366430Y-70716496D01*
X189364873Y-70715828D01*
X189363362Y-70715259D01*
X189361873Y-70714642D01*
X189351772Y-70709327D01*
X189340869Y-70705942D01*
X189340865Y-70705940D01*
X189266390Y-70682815D01*
X189260189Y-70680800D01*
X189186408Y-70655754D01*
X189186399Y-70655752D01*
X189175591Y-70652083D01*
X189164292Y-70650445D01*
X189162718Y-70650067D01*
X189161141Y-70649633D01*
X189159535Y-70649270D01*
X189157923Y-70648982D01*
X189156350Y-70648648D01*
X189145447Y-70645262D01*
X189134114Y-70643921D01*
X189134111Y-70643920D01*
X189083614Y-70637944D01*
X189056691Y-70634757D01*
X189050253Y-70633910D01*
X188961784Y-70621082D01*
X188950377Y-70621530D01*
X188950373Y-70621530D01*
X188879680Y-70624308D01*
X188869904Y-70624500D01*
X161547907Y-70624500D01*
X161531623Y-70623967D01*
X161469096Y-70619869D01*
X161457758Y-70621211D01*
X161457755Y-70621211D01*
X161411664Y-70626666D01*
X161380342Y-70630373D01*
X161373886Y-70631052D01*
X161284864Y-70639232D01*
X161273868Y-70642333D01*
X161272270Y-70642629D01*
X161270649Y-70642875D01*
X161269077Y-70643187D01*
X161267478Y-70643582D01*
X161265889Y-70643920D01*
X161254552Y-70645262D01*
X161202863Y-70661312D01*
X161169189Y-70671768D01*
X161162939Y-70673619D01*
X161076934Y-70697875D01*
X161066691Y-70702926D01*
X161065188Y-70703503D01*
X161063633Y-70704042D01*
X161062117Y-70704647D01*
X161060640Y-70705316D01*
X161059129Y-70705942D01*
X161048228Y-70709327D01*
X161038125Y-70714642D01*
X161038126Y-70714642D01*
X160969131Y-70750942D01*
X160963323Y-70753901D01*
X160883172Y-70793428D01*
X160874024Y-70800259D01*
X160872637Y-70801109D01*
X160871225Y-70801912D01*
X160869825Y-70802795D01*
X160868492Y-70803724D01*
X160867133Y-70804607D01*
X160857034Y-70809920D01*
X160848073Y-70816985D01*
X160848072Y-70816985D01*
X160844863Y-70819515D01*
X160786823Y-70865270D01*
X160781730Y-70869178D01*
X160710067Y-70922691D01*
X160702315Y-70931077D01*
X160702314Y-70931078D01*
X160654305Y-70983014D01*
X160647529Y-70990063D01*
X149486022Y-82151570D01*
X149405240Y-82205546D01*
X149309952Y-82224500D01*
X136047921Y-82224500D01*
X136031635Y-82223967D01*
X135969097Y-82219868D01*
X135957760Y-82221210D01*
X135957756Y-82221210D01*
X135880341Y-82230373D01*
X135873857Y-82231054D01*
X135796247Y-82238185D01*
X135796235Y-82238187D01*
X135784864Y-82239232D01*
X135773866Y-82242334D01*
X135772300Y-82242624D01*
X135770663Y-82242872D01*
X135769057Y-82243192D01*
X135767481Y-82243581D01*
X135765890Y-82243919D01*
X135754553Y-82245261D01*
X135743651Y-82248646D01*
X135743652Y-82248646D01*
X135669164Y-82271775D01*
X135662914Y-82273626D01*
X135576934Y-82297875D01*
X135566696Y-82302924D01*
X135565198Y-82303499D01*
X135563655Y-82304034D01*
X135562113Y-82304649D01*
X135560625Y-82305323D01*
X135559138Y-82305939D01*
X135548229Y-82309326D01*
X135483302Y-82343486D01*
X135469125Y-82350945D01*
X135463318Y-82353904D01*
X135436724Y-82367019D01*
X135383172Y-82393428D01*
X135374025Y-82400259D01*
X135372667Y-82401091D01*
X135371241Y-82401902D01*
X135369830Y-82402792D01*
X135368499Y-82403720D01*
X135367142Y-82404601D01*
X135357034Y-82409919D01*
X135348065Y-82416990D01*
X135286848Y-82465250D01*
X135281690Y-82469209D01*
X135210067Y-82522691D01*
X135202313Y-82531079D01*
X135202311Y-82531081D01*
X135154305Y-82583014D01*
X135147529Y-82590063D01*
X134302668Y-83434924D01*
X134290775Y-83446062D01*
X134243669Y-83487373D01*
X134195818Y-83548072D01*
X134188343Y-83557554D01*
X134184240Y-83562621D01*
X134158630Y-83593414D01*
X134127089Y-83631337D01*
X134121505Y-83641309D01*
X134120601Y-83642624D01*
X134119623Y-83643951D01*
X134118708Y-83645321D01*
X134117865Y-83646716D01*
X134116985Y-83648072D01*
X134109919Y-83657034D01*
X134104604Y-83667135D01*
X134104604Y-83667136D01*
X134068302Y-83736135D01*
X134065196Y-83741855D01*
X134021527Y-83819833D01*
X134017858Y-83830642D01*
X134017206Y-83832107D01*
X134016496Y-83833570D01*
X134015828Y-83835127D01*
X134015259Y-83836638D01*
X134014644Y-83838123D01*
X134009327Y-83848228D01*
X134005942Y-83859131D01*
X134005940Y-83859135D01*
X133982815Y-83933610D01*
X133980800Y-83939811D01*
X133955754Y-84013592D01*
X133955752Y-84013601D01*
X133952083Y-84024409D01*
X133950445Y-84035708D01*
X133950067Y-84037282D01*
X133949633Y-84038859D01*
X133949270Y-84040465D01*
X133948982Y-84042077D01*
X133948648Y-84043650D01*
X133945262Y-84054553D01*
X133943921Y-84065886D01*
X133943920Y-84065889D01*
X133934759Y-84143296D01*
X133933910Y-84149747D01*
X133921082Y-84238216D01*
X133921530Y-84249623D01*
X133921530Y-84249626D01*
X133922943Y-84285578D01*
X133907745Y-84381536D01*
X133856982Y-84464375D01*
X133829650Y-84489817D01*
X133805268Y-84509316D01*
X133616992Y-84710864D01*
X133611850Y-84718277D01*
X133611847Y-84718280D01*
X133464987Y-84929979D01*
X133459784Y-84937479D01*
X133455767Y-84945554D01*
X133418054Y-85021359D01*
X133358641Y-85098231D01*
X133274333Y-85146514D01*
X133177966Y-85158858D01*
X133084210Y-85133385D01*
X133007338Y-85073972D01*
X132977444Y-85031358D01*
X132911318Y-84912309D01*
X132884525Y-84864072D01*
X132717198Y-84644822D01*
X132565152Y-84496187D01*
X132526422Y-84458326D01*
X132526420Y-84458324D01*
X132519974Y-84452023D01*
X132512682Y-84446715D01*
X132304277Y-84295021D01*
X132304273Y-84295018D01*
X132296984Y-84289713D01*
X132052899Y-84161294D01*
X132044396Y-84158291D01*
X132044393Y-84158290D01*
X131801336Y-84072458D01*
X131801335Y-84072458D01*
X131792832Y-84069455D01*
X131783988Y-84067712D01*
X131783985Y-84067711D01*
X131531082Y-84017864D01*
X131531078Y-84017863D01*
X131522232Y-84016120D01*
X131513228Y-84015672D01*
X131513222Y-84015671D01*
X131346627Y-84007378D01*
X131246767Y-84002406D01*
X131237786Y-84003263D01*
X131237780Y-84003263D01*
X131028333Y-84023247D01*
X130972208Y-84028602D01*
X130794132Y-84072177D01*
X130713071Y-84092012D01*
X130713068Y-84092013D01*
X130704306Y-84094157D01*
X130448674Y-84197699D01*
X130210665Y-84337058D01*
X129995268Y-84509316D01*
X129806992Y-84710864D01*
X129801850Y-84718277D01*
X129801847Y-84718280D01*
X129654987Y-84929979D01*
X129649784Y-84937479D01*
X129526935Y-85184414D01*
X129524126Y-85192984D01*
X129524124Y-85192988D01*
X129470819Y-85355597D01*
X129441020Y-85446498D01*
X129393838Y-85718238D01*
X129389500Y-85805376D01*
X129389500Y-87777570D01*
X129389827Y-87782073D01*
X129389827Y-87782081D01*
X129391826Y-87809624D01*
X129404375Y-87982583D01*
X129463836Y-88251903D01*
X129467032Y-88260339D01*
X129467033Y-88260342D01*
X129552871Y-88486908D01*
X129561551Y-88509819D01*
X129695475Y-88750928D01*
X129700947Y-88758098D01*
X129738441Y-88807227D01*
X129781183Y-88894475D01*
X129789500Y-88958291D01*
X129789500Y-89565559D01*
X129788448Y-89580353D01*
X129789053Y-89580389D01*
X129788447Y-89590587D01*
X129787007Y-89600706D01*
X129788927Y-89685297D01*
X129789436Y-89707740D01*
X129789500Y-89713389D01*
X129789500Y-89752554D01*
X129790211Y-89761203D01*
X129790983Y-89775932D01*
X129792605Y-89847382D01*
X129794502Y-89857420D01*
X129794502Y-89857423D01*
X129798487Y-89878515D01*
X129801978Y-89904338D01*
X129803736Y-89925715D01*
X129803737Y-89925723D01*
X129804575Y-89935911D01*
X129807066Y-89945827D01*
X129821980Y-90005204D01*
X129825151Y-90019625D01*
X129838417Y-90089833D01*
X129841932Y-90099438D01*
X129849304Y-90119585D01*
X129856965Y-90144489D01*
X129861387Y-90162092D01*
X129864684Y-90175217D01*
X129893173Y-90240737D01*
X129898658Y-90254450D01*
X129923211Y-90321545D01*
X129928239Y-90330433D01*
X129928241Y-90330436D01*
X129938816Y-90349127D01*
X129950440Y-90372441D01*
X129963072Y-90401493D01*
X129968623Y-90410073D01*
X130001881Y-90461483D01*
X130009533Y-90474119D01*
X130044712Y-90536297D01*
X130051126Y-90544246D01*
X130051132Y-90544255D01*
X130064611Y-90560960D01*
X130079888Y-90582064D01*
X130097095Y-90608661D01*
X130103971Y-90616217D01*
X130103972Y-90616219D01*
X130145167Y-90661491D01*
X130154772Y-90672697D01*
X130171917Y-90693945D01*
X130198646Y-90720674D01*
X130206744Y-90729164D01*
X130263154Y-90791158D01*
X130271177Y-90797494D01*
X130271179Y-90797496D01*
X130280135Y-90804569D01*
X130301880Y-90823908D01*
X131052902Y-91574930D01*
X131106878Y-91655712D01*
X131125832Y-91751000D01*
X131106878Y-91846288D01*
X131052902Y-91927070D01*
X130972120Y-91981046D01*
X130876832Y-92000000D01*
X102328924Y-92000000D01*
X102297715Y-91998036D01*
X102278061Y-91995553D01*
X102264564Y-91995364D01*
X102256961Y-91995258D01*
X102256957Y-91995258D01*
X102250004Y-91995161D01*
X102243082Y-91995840D01*
X102243073Y-91995840D01*
X102201242Y-91999941D01*
X102200450Y-92000000D01*
X102199230Y-92000000D01*
X102195883Y-92000340D01*
X102195603Y-92000361D01*
X102190702Y-92000802D01*
X102053855Y-92011572D01*
X102044333Y-92013858D01*
X101872050Y-92055219D01*
X101872048Y-92055220D01*
X101862537Y-92057503D01*
X101680758Y-92132797D01*
X101512997Y-92235601D01*
X101386209Y-92343887D01*
X101301445Y-92391357D01*
X101204963Y-92402776D01*
X101111456Y-92376404D01*
X101035158Y-92316256D01*
X100987687Y-92231489D01*
X100975500Y-92154544D01*
X100975500Y-87770070D01*
X109272000Y-87770070D01*
X109286875Y-87975083D01*
X109346336Y-88244403D01*
X109349532Y-88252839D01*
X109349533Y-88252842D01*
X109436207Y-88481615D01*
X109444051Y-88502319D01*
X109577975Y-88743428D01*
X109745302Y-88962678D01*
X109808485Y-89024443D01*
X109933107Y-89146269D01*
X109942526Y-89155477D01*
X109949815Y-89160783D01*
X109949818Y-89160785D01*
X110158223Y-89312479D01*
X110158227Y-89312482D01*
X110165516Y-89317787D01*
X110409601Y-89446206D01*
X110418104Y-89449209D01*
X110418107Y-89449210D01*
X110656902Y-89533537D01*
X110669668Y-89538045D01*
X110678512Y-89539788D01*
X110678515Y-89539789D01*
X110931418Y-89589636D01*
X110931422Y-89589637D01*
X110940268Y-89591380D01*
X110949272Y-89591828D01*
X110949278Y-89591829D01*
X111115873Y-89600122D01*
X111215733Y-89605094D01*
X111224714Y-89604237D01*
X111224720Y-89604237D01*
X111445318Y-89583189D01*
X111490292Y-89578898D01*
X111709722Y-89525204D01*
X111749429Y-89515488D01*
X111749432Y-89515487D01*
X111758194Y-89513343D01*
X112013826Y-89409801D01*
X112251835Y-89270442D01*
X112467232Y-89098184D01*
X112655508Y-88896636D01*
X112660653Y-88889220D01*
X112807576Y-88677431D01*
X112807579Y-88677426D01*
X112812716Y-88670021D01*
X112854446Y-88586141D01*
X112913859Y-88509269D01*
X112998167Y-88460986D01*
X113094534Y-88448642D01*
X113188290Y-88474115D01*
X113265162Y-88533528D01*
X113295056Y-88576142D01*
X113387975Y-88743428D01*
X113555302Y-88962678D01*
X113618485Y-89024443D01*
X113743107Y-89146269D01*
X113752526Y-89155477D01*
X113759815Y-89160783D01*
X113759818Y-89160785D01*
X113968223Y-89312479D01*
X113968227Y-89312482D01*
X113975516Y-89317787D01*
X114219601Y-89446206D01*
X114228104Y-89449209D01*
X114228107Y-89449210D01*
X114466902Y-89533537D01*
X114479668Y-89538045D01*
X114488512Y-89539788D01*
X114488515Y-89539789D01*
X114741418Y-89589636D01*
X114741422Y-89589637D01*
X114750268Y-89591380D01*
X114759272Y-89591828D01*
X114759278Y-89591829D01*
X114925873Y-89600122D01*
X115025733Y-89605094D01*
X115034714Y-89604237D01*
X115034720Y-89604237D01*
X115255318Y-89583189D01*
X115300292Y-89578898D01*
X115519722Y-89525204D01*
X115559429Y-89515488D01*
X115559432Y-89515487D01*
X115568194Y-89513343D01*
X115823826Y-89409801D01*
X116061835Y-89270442D01*
X116277232Y-89098184D01*
X116465508Y-88896636D01*
X116475408Y-88882366D01*
X116548867Y-88776474D01*
X116618754Y-88708985D01*
X116709149Y-88673377D01*
X116806289Y-88675072D01*
X116895386Y-88713813D01*
X116962875Y-88783700D01*
X116979857Y-88814750D01*
X117005390Y-88870518D01*
X117051886Y-88972075D01*
X117058213Y-88981178D01*
X117058215Y-88981182D01*
X117169572Y-89141403D01*
X117179283Y-89155375D01*
X117337125Y-89313217D01*
X117346230Y-89319545D01*
X117346231Y-89319546D01*
X117511318Y-89434285D01*
X117511322Y-89434287D01*
X117520425Y-89440614D01*
X117723387Y-89533537D01*
X117734122Y-89536293D01*
X117734124Y-89536294D01*
X117905862Y-89580389D01*
X117939598Y-89589051D01*
X118080362Y-89600500D01*
X119504638Y-89600500D01*
X119645402Y-89589051D01*
X119679138Y-89580389D01*
X119850876Y-89536294D01*
X119850878Y-89536293D01*
X119861613Y-89533537D01*
X120064575Y-89440614D01*
X120073678Y-89434287D01*
X120073682Y-89434285D01*
X120238769Y-89319546D01*
X120238770Y-89319545D01*
X120247875Y-89313217D01*
X120405717Y-89155375D01*
X120415428Y-89141403D01*
X120526785Y-88981182D01*
X120526787Y-88981178D01*
X120533114Y-88972075D01*
X120626037Y-88769113D01*
X120641476Y-88708985D01*
X120678916Y-88563165D01*
X120678916Y-88563164D01*
X120681551Y-88552902D01*
X120693000Y-88412138D01*
X120693000Y-85187862D01*
X120681551Y-85047098D01*
X120653553Y-84938054D01*
X120628794Y-84841624D01*
X120628793Y-84841622D01*
X120626037Y-84830887D01*
X120533114Y-84627925D01*
X120526787Y-84618822D01*
X120526785Y-84618818D01*
X120412046Y-84453731D01*
X120412045Y-84453730D01*
X120405717Y-84444625D01*
X120247875Y-84286783D01*
X120222184Y-84268927D01*
X120073682Y-84165715D01*
X120073678Y-84165713D01*
X120064575Y-84159386D01*
X119861613Y-84066463D01*
X119850878Y-84063707D01*
X119850876Y-84063706D01*
X119655665Y-84013584D01*
X119655664Y-84013584D01*
X119645402Y-84010949D01*
X119504638Y-83999500D01*
X118080362Y-83999500D01*
X117939598Y-84010949D01*
X117929336Y-84013584D01*
X117929335Y-84013584D01*
X117734124Y-84063706D01*
X117734122Y-84063707D01*
X117723387Y-84066463D01*
X117520425Y-84159386D01*
X117511322Y-84165713D01*
X117511318Y-84165715D01*
X117362816Y-84268927D01*
X117337125Y-84286783D01*
X117179283Y-84444625D01*
X117172955Y-84453730D01*
X117172954Y-84453731D01*
X117058215Y-84618818D01*
X117058213Y-84618822D01*
X117051886Y-84627925D01*
X117047270Y-84638008D01*
X116981079Y-84782580D01*
X116924178Y-84861330D01*
X116841473Y-84912309D01*
X116745554Y-84927759D01*
X116651025Y-84905326D01*
X116572275Y-84848425D01*
X116556738Y-84829990D01*
X116471483Y-84718280D01*
X116409698Y-84637322D01*
X116226594Y-84458326D01*
X116218922Y-84450826D01*
X116218920Y-84450824D01*
X116212474Y-84444523D01*
X116201845Y-84436786D01*
X115996777Y-84287521D01*
X115996773Y-84287518D01*
X115989484Y-84282213D01*
X115745399Y-84153794D01*
X115736896Y-84150791D01*
X115736893Y-84150790D01*
X115493836Y-84064958D01*
X115493835Y-84064958D01*
X115485332Y-84061955D01*
X115476488Y-84060212D01*
X115476485Y-84060211D01*
X115223582Y-84010364D01*
X115223578Y-84010363D01*
X115214732Y-84008620D01*
X115205728Y-84008172D01*
X115205722Y-84008171D01*
X115031544Y-83999500D01*
X114939267Y-83994906D01*
X114930286Y-83995763D01*
X114930280Y-83995763D01*
X114721630Y-84015671D01*
X114664708Y-84021102D01*
X114528005Y-84054553D01*
X114405571Y-84084512D01*
X114405568Y-84084513D01*
X114396806Y-84086657D01*
X114141174Y-84190199D01*
X113903165Y-84329558D01*
X113687768Y-84501816D01*
X113499492Y-84703364D01*
X113494350Y-84710777D01*
X113494347Y-84710780D01*
X113398860Y-84848425D01*
X113342284Y-84929979D01*
X113338267Y-84938054D01*
X113300554Y-85013859D01*
X113241141Y-85090731D01*
X113156833Y-85139014D01*
X113060466Y-85151358D01*
X112966710Y-85125885D01*
X112889838Y-85066472D01*
X112859944Y-85023858D01*
X112771403Y-84864454D01*
X112767025Y-84856572D01*
X112599698Y-84637322D01*
X112416594Y-84458326D01*
X112408922Y-84450826D01*
X112408920Y-84450824D01*
X112402474Y-84444523D01*
X112391845Y-84436786D01*
X112186777Y-84287521D01*
X112186773Y-84287518D01*
X112179484Y-84282213D01*
X111935399Y-84153794D01*
X111926896Y-84150791D01*
X111926893Y-84150790D01*
X111683836Y-84064958D01*
X111683835Y-84064958D01*
X111675332Y-84061955D01*
X111666488Y-84060212D01*
X111666485Y-84060211D01*
X111413582Y-84010364D01*
X111413578Y-84010363D01*
X111404732Y-84008620D01*
X111395728Y-84008172D01*
X111395722Y-84008171D01*
X111221544Y-83999500D01*
X111129267Y-83994906D01*
X111120286Y-83995763D01*
X111120280Y-83995763D01*
X110911630Y-84015671D01*
X110854708Y-84021102D01*
X110718005Y-84054553D01*
X110595571Y-84084512D01*
X110595568Y-84084513D01*
X110586806Y-84086657D01*
X110331174Y-84190199D01*
X110093165Y-84329558D01*
X109877768Y-84501816D01*
X109689492Y-84703364D01*
X109684350Y-84710777D01*
X109684347Y-84710780D01*
X109588860Y-84848425D01*
X109532284Y-84929979D01*
X109409435Y-85176914D01*
X109406626Y-85185484D01*
X109406624Y-85185488D01*
X109404166Y-85192988D01*
X109323520Y-85438998D01*
X109276338Y-85710738D01*
X109272000Y-85797876D01*
X109272000Y-87770070D01*
X100975500Y-87770070D01*
X100975500Y-84247921D01*
X100976033Y-84231635D01*
X100979385Y-84180491D01*
X100980132Y-84169097D01*
X100978790Y-84157756D01*
X100969627Y-84080341D01*
X100968946Y-84073857D01*
X100961815Y-83996247D01*
X100961813Y-83996235D01*
X100960768Y-83984864D01*
X100957666Y-83973866D01*
X100957376Y-83972300D01*
X100957127Y-83970658D01*
X100956811Y-83969070D01*
X100956419Y-83967483D01*
X100956081Y-83965895D01*
X100954739Y-83954553D01*
X100928239Y-83869208D01*
X100926388Y-83862961D01*
X100905222Y-83787914D01*
X100905221Y-83787912D01*
X100902125Y-83776934D01*
X100897079Y-83766702D01*
X100896495Y-83765180D01*
X100895960Y-83763637D01*
X100895351Y-83762111D01*
X100894679Y-83760628D01*
X100894057Y-83759125D01*
X100890673Y-83748229D01*
X100884310Y-83736135D01*
X100849047Y-83669110D01*
X100846088Y-83663302D01*
X100811623Y-83593414D01*
X100811622Y-83593412D01*
X100806572Y-83583172D01*
X100799741Y-83574023D01*
X100798891Y-83572637D01*
X100798088Y-83571225D01*
X100797210Y-83569833D01*
X100796276Y-83568493D01*
X100795396Y-83567138D01*
X100790080Y-83557034D01*
X100734721Y-83486811D01*
X100730810Y-83481714D01*
X100677309Y-83410067D01*
X100616985Y-83354304D01*
X100609937Y-83347529D01*
X96512404Y-79249996D01*
X100995161Y-79249996D01*
X100995840Y-79256918D01*
X100995840Y-79256927D01*
X100999941Y-79298758D01*
X101000000Y-79299550D01*
X101000000Y-79300770D01*
X101000340Y-79304117D01*
X101000361Y-79304397D01*
X101000802Y-79309298D01*
X101011572Y-79446145D01*
X101057503Y-79637463D01*
X101132797Y-79819242D01*
X101235601Y-79987003D01*
X101363383Y-80136617D01*
X101512997Y-80264399D01*
X101680758Y-80367203D01*
X101862537Y-80442497D01*
X101872048Y-80444780D01*
X101872050Y-80444781D01*
X102044344Y-80486145D01*
X102044349Y-80486146D01*
X102053855Y-80488428D01*
X102087629Y-80491086D01*
X102097955Y-80491899D01*
X102129330Y-80496392D01*
X102133645Y-80497293D01*
X102144932Y-80499651D01*
X102151592Y-80500000D01*
X102171076Y-80500000D01*
X102202282Y-80501963D01*
X102215058Y-80503577D01*
X102215062Y-80503577D01*
X102221947Y-80504447D01*
X102228888Y-80504544D01*
X102243056Y-80504742D01*
X102243057Y-80504742D01*
X102250004Y-80504839D01*
X102287228Y-80501189D01*
X102311527Y-80500000D01*
X147671076Y-80500000D01*
X147702285Y-80501964D01*
X147721939Y-80504447D01*
X147735436Y-80504636D01*
X147743039Y-80504742D01*
X147743043Y-80504742D01*
X147749996Y-80504839D01*
X147756918Y-80504160D01*
X147756927Y-80504160D01*
X147798758Y-80500059D01*
X147799550Y-80500000D01*
X147800770Y-80500000D01*
X147804117Y-80499660D01*
X147804397Y-80499639D01*
X147809298Y-80499198D01*
X147946145Y-80488428D01*
X147955667Y-80486142D01*
X148127950Y-80444781D01*
X148127952Y-80444780D01*
X148137463Y-80442497D01*
X148319242Y-80367203D01*
X148487003Y-80264399D01*
X148636617Y-80136617D01*
X148764399Y-79987003D01*
X148867203Y-79819242D01*
X148942497Y-79637463D01*
X148988428Y-79446145D01*
X148991899Y-79402045D01*
X148996392Y-79370670D01*
X148997694Y-79364435D01*
X148999651Y-79355068D01*
X149000000Y-79348408D01*
X149000000Y-79328924D01*
X149001963Y-79297718D01*
X149003577Y-79284942D01*
X149003577Y-79284938D01*
X149004447Y-79278053D01*
X149004839Y-79249996D01*
X149001189Y-79212772D01*
X149000000Y-79188473D01*
X149000000Y-52828924D01*
X149001964Y-52797715D01*
X149003574Y-52784968D01*
X149004447Y-52778061D01*
X149004839Y-52750004D01*
X149002089Y-52721947D01*
X149000059Y-52701242D01*
X149000000Y-52700450D01*
X149000000Y-52699230D01*
X148999660Y-52695883D01*
X148999639Y-52695603D01*
X148999196Y-52690680D01*
X148995596Y-52644932D01*
X148988428Y-52553855D01*
X148942497Y-52362537D01*
X148867203Y-52180758D01*
X148764399Y-52012997D01*
X148636617Y-51863383D01*
X148487003Y-51735601D01*
X148319242Y-51632797D01*
X148137463Y-51557503D01*
X148127952Y-51555220D01*
X148127950Y-51555219D01*
X147955656Y-51513855D01*
X147955651Y-51513854D01*
X147946145Y-51511572D01*
X147912371Y-51508914D01*
X147902045Y-51508101D01*
X147870670Y-51503608D01*
X147866355Y-51502707D01*
X147855068Y-51500349D01*
X147848408Y-51500000D01*
X147828924Y-51500000D01*
X147797718Y-51498037D01*
X147784942Y-51496423D01*
X147784938Y-51496423D01*
X147778053Y-51495553D01*
X147771112Y-51495456D01*
X147756944Y-51495258D01*
X147756943Y-51495258D01*
X147749996Y-51495161D01*
X147712773Y-51498811D01*
X147688473Y-51500000D01*
X102328924Y-51500000D01*
X102297715Y-51498036D01*
X102278061Y-51495553D01*
X102264564Y-51495364D01*
X102256961Y-51495258D01*
X102256957Y-51495258D01*
X102250004Y-51495161D01*
X102243082Y-51495840D01*
X102243073Y-51495840D01*
X102201242Y-51499941D01*
X102200450Y-51500000D01*
X102199230Y-51500000D01*
X102195883Y-51500340D01*
X102195603Y-51500361D01*
X102190702Y-51500802D01*
X102053855Y-51511572D01*
X102044333Y-51513858D01*
X101872050Y-51555219D01*
X101872048Y-51555220D01*
X101862537Y-51557503D01*
X101680758Y-51632797D01*
X101512997Y-51735601D01*
X101363383Y-51863383D01*
X101235601Y-52012997D01*
X101132797Y-52180758D01*
X101057503Y-52362537D01*
X101011572Y-52553855D01*
X101010805Y-52563606D01*
X101008101Y-52597955D01*
X101003608Y-52629330D01*
X101000349Y-52644932D01*
X101000000Y-52651592D01*
X101000000Y-52671076D01*
X100998037Y-52702282D01*
X100995553Y-52721947D01*
X100995161Y-52750004D01*
X100998811Y-52787227D01*
X101000000Y-52811527D01*
X101000000Y-79171076D01*
X100998036Y-79202285D01*
X100995553Y-79221939D01*
X100995161Y-79249996D01*
X96512404Y-79249996D01*
X95445096Y-78182688D01*
X95391120Y-78101906D01*
X95372166Y-78006618D01*
X95376950Y-77958040D01*
X95386356Y-77910754D01*
X95405222Y-77622915D01*
X95386356Y-77335076D01*
X95330081Y-77052162D01*
X95237359Y-76779013D01*
X95109778Y-76520304D01*
X94949520Y-76280461D01*
X94759327Y-76063588D01*
X94542454Y-75873395D01*
X94302611Y-75713137D01*
X94043902Y-75585556D01*
X93770753Y-75492834D01*
X93695816Y-75477928D01*
X93495829Y-75438148D01*
X93495824Y-75438147D01*
X93487839Y-75436559D01*
X93479709Y-75436026D01*
X93479708Y-75436026D01*
X93208132Y-75418226D01*
X93200000Y-75417693D01*
X93191868Y-75418226D01*
X92920292Y-75436026D01*
X92920291Y-75436026D01*
X92912161Y-75436559D01*
X92904176Y-75438147D01*
X92904171Y-75438148D01*
X92704184Y-75477928D01*
X92629247Y-75492834D01*
X92356098Y-75585556D01*
X92097389Y-75713137D01*
X91857546Y-75873395D01*
X91640673Y-76063588D01*
X91450480Y-76280461D01*
X91290222Y-76520304D01*
X91162641Y-76779013D01*
X91069919Y-77052162D01*
X91013644Y-77335076D01*
X90994778Y-77622915D01*
X91013644Y-77910754D01*
X91015232Y-77918739D01*
X91015233Y-77918744D01*
X91062199Y-78154858D01*
X91062198Y-78252013D01*
X91025019Y-78341772D01*
X90956320Y-78410471D01*
X90866560Y-78447651D01*
X90769405Y-78447650D01*
X90679646Y-78410471D01*
X90641913Y-78379505D01*
X90445096Y-78182688D01*
X90391120Y-78101906D01*
X90372166Y-78006618D01*
X90376950Y-77958040D01*
X90386356Y-77910754D01*
X90405222Y-77622915D01*
X90386356Y-77335076D01*
X90330081Y-77052162D01*
X90237359Y-76779013D01*
X90109778Y-76520304D01*
X89949520Y-76280461D01*
X89759327Y-76063588D01*
X89542454Y-75873395D01*
X89302611Y-75713137D01*
X89043902Y-75585556D01*
X88770753Y-75492834D01*
X88695816Y-75477928D01*
X88495829Y-75438148D01*
X88495824Y-75438147D01*
X88487839Y-75436559D01*
X88479709Y-75436026D01*
X88479708Y-75436026D01*
X88208132Y-75418226D01*
X88200000Y-75417693D01*
X88191868Y-75418226D01*
X87920292Y-75436026D01*
X87920291Y-75436026D01*
X87912161Y-75436559D01*
X87904176Y-75438147D01*
X87904171Y-75438148D01*
X87704184Y-75477928D01*
X87629247Y-75492834D01*
X87356098Y-75585556D01*
X87097389Y-75713137D01*
X86857546Y-75873395D01*
X86640673Y-76063588D01*
X86450480Y-76280461D01*
X86290222Y-76520304D01*
X86162641Y-76779013D01*
X86069919Y-77052162D01*
X86013644Y-77335076D01*
X85994778Y-77622915D01*
X86013644Y-77910754D01*
X86015232Y-77918739D01*
X86015233Y-77918744D01*
X86062199Y-78154858D01*
X86062198Y-78252013D01*
X86025019Y-78341772D01*
X85956320Y-78410471D01*
X85866560Y-78447651D01*
X85769405Y-78447650D01*
X85679646Y-78410471D01*
X85641913Y-78379505D01*
X85445096Y-78182688D01*
X85391120Y-78101906D01*
X85372166Y-78006618D01*
X85376950Y-77958040D01*
X85386356Y-77910754D01*
X85405222Y-77622915D01*
X85386356Y-77335076D01*
X85330081Y-77052162D01*
X85237359Y-76779013D01*
X85109778Y-76520304D01*
X84949520Y-76280461D01*
X84759327Y-76063588D01*
X84542454Y-75873395D01*
X84302611Y-75713137D01*
X84043902Y-75585556D01*
X83770753Y-75492834D01*
X83695816Y-75477928D01*
X83495829Y-75438148D01*
X83495824Y-75438147D01*
X83487839Y-75436559D01*
X83479709Y-75436026D01*
X83479708Y-75436026D01*
X83208132Y-75418226D01*
X83200000Y-75417693D01*
X83191868Y-75418226D01*
X82920292Y-75436026D01*
X82920291Y-75436026D01*
X82912161Y-75436559D01*
X82904176Y-75438147D01*
X82904171Y-75438148D01*
X82704184Y-75477928D01*
X82629247Y-75492834D01*
X82356098Y-75585556D01*
X82097389Y-75713137D01*
X81857546Y-75873395D01*
X81640673Y-76063588D01*
X81450480Y-76280461D01*
X81290222Y-76520304D01*
X81162641Y-76779013D01*
X81069919Y-77052162D01*
X81013644Y-77335076D01*
X80994778Y-77622915D01*
X81013644Y-77910754D01*
X81015232Y-77918739D01*
X81015233Y-77918744D01*
X81040363Y-78045081D01*
X81069919Y-78193668D01*
X81162641Y-78466817D01*
X81290222Y-78725526D01*
X81450480Y-78965369D01*
X81640673Y-79182242D01*
X81857546Y-79372435D01*
X82097389Y-79532693D01*
X82356098Y-79660274D01*
X82629247Y-79752996D01*
X82668058Y-79760716D01*
X82904171Y-79807682D01*
X82904176Y-79807683D01*
X82912161Y-79809271D01*
X82920291Y-79809804D01*
X82920292Y-79809804D01*
X83191868Y-79827604D01*
X83200000Y-79828137D01*
X83208132Y-79827604D01*
X83479708Y-79809804D01*
X83479709Y-79809804D01*
X83487839Y-79809271D01*
X83573354Y-79792261D01*
X83670508Y-79792262D01*
X83760267Y-79829442D01*
X83797999Y-79860407D01*
X96151570Y-92213979D01*
X96205546Y-92294761D01*
X96224500Y-92390049D01*
X96224500Y-113456399D01*
X96205546Y-113551687D01*
X96151570Y-113632469D01*
X96070788Y-113686445D01*
X95975500Y-113705399D01*
X95880212Y-113686445D01*
X95813208Y-113642932D01*
X95812627Y-113643669D01*
X95804605Y-113637345D01*
X95742446Y-113588343D01*
X95737379Y-113584240D01*
X95677448Y-113534395D01*
X95677445Y-113534393D01*
X95668663Y-113527089D01*
X95658691Y-113521505D01*
X95657376Y-113520601D01*
X95656049Y-113519623D01*
X95654679Y-113518708D01*
X95653284Y-113517865D01*
X95651928Y-113516985D01*
X95642966Y-113509919D01*
X95631188Y-113503722D01*
X95563865Y-113468302D01*
X95558137Y-113465192D01*
X95490128Y-113427105D01*
X95490125Y-113427104D01*
X95480167Y-113421527D01*
X95469358Y-113417858D01*
X95467893Y-113417206D01*
X95466430Y-113416496D01*
X95464873Y-113415828D01*
X95463362Y-113415259D01*
X95461873Y-113414642D01*
X95451772Y-113409327D01*
X95440869Y-113405942D01*
X95440865Y-113405940D01*
X95366390Y-113382815D01*
X95360189Y-113380800D01*
X95286408Y-113355754D01*
X95286399Y-113355752D01*
X95275591Y-113352083D01*
X95264292Y-113350445D01*
X95262718Y-113350067D01*
X95261141Y-113349633D01*
X95259535Y-113349270D01*
X95257923Y-113348982D01*
X95256350Y-113348648D01*
X95245447Y-113345262D01*
X95234114Y-113343921D01*
X95234111Y-113343920D01*
X95183614Y-113337944D01*
X95156691Y-113334757D01*
X95150253Y-113333910D01*
X95061784Y-113321082D01*
X95050377Y-113321530D01*
X95050373Y-113321530D01*
X94979680Y-113324308D01*
X94969904Y-113324500D01*
X86870836Y-113324500D01*
X86854550Y-113323967D01*
X86792012Y-113319868D01*
X86780675Y-113321210D01*
X86780671Y-113321210D01*
X86703256Y-113330373D01*
X86696772Y-113331054D01*
X86619162Y-113338185D01*
X86619150Y-113338187D01*
X86607779Y-113339232D01*
X86596781Y-113342334D01*
X86595215Y-113342624D01*
X86593578Y-113342872D01*
X86591972Y-113343192D01*
X86590396Y-113343581D01*
X86588805Y-113343919D01*
X86577468Y-113345261D01*
X86555498Y-113352083D01*
X86492079Y-113371775D01*
X86485829Y-113373626D01*
X86453248Y-113382815D01*
X86399849Y-113397875D01*
X86389611Y-113402924D01*
X86388113Y-113403499D01*
X86386570Y-113404034D01*
X86385028Y-113404649D01*
X86383540Y-113405323D01*
X86382053Y-113405939D01*
X86371144Y-113409326D01*
X86291991Y-113450971D01*
X86286263Y-113453890D01*
X86206087Y-113493428D01*
X86196938Y-113500260D01*
X86195559Y-113501105D01*
X86194133Y-113501916D01*
X86192753Y-113502787D01*
X86191411Y-113503722D01*
X86190056Y-113504602D01*
X86179950Y-113509919D01*
X86170983Y-113516988D01*
X86170980Y-113516990D01*
X86144399Y-113537945D01*
X86109760Y-113565252D01*
X86104611Y-113569204D01*
X86042133Y-113615857D01*
X86042128Y-113615861D01*
X86032982Y-113622691D01*
X86025230Y-113631077D01*
X86025229Y-113631078D01*
X85977220Y-113683014D01*
X85970444Y-113690063D01*
X83778886Y-115881621D01*
X83698104Y-115935597D01*
X83602816Y-115954551D01*
X83554238Y-115949766D01*
X83495840Y-115938150D01*
X83495833Y-115938149D01*
X83487839Y-115936559D01*
X83479709Y-115936026D01*
X83479708Y-115936026D01*
X83208132Y-115918226D01*
X83200000Y-115917693D01*
X83191868Y-115918226D01*
X82920292Y-115936026D01*
X82920291Y-115936026D01*
X82912161Y-115936559D01*
X82904176Y-115938147D01*
X82904171Y-115938148D01*
X82715225Y-115975732D01*
X82629247Y-115992834D01*
X82356098Y-116085556D01*
X82097389Y-116213137D01*
X81857546Y-116373395D01*
X81640673Y-116563588D01*
X81450480Y-116780461D01*
X81290222Y-117020304D01*
X81162641Y-117279013D01*
X81069919Y-117552162D01*
X81068329Y-117560156D01*
X81026852Y-117768677D01*
X81013644Y-117835076D01*
X80994778Y-118122915D01*
X81013644Y-118410754D01*
X81069919Y-118693668D01*
X81162641Y-118966817D01*
X81290222Y-119225526D01*
X81450480Y-119465369D01*
X81640673Y-119682242D01*
X81857546Y-119872435D01*
X82097389Y-120032693D01*
X82356098Y-120160274D01*
X82629247Y-120252996D01*
X82704184Y-120267902D01*
X82904171Y-120307682D01*
X82904176Y-120307683D01*
X82912161Y-120309271D01*
X82920291Y-120309804D01*
X82920292Y-120309804D01*
X83191868Y-120327604D01*
X83200000Y-120328137D01*
X83208132Y-120327604D01*
X83479708Y-120309804D01*
X83479709Y-120309804D01*
X83487839Y-120309271D01*
X83495824Y-120307683D01*
X83495829Y-120307682D01*
X83695816Y-120267902D01*
X83770753Y-120252996D01*
X84043902Y-120160274D01*
X84302611Y-120032693D01*
X84542454Y-119872435D01*
X84759327Y-119682242D01*
X84949520Y-119465369D01*
X85109778Y-119225526D01*
X85237359Y-118966817D01*
X85330081Y-118693668D01*
X85386356Y-118410754D01*
X85405222Y-118122915D01*
X85386356Y-117835076D01*
X85384765Y-117827075D01*
X85373149Y-117768677D01*
X85373148Y-117671522D01*
X85410328Y-117581763D01*
X85441294Y-117544029D01*
X85647603Y-117337720D01*
X85728385Y-117283744D01*
X85823673Y-117264790D01*
X85918961Y-117283744D01*
X85999743Y-117337720D01*
X86053719Y-117418502D01*
X86072673Y-117513790D01*
X86067889Y-117562367D01*
X86026852Y-117768677D01*
X86013644Y-117835076D01*
X85994778Y-118122915D01*
X86013644Y-118410754D01*
X86069919Y-118693668D01*
X86162641Y-118966817D01*
X86290222Y-119225526D01*
X86450480Y-119465369D01*
X86640673Y-119682242D01*
X86857546Y-119872435D01*
X87097389Y-120032693D01*
X87356098Y-120160274D01*
X87629247Y-120252996D01*
X87704184Y-120267902D01*
X87904171Y-120307682D01*
X87904176Y-120307683D01*
X87912161Y-120309271D01*
X87920291Y-120309804D01*
X87920292Y-120309804D01*
X88191868Y-120327604D01*
X88200000Y-120328137D01*
X88208132Y-120327604D01*
X88479708Y-120309804D01*
X88479709Y-120309804D01*
X88487839Y-120309271D01*
X88495824Y-120307683D01*
X88495829Y-120307682D01*
X88695816Y-120267902D01*
X88770753Y-120252996D01*
X89043902Y-120160274D01*
X89302611Y-120032693D01*
X89542454Y-119872435D01*
X89759327Y-119682242D01*
X89949520Y-119465369D01*
X90109778Y-119225526D01*
X90237359Y-118966817D01*
X90330081Y-118693668D01*
X90386356Y-118410754D01*
X90405222Y-118122915D01*
X90386356Y-117835076D01*
X90384765Y-117827075D01*
X90373149Y-117768677D01*
X90373148Y-117671522D01*
X90410328Y-117581763D01*
X90441294Y-117544029D01*
X90647603Y-117337720D01*
X90728385Y-117283744D01*
X90823673Y-117264790D01*
X90918961Y-117283744D01*
X90999743Y-117337720D01*
X91053719Y-117418502D01*
X91072673Y-117513790D01*
X91067889Y-117562367D01*
X91026852Y-117768677D01*
X91013644Y-117835076D01*
X90994778Y-118122915D01*
X91013644Y-118410754D01*
X91069919Y-118693668D01*
X91162641Y-118966817D01*
X91290222Y-119225526D01*
X91450480Y-119465369D01*
X91640673Y-119682242D01*
X91857546Y-119872435D01*
X91913838Y-119910048D01*
X91982535Y-119978745D01*
X92019715Y-120068504D01*
X92024500Y-120117083D01*
X92024500Y-129352079D01*
X92023967Y-129368365D01*
X92019868Y-129430903D01*
X92021210Y-129442240D01*
X92021210Y-129442244D01*
X92030373Y-129519659D01*
X92031054Y-129526143D01*
X92038185Y-129603753D01*
X92038187Y-129603765D01*
X92039232Y-129615136D01*
X92042334Y-129626134D01*
X92042624Y-129627700D01*
X92042873Y-129629342D01*
X92043189Y-129630930D01*
X92043581Y-129632517D01*
X92043919Y-129634105D01*
X92045261Y-129645447D01*
X92048648Y-129656354D01*
X92071761Y-129730792D01*
X92073612Y-129737039D01*
X92085789Y-129780212D01*
X92097875Y-129823066D01*
X92102921Y-129833298D01*
X92103505Y-129834820D01*
X92104040Y-129836363D01*
X92104649Y-129837889D01*
X92105321Y-129839372D01*
X92105943Y-129840875D01*
X92109327Y-129851771D01*
X92114639Y-129861867D01*
X92114640Y-129861870D01*
X92150953Y-129930890D01*
X92153912Y-129936698D01*
X92174429Y-129978302D01*
X92193428Y-130016828D01*
X92200259Y-130025977D01*
X92201109Y-130027363D01*
X92201912Y-130028775D01*
X92202790Y-130030167D01*
X92203724Y-130031507D01*
X92204604Y-130032862D01*
X92209920Y-130042966D01*
X92265279Y-130113189D01*
X92269190Y-130118286D01*
X92322691Y-130189933D01*
X92331073Y-130197681D01*
X92383014Y-130245695D01*
X92390063Y-130252471D01*
X94837022Y-132699430D01*
X94890998Y-132780212D01*
X94909952Y-132875500D01*
X94890998Y-132970788D01*
X94837022Y-133051570D01*
X94756240Y-133105546D01*
X94660952Y-133124500D01*
X89490048Y-133124500D01*
X89394760Y-133105546D01*
X89313978Y-133051570D01*
X78748430Y-122486022D01*
X78694454Y-122405240D01*
X78675500Y-122309952D01*
X78675500Y-108742971D01*
X78694454Y-108647683D01*
X78748430Y-108566901D01*
X78829212Y-108512925D01*
X78924500Y-108493971D01*
X79019788Y-108512925D01*
X79057922Y-108532733D01*
X79192993Y-108618452D01*
X79200075Y-108621784D01*
X79200074Y-108621784D01*
X79470601Y-108749085D01*
X79470607Y-108749088D01*
X79477685Y-108752418D01*
X79485128Y-108754836D01*
X79485132Y-108754838D01*
X79769481Y-108847229D01*
X79769487Y-108847231D01*
X79776921Y-108849646D01*
X80085985Y-108908603D01*
X80166583Y-108913674D01*
X80317531Y-108923171D01*
X80317546Y-108923171D01*
X80321417Y-108923415D01*
X80478583Y-108923415D01*
X80482454Y-108923171D01*
X80482469Y-108923171D01*
X80633417Y-108913674D01*
X80714015Y-108908603D01*
X81023079Y-108849646D01*
X81030513Y-108847231D01*
X81030519Y-108847229D01*
X81314868Y-108754838D01*
X81314872Y-108754836D01*
X81322315Y-108752418D01*
X81329393Y-108749088D01*
X81329399Y-108749085D01*
X81599926Y-108621784D01*
X81599925Y-108621784D01*
X81607007Y-108618452D01*
X81872663Y-108449862D01*
X82115094Y-108249305D01*
X82142781Y-108219822D01*
X82182477Y-108177550D01*
X82330478Y-108019945D01*
X82442331Y-107865993D01*
X82510815Y-107771732D01*
X82510816Y-107771730D01*
X82515416Y-107765399D01*
X82519186Y-107758542D01*
X82663226Y-107496536D01*
X82663229Y-107496529D01*
X82666994Y-107489681D01*
X82710794Y-107379055D01*
X82779934Y-107204427D01*
X82779935Y-107204425D01*
X82782819Y-107197140D01*
X82798860Y-107134667D01*
X82859118Y-106899974D01*
X82861066Y-106892388D01*
X82899410Y-106588865D01*
X83447823Y-106588865D01*
X83448275Y-106594478D01*
X83448275Y-106594489D01*
X83477566Y-106958540D01*
X83482421Y-107018884D01*
X83483381Y-107024441D01*
X83544634Y-107379055D01*
X83555851Y-107443997D01*
X83667508Y-107860706D01*
X83816472Y-108265580D01*
X83818900Y-108270694D01*
X83818902Y-108270698D01*
X83985611Y-108621784D01*
X84001519Y-108655287D01*
X84221124Y-109026619D01*
X84224421Y-109031190D01*
X84438856Y-109328511D01*
X84473480Y-109376519D01*
X84477179Y-109380775D01*
X84477186Y-109380783D01*
X84624894Y-109550701D01*
X84756509Y-109702107D01*
X85067883Y-110000704D01*
X85405038Y-110269851D01*
X85765198Y-110507333D01*
X85770175Y-110510002D01*
X85770179Y-110510004D01*
X86140425Y-110708528D01*
X86140435Y-110708533D01*
X86145400Y-110711195D01*
X86542514Y-110879760D01*
X86547886Y-110881485D01*
X86547892Y-110881487D01*
X86851594Y-110978995D01*
X86953271Y-111011640D01*
X87134253Y-111052094D01*
X87368772Y-111104516D01*
X87368781Y-111104518D01*
X87374290Y-111105749D01*
X87497652Y-111121771D01*
X87796499Y-111160584D01*
X87796504Y-111160584D01*
X87802106Y-111161312D01*
X88017651Y-111169593D01*
X88227543Y-111177656D01*
X88227547Y-111177656D01*
X88233196Y-111177873D01*
X88432642Y-111167421D01*
X88658373Y-111155591D01*
X88658381Y-111155590D01*
X88664014Y-111155295D01*
X89091012Y-111093764D01*
X89510676Y-110993785D01*
X89919552Y-110856184D01*
X89924709Y-110853910D01*
X89924718Y-110853906D01*
X90309099Y-110684373D01*
X90314273Y-110682091D01*
X90624727Y-110510004D01*
X90686642Y-110475684D01*
X90686645Y-110475682D01*
X90691592Y-110472940D01*
X91048402Y-110230452D01*
X91381766Y-109956624D01*
X91688940Y-109653709D01*
X91967396Y-109324200D01*
X92214842Y-108970811D01*
X92429241Y-108596449D01*
X92572143Y-108284324D01*
X92606473Y-108209341D01*
X92606474Y-108209339D01*
X92608828Y-108204197D01*
X92673714Y-108019945D01*
X92750249Y-107802610D01*
X92752125Y-107797283D01*
X92758591Y-107771732D01*
X92856565Y-107384541D01*
X92856566Y-107384537D01*
X92857953Y-107379055D01*
X92925440Y-106952958D01*
X92954031Y-106522498D01*
X92955074Y-106422915D01*
X92935504Y-105991950D01*
X92929190Y-105945856D01*
X92877724Y-105570146D01*
X92877724Y-105570144D01*
X92876955Y-105564533D01*
X92850711Y-105450859D01*
X92781180Y-105149685D01*
X92781178Y-105149679D01*
X92779909Y-105144181D01*
X92688217Y-104865298D01*
X92646931Y-104739725D01*
X92646928Y-104739717D01*
X92645165Y-104734355D01*
X92473832Y-104338428D01*
X92348287Y-104108162D01*
X92270025Y-103964618D01*
X92270018Y-103964606D01*
X92267320Y-103959658D01*
X92253286Y-103938693D01*
X92030478Y-103605867D01*
X92027330Y-103601164D01*
X91755835Y-103265897D01*
X91455072Y-102956615D01*
X91127516Y-102675866D01*
X91122917Y-102672597D01*
X91122911Y-102672593D01*
X90780470Y-102429233D01*
X90775863Y-102425959D01*
X90403007Y-102208951D01*
X90012018Y-102026630D01*
X90006709Y-102024719D01*
X90006705Y-102024717D01*
X89750103Y-101932335D01*
X89606114Y-101880496D01*
X89600649Y-101879072D01*
X89600641Y-101879070D01*
X89194107Y-101773176D01*
X89194100Y-101773174D01*
X89188635Y-101771751D01*
X88763020Y-101701291D01*
X88680359Y-101695221D01*
X88338413Y-101670109D01*
X88338403Y-101670109D01*
X88332769Y-101669695D01*
X88155187Y-101672795D01*
X87907075Y-101677125D01*
X87907066Y-101677126D01*
X87901426Y-101677224D01*
X87472541Y-101723816D01*
X87467020Y-101724929D01*
X87467015Y-101724930D01*
X87324740Y-101753618D01*
X87049643Y-101809087D01*
X87044229Y-101810701D01*
X87044225Y-101810702D01*
X86641641Y-101930717D01*
X86641632Y-101930720D01*
X86636215Y-101932335D01*
X86630969Y-101934433D01*
X86630964Y-101934435D01*
X86240905Y-102090448D01*
X86240899Y-102090451D01*
X86235658Y-102092547D01*
X86230629Y-102095109D01*
X86230621Y-102095113D01*
X85856298Y-102285840D01*
X85851270Y-102288402D01*
X85846497Y-102291408D01*
X85846493Y-102291410D01*
X85575608Y-102461996D01*
X85486215Y-102518290D01*
X85481716Y-102521730D01*
X85147998Y-102776875D01*
X85147988Y-102776883D01*
X85143497Y-102780317D01*
X84825939Y-103072327D01*
X84536153Y-103391917D01*
X84276524Y-103736455D01*
X84273545Y-103741259D01*
X84273542Y-103741264D01*
X84202670Y-103855569D01*
X84049191Y-104103106D01*
X84046660Y-104108159D01*
X84046659Y-104108162D01*
X83953094Y-104295008D01*
X83856024Y-104488852D01*
X83853963Y-104494111D01*
X83708497Y-104865298D01*
X83698613Y-104890518D01*
X83578254Y-105304797D01*
X83577177Y-105310339D01*
X83577176Y-105310342D01*
X83568272Y-105356149D01*
X83495937Y-105728279D01*
X83495366Y-105733902D01*
X83458937Y-106092539D01*
X83452340Y-106157480D01*
X83452281Y-106163143D01*
X83449862Y-106394118D01*
X83448958Y-106480507D01*
X83447823Y-106588865D01*
X82899410Y-106588865D01*
X82900500Y-106580233D01*
X82900500Y-106265597D01*
X82861066Y-105953442D01*
X82833756Y-105847077D01*
X82784768Y-105656279D01*
X82784766Y-105656272D01*
X82782819Y-105648690D01*
X82666994Y-105356149D01*
X82663229Y-105349301D01*
X82663226Y-105349294D01*
X82519186Y-105087288D01*
X82519184Y-105087284D01*
X82515416Y-105080431D01*
X82381384Y-104895951D01*
X82335081Y-104832220D01*
X82335078Y-104832216D01*
X82330478Y-104825885D01*
X82115094Y-104596525D01*
X81872663Y-104395968D01*
X81607007Y-104227378D01*
X81566152Y-104208153D01*
X81329399Y-104096745D01*
X81329393Y-104096742D01*
X81322315Y-104093412D01*
X81314872Y-104090994D01*
X81314868Y-104090992D01*
X81030519Y-103998601D01*
X81030513Y-103998599D01*
X81023079Y-103996184D01*
X80714015Y-103937227D01*
X80633417Y-103932156D01*
X80482469Y-103922659D01*
X80482454Y-103922659D01*
X80478583Y-103922415D01*
X80321417Y-103922415D01*
X80317546Y-103922659D01*
X80317531Y-103922659D01*
X80166583Y-103932156D01*
X80085985Y-103937227D01*
X79776921Y-103996184D01*
X79769487Y-103998599D01*
X79769481Y-103998601D01*
X79485132Y-104090992D01*
X79485128Y-104090994D01*
X79477685Y-104093412D01*
X79470607Y-104096742D01*
X79470601Y-104096745D01*
X79233848Y-104208153D01*
X79192993Y-104227378D01*
X79178966Y-104236280D01*
X79057921Y-104313097D01*
X78967310Y-104348151D01*
X78870182Y-104345862D01*
X78781323Y-104306578D01*
X78714262Y-104236280D01*
X78679208Y-104145669D01*
X78675500Y-104102859D01*
X78675500Y-68242971D01*
X78694454Y-68147683D01*
X78748430Y-68066901D01*
X78829212Y-68012925D01*
X78924500Y-67993971D01*
X79019788Y-68012925D01*
X79057922Y-68032733D01*
X79192993Y-68118452D01*
X79200075Y-68121784D01*
X79200074Y-68121784D01*
X79470601Y-68249085D01*
X79470607Y-68249088D01*
X79477685Y-68252418D01*
X79485128Y-68254836D01*
X79485132Y-68254838D01*
X79769481Y-68347229D01*
X79769487Y-68347231D01*
X79776921Y-68349646D01*
X80085985Y-68408603D01*
X80166583Y-68413674D01*
X80317531Y-68423171D01*
X80317546Y-68423171D01*
X80321417Y-68423415D01*
X80478583Y-68423415D01*
X80482454Y-68423171D01*
X80482469Y-68423171D01*
X80633417Y-68413674D01*
X80714015Y-68408603D01*
X81023079Y-68349646D01*
X81030513Y-68347231D01*
X81030519Y-68347229D01*
X81314868Y-68254838D01*
X81314872Y-68254836D01*
X81322315Y-68252418D01*
X81329393Y-68249088D01*
X81329399Y-68249085D01*
X81599926Y-68121784D01*
X81599925Y-68121784D01*
X81607007Y-68118452D01*
X81872663Y-67949862D01*
X82115094Y-67749305D01*
X82142781Y-67719822D01*
X82182477Y-67677550D01*
X82330478Y-67519945D01*
X82384080Y-67446169D01*
X82510815Y-67271732D01*
X82510816Y-67271730D01*
X82515416Y-67265399D01*
X82519186Y-67258542D01*
X82663226Y-66996536D01*
X82663229Y-66996529D01*
X82666994Y-66989681D01*
X82711691Y-66876790D01*
X82779934Y-66704427D01*
X82779935Y-66704425D01*
X82782819Y-66697140D01*
X82787581Y-66678596D01*
X82859118Y-66399974D01*
X82861066Y-66392388D01*
X82899410Y-66088865D01*
X83447823Y-66088865D01*
X83448275Y-66094478D01*
X83448275Y-66094489D01*
X83481678Y-66509652D01*
X83482421Y-66518884D01*
X83483381Y-66524441D01*
X83552874Y-66926760D01*
X83555851Y-66943997D01*
X83667508Y-67360706D01*
X83816472Y-67765580D01*
X83818900Y-67770694D01*
X83818902Y-67770698D01*
X83985611Y-68121784D01*
X84001519Y-68155287D01*
X84221124Y-68526619D01*
X84224421Y-68531190D01*
X84438856Y-68828511D01*
X84473480Y-68876519D01*
X84477179Y-68880775D01*
X84477186Y-68880783D01*
X84542840Y-68956309D01*
X84756509Y-69202107D01*
X85067883Y-69500704D01*
X85405038Y-69769851D01*
X85765198Y-70007333D01*
X85770175Y-70010002D01*
X85770179Y-70010004D01*
X86140425Y-70208528D01*
X86140435Y-70208533D01*
X86145400Y-70211195D01*
X86542514Y-70379760D01*
X86547886Y-70381485D01*
X86547892Y-70381487D01*
X86851594Y-70478995D01*
X86953271Y-70511640D01*
X87134253Y-70552094D01*
X87368772Y-70604516D01*
X87368781Y-70604518D01*
X87374290Y-70605749D01*
X87483009Y-70619869D01*
X87796499Y-70660584D01*
X87796504Y-70660584D01*
X87802106Y-70661312D01*
X88017651Y-70669593D01*
X88227543Y-70677656D01*
X88227547Y-70677656D01*
X88233196Y-70677873D01*
X88432642Y-70667421D01*
X88658373Y-70655591D01*
X88658381Y-70655590D01*
X88664014Y-70655295D01*
X89091012Y-70593764D01*
X89510676Y-70493785D01*
X89919552Y-70356184D01*
X89924709Y-70353910D01*
X89924718Y-70353906D01*
X90309099Y-70184373D01*
X90314273Y-70182091D01*
X90624727Y-70010004D01*
X90686642Y-69975684D01*
X90686645Y-69975682D01*
X90691592Y-69972940D01*
X91048402Y-69730452D01*
X91381766Y-69456624D01*
X91688940Y-69153709D01*
X91967396Y-68824200D01*
X92214842Y-68470811D01*
X92429241Y-68096449D01*
X92572143Y-67784324D01*
X92606473Y-67709341D01*
X92606474Y-67709339D01*
X92608828Y-67704197D01*
X92673714Y-67519945D01*
X92750249Y-67302610D01*
X92752125Y-67297283D01*
X92758591Y-67271732D01*
X92856565Y-66884541D01*
X92856566Y-66884537D01*
X92857953Y-66879055D01*
X92925440Y-66452958D01*
X92954031Y-66022498D01*
X92955074Y-65922915D01*
X92935504Y-65491950D01*
X92929190Y-65445856D01*
X92877724Y-65070146D01*
X92877724Y-65070144D01*
X92876955Y-65064533D01*
X92850711Y-64950859D01*
X92781180Y-64649685D01*
X92781178Y-64649679D01*
X92779909Y-64644181D01*
X92692147Y-64377251D01*
X92646931Y-64239725D01*
X92646928Y-64239717D01*
X92645165Y-64234355D01*
X92473832Y-63838428D01*
X92347061Y-63605913D01*
X92270025Y-63464618D01*
X92270018Y-63464606D01*
X92267320Y-63459658D01*
X92253286Y-63438693D01*
X92030478Y-63105867D01*
X92027330Y-63101164D01*
X91755835Y-62765897D01*
X91455072Y-62456615D01*
X91127516Y-62175866D01*
X91122917Y-62172597D01*
X91122911Y-62172593D01*
X90780470Y-61929233D01*
X90775863Y-61925959D01*
X90403007Y-61708951D01*
X90012018Y-61526630D01*
X90006709Y-61524719D01*
X90006705Y-61524717D01*
X89750103Y-61432335D01*
X89606114Y-61380496D01*
X89600649Y-61379072D01*
X89600641Y-61379070D01*
X89194107Y-61273176D01*
X89194100Y-61273174D01*
X89188635Y-61271751D01*
X88763020Y-61201291D01*
X88680359Y-61195221D01*
X88338413Y-61170109D01*
X88338403Y-61170109D01*
X88332769Y-61169695D01*
X88155187Y-61172795D01*
X87907075Y-61177125D01*
X87907066Y-61177126D01*
X87901426Y-61177224D01*
X87472541Y-61223816D01*
X87467020Y-61224929D01*
X87467015Y-61224930D01*
X87359847Y-61246539D01*
X87049643Y-61309087D01*
X87044229Y-61310701D01*
X87044225Y-61310702D01*
X86641641Y-61430717D01*
X86641632Y-61430720D01*
X86636215Y-61432335D01*
X86630969Y-61434433D01*
X86630964Y-61434435D01*
X86240905Y-61590448D01*
X86240899Y-61590451D01*
X86235658Y-61592547D01*
X86230629Y-61595109D01*
X86230621Y-61595113D01*
X86001616Y-61711797D01*
X85851270Y-61788402D01*
X85846497Y-61791408D01*
X85846493Y-61791410D01*
X85491004Y-62015274D01*
X85486215Y-62018290D01*
X85481716Y-62021730D01*
X85147998Y-62276875D01*
X85147988Y-62276883D01*
X85143497Y-62280317D01*
X84825939Y-62572327D01*
X84536153Y-62891917D01*
X84276524Y-63236455D01*
X84273545Y-63241259D01*
X84273542Y-63241264D01*
X84202670Y-63355569D01*
X84049191Y-63603106D01*
X84046660Y-63608159D01*
X84046659Y-63608162D01*
X83969808Y-63761630D01*
X83856024Y-63988852D01*
X83853963Y-63994111D01*
X83707176Y-64368669D01*
X83698613Y-64390518D01*
X83578254Y-64804797D01*
X83577177Y-64810339D01*
X83577176Y-64810342D01*
X83568272Y-64856149D01*
X83495937Y-65228279D01*
X83495366Y-65233902D01*
X83458937Y-65592539D01*
X83452340Y-65657480D01*
X83452281Y-65663143D01*
X83449862Y-65894118D01*
X83448958Y-65980507D01*
X83447823Y-66088865D01*
X82899410Y-66088865D01*
X82900500Y-66080233D01*
X82900500Y-65765597D01*
X82861066Y-65453442D01*
X82833756Y-65347077D01*
X82784768Y-65156279D01*
X82784766Y-65156272D01*
X82782819Y-65148690D01*
X82666994Y-64856149D01*
X82663229Y-64849301D01*
X82663226Y-64849294D01*
X82519186Y-64587288D01*
X82519184Y-64587284D01*
X82515416Y-64580431D01*
X82510815Y-64574098D01*
X82335081Y-64332220D01*
X82335078Y-64332216D01*
X82330478Y-64325885D01*
X82162049Y-64146527D01*
X82120447Y-64102225D01*
X82120444Y-64102222D01*
X82115094Y-64096525D01*
X81872663Y-63895968D01*
X81607007Y-63727378D01*
X81566152Y-63708153D01*
X81329399Y-63596745D01*
X81329393Y-63596742D01*
X81322315Y-63593412D01*
X81314872Y-63590994D01*
X81314868Y-63590992D01*
X81030519Y-63498601D01*
X81030513Y-63498599D01*
X81023079Y-63496184D01*
X80714015Y-63437227D01*
X80633417Y-63432156D01*
X80482469Y-63422659D01*
X80482454Y-63422659D01*
X80478583Y-63422415D01*
X80321417Y-63422415D01*
X80317546Y-63422659D01*
X80317531Y-63422659D01*
X80166583Y-63432156D01*
X80085985Y-63437227D01*
X79776921Y-63496184D01*
X79769487Y-63498599D01*
X79769481Y-63498601D01*
X79485132Y-63590992D01*
X79485128Y-63590994D01*
X79477685Y-63593412D01*
X79470607Y-63596742D01*
X79470601Y-63596745D01*
X79233848Y-63708153D01*
X79192993Y-63727378D01*
X79106005Y-63782582D01*
X79057921Y-63813097D01*
X78967310Y-63848151D01*
X78870182Y-63845862D01*
X78781323Y-63806578D01*
X78714262Y-63736280D01*
X78679208Y-63645669D01*
X78675500Y-63602859D01*
X78675500Y-62690048D01*
X78694454Y-62594760D01*
X78748430Y-62513978D01*
X91113978Y-50148430D01*
X91194760Y-50094454D01*
X91290048Y-50075500D01*
X159709952Y-50075500D01*
X159805240Y-50094454D01*
X159886022Y-50148430D01*
X165799924Y-56062332D01*
X165811062Y-56074225D01*
X165852373Y-56121331D01*
X165906539Y-56164032D01*
X165922554Y-56176657D01*
X165927621Y-56180760D01*
X165987552Y-56230605D01*
X165987555Y-56230607D01*
X165996337Y-56237911D01*
X166006309Y-56243495D01*
X166007624Y-56244399D01*
X166008951Y-56245377D01*
X166010321Y-56246292D01*
X166011716Y-56247135D01*
X166013072Y-56248015D01*
X166022034Y-56255081D01*
X166032135Y-56260396D01*
X166032136Y-56260396D01*
X166101135Y-56296698D01*
X166106863Y-56299808D01*
X166174872Y-56337895D01*
X166174875Y-56337896D01*
X166184833Y-56343473D01*
X166195642Y-56347142D01*
X166197107Y-56347794D01*
X166198570Y-56348504D01*
X166200127Y-56349172D01*
X166201638Y-56349741D01*
X166203123Y-56350356D01*
X166213228Y-56355673D01*
X166224131Y-56359058D01*
X166224135Y-56359060D01*
X166298610Y-56382185D01*
X166304811Y-56384200D01*
X166378592Y-56409246D01*
X166378601Y-56409248D01*
X166389409Y-56412917D01*
X166400708Y-56414555D01*
X166402282Y-56414933D01*
X166403859Y-56415367D01*
X166405465Y-56415730D01*
X166407077Y-56416018D01*
X166408650Y-56416352D01*
X166419553Y-56419738D01*
X166430886Y-56421079D01*
X166430889Y-56421080D01*
X166481386Y-56427056D01*
X166508309Y-56430243D01*
X166514747Y-56431090D01*
X166603216Y-56443918D01*
X166614623Y-56443470D01*
X166614627Y-56443470D01*
X166685320Y-56440692D01*
X166695096Y-56440500D01*
X170889475Y-56440500D01*
X170984763Y-56459454D01*
X171072319Y-56520477D01*
X171195695Y-56653944D01*
X171291244Y-56731733D01*
X171397582Y-56818307D01*
X171397588Y-56818311D01*
X171404411Y-56823866D01*
X171411948Y-56828404D01*
X171411950Y-56828405D01*
X171570506Y-56923863D01*
X171634987Y-56962684D01*
X171882822Y-57067628D01*
X171891329Y-57069884D01*
X171891333Y-57069885D01*
X172025036Y-57105336D01*
X172142972Y-57136606D01*
X172410245Y-57168240D01*
X172679310Y-57161899D01*
X172687990Y-57160454D01*
X172687993Y-57160454D01*
X172936108Y-57119156D01*
X172936107Y-57119156D01*
X172944796Y-57117710D01*
X172953192Y-57115055D01*
X172953195Y-57115054D01*
X173193019Y-57039207D01*
X173201408Y-57036554D01*
X173444025Y-56920051D01*
X173667806Y-56770526D01*
X173674361Y-56764655D01*
X173861731Y-56596833D01*
X173861737Y-56596827D01*
X173868286Y-56590961D01*
X173978830Y-56459454D01*
X174035797Y-56391683D01*
X174035798Y-56391682D01*
X174041465Y-56384940D01*
X174046120Y-56377476D01*
X174046125Y-56377469D01*
X174179235Y-56164032D01*
X174179237Y-56164027D01*
X174183887Y-56156572D01*
X174292712Y-55910416D01*
X174365767Y-55651382D01*
X174401595Y-55384638D01*
X174405355Y-55265000D01*
X174386347Y-54996533D01*
X174329700Y-54733423D01*
X174236547Y-54480919D01*
X174232372Y-54473182D01*
X174232366Y-54473168D01*
X174218204Y-54446921D01*
X174189637Y-54354061D01*
X174198780Y-54257337D01*
X174229461Y-54191616D01*
X174231600Y-54188371D01*
X174239573Y-54178596D01*
X174333741Y-53998470D01*
X174389766Y-53803087D01*
X174400500Y-53682816D01*
X174400500Y-51767184D01*
X174398249Y-51741954D01*
X174390820Y-51658721D01*
X174390820Y-51658719D01*
X174389766Y-51646913D01*
X174333741Y-51451530D01*
X174239573Y-51271404D01*
X174111109Y-51113891D01*
X174101327Y-51105913D01*
X173963370Y-50993398D01*
X173963367Y-50993396D01*
X173953596Y-50985427D01*
X173773470Y-50891259D01*
X173578087Y-50835234D01*
X173566281Y-50834180D01*
X173566279Y-50834180D01*
X173463332Y-50824992D01*
X173463325Y-50824992D01*
X173457816Y-50824500D01*
X171542184Y-50824500D01*
X171536675Y-50824992D01*
X171536668Y-50824992D01*
X171433721Y-50834180D01*
X171433719Y-50834180D01*
X171421913Y-50835234D01*
X171226530Y-50891259D01*
X171046404Y-50985427D01*
X171036633Y-50993396D01*
X171036630Y-50993398D01*
X170898673Y-51105913D01*
X170888891Y-51113891D01*
X170760427Y-51271404D01*
X170684906Y-51415862D01*
X170623962Y-51491525D01*
X170538702Y-51538106D01*
X170464242Y-51549500D01*
X166915048Y-51549500D01*
X166819760Y-51530546D01*
X166738978Y-51476570D01*
X161865076Y-46602668D01*
X161853938Y-46590775D01*
X161820153Y-46552251D01*
X161812627Y-46543669D01*
X161742446Y-46488343D01*
X161737379Y-46484240D01*
X161684717Y-46440441D01*
X161623575Y-46364937D01*
X161595982Y-46271783D01*
X161606138Y-46175160D01*
X161652497Y-46089779D01*
X161728001Y-46028637D01*
X161821155Y-46001044D01*
X161843938Y-46000000D01*
X211929783Y-46000000D01*
X211957538Y-46001552D01*
G37*
%TD.AperFunction*%
%TA.AperFunction,Conductor*%
G36*
X188405240Y-72994454D02*
G01*
X188486022Y-73048430D01*
X188512522Y-73074930D01*
X188566498Y-73155712D01*
X188585452Y-73251000D01*
X188566498Y-73346288D01*
X188512522Y-73427070D01*
X188431740Y-73481046D01*
X188336452Y-73500000D01*
X178551362Y-73500000D01*
X178508055Y-73502322D01*
X178447795Y-73505552D01*
X178447789Y-73505552D01*
X178444459Y-73505731D01*
X178441150Y-73506087D01*
X178441135Y-73506088D01*
X178432094Y-73507061D01*
X178418101Y-73508565D01*
X178412317Y-73509750D01*
X178412318Y-73509750D01*
X178244224Y-73544193D01*
X178244222Y-73544194D01*
X178232239Y-73546649D01*
X178220963Y-73551396D01*
X178051563Y-73622710D01*
X178051555Y-73622714D01*
X178045754Y-73625156D01*
X178040224Y-73628175D01*
X178040219Y-73628178D01*
X178024889Y-73636549D01*
X177984431Y-73658641D01*
X177913388Y-73701347D01*
X177906497Y-73706966D01*
X177906494Y-73706968D01*
X177761457Y-73825230D01*
X177761452Y-73825234D01*
X177756574Y-73829212D01*
X174329212Y-77256574D01*
X174257676Y-77336214D01*
X174247146Y-77349281D01*
X174247004Y-77349166D01*
X174246990Y-77349185D01*
X174247131Y-77349299D01*
X174241027Y-77356874D01*
X174136549Y-77515206D01*
X174060194Y-77702583D01*
X174040509Y-77769622D01*
X174020470Y-77850063D01*
X174000000Y-78051362D01*
X174000000Y-94434249D01*
X173981046Y-94529537D01*
X173927070Y-94610319D01*
X173846288Y-94664295D01*
X173831247Y-94669964D01*
X173824696Y-94672194D01*
X173814783Y-94674684D01*
X173805409Y-94678760D01*
X173805406Y-94678761D01*
X173749266Y-94703172D01*
X173735547Y-94708660D01*
X173678048Y-94729701D01*
X173678043Y-94729703D01*
X173668455Y-94733212D01*
X173640888Y-94748809D01*
X173617567Y-94760436D01*
X173597884Y-94768994D01*
X173597877Y-94768998D01*
X173588507Y-94773072D01*
X173579926Y-94778623D01*
X173579921Y-94778626D01*
X173528535Y-94811870D01*
X173515894Y-94819526D01*
X173462601Y-94849677D01*
X173462598Y-94849679D01*
X173453702Y-94854712D01*
X173445747Y-94861131D01*
X173429042Y-94874610D01*
X173407940Y-94889886D01*
X173381339Y-94907095D01*
X173328499Y-94955176D01*
X173317309Y-94964768D01*
X173296055Y-94981917D01*
X173269327Y-95008645D01*
X173260837Y-95016743D01*
X173206397Y-95066279D01*
X173206394Y-95066282D01*
X173198842Y-95073154D01*
X173192513Y-95081167D01*
X173192510Y-95081171D01*
X173185428Y-95090139D01*
X173166089Y-95111883D01*
X172626982Y-95650991D01*
X172615777Y-95660709D01*
X172616179Y-95661161D01*
X172608533Y-95667950D01*
X172600364Y-95674083D01*
X172593305Y-95681470D01*
X172526424Y-95751457D01*
X172522475Y-95755498D01*
X172494754Y-95783219D01*
X172491459Y-95787104D01*
X172491450Y-95787114D01*
X172489140Y-95789838D01*
X172479274Y-95800797D01*
X172429896Y-95852468D01*
X172412037Y-95878648D01*
X172396252Y-95899369D01*
X172375761Y-95923531D01*
X172339062Y-95984849D01*
X172331126Y-95997258D01*
X172290851Y-96056300D01*
X172277513Y-96085035D01*
X172265317Y-96108067D01*
X172255097Y-96125145D01*
X172249049Y-96135250D01*
X172222859Y-96201738D01*
X172217046Y-96215299D01*
X172186965Y-96280104D01*
X172184235Y-96289948D01*
X172184232Y-96289956D01*
X172178498Y-96310633D01*
X172170233Y-96335337D01*
X172158619Y-96364822D01*
X172156478Y-96374811D01*
X172156475Y-96374819D01*
X172143639Y-96434690D01*
X172140116Y-96449033D01*
X172121026Y-96517871D01*
X172119941Y-96528026D01*
X172119940Y-96528030D01*
X172117660Y-96549367D01*
X172113538Y-96575103D01*
X172106897Y-96606080D01*
X172106416Y-96616284D01*
X172103532Y-96677441D01*
X172102398Y-96692175D01*
X172099500Y-96719292D01*
X172099500Y-96757058D01*
X172099224Y-96768786D01*
X172095274Y-96852547D01*
X172096466Y-96862692D01*
X172096466Y-96862698D01*
X172097799Y-96874042D01*
X172099500Y-96903093D01*
X172099500Y-109975332D01*
X172080546Y-110070620D01*
X172026570Y-110151402D01*
X170251403Y-111926570D01*
X170170621Y-111980546D01*
X170075333Y-111999500D01*
X161524443Y-111999500D01*
X161509649Y-111998448D01*
X161509613Y-111999053D01*
X161499412Y-111998447D01*
X161489294Y-111997007D01*
X161385198Y-111999369D01*
X161382260Y-111999436D01*
X161376611Y-111999500D01*
X161337446Y-111999500D01*
X161328797Y-112000211D01*
X161314068Y-112000983D01*
X161272317Y-112001931D01*
X161252830Y-112002373D01*
X161252827Y-112002373D01*
X161242618Y-112002605D01*
X161232580Y-112004502D01*
X161232577Y-112004502D01*
X161211485Y-112008487D01*
X161185662Y-112011978D01*
X161164285Y-112013736D01*
X161164277Y-112013737D01*
X161154089Y-112014575D01*
X161084790Y-112031981D01*
X161070375Y-112035151D01*
X161000167Y-112048417D01*
X160990571Y-112051929D01*
X160990570Y-112051929D01*
X160970426Y-112059301D01*
X160945517Y-112066964D01*
X160927825Y-112071408D01*
X160914783Y-112074684D01*
X160905409Y-112078760D01*
X160849266Y-112103172D01*
X160835547Y-112108660D01*
X160778048Y-112129701D01*
X160778043Y-112129703D01*
X160768455Y-112133212D01*
X160740888Y-112148809D01*
X160717567Y-112160436D01*
X160697884Y-112168994D01*
X160697877Y-112168998D01*
X160688507Y-112173072D01*
X160628524Y-112211877D01*
X160615885Y-112219531D01*
X160562597Y-112249680D01*
X160553703Y-112254712D01*
X160545754Y-112261126D01*
X160545748Y-112261130D01*
X160529040Y-112274611D01*
X160507936Y-112289888D01*
X160481339Y-112307095D01*
X160473783Y-112313971D01*
X160473781Y-112313972D01*
X160428509Y-112355167D01*
X160417303Y-112364772D01*
X160396055Y-112381917D01*
X160369326Y-112408646D01*
X160360836Y-112416744D01*
X160298842Y-112473154D01*
X160292506Y-112481177D01*
X160292504Y-112481179D01*
X160285431Y-112490135D01*
X160266092Y-112511880D01*
X156782517Y-115995456D01*
X153625570Y-119152403D01*
X153544788Y-119206379D01*
X153449500Y-119225333D01*
X153354212Y-119206379D01*
X153273430Y-119152403D01*
X153219454Y-119071621D01*
X153200500Y-118976333D01*
X153200500Y-92324443D01*
X153201551Y-92309650D01*
X153200947Y-92309614D01*
X153201553Y-92299411D01*
X153202993Y-92289294D01*
X153200564Y-92182278D01*
X153200500Y-92176629D01*
X153200500Y-92137446D01*
X153199788Y-92128790D01*
X153199015Y-92114040D01*
X153197626Y-92052838D01*
X153197394Y-92042617D01*
X153191514Y-92011498D01*
X153188021Y-91985667D01*
X153186262Y-91964271D01*
X153185425Y-91954089D01*
X153168013Y-91884768D01*
X153164854Y-91870400D01*
X153151583Y-91800167D01*
X153140699Y-91770426D01*
X153133036Y-91745517D01*
X153127806Y-91724697D01*
X153125316Y-91714783D01*
X153096828Y-91649266D01*
X153091340Y-91635547D01*
X153070299Y-91578048D01*
X153070297Y-91578043D01*
X153066788Y-91568455D01*
X153051191Y-91540888D01*
X153039564Y-91517567D01*
X153031006Y-91497884D01*
X153031002Y-91497877D01*
X153026928Y-91488507D01*
X153021377Y-91479926D01*
X153021374Y-91479921D01*
X152988130Y-91428535D01*
X152980474Y-91415894D01*
X152950323Y-91362601D01*
X152950321Y-91362598D01*
X152945288Y-91353702D01*
X152925390Y-91329042D01*
X152910114Y-91307940D01*
X152892905Y-91281339D01*
X152844824Y-91228499D01*
X152835232Y-91217309D01*
X152818083Y-91196055D01*
X152791355Y-91169327D01*
X152783257Y-91160837D01*
X152733723Y-91106400D01*
X152726846Y-91098842D01*
X152709858Y-91085426D01*
X152688120Y-91066093D01*
X150749005Y-89126978D01*
X150739291Y-89115778D01*
X150738839Y-89116179D01*
X150732050Y-89108533D01*
X150725917Y-89100364D01*
X150648543Y-89026424D01*
X150644502Y-89022475D01*
X150616781Y-88994754D01*
X150612896Y-88991459D01*
X150612886Y-88991450D01*
X150610162Y-88989140D01*
X150599203Y-88979274D01*
X150547532Y-88929896D01*
X150521351Y-88912037D01*
X150500631Y-88896252D01*
X150476469Y-88875761D01*
X150415151Y-88839062D01*
X150402742Y-88831126D01*
X150343700Y-88790851D01*
X150314959Y-88777510D01*
X150291933Y-88765317D01*
X150273522Y-88754299D01*
X150273523Y-88754299D01*
X150264750Y-88749049D01*
X150198262Y-88722859D01*
X150184700Y-88717046D01*
X150129170Y-88691270D01*
X150119896Y-88686965D01*
X150110052Y-88684235D01*
X150110044Y-88684232D01*
X150089367Y-88678498D01*
X150064663Y-88670233D01*
X150035178Y-88658619D01*
X150025189Y-88656478D01*
X150025181Y-88656475D01*
X149965310Y-88643639D01*
X149950967Y-88640116D01*
X149937244Y-88636310D01*
X149882129Y-88621026D01*
X149871974Y-88619941D01*
X149871970Y-88619940D01*
X149850633Y-88617660D01*
X149824897Y-88613538D01*
X149822421Y-88613007D01*
X149793920Y-88606897D01*
X149756147Y-88605116D01*
X149722559Y-88603532D01*
X149707825Y-88602398D01*
X149687295Y-88600204D01*
X149687294Y-88600204D01*
X149680708Y-88599500D01*
X149642942Y-88599500D01*
X149631213Y-88599224D01*
X149557656Y-88595755D01*
X149557654Y-88595755D01*
X149547453Y-88595274D01*
X149537308Y-88596466D01*
X149537302Y-88596466D01*
X149525958Y-88597799D01*
X149496907Y-88599500D01*
X141059500Y-88599500D01*
X140964212Y-88580546D01*
X140883430Y-88526570D01*
X140829454Y-88445788D01*
X140810500Y-88350500D01*
X140810500Y-85195362D01*
X140799051Y-85054598D01*
X140765152Y-84922569D01*
X140755871Y-84886424D01*
X140750532Y-84789416D01*
X140782723Y-84697749D01*
X140847543Y-84625379D01*
X140935124Y-84583323D01*
X140997048Y-84575500D01*
X149852079Y-84575500D01*
X149868365Y-84576033D01*
X149930903Y-84580132D01*
X149942240Y-84578790D01*
X149942244Y-84578790D01*
X150019659Y-84569627D01*
X150026143Y-84568946D01*
X150103753Y-84561815D01*
X150103765Y-84561813D01*
X150115136Y-84560768D01*
X150126134Y-84557666D01*
X150127700Y-84557376D01*
X150129342Y-84557127D01*
X150130930Y-84556811D01*
X150132517Y-84556419D01*
X150134105Y-84556081D01*
X150145447Y-84554739D01*
X150230792Y-84528239D01*
X150237039Y-84526388D01*
X150312086Y-84505222D01*
X150312088Y-84505221D01*
X150323066Y-84502125D01*
X150333298Y-84497079D01*
X150334820Y-84496495D01*
X150336363Y-84495960D01*
X150337889Y-84495351D01*
X150339372Y-84494679D01*
X150340875Y-84494057D01*
X150351771Y-84490673D01*
X150361867Y-84485361D01*
X150361870Y-84485360D01*
X150430890Y-84449047D01*
X150436698Y-84446088D01*
X150506586Y-84411623D01*
X150506588Y-84411622D01*
X150516828Y-84406572D01*
X150525977Y-84399741D01*
X150527363Y-84398891D01*
X150528775Y-84398088D01*
X150530167Y-84397210D01*
X150531507Y-84396276D01*
X150532862Y-84395396D01*
X150542966Y-84390080D01*
X150613189Y-84334721D01*
X150618286Y-84330810D01*
X150689933Y-84277309D01*
X150745696Y-84216985D01*
X150752471Y-84209937D01*
X157469959Y-77492450D01*
X157469964Y-77492444D01*
X161913978Y-73048430D01*
X161994760Y-72994454D01*
X162090048Y-72975500D01*
X188309952Y-72975500D01*
X188405240Y-72994454D01*
G37*
%TD.AperFunction*%
%TD*%
%TA.AperFunction,Conductor*%
%TO.N,GND*%
G36*
X190015677Y-74519685D02*
G01*
X190036319Y-74536319D01*
X191463681Y-75963681D01*
X191497166Y-76025004D01*
X191500000Y-76051362D01*
X191500000Y-77009031D01*
X191480315Y-77076070D01*
X191427511Y-77121825D01*
X191358353Y-77131769D01*
X191309832Y-77113902D01*
X191158982Y-77018724D01*
X191148904Y-77013589D01*
X190971686Y-76942886D01*
X190960829Y-76939670D01*
X190773708Y-76902450D01*
X190762433Y-76901264D01*
X190571664Y-76898766D01*
X190560373Y-76899655D01*
X190372331Y-76931967D01*
X190361399Y-76934896D01*
X190182388Y-77000936D01*
X190172175Y-77005808D01*
X190008205Y-77103360D01*
X189999445Y-77109725D01*
X189991268Y-77122616D01*
X189997008Y-77132225D01*
X190777102Y-77912319D01*
X190810587Y-77973642D01*
X190805603Y-78043334D01*
X190777102Y-78087681D01*
X189999310Y-78865473D01*
X189993214Y-78876638D01*
X190002939Y-78888929D01*
X190120798Y-78967680D01*
X190130756Y-78973087D01*
X190306051Y-79048399D01*
X190316823Y-79051899D01*
X190502910Y-79094007D01*
X190514140Y-79095485D01*
X190704787Y-79102976D01*
X190716090Y-79102384D01*
X190904915Y-79075006D01*
X190915928Y-79072361D01*
X191096588Y-79011036D01*
X191106944Y-79006425D01*
X191273404Y-78913202D01*
X191282735Y-78906790D01*
X191296709Y-78895167D01*
X191360838Y-78867433D01*
X191429782Y-78878773D01*
X191481650Y-78925586D01*
X191500000Y-78990503D01*
X191500000Y-120448638D01*
X191480315Y-120515677D01*
X191463681Y-120536319D01*
X188211819Y-123788181D01*
X188150496Y-123821666D01*
X188124138Y-123824500D01*
X182227698Y-123824500D01*
X182219264Y-123824213D01*
X182171842Y-123820980D01*
X182171840Y-123820980D01*
X182164387Y-123820472D01*
X182104468Y-123830929D01*
X182098059Y-123831875D01*
X182037687Y-123839181D01*
X182030689Y-123841825D01*
X182026119Y-123842948D01*
X182015195Y-123845936D01*
X182010692Y-123847295D01*
X182003325Y-123848581D01*
X181996479Y-123851586D01*
X181996470Y-123851589D01*
X181947624Y-123873032D01*
X181941643Y-123875473D01*
X181884745Y-123896973D01*
X181878589Y-123901204D01*
X181874445Y-123903370D01*
X181864491Y-123908910D01*
X181860458Y-123911295D01*
X181853618Y-123914298D01*
X181847690Y-123918847D01*
X181805368Y-123951321D01*
X181800117Y-123955136D01*
X181766572Y-123978191D01*
X181696337Y-124000000D01*
X171000000Y-124000000D01*
X170000000Y-125000000D01*
X170000000Y-126016783D01*
X169980315Y-126083822D01*
X169927511Y-126129577D01*
X169858353Y-126139521D01*
X169791829Y-126107840D01*
X169769923Y-126087590D01*
X169760943Y-126080700D01*
X169591813Y-125973987D01*
X169581722Y-125968846D01*
X169395983Y-125894743D01*
X169385111Y-125891522D01*
X169230166Y-125860703D01*
X169217494Y-125861836D01*
X169212678Y-125876749D01*
X169212678Y-128122529D01*
X169216581Y-128135823D01*
X169230358Y-128137795D01*
X169326664Y-128123832D01*
X169337677Y-128121187D01*
X169527039Y-128056908D01*
X169537391Y-128052299D01*
X169711873Y-127954585D01*
X169721207Y-127948170D01*
X169796709Y-127885375D01*
X169860839Y-127857641D01*
X169929782Y-127868982D01*
X169981650Y-127915795D01*
X170000000Y-127980711D01*
X170000000Y-128948638D01*
X169980315Y-129015677D01*
X169963681Y-129036319D01*
X169036319Y-129963681D01*
X168974996Y-129997166D01*
X168948638Y-130000000D01*
X157051362Y-130000000D01*
X156984323Y-129980315D01*
X156963681Y-129963681D01*
X156036319Y-129036319D01*
X156002834Y-128974996D01*
X156000000Y-128948638D01*
X156000000Y-127165352D01*
X157760966Y-127165352D01*
X157761599Y-127175005D01*
X157763368Y-127186173D01*
X157812599Y-127380022D01*
X157816372Y-127390677D01*
X157900104Y-127572305D01*
X157905760Y-127582101D01*
X158021186Y-127745426D01*
X158028537Y-127754032D01*
X158171785Y-127893579D01*
X158180586Y-127900706D01*
X158346864Y-128011809D01*
X158356822Y-128017216D01*
X158540563Y-128096157D01*
X158551327Y-128099655D01*
X158741554Y-128142698D01*
X158750021Y-128140565D01*
X158750381Y-128140180D01*
X158752678Y-128130526D01*
X158752678Y-128122529D01*
X159052678Y-128122529D01*
X159056581Y-128135823D01*
X159070358Y-128137795D01*
X159166664Y-128123832D01*
X159177677Y-128121187D01*
X159367039Y-128056908D01*
X159377391Y-128052299D01*
X159551873Y-127954585D01*
X159561213Y-127948165D01*
X159714962Y-127820294D01*
X159722972Y-127812284D01*
X159850843Y-127658535D01*
X159857263Y-127649195D01*
X159954977Y-127474713D01*
X159959586Y-127464361D01*
X160023865Y-127274999D01*
X160026510Y-127263986D01*
X160040479Y-127167644D01*
X160040152Y-127165352D01*
X160300966Y-127165352D01*
X160301599Y-127175005D01*
X160303368Y-127186173D01*
X160352599Y-127380022D01*
X160356372Y-127390677D01*
X160440104Y-127572305D01*
X160445760Y-127582101D01*
X160561186Y-127745426D01*
X160568537Y-127754032D01*
X160711785Y-127893579D01*
X160720586Y-127900706D01*
X160886864Y-128011809D01*
X160896822Y-128017216D01*
X161080563Y-128096157D01*
X161091327Y-128099655D01*
X161281554Y-128142698D01*
X161290021Y-128140565D01*
X161290381Y-128140180D01*
X161292678Y-128130526D01*
X161292678Y-128122529D01*
X161592678Y-128122529D01*
X161596581Y-128135823D01*
X161610358Y-128137795D01*
X161706664Y-128123832D01*
X161717677Y-128121187D01*
X161907039Y-128056908D01*
X161917391Y-128052299D01*
X162091873Y-127954585D01*
X162101213Y-127948165D01*
X162254962Y-127820294D01*
X162262972Y-127812284D01*
X162390843Y-127658535D01*
X162397263Y-127649195D01*
X162494977Y-127474713D01*
X162499586Y-127464361D01*
X162563865Y-127274999D01*
X162566510Y-127263986D01*
X162580479Y-127167644D01*
X162580152Y-127165352D01*
X162840966Y-127165352D01*
X162841599Y-127175005D01*
X162843368Y-127186173D01*
X162892599Y-127380022D01*
X162896372Y-127390677D01*
X162980104Y-127572305D01*
X162985760Y-127582101D01*
X163101186Y-127745426D01*
X163108537Y-127754032D01*
X163251785Y-127893579D01*
X163260586Y-127900706D01*
X163426864Y-128011809D01*
X163436822Y-128017216D01*
X163620563Y-128096157D01*
X163631327Y-128099655D01*
X163821554Y-128142698D01*
X163830021Y-128140565D01*
X163830381Y-128140180D01*
X163832678Y-128130526D01*
X163832678Y-128122529D01*
X164132678Y-128122529D01*
X164136581Y-128135823D01*
X164150358Y-128137795D01*
X164246664Y-128123832D01*
X164257677Y-128121187D01*
X164447039Y-128056908D01*
X164457391Y-128052299D01*
X164631873Y-127954585D01*
X164641213Y-127948165D01*
X164794962Y-127820294D01*
X164802972Y-127812284D01*
X164930843Y-127658535D01*
X164937263Y-127649195D01*
X165034977Y-127474713D01*
X165039586Y-127464361D01*
X165103865Y-127274999D01*
X165106510Y-127263986D01*
X165120479Y-127167644D01*
X165120152Y-127165352D01*
X165380966Y-127165352D01*
X165381599Y-127175005D01*
X165383368Y-127186173D01*
X165432599Y-127380022D01*
X165436372Y-127390677D01*
X165520104Y-127572305D01*
X165525760Y-127582101D01*
X165641186Y-127745426D01*
X165648537Y-127754032D01*
X165791785Y-127893579D01*
X165800586Y-127900706D01*
X165966864Y-128011809D01*
X165976822Y-128017216D01*
X166160563Y-128096157D01*
X166171327Y-128099655D01*
X166361554Y-128142698D01*
X166370021Y-128140565D01*
X166370381Y-128140180D01*
X166372678Y-128130526D01*
X166372678Y-128122529D01*
X166672678Y-128122529D01*
X166676581Y-128135823D01*
X166690358Y-128137795D01*
X166786664Y-128123832D01*
X166797677Y-128121187D01*
X166987039Y-128056908D01*
X166997391Y-128052299D01*
X167171873Y-127954585D01*
X167181213Y-127948165D01*
X167334962Y-127820294D01*
X167342972Y-127812284D01*
X167470843Y-127658535D01*
X167477263Y-127649195D01*
X167574977Y-127474713D01*
X167579586Y-127464361D01*
X167643865Y-127274999D01*
X167646510Y-127263986D01*
X167660479Y-127167644D01*
X167660152Y-127165352D01*
X167920966Y-127165352D01*
X167921599Y-127175005D01*
X167923368Y-127186173D01*
X167972599Y-127380022D01*
X167976372Y-127390677D01*
X168060104Y-127572305D01*
X168065760Y-127582101D01*
X168181186Y-127745426D01*
X168188537Y-127754032D01*
X168331785Y-127893579D01*
X168340586Y-127900706D01*
X168506864Y-128011809D01*
X168516822Y-128017216D01*
X168700563Y-128096157D01*
X168711327Y-128099655D01*
X168901554Y-128142698D01*
X168910021Y-128140565D01*
X168910381Y-128140180D01*
X168912678Y-128130526D01*
X168912678Y-127167830D01*
X168908274Y-127152831D01*
X168906904Y-127151644D01*
X168899346Y-127150000D01*
X167937790Y-127150000D01*
X167922986Y-127154347D01*
X167920966Y-127165352D01*
X167660152Y-127165352D01*
X167658524Y-127153930D01*
X167645170Y-127150000D01*
X166690508Y-127150000D01*
X166675509Y-127154404D01*
X166674322Y-127155774D01*
X166672678Y-127163332D01*
X166672678Y-128122529D01*
X166372678Y-128122529D01*
X166372678Y-127167830D01*
X166368274Y-127152831D01*
X166366904Y-127151644D01*
X166359346Y-127150000D01*
X165397790Y-127150000D01*
X165382986Y-127154347D01*
X165380966Y-127165352D01*
X165120152Y-127165352D01*
X165118524Y-127153930D01*
X165105170Y-127150000D01*
X164150508Y-127150000D01*
X164135509Y-127154404D01*
X164134322Y-127155774D01*
X164132678Y-127163332D01*
X164132678Y-128122529D01*
X163832678Y-128122529D01*
X163832678Y-127167830D01*
X163828274Y-127152831D01*
X163826904Y-127151644D01*
X163819346Y-127150000D01*
X162857790Y-127150000D01*
X162842986Y-127154347D01*
X162840966Y-127165352D01*
X162580152Y-127165352D01*
X162578524Y-127153930D01*
X162565170Y-127150000D01*
X161610508Y-127150000D01*
X161595509Y-127154404D01*
X161594322Y-127155774D01*
X161592678Y-127163332D01*
X161592678Y-128122529D01*
X161292678Y-128122529D01*
X161292678Y-127167830D01*
X161288274Y-127152831D01*
X161286904Y-127151644D01*
X161279346Y-127150000D01*
X160317790Y-127150000D01*
X160302986Y-127154347D01*
X160300966Y-127165352D01*
X160040152Y-127165352D01*
X160038524Y-127153930D01*
X160025170Y-127150000D01*
X159070508Y-127150000D01*
X159055509Y-127154404D01*
X159054322Y-127155774D01*
X159052678Y-127163332D01*
X159052678Y-128122529D01*
X158752678Y-128122529D01*
X158752678Y-127167830D01*
X158748274Y-127152831D01*
X158746904Y-127151644D01*
X158739346Y-127150000D01*
X157777790Y-127150000D01*
X157762986Y-127154347D01*
X157760966Y-127165352D01*
X156000000Y-127165352D01*
X156000000Y-126832293D01*
X157764418Y-126832293D01*
X157766822Y-126846488D01*
X157779360Y-126850000D01*
X158734848Y-126850000D01*
X158749847Y-126845596D01*
X158751034Y-126844226D01*
X158752678Y-126836668D01*
X158752678Y-126832170D01*
X159052678Y-126832170D01*
X159057082Y-126847169D01*
X159058452Y-126848356D01*
X159066010Y-126850000D01*
X160025992Y-126850000D01*
X160040309Y-126845796D01*
X160042339Y-126833856D01*
X160042195Y-126832293D01*
X160304418Y-126832293D01*
X160306822Y-126846488D01*
X160319360Y-126850000D01*
X161274848Y-126850000D01*
X161289847Y-126845596D01*
X161291034Y-126844226D01*
X161292678Y-126836668D01*
X161292678Y-126832170D01*
X161592678Y-126832170D01*
X161597082Y-126847169D01*
X161598452Y-126848356D01*
X161606010Y-126850000D01*
X162565992Y-126850000D01*
X162580309Y-126845796D01*
X162582339Y-126833856D01*
X162582195Y-126832293D01*
X162844418Y-126832293D01*
X162846822Y-126846488D01*
X162859360Y-126850000D01*
X163814848Y-126850000D01*
X163829847Y-126845596D01*
X163831034Y-126844226D01*
X163832678Y-126836668D01*
X163832678Y-126832170D01*
X164132678Y-126832170D01*
X164137082Y-126847169D01*
X164138452Y-126848356D01*
X164146010Y-126850000D01*
X165105992Y-126850000D01*
X165120309Y-126845796D01*
X165122339Y-126833856D01*
X165122195Y-126832293D01*
X165384418Y-126832293D01*
X165386822Y-126846488D01*
X165399360Y-126850000D01*
X166354848Y-126850000D01*
X166369847Y-126845596D01*
X166371034Y-126844226D01*
X166372678Y-126836668D01*
X166372678Y-126832170D01*
X166672678Y-126832170D01*
X166677082Y-126847169D01*
X166678452Y-126848356D01*
X166686010Y-126850000D01*
X167645992Y-126850000D01*
X167660309Y-126845796D01*
X167662339Y-126833856D01*
X167662195Y-126832293D01*
X167924418Y-126832293D01*
X167926822Y-126846488D01*
X167939360Y-126850000D01*
X168894848Y-126850000D01*
X168909847Y-126845596D01*
X168911034Y-126844226D01*
X168912678Y-126836668D01*
X168912678Y-125876667D01*
X168908932Y-125863909D01*
X168894252Y-125862003D01*
X168769362Y-125883464D01*
X168758431Y-125886393D01*
X168570796Y-125955615D01*
X168560589Y-125960483D01*
X168388713Y-126062738D01*
X168379555Y-126069392D01*
X168229196Y-126201254D01*
X168221406Y-126209463D01*
X168097594Y-126366518D01*
X168091429Y-126376011D01*
X167998311Y-126553000D01*
X167993978Y-126563461D01*
X167934676Y-126754444D01*
X167932320Y-126765526D01*
X167924418Y-126832293D01*
X167662195Y-126832293D01*
X167658786Y-126795191D01*
X167656722Y-126784058D01*
X167602438Y-126591583D01*
X167598381Y-126581013D01*
X167509930Y-126401652D01*
X167504011Y-126391994D01*
X167384360Y-126231762D01*
X167376779Y-126223342D01*
X167229928Y-126087595D01*
X167220943Y-126080700D01*
X167051813Y-125973987D01*
X167041722Y-125968846D01*
X166855983Y-125894743D01*
X166845111Y-125891522D01*
X166690166Y-125860703D01*
X166677494Y-125861836D01*
X166672678Y-125876749D01*
X166672678Y-126832170D01*
X166372678Y-126832170D01*
X166372678Y-125876667D01*
X166368932Y-125863909D01*
X166354252Y-125862003D01*
X166229362Y-125883464D01*
X166218431Y-125886393D01*
X166030796Y-125955615D01*
X166020589Y-125960483D01*
X165848713Y-126062738D01*
X165839555Y-126069392D01*
X165689196Y-126201254D01*
X165681406Y-126209463D01*
X165557594Y-126366518D01*
X165551429Y-126376011D01*
X165458311Y-126553000D01*
X165453978Y-126563461D01*
X165394676Y-126754444D01*
X165392320Y-126765526D01*
X165384418Y-126832293D01*
X165122195Y-126832293D01*
X165118786Y-126795191D01*
X165116722Y-126784058D01*
X165062438Y-126591583D01*
X165058381Y-126581013D01*
X164969930Y-126401652D01*
X164964011Y-126391994D01*
X164844360Y-126231762D01*
X164836779Y-126223342D01*
X164689928Y-126087595D01*
X164680943Y-126080700D01*
X164511813Y-125973987D01*
X164501722Y-125968846D01*
X164315983Y-125894743D01*
X164305111Y-125891522D01*
X164150166Y-125860703D01*
X164137494Y-125861836D01*
X164132678Y-125876749D01*
X164132678Y-126832170D01*
X163832678Y-126832170D01*
X163832678Y-125876667D01*
X163828932Y-125863909D01*
X163814252Y-125862003D01*
X163689362Y-125883464D01*
X163678431Y-125886393D01*
X163490796Y-125955615D01*
X163480589Y-125960483D01*
X163308713Y-126062738D01*
X163299555Y-126069392D01*
X163149196Y-126201254D01*
X163141406Y-126209463D01*
X163017594Y-126366518D01*
X163011429Y-126376011D01*
X162918311Y-126553000D01*
X162913978Y-126563461D01*
X162854676Y-126754444D01*
X162852320Y-126765526D01*
X162844418Y-126832293D01*
X162582195Y-126832293D01*
X162578786Y-126795191D01*
X162576722Y-126784058D01*
X162522438Y-126591583D01*
X162518381Y-126581013D01*
X162429930Y-126401652D01*
X162424011Y-126391994D01*
X162304360Y-126231762D01*
X162296779Y-126223342D01*
X162149928Y-126087595D01*
X162140943Y-126080700D01*
X161971813Y-125973987D01*
X161961722Y-125968846D01*
X161775983Y-125894743D01*
X161765111Y-125891522D01*
X161610166Y-125860703D01*
X161597494Y-125861836D01*
X161592678Y-125876749D01*
X161592678Y-126832170D01*
X161292678Y-126832170D01*
X161292678Y-125876667D01*
X161288932Y-125863909D01*
X161274252Y-125862003D01*
X161149362Y-125883464D01*
X161138431Y-125886393D01*
X160950796Y-125955615D01*
X160940589Y-125960483D01*
X160768713Y-126062738D01*
X160759555Y-126069392D01*
X160609196Y-126201254D01*
X160601406Y-126209463D01*
X160477594Y-126366518D01*
X160471429Y-126376011D01*
X160378311Y-126553000D01*
X160373978Y-126563461D01*
X160314676Y-126754444D01*
X160312320Y-126765526D01*
X160304418Y-126832293D01*
X160042195Y-126832293D01*
X160038786Y-126795191D01*
X160036722Y-126784058D01*
X159982438Y-126591583D01*
X159978381Y-126581013D01*
X159889930Y-126401652D01*
X159884011Y-126391994D01*
X159764360Y-126231762D01*
X159756779Y-126223342D01*
X159609928Y-126087595D01*
X159600943Y-126080700D01*
X159431813Y-125973987D01*
X159421722Y-125968846D01*
X159235983Y-125894743D01*
X159225111Y-125891522D01*
X159070166Y-125860703D01*
X159057494Y-125861836D01*
X159052678Y-125876749D01*
X159052678Y-126832170D01*
X158752678Y-126832170D01*
X158752678Y-125876667D01*
X158748932Y-125863909D01*
X158734252Y-125862003D01*
X158609362Y-125883464D01*
X158598431Y-125886393D01*
X158410796Y-125955615D01*
X158400589Y-125960483D01*
X158228713Y-126062738D01*
X158219555Y-126069392D01*
X158069196Y-126201254D01*
X158061406Y-126209463D01*
X157937594Y-126366518D01*
X157931429Y-126376011D01*
X157838311Y-126553000D01*
X157833978Y-126563461D01*
X157774676Y-126754444D01*
X157772320Y-126765526D01*
X157764418Y-126832293D01*
X156000000Y-126832293D01*
X156000000Y-120551362D01*
X156019685Y-120484323D01*
X156036319Y-120463681D01*
X161463681Y-115036319D01*
X161525004Y-115002834D01*
X161551362Y-115000000D01*
X171500000Y-115000000D01*
X175000000Y-111500000D01*
X175000000Y-78051362D01*
X175019685Y-77984323D01*
X175025789Y-77976748D01*
X189548688Y-77976748D01*
X189561168Y-78167149D01*
X189562937Y-78178319D01*
X189609906Y-78363260D01*
X189613679Y-78373916D01*
X189693563Y-78547198D01*
X189699219Y-78556994D01*
X189765247Y-78650422D01*
X189775669Y-78658678D01*
X189788757Y-78651762D01*
X190427912Y-78012607D01*
X190435404Y-77998887D01*
X190435275Y-77997081D01*
X190431093Y-77990574D01*
X189788443Y-77347924D01*
X189775808Y-77341025D01*
X189765289Y-77348697D01*
X189729679Y-77393867D01*
X189723513Y-77403362D01*
X189634676Y-77572214D01*
X189630345Y-77582669D01*
X189573763Y-77764894D01*
X189571411Y-77775961D01*
X189548985Y-77965438D01*
X189548688Y-77976748D01*
X175025789Y-77976748D01*
X175036319Y-77963681D01*
X178463681Y-74536319D01*
X178525004Y-74502834D01*
X178551362Y-74500000D01*
X189948638Y-74500000D01*
X190015677Y-74519685D01*
G37*
%TD.AperFunction*%
%TD*%
M02*
