M48
; DRILL file {KiCad 6.0.2-378541a8eb~116~ubuntu20.04.1} date Tue 08 Mar 2022 03:37:14 PM EST
; FORMAT={-:-/ absolute / metric / decimal}
; #@! TF.CreationDate,2022-03-08T15:37:14-05:00
; #@! TF.GenerationSoftware,Kicad,Pcbnew,6.0.2-378541a8eb~116~ubuntu20.04.1
; #@! TF.FileFunction,Plated,1,2,PTH
FMAT,2
METRIC
; #@! TA.AperFunction,Plated,PTH,ViaDrill
T1C0.500
; #@! TA.AperFunction,Plated,PTH,ComponentDrill
T2C0.600
; #@! TA.AperFunction,Plated,PTH,ComponentDrill
T3C0.800
; #@! TA.AperFunction,Plated,PTH,ComponentDrill
T4C0.900
; #@! TA.AperFunction,Plated,PTH,ComponentDrill
T5C1.000
; #@! TA.AperFunction,Plated,PTH,ComponentDrill
T6C1.200
; #@! TA.AperFunction,Plated,PTH,ComponentDrill
T7C3.700
; #@! TA.AperFunction,Plated,PTH,ComponentDrill
T8C5.300
%
G90
G05
T1
X98.2Y-137.6
X100.8Y-136.4
X106.2Y-135.3
X108.8Y-134.3
X194.1Y-96.5
T2
X159.525Y-87.5
X160.689Y-84.689
X160.689Y-90.311
X163.5Y-83.525
X163.5Y-91.475
X166.311Y-84.689
X166.311Y-90.311
X167.475Y-87.5
X178.525Y-87.5
X178.525Y-106.5
X179.689Y-84.689
X179.689Y-90.311
X179.689Y-103.689
X179.689Y-109.311
X182.5Y-83.525
X182.5Y-91.475
X182.5Y-102.525
X182.5Y-110.475
X185.311Y-84.689
X185.311Y-90.311
X185.311Y-103.689
X185.311Y-109.311
X186.475Y-87.5
X186.475Y-106.5
X197.525Y-87.5
X197.525Y-106.5
X198.689Y-84.689
X198.689Y-90.311
X198.689Y-103.689
X198.689Y-109.311
X201.5Y-83.525
X201.5Y-91.475
X201.5Y-102.525
X201.5Y-110.475
X204.311Y-84.689
X204.311Y-90.311
X204.311Y-103.689
X204.311Y-109.311
X205.475Y-87.5
X205.475Y-106.5
T3
X190.653Y-78.0
X194.153Y-78.0
T4
X172.5Y-52.725
X172.5Y-55.265
X172.5Y-65.225
X172.5Y-67.765
T5
X98.223Y-127.0
X100.763Y-127.0
X106.223Y-127.0
X108.763Y-127.0
X114.683Y-127.0
X117.223Y-127.0
X119.763Y-127.0
X125.683Y-127.0
X128.223Y-127.0
X130.763Y-127.0
X136.683Y-127.0
X139.223Y-127.0
X141.763Y-127.0
X147.683Y-127.0
X150.223Y-127.0
X152.763Y-127.0
X158.903Y-127.0
X161.443Y-127.0
X163.983Y-127.0
X166.523Y-127.0
X169.063Y-127.0
X171.603Y-127.0
X174.143Y-127.0
X176.683Y-127.0
X179.223Y-127.0
X181.763Y-127.0
T6
X83.2Y-77.623
X83.2Y-118.123
X88.2Y-77.623
X88.2Y-118.123
X93.2Y-77.623
X93.2Y-118.123
X111.172Y-86.8
X114.983Y-86.8
X118.792Y-86.8
X131.29Y-86.807
X135.1Y-86.807
X138.91Y-86.807
T7
X60.0Y-50.0
X60.0Y-135.0
X210.0Y-50.0
X210.0Y-135.0
T8
X163.5Y-87.5
X182.5Y-87.5
X182.5Y-106.5
X201.5Y-87.5
X201.5Y-106.5
T0
M30
